<svg width="236" height="220" viewBox="0 0 236 220" xmlns="http://www.w3.org/2000/svg" xmlns:xlink="http://www.w3.org/1999/xlink"><svg id="facebook" data-name="Layer 1" width="21.23" height="42.01" viewBox="0 0 21.23 42.01" x="115.78" y="70"><defs><style>.acls-1{fill:#fff}</style></defs><title>facebook</title><path class="acls-1" d="M21.23.31V7H17.4a3.55 3.55 0 0 0-2.85.91 4.26 4.26 0 0 0-.74 2.72v4.77H21l-1 7.47h-6.19V42H6.27V22.85H0v-7.47h6.27V9.85q0-4.69 2.55-7.28A9 9 0 0 1 15.63 0a39.57 39.57 0 0 1 5.6.31z"/></svg><svg width="56" height="56" viewBox="0, 0, 56, 56" id="healthcare" x="116" y="118"><path d="M8.658 28.5h39.684M28.5 8.658v39.684" fill-opacity="0" stroke="#FF0C0C" stroke-width="13" stroke-linejoin="bevel"/></svg><svg id="instagram" data-name="Layer 1" width="42.01" height="42.01" viewBox="0 0 42.01 42.01" x="137.01" y="70"><defs><style>.ccls-1{fill:#fff}</style></defs><title>instagram</title><path class="ccls-1" d="M37.25 35.49V17.77h-3.69a11.77 11.77 0 0 1 .57 3.58 12.12 12.12 0 0 1-1.75 6.36 12.76 12.76 0 0 1-4.76 4.59 13.13 13.13 0 0 1-6.56 1.7 12.78 12.78 0 0 1-9.19-3.71 12 12 0 0 1-3.83-9 11.77 11.77 0 0 1 .49-3.56H4.68v17.76a1.63 1.63 0 0 0 1.6 1.67h29.3a1.63 1.63 0 0 0 1.17-.47 1.59 1.59 0 0 0 .5-1.2zm-7.77-14.57A7.75 7.75 0 0 0 27 15.14a8.28 8.28 0 0 0-6-2.4 8.25 8.25 0 0 0-5.91 2.39 7.75 7.75 0 0 0-2.47 5.78 7.75 7.75 0 0 0 2.47 5.79A8.25 8.25 0 0 0 21 29.1a8.28 8.28 0 0 0 6-2.4 7.75 7.75 0 0 0 2.48-5.78zm7.76-9.84V6.56a1.84 1.84 0 0 0-.54-1.31 1.8 1.8 0 0 0-1.31-.56h-4.78a1.8 1.8 0 0 0-1.31.56 1.84 1.84 0 0 0-.54 1.31v4.52A1.87 1.87 0 0 0 30.6 13h4.8a1.87 1.87 0 0 0 1.85-1.89zM42 5.39v31.23A5.41 5.41 0 0 1 36.62 42H5.39a5.19 5.19 0 0 1-3.8-1.59A5.19 5.19 0 0 1 0 36.62V5.39a5.19 5.19 0 0 1 1.59-3.8A5.19 5.19 0 0 1 5.39 0h31.23a5.19 5.19 0 0 1 3.8 1.59A5.19 5.19 0 0 1 42 5.39z"/></svg><svg width="180" height="70" viewBox="0, 0, 180, 70" id="logo"><text transform="translate(90.135 35.133)"><tspan x="-78.399" y="-4.44" font-family="Baskerville-SemiBold" font-size="33" fill="#FFF">James Lee</tspan> <tspan x="78.399" y="-4.44" font-family="Baskerville-SemiBold" font-size="24" fill="#FFF"> </tspan> <tspan x="-66.152" y="25.56" font-family="Baskerville-SemiBold" font-size="24" fill="#FFF">&amp; Company</tspan></text></svg><svg width="64" height="48" viewBox="0, 0, 64, 48" id="mail" y="70"><path d="M0 0v8l32 16L64 8V0H0zm0 16v32h64V16L32 32z" fill="#594141"/></svg><svg width="56" height="56" viewBox="0, 0, 56, 56" id="management-consulting" x="60" y="118"><path d="M15.646 20.131c2.381 0 4.312 1.602 4.312 3.578 0 1.976-1.931 3.577-4.312 3.577-2.381 0-4.311-1.601-4.311-3.577s1.93-3.578 4.311-3.578z" fill="#FFF"/><path d="M15.646 20.131c2.381 0 4.312 1.602 4.312 3.578 0 1.976-1.931 3.577-4.312 3.577-2.381 0-4.311-1.601-4.311-3.577s1.93-3.578 4.311-3.578z" fill-opacity="0" stroke="#E79159" stroke-width="1.5" stroke-linecap="round" stroke-linejoin="round"/><path d="M41.812 27.272c-2.382 0-4.312-1.602-4.312-3.578 0-1.975 1.93-3.577 4.312-3.577 2.381 0 4.311 1.602 4.311 3.577 0 1.976-1.93 3.578-4.311 3.578z" fill="#FFF"/><path d="M41.812 27.272c-2.382 0-4.312-1.602-4.312-3.578 0-1.975 1.93-3.577 4.312-3.577 2.381 0 4.311 1.602 4.311 3.577 0 1.976-1.93 3.578-4.311 3.578z" fill-opacity="0" stroke="#E79159" stroke-width="1.5" stroke-linecap="round" stroke-linejoin="round"/><path d="M9.5 30.5h12.048v17.796H9.5z" fill="#FFF"/><path d="M9.5 30.5h12.048v17.796H9.5z" fill-opacity="0" stroke="#E79159" stroke-width="2" stroke-linecap="round" stroke-linejoin="round"/><path d="M35.5 30.5h12.048v17.796H35.5z" fill="#FFF"/><path d="M35.5 30.5h12.048v17.796H35.5z" fill-opacity="0" stroke="#E79159" stroke-width="2" stroke-linecap="round" stroke-linejoin="round"/><path d="M31.841 19.296c-2.552.049-5.033-.478-7.436-1.288m-3.56-1.899c-1.894-1.402-3.163-3.337-3.345-5.711 0-4.914 6.421-8.898 14.341-8.898 7.92 0 14.341 3.984 14.341 8.898 0 4.915-6.421 8.898-14.341 8.898" fill-opacity="0" stroke="#E79159" stroke-width="1.5" stroke-linecap="round" stroke-linejoin="round"/><path d="M24.375 18.001l-.051.206m-3.081-1.875l-.014.432" fill-opacity="0" stroke="#E79159" stroke-linecap="round" stroke-linejoin="round"/><path d="M42.206 13.815l.304-.067v-.002l-.304.068-.001.001h.001m-16.501-4.79l.522.209h.001v-.001l-.522-.209-.001.001m14.555-.76l1.207-.221.001-.001-1.207.221h-.001v.001M25.889 3.444l.222.224h.001v-.001l-.222-.224-.001.001M39.95 6.369l.29.019h.001v-.001l-.29-.019h-.001v.001m-.763 1.25l2.035-.188.001-.001v-.001l-2.035.188-.001.001v.001m2.958 1.88l1.039-.105.001-.001v-.001l-1.039.105-.001.001v.001" fill="#E79159"/><path d="M39.751 8.336l1.655-.23.001-.001v-.001l-1.655.23-.001.001v.001m1.101-2.11l1.351-.144.001-.001V6.08l-1.351.144-.002.001.001.001m-.767-1.491l.217-.002.001-.001v-.001l-.217.002-.001.001v.001" fill="#E79159"/><path d="M23.669 13.012c6.166.683 13.445 1.277 19.243-1.208m-13.571 5.431c1.172-.01 2.35.438 3.535.251 1.087-.172 9.973-3.245 10.542-4.004.081-.109-1.276.442-3.191 1.376-2.347 1.145-4.818 1.797-7.195 2.815-.706.303 1.551-.082 2.284-.312a77.147 77.147 0 0 0 4.911-1.721c.841-.329 3.462-.988 2.565-.876-2.132.267-5.502 1.948-7.32 3.16-.483.322.304.068 1.877-.532 1.703-.65 3.399-1.317 5.099-1.971.61-.234 2.53-.563 1.877-.563-2.116 0-4.892 2.054-6.944 2.69-.604.187-1.846 1.07-1.846.438 0-.105 4.026-1.479 5.599-2.252 1.241-.61 2.087-1.133 1.877-1.189-1.47-.392-4.31 1.565-5.63 2.096-.598.24-4.619 2.308-2.597.876 1.846-1.308 3.915-2.302 5.944-3.285.925-.448 3.743-1.691 2.846-1.188-2.432 1.362-5.031 2.587-7.601 3.66-.776.324-2.876 1.521-2.378.844 1.485-2.014 5.323-3.223 7.508-4.254.62-.293 4.407-1.597 2.502-1.157-4.117.95-7.689 4.515-11.855 5.036-.787.098 1.429-.69 2.158-1.001a110.53 110.53 0 0 1 8.477-3.191c.164-.054-.338.067-.5.125a60.593 60.593 0 0 0-3.159 1.252c-.833.354-8.863 3.88-9.009 3.659-.551-.825 6.928-2.37 7.789-2.471.695-.081 2.768-.317 2.095-.125-3.042.869-9.321 1.651-9.321 1.721 0 .326 6.17-.875 6.913-.939.374-.032 1.502-.062 1.126-.062-1.448 0-2.87.824-4.223 1.251-.011.003-2.503.561-2.503.594 0 .174 5.971-.657 6.663-.657.618 0-1.235.062-1.845.157-1.678.261-3.334.566-5.036.625-4.443.156 3.818 0 4.598 0 .564 0-1.129.03-1.689.094-.11.013-7.776.424-5.318-.344" fill-opacity="0" stroke="#E79159" stroke-linecap="round" stroke-linejoin="round"/><path d="M24.274 14.952c2.94 2.27 7.892 1.991 11.48 2.033.844.01 3.378 0 2.534 0-3.346 0-6.666.344-10.01.407-.97.018-3.878.017-2.909-.031 2.745-.138 5.566.278 8.32.312.075.001 2.253.162 2.253-.156 0-.726-10.109 0-11.449 0-.9 0 1.795-.126 2.69-.219 2.175-.226 4.339-.528 6.506-.813.602-.08 2.244.272 1.815-.157-.346-.346-7.713.13-8.352.595-.223.161.35.315 2.221.406 1.842.09 3.692.107 5.536.125.96.01 3.556.679 2.878 0-2.314-2.314-8.775-.36-11.011-2.596-.377-.377 1.052.194 1.564.344 1.959.575 3.941 1.065 5.975 1.283.727.078 2.798.53 2.19.125-2.038-1.359-6.017-.702-8.352-.939-.579-.058-2.132.13-1.721-.281.418-.418 1.167.193 1.752.281 2.57.387 5.197.376 7.789.376 1.22 0 4.636.732 3.66 0-1.045-.784-7.403.029-7.445.031-.709.027-1.418.066-2.127.063-2.526-.014-5.456-.55-5.287-.72.302-.302.857-.039 1.283 0 2.928.27 7.88 2.003 10.698 1.064.783-.261-1.647-.196-2.471-.157-2.338.112-4.617.769-6.913 1.189-.727.133-2.915.199-2.19.344 1.42.284 3.027-.114 4.473-.156 1.345-.04 3.294-.007 3.316-.094.013-.051-1.774-.454-.657-.282m-6.819-8.07c4.017 2.513 9.079 2.454 13.67 2.502.959.01 3.837 0 2.877 0-1.668 0-3.336.032-5.005.032-1.605 0-3.211.022-4.817 0-1.796-.026-3.687-.495-5.474-.376-.163.011.281.175.438.219.993.278 2.092.435 3.097.594.95.151 10.286.899 10.635.376.108-.161-.668-.374-2.502-.595-2.719-.327-5.437-.429-8.133-.938-.975-.184-3.882-.431-2.909-.626 1.57-.314 13.433 2.722 13.92 1.627.422-.949-4.56-1.339-4.849-1.376-2.753-.358-1.567-.196-4.317-.595m-7.163-4.066c4.937 2.135 10.493 2.565 15.828 2.565 1.251 0-2.503-.015-3.754.031-3.352.123-7.327.796-10.635-.031-1.142-.286 2.337.282 3.503.438 3.271.437 6.568.608 9.854.907 1.706.155 3.55.235 3.378.407-.081.081-8.141-.911-8.977-1.001-3.666-.306-.404 0-3.003-.313-.27-.033-1.086-.063-.814-.063 2.952 0 7.081 1.071 10.073 1.596.701.122 1.391.303 2.096.406.176.026.531-.116.531.063 0 .913-1.71-.652-2.596-.876-3.223-.815-7.016-1.971-10.417-1.971-.994 0 1.926.514 2.91.657 2.961.43 6.467 1.029 9.415.563" fill-opacity="0" stroke="#E79159" stroke-linecap="round" stroke-linejoin="round"/><path d="M26.244 6.037c4.612.557 9.136 1.816 13.795 2.064.677.036 2.382.613 2.034.032-1.121-1.868-11.988-2.287-14.609-3.598-1.122-.561 2.446.561 3.66.876 2.916.757 5.807 1.609 8.728 2.346.975.246 3.735 1.187 2.971.532-.84-.72-17.454-2.668-10.166-1.064.991.219 12.344 1.434 12.356 1.471.012.035-7.378 1.35-7.476 2.033-.098.688 7.93.009 8.133.313.294.441-4.855 1.971-5.13 2.659-.192.479 1.542-.616 2.534-.219.583.233-.988 1.765-1.001 1.751-.21-.209 1.339-1.78 1.47-2.064.267-.58-.694-3.812-.25-3.629 1.786.736.895 4.358.5 4.161-.089-.045.675-2.38.72-2.628.085-.477-.084-1.818.219-1.439.858 1.073-.07 4.654-.563 4.16-.268-.267.594-.939.719-1.094.577-.722.667-1.492.719-2.378" fill-opacity="0" stroke="#E79159" stroke-linecap="round" stroke-linejoin="round"/><path d="M45.545 9.916c.126 1.76-.899 3.106-1.971 4.379-.081.096-.161.37-.25.282-.262-.262.494-.552.719-.845.608-.79.853-1.511.939-2.503.001-.014-.251-2.313-.469-1.876-.278.555.143 1.323-.344 1.908-.182.217.496-1.668-.094-2.534-.917-1.345-3.991-.465-3.629-.063.653.726 2.252.438 3.128.438m-14.921 4.974c3.343.064 6.713.954 10.073.563 1.412-.164 3.58-.857 2.596-1.032-2.373-.424-5.297.906-7.664 1.188-1.015.122-1.899.141-2.909.157-.375.006-1.502 0-1.126 0 4.127 0 7.658.879 11.543-1.064M29.904 7.069c3.55 1.389 7.268 1.03 10.917.438M27.308 9.853c4.463.641 8.934 1.203 13.451 1.376M26.025 9.603c4.238.725 8.698 1.361 12.982.782M26.62 9.572c4.26.014 8.73 1.211 12.981.437M28.34 13.294c4.217-.114 8.469.31 12.669-.156M26.463 10.76c3.601 1.668 9.74 2.547 13.483.751m-9.103 2.628c3.483.558 6.763.298 10.135-.689M28.403 8.445c3.962.301 7.995.09 11.511-1.939m-13.638-.594c4.158.664 9.058 3.659 13.294 2.002M28.966 5.505C33.179 7.038 38.388 8.132 42.73 6.6m-9.135-.313c3.119.43 6.144 1.189 9.322 1.189m1.126.938c.365.656 1.169 1.496.282 1.94" fill-opacity="0" stroke="#E79159" stroke-linecap="round" stroke-linejoin="round"/><path d="M44.325 8.352c.199.29 1.586 2.872.688 3.096-.139.035.78-1.224.626-2.095-.142-.801-2.222-2.336-2.878-2.753-3.971-2.527-7.616-2.033-12.169-2.033m11.324 3.785c-3.614-1.502-7.475-3.23-11.48-3.379m10.417 1.721c-3.934-1.233-7.864-2.961-12.044-3.128M42.26 6.443c-4.305-.749-9.044-2.671-13.419-1.313m14.89 1.501c-4.395-3.742-10.009-5.034-15.672-3.535m12.45 3.128c-3.303-3.096-7.565-3.931-11.981-3.128m-8.164 7.007c3.976 2.017 8.74 3.889 13.169 2.065M21.02 10.51c4.607 2.38 9.796 2.392 14.859 2.19m-13.451-.72c4.005 1.859 8.614 1.783 12.951 1.783m-13.358 1.158c4.232.962 8.597.389 12.888.719m-13.388-2.158c4.206 1.343 9.041 1.995 13.294.375m-11.949-.407c3.943 1.063 8.046.979 12.043.313m-12.981-2.127c4.562.212 9.414.72 13.795-.907m-13.264-.751c3.922 1.338 8.232 1.697 12.012-.25m-12.481.407c4.063 1.256 8.518.308 12.294-1.408m-11.606 0c3.846.62 7.593.263 11.293-.97m-10.886.469c3.951.162 7.98.097 11.824-.938m-9.978-1.001c3.373 1.841 7.601 1.577 10.76-.563M22.334 6.881c4.463.211 8.921.144 13.326-.657M22.71 8.633c3.64.847 7.442.205 11.104-.188M21.365 9.478c3.59 1.117 7.645.951 11.261 0m-10.229.375c3.268.133 6.494-.063 9.728-.5m-9.947-.501c3.001.376 5.972.782 9.009.782m-9.072-1.251c3.242.314 6.47.5 9.729.5m-9.103-.813c2.722 1.387 5.943.125 8.759-.25m-9.197-.031c3.332.088 6.655-.055 9.979-.188m-9.479-.282c3.357.24 6.706.407 10.073.407m-9.979 1.627c2.827.841 5.739 1.056 8.665.594m-7.976 1.408c2.903 1.705 6.543.56 9.415-.626M22.616 7.476c2.488 2.377 7.008 2.021 10.166 1.282m-8.915 2.096c3.428.211 6.86.26 10.292.031m-8.227-.969c3.714.384 7.219-.953 10.854-1.377m-12.45-2.002c3.602 1.522 7.809 1.193 11.574.532M23.93 5.943c3.588.432 7.214.407 10.823.407M24.336 5.286c3.145.135 6.306.315 9.385-.438m-7.696-.062c2.522.339 5.067.305 7.602.5m-7.852-.813c3.213.668 6.568.607 9.822.281m-9.353-.751c3.111.246 6.235.157 9.353.157m-7.1.313c2.967.316 5.868 1.173 8.727 2.002m-6.225-3.691c3.556.117 7.602.615 10.73 2.439M32.97 3.691c3.676.29 7.71.88 10.291 3.66M30.217 4.535c3.825-.212 7.695.419 10.636 3.066m-9.322-3.848c3.304-.009 6.997.754 9.228 3.379m-9.478-3.097c4.053-.028 7.494 2.095 10.197 4.911m-20.61 2.995c4.293.336 9.587 2.186 13.579-.125m-13.139 2.137c2.394.358 12.31-3.088 12.762-1.509m-12.133 2.012c3.508.224 6.944-.32 10.372-.943m-10.435.063c7.746.387 8.416.091 15.339-3.521M21.245 11.25c5.129.948 9.322-1.209 13.893-3.143M20.68 12.444c3.271.139 6.5-.55 9.681-1.257m-9.996 1.886c4.443.469 8.448-.61 12.573-2.137m-11.756.44c4.978 2.046 9.353.539 14.145-1.258m-14.899.692c2.557.018 11.208-.655 12.07-2.955M20.051 9.427c3.929.655 7.671-.755 11.441-1.509m-11.127 3.458c2.856.282 5.537.083 8.235-.881m-7.983 1.195c2.931.111 5.832-.077 8.738-.44m-9.87-1.823c4.219-.55 8.914 1.555 12.824-.503m-10.686.503c4.322.258 8.64-.315 12.95-.315m-12.95-.88c3.822.133 7.601-.168 11.315-1.068m-11.253.063c3.5.163 6.9-.812 10.373-1.069m-11.63 1.006c3.43.379 6.501-.727 9.681-1.823m-9.932 3.017c4.561.513 9.137.178 13.704-.063m-12.95.817c3.899-.278 7.628.832 11.378 1.698M20.051 9.678c4.213.089 8.347.755 12.573.755m-11.63 1.383c4.515.7 9.093.681 13.641 1.005m-11.944-.377c4.018.061 7.972.121 11.944-.503M20.617 6.472c3.569-.936 7.167-1.467 10.687-2.64m-9.493 2.766c3.843-.052 8.105-4.067 12.007-2.766m-11.19 2.703a61.49 61.49 0 0 1 13.391-.126m-8.676-1.823c4.414-.278 9.386-1.455 13.202 1.32M21.937 6.912c4.89-.994 9.1-5.586 14.27-5.155M22.314 5.341c4.021-1.075 8.119-1.321 12.259-1.321M23.948 5.403c3.928-1.21 7.541-3.143 11.693-3.143M24.326 4.649c3.575-.493 7.483-1.617 10.561.692m-10.939-.692c3.765-1.832 7.661-2.766 11.819-2.766M23.571 4.775c4.17-.108 8.203-1.383 12.385-1.383m-11.819.566c3.285-.623 6.575-1.069 9.933-1.069m-8.801 1.509c2.786-1.59 6.071-1.709 9.178-1.321m-7.732 2.704c4.54-1.7 8.965-1.961 13.264.188M22.628 7.352c4.643-4.65 11.541-7.696 16.848-2.389M22.314 6.032c4.468-3.841 8.02-5.278 13.327-2.829M20.239 7.729c4.148-1.975 10.479-5.314 14.774-2.451M21.12 7.415c2.872-1.903 5.923-3.603 9.115-4.903M19.611 7.101c3.3-1.465 6.879-2.07 10.435-2.515m-9.618 3.395c2.15-2.481 5.145-4.484 8.298-5.469m-9.555 5.595c2.533-3.448 7.173-4.393 11.19-4.527m-9.996 4.275c2.22-2.268 4.282-4.905 7.481-5.658m-7.104 4.715c2.351-1.334 4.451-3.16 7.041-4.023m-6.789 3.709c1.596-1.536 3.183-3.067 5.092-4.212m-3.898 3.772c1.54-.996 3.127-1.913 4.715-2.829m-6.664 2.64a59.03 59.03 0 0 1 3.458-1.257m.817 8.047c3.324.375 6.617 1.22 9.933 1.76m-11.63-3.206c4.041 1.76 7.869 2.829 12.321 2.829m-14.71-2.012c3.794 1.374 7.694 1.758 11.693 1.949M19.799 12.57c4.618-.045 9.248.018 13.831.629m-13.265-.692c2.967.071 5.753.696 8.738.503m-10.498-1.823c3.044.584 6.153.566 9.241.566m-8.172-.692c3.248.199 6.489.315 9.744.315m-10.562.188c2.696-.665 5.584.437 7.859-1.383m-7.544-.566c2.258.159 4.332-.04 6.475-.754m-6.978.817h6.601m-5.91 1.383c1.61-.326 4.393.762 5.658-.503m-6.161.503h4.087m-3.081.44c1.637-.055 3.269.063 4.904.063m-5.595.314c1.154-.15 2.957.538 3.646-.565m-3.018-1.069h2.452m-3.395-.44h2.452m-2.844-.583c1.405-.497 2.883-.65 4.361-.724m-4.18-.06c2.001-.425 4.033-.442 6.068-.442m-4.561.965c1.441-.302 2.92-.28 4.38-.442m-2.27-3.597c2.01-.974 4.354-1.364 6.49-.623m-9.866 5.264c1.896.038 3.798-.092 5.687.101m-4.662 1.065c1.315-.199 2.611-.062 3.898.221m-4.642-1.065c1.1.361 2.261.388 3.396.542m-3.617.282c1.627-.658 3.238-.581 4.763.221m-5.144-.442c.797-.447 4.296.223 3.616.261m-2.933-.402c.903-.08 1.71.053 2.572.302m-2.653-.503c1.2-.105 2.39-.21 3.517.221m-4.119-.643c1.414-.141 2.739.207 4.079.603m-4.18.301c2.256-.014 4.403.977 6.37 1.99m-4.963-.342c2.588.291 5.034 1.22 7.656 1.487m-8.199-1.286c2.439.174 4.947.605 7.154 1.688m-7.817-.985c1.26-1.491 3.871-.648 5.546-.502m-4.983-.944c1.454 1.217 3.078 2.206 4.782 3.034m-5.044-2.412c.699 1.997 3.21 2.49 5.024 3.015m-5.385-3.879c1.664 2.186 4.806 3.713 7.515 4.1m-5.506-1.387c1.858.912 3.839 1.413 5.868 1.909m-5.627-1.467c1.931.494 3.881.503 5.868.503m-5.647-.603c1.852 1.033 3.848 2.293 5.928 2.813m-5.325-1.246c2.506.286 5.032.453 7.556.301m-6.169 1.126c1.323-.737 2.54-1.632 3.898-2.311m-3.633 2.78c.825-.433 1.574-.99 2.327-1.534m-2.207 1.418c.711-.4 1.328-.93 1.925-1.479m-2.333.72c.764-1.272.446-.721.967-1.644m-1.768 2.231c.519-.672.888-1.436 1.266-2.191m-1.387 2.216c.845-1.957.483-1.118 1.085-2.517m-1.065 2.09c.404-.617.625-1.319.965-1.969m-.976 1.085c.58-.995.324-.575.755-1.266m-.898 1.97c.305-1.074.286-2.196.416-3.297m-.704.061c.695.493 1.094 1.279 1.889 1.627m-2.893-.864c1.267.078 2.292.841 3.536 1.126m-3.577-1.246c1.075.54 1.969 1.299 3.135 1.668m-2.251-.503c.867-.019 1.721.212 2.573.362m-2.452-1.005c.816.205 1.63.43 2.452.623M28.632 2.73c-3.307 1.098-5.629 4.177-8.4 6.21m1.024 7.425l.197-1.045m-.084.955l.326-1.009" fill-opacity="0" stroke="#E79159" stroke-linecap="round" stroke-linejoin="round"/><path d="M21.055 16.4l-.004.517m-.013 2.805c1.249-.502 2.431-1.151 3.63-1.76m-1.818-.545l.079-.09m-1.374.864c.018-.446.31-.824.52-1.207m-.872-.265c.506.826.448 1.862-.039 2.687m-.086-2.468c.337.837.526 1.594.469 2.507m-.711-3.203c.243.883.354 1.804.391 2.719m.117-1.383c.04.656.001 1.28-.196 1.899m.016-1.258c.01.348-.014.695-.047 1.039m.086-.656c.006.278-.097.541-.156.804m.07-.187c.034.128-.025.25-.039.367m1.242-.859c.397-.631.691-1.3 1.36-1.641m-1.274 1.211c.387-.387.196-.212.571-.531m-1.969-1.594c.427 1.209.134 2.309-.008 3.476m19.573 19.824c3.622.627 6.49-.476 1.65.734" fill-opacity="0" stroke="#E79159" stroke-linecap="round" stroke-linejoin="round"/><path d="M37.603 39.981h6.934c.468 0 1.735-.331 1.404 0-.872.872-5.619.217-6.848.344-.848.087-3.312.339-2.493.573 1.152.329 2.695.086 3.868.086h1.662c7.78 0-5.162-.327-4.727.688.132.308 12.141.057 5.071.057-.688 0-1.376-.037-2.063 0-.178.009-2.471.087-2.837.544-.193.242.608.144.917.144 1.72 0 3.438-.006 5.158-.058.496-.015 1.986-.028 1.489-.028-2.221 0-4.46.066-6.675.229-.732.054-2.908.249-2.178.315 1.945.177 3.904-.341 5.845-.401.631-.02 2.503-.067 1.891.086-.75.187-7.593-.409-7.593.802 0 .328 8.739.021 8.739.172 0 .053-8.567.13-8.567 1.06 0 .547 5.307.286 6.017.258.869-.034 3.315-.477 2.607.029-1.309.935-4.312.429-5.873.658-.652.096-2.496.479-1.862.659 1.651.472 3.801-.165 5.501-.143.837.011 3.258.231 2.12.401-1.196.18-7.966-.485-8.252-.028-.104.167 1.227.172 2.034.172 1.695 0 3.386-.054 5.072.143.428.05 1.619.047 1.26.286-1.013.676-2.423-.265-3.638-.343-.601-.039-1.204-.024-1.805-.029-.526-.005-1.051-.023-1.576 0-5.661.246 5.157.733 5.157 1.146 0 .185-2.594-.856-4.441-1.146-.812-.128-3.263-.105-2.464.086 1.54.367 3.376.18 4.957.258.648.032 2.598.028 1.948.028-1.877 0-3.565-.782-5.3-1.432-.258-.097-1-.13-.774-.287 1.002-.693 6.638-.399 6.934-.917.223-.39-.897-.093-1.347-.086-1.85.033-3.606.343-5.444.459-2.842.18 2.13-1.001 2.579-1.089 1.254-.245 2.753-.339 2.75-.344-.316-.633-6.102.03-6.102-.229 0-.484 5.265-.836 5.644-.859.811-.051 2.692.656 2.435-.115-.177-.531-6.929-.609-7.993-.372-.439.097.9-.002 1.346-.058 1.316-.164 2.598-.434 3.925-.515.612-.038 2.344.196 1.834-.144-1.31-.873-3.831-.597-5.329-.63-.497-.011-1.977.069-1.49-.029 1.787-.357 3.688-.344 5.501-.344.468 0 1.872-.028 1.404-.028-1.98 0-4.893-.605-6.733.315-.265.133.592.065.888.057.8-.019 6.024-.755 6.447.373.268.714-1.501.321-2.264.344-1.519.044-4.18-.24-5.558.745-.369.263.346.171 2.063.171.361 0 4.649-.17 4.527.688-.065.45-5.769 1.085-6.934 1.834-1.019.655 5.583.359 5.587.372.259.865-5.149 1.719-4.842 1.748 1.951.186 4.323-.651 4.24-.688-1.109-.493-2.714-.191-3.867-.028-.425.059-1.682.173-1.261.257.672.135 2.317-.574 2.951-.716.061-.013 1.817-.304 1.748-.43-.696-1.251-4.457-.623-4.183-.257.23.307 2.502-.089 2.779-.115.564-.053 2.255-.132 1.69-.172-.594-.042-4.935.063-3.954.946m-.258-.029c1.883-.319 3.727-.617 5.645-.573m-5.96-1.347c3.486-.93 7.29-1.804 10.916-1.232m-5.873.344c-.664.119-1.334.149-2.006.172m-1.117-1.748c.145-.333 8.697-.372 5.071-.372" fill-opacity="0" stroke="#E79159" stroke-linecap="round" stroke-linejoin="round"/><path d="M38.95 40.697c-5.895-.309 6.14-.54 6.36-.687.309-.206-.719-.196-1.088-.229-1.847-.168-3.707-.144-5.559-.144-.42 0-1.637.246-1.26.058 1.961-.981 4.808-1.032 6.962-1.032.85 0-1.701-.032-2.55 0-1.553.06-4.194-.055-5.702.631-.592.269 1.261-.325 1.891-.488 1.751-.452 3.525-.666 5.329-.716.497-.014 1.969-.133 1.49 0-1.785.496-6.827-.023-7.907 1.777-.232.385.897.112 1.346.086 1.648-.097 3.261-.509 4.871-.831.283-.057-.573.075-.86.114-1.592.217-4.607 1.253-6.131.745-.019-.006.309-.057 2.091-.516 1.505-.386 3.01-.842 4.556-1.031.332-.041 1.332.002 1.003-.057-1.515-.271-3.05-.272-4.584-.287-.536-.005-2.137.024-1.605.086 2.457.289 5.034-.458 7.507-.458h-1.691c-1.839 0-3.597.087-5.415.372-.435.068-1.655.043-1.289.287.241.16 6.342-.974 7.478-.974.229 0-.459-.004-.688 0-1.754.024-3.493.144-5.243.257-.258.017-1.031.032-.773.058 1.21.121 2.762-.661 3.953-.888 1.29-.247 5.239-.344 3.926-.344-2.605 0-5.22-.076-7.822.028-.377.015-1.344-.129-1.118.172.263.35 5.033-.662 6.963-.687.487-.007 1.948 0 1.461 0h-2.55c-.774 0-1.548-.021-2.321 0-.955.026-2.356-.005-3.266.515-.771.441 1.778.08 2.665.029a95.079 95.079 0 0 1 5.472-.143c.981 0-1.952.205-2.923.344-.634.09-3.751.212-4.24.945-.292.438 1.009-.299 1.519-.43.126-.032 3.123-.49 3.123-.63 0-.025-.915-.043-2.493-.029-1.427.013-3.411.314-3.41.316.009.009 5.513-1.165 6.562-.745.432.173-.887.302-1.347.372-.597.091-4.937.131-5.1.946-.029.144 5.415-.54 4.899-.602a17.186 17.186 0 0 0-4.67.057c-.27.042-1.056.071-.802.172 1.346.539 4.594-.642 6.074-.802.447-.048 1.796-.086 1.347-.086-1.768 0-6.38.048-6.447-.086-.2-.4.88-.168 1.318-.258 1.352-.277 2.689-.485 4.069-.573.486-.031 1.948-.029 1.461-.029-.66 0-7.323-.019-7.421.373-.031.124 2.765-.487 5.673-.688.362-.025 1.452-.014 1.089-.028-.831-.034-1.661-.096-2.493-.115-.706-.016-1.413 0-2.12 0-5.912 0 5.759-.436 5.759-.487 0-.718-1.431-.125-2.149-.143-.952-.025-3.671-.457-4.584 0-.103.051 2.467-.252 4.613-.459.704-.068 2.436.519 2.12-.114-.272-.544-4.846-.311-5.387-.316-1.628-.012-2.464.013-2.464.029 0 .804 1.608-.055 2.407-.143a43.448 43.448 0 0 1 4.756-.258c.134 0-.268.012-.401 0-.935-.082-5.925.258-5.1.143 1.828-.255 3.559-.458 5.415-.458.441 0 1.6-.252 1.318.086-.201.241-6.294.337-7.191.487-.432.072-1.657.352-1.232.458 1.336.334 3.115-.087 4.469-.143.678-.028 2.701.098 2.035-.029-1.447-.275-2.974-.339-4.441-.257-1.346.074-2.722.677-2.694.687.906.329 2.449.029 3.41.029.037 0 1.32.113 1.318.114-.671.336-4.744.523-1.92-.63.7-.286 1.439-.575 2.178-.745.384-.088 1.174.251 1.174-.143 0-.277-.553.024-.83.029-.85.012-1.7 0-2.55 0-.564 0-2.25.065-1.691 0 1.591-.188 3.15-.373 4.756-.373.09 0 1.789.4 1.662.43-.895.211-1.999-.112-2.865-.229-1.026-.139-4.098-.007-3.094-.258 1.195-.299 2.665-.115 3.896-.086.281.007.957-.108.831.143-.097.195-2.629-.162-2.808-.172-.577-.031-2.253-.009-1.719-.229.55-.226 6.689.057 5.043.057" fill-opacity="0" stroke="#E79159" stroke-linecap="round" stroke-linejoin="round"/><path d="M37.403 32.073c-.934-.036.242-.057.573-.057.716 0-2.709.362-2.149-.086.434-.347 5.485-.149 6.446.058M19.784 45.671c-2.857-.132-5.689-.3-8.554-.3" fill-opacity="0" stroke="#E79159" stroke-linecap="round" stroke-linejoin="round"/><path d="M19.095 47.321c-6.597-1.145-10.555-.221-1.153-.221.555 0-1.109-.079-1.665-.089a56.018 56.018 0 0 0-3.994.089c-.445.023-1.755-.008-1.331.133 1.773.591 4.457.037 6.257-.133.754-.072 2.959.12 2.264-.178-1.302-.558-3.393-.244-4.771-.244-.326 0-1.296-.064-.977 0 .296.059 2.283.333 2.286.333 1.053.075 2.135.044 3.195.044.534 0-1.05-.194-1.575-.288-.884-.159-2.818.266-3.551-.222-.344-.23.829-.022 1.243 0 1.224.064 3.013-.091 4.216.31.617.206-3.473-.893-3.572-.443-.086.386 4.255 1.549 4.637.976.35-.524-3.696-1.017-4.038-1.043-.4-.031-1.599-.089-1.199-.089 1.613 0 4.492-.306 5.947.422.641.32-1.422-.177-2.13-.289a84.265 84.265 0 0 0-4.615-.577c-.444-.044-1.647.183-1.332-.133.238-.238 5.108.2 6.036.2.81 0-1.591-.32-2.397-.399a29.016 29.016 0 0 0-1.531-.111c-.745-.036-1.495-.023-2.241-.023-.791 0 1.583.013 2.374.023 1.509.018 3.022.003 4.527.111.674.048-1.347-.108-2.019-.178-.853-.089-4.366.294-4.993-.333-.345-.345.977.038 1.465.067 1.581.094 3.168.161 4.748.266 2.082.139-3.271-.317-2.729.044 1.21.807 3.076.777 4.482.777.121 0-4.963-.836-4.793-.843 8.632-.36 1.834-.349-2.263-.577-.889-.049 4.128.022 4.815.022.451 0 1.796.089 1.354 0-1.662-.332-3.44-.339-5.126-.377-.828-.019-3.314-.022-2.485-.022 2.448 0 5.811.628 8.166-.045.447-.128-.914-.189-1.376-.244-1.771-.208-3.525-.187-5.304-.199-.747-.006-2.988-.006-2.241-.023 1.018-.022 7.343.348 7.833-.044.34-.272-.853-.183-1.287-.222-1.942-.173-3.91-.111-5.858-.111h.976c.705 0 6.898.115 7.257-.244.324-.324-.897-.207-1.354-.244-1.613-.131-3.242-.142-4.86-.155-.503-.005-2.012 0-1.509 0 2.529 0 5.11.157 7.634 0 .784-.049-1.567-.124-2.352-.156-1.658-.067-3.312-.133-4.971-.133-.51 0 1.021.014 1.531 0 .742-.021 4.571.244 5.17-.355.526-.526-1.477-.175-2.219-.222-1.856-.117-3.71-.089-5.569-.089h1.62c1.812 0 3.605-.039 5.414-.133.318-.016 1.267.013.954-.044-2.338-.425-4.888-.155-7.256-.155h7.589c.91 0-1.82-.039-2.729-.067a119.399 119.399 0 0 0-3.64-.044c-.75 0 1.494.139 2.242.199 4.851.394-.65-.13 3.262.222.394.036 1.566.107 1.176.178-1.874.34-4.08-.022-5.992-.022-.399 0 .799-.007 1.199 0 1.078.018 3.488-.409 4.482.088.693.347-1.541-.177-2.308-.288-.897-.13-4.156.016-4.837-.666-.267-.267.754-.027 1.131-.044.966-.045 4.414.262 5.237-.355.341-.256-.84-.147-1.264-.178-1.478-.108-4.401.529-5.726-.133-.284-.142.636-.022.955-.022 4.724 0-.849.02 4.171-.067 1.221-.021 4.875.113 3.662-.022-1.1-.122-2.202-.152-3.307-.2-8.12-.35 2.042.149 2.042-.222 0-.141-3.175-.066-3.218-.066-1.341.01-3.031.278-3.018.288 1.725 1.342 11.367.844.999.844h.666c1.686 0 3.373.022 5.059.022.516 0-1.019-.159-1.531-.222-1.157-.143-2.34-.2-3.506-.2h5.57c-2.147 0-4.295-.391-6.435-.555-.792-.06-3.166-.116-2.375-.177 2.115-.163 6.72.198 8.521-.621.385-.175-.823-.193-1.242-.244-1.729-.211-3.456-.224-5.193-.289-.703-.026-2.776.112-2.108-.111 2.265-.755 5.516.065 7.944-.155.554-.051-1.108-.117-1.664-.133-1.737-.053-3.478-.023-5.215-.023-.562 0-2.247-.035-1.686 0 1.423.089 2.834.089 4.26.089 1.117 0 4.468-.044 3.351-.044-2.169 0-4.691.313-6.813-.111-.5-.1 1.021-.016 1.532-.022 1.757-.023 3.503-.162 5.259-.2.296-.006 1.183 0 .887 0-2.016 0-4.038-.111-6.058-.111-.599 0-2.396-.014-1.797-.044.787-.04 7.833-.321 7.833-.444 0-.26-11.965-.029-4.948-.111.666-.008 1.332-.015 1.997-.045.878-.038 2.02-.044 2.907-.221.341-.069-.695-.06-1.043-.067-1.523-.029-3.049 0-4.571 0h-1.132c1.248 0 6.5.26 7.323-.288.418-.28-1.006-.023-1.509-.023-1.834 0-3.67-.019-5.503.023-.533.012-2.131.044-1.598.044 2.113 0 4.173-.194 6.28-.311.554-.031 2.203.068 1.664-.066-2.526-.632-5.388.243-7.944-.222-.448-.082.512.012 2.641-.022 1.793-.029 4.068.208 5.836-.2.469-.108-.961-.071-1.443-.089-2.492-.092-4.984-.066-7.478-.066-.777 0 1.555-.018 2.33-.067 1.749-.112 3.491-.335 5.237-.488.222-.02.88-.006.666-.067-2.469-.705-5.517-.105-8.078-.288-.03-.002 2.085.004 2.33 0 1.717-.03 3.432-.178 5.149-.178h-1.199c-2.285 0-4.571.022-6.857.022-.251 0 .503.002.755 0 4.702-.022 2.744.06 5.925-.133.576-.035 2.308-.066 1.731-.066h-7.057c2.18 0 4.347-.135 6.524-.2.407-.012 1.402.364 1.22 0-.252-.505-4.586-.295-5.125-.311-.659-.019-2.634-.066-1.975-.066 2.085 0 4.172-.014 6.257 0 .423.003 1.688.087 1.265.111-.768.044-1.538 0-2.308 0h-1.553c-6.112 0 3.797.664 3.839.954.02.138-4.223.114-4.66.333-.33.165.72.165 1.087.199 1.009.095 2.028.089 3.04.089.628 0-1.241-.191-1.864-.266-1.832-.221-2.199-.193-4.238-.4-.639-.064-2.31.236-1.908-.266.395-.494 6.441-.954 7.589-.954.289 0-.577-.052-.866-.067-1.202-.061-4.096.509-5.126-.177-.852-.568 2.041-.174 3.063-.244a63.112 63.112 0 0 1 4.327-.155c.37 0-.74.012-1.11.022-1.96.049-3.919.044-5.88.044-1.029 0 2.057-.041 3.084-.089a86.388 86.388 0 0 1 4.039-.088c.932 0-1.864.017-2.796 0a196.966 196.966 0 0 1-3.684-.111c-.585-.022-2.331-.037-1.753-.134 2.294-.382 4.772-.554 7.101-.554.525 0-1.05-.004-1.575 0-1.502.011-3.003.044-4.505.044h-.71c2.366 0 4.715-.222 7.079-.222h-7.101c1.302 0 2.603.005 3.905-.022.969-.02 3.876-.067 2.907-.067-2.019 0-4.039-.005-6.058-.022-.68-.005-2.722-.025-2.041-.044 1.383-.04 2.766-.045 4.149-.045h1.798c-2.027 0-4.053.089-6.08.089h1.109c1.081 0 3.585-.435 4.438.333.677.609-1.799.293-2.707.355-1.195.082-2.49.178-3.706.178h1.442c1.128 0 3.1-.34 4.172.155.326.15-.708.123-1.065.155-1.05.096-2.101.19-3.151.289-1.24.117 4.902-.188 3.861.333-.972.486-3.032.181-4.105.244-.377.022-1.51.066-1.132.066 1.79 0 3.683-.146 5.459.067 2.59.311-6.467-.313-4.083.355 1.416.396 3.215.016 4.549.643.258.122-.56.104-.843.134-.749.078-3.084-.06-3.662.421-.052.044 5.4.721 4.194.821-1.283.107-2.575.101-3.861.2-.253.019-1 .047-.754.111 1.955.507 4.23.233 6.058 1.176.096.05-4.897.392-4.882.399 1.05.525 3.732-.195 4.638.711.138.138-3.064-.546-4.927.199-.387.155.828.109 1.243.156 1.188.133 2.445.161 3.617.421.428.095-5.525-.025-5.436-.022 1.31.04 4.474-.164 5.436.799 1.67 1.669-3.86-1.001-4.46.2-.15.3 5.225.71 4.083.71-1.246 0-2.8-.003-3.972.466-1.336.534 5.322.01 4.216.932-.902.751-3.221-.406-3.994.754-.412.617 2.637.78 1.953 1.065-.967.403-2.976.493-2.93.511.709.272 2.96.345 2.219.51-3.509.78-3.03-.772-.022.732.847.424-3.51-.647-2.84.022.488.488 2.661-.055 1.287.289" fill-opacity="0" stroke="#E79159" stroke-linecap="round" stroke-linejoin="round"/></svg><svg width="60" height="60" viewBox="0, 0, 60, 60" id="mission" y="118"><path d="M27.437 35.656c-4.194-4.178-1.356-13.826 6.338-21.548C41.469 6.386 51.106 3.514 55.3 7.693c4.194 4.179 1.356 13.826-6.338 21.548-7.694 7.722-17.332 10.594-21.525 6.415z" fill="#E79159"/><path d="M27.437 35.656c-4.194-4.178-1.356-13.826 6.338-21.548C41.469 6.386 51.106 3.514 55.3 7.693c4.194 4.179 1.356 13.826-6.338 21.548-7.694 7.722-17.332 10.594-21.525 6.415z" fill-opacity="0" stroke="#E79159"/><path d="M32.164 10.109c-.132 0-.239-.012-.239-.026 0-.015.107-.027.239-.027.131 0 .238.012.238.027 0 .014-.107.026-.238.026z" fill="#E79159"/><path d="M32.164 10.109c-.132 0-.239-.012-.239-.026 0-.015.107-.027.239-.027.131 0 .238.012.238.027 0 .014-.107.026-.238.026z" fill-opacity="0" stroke="#E79159"/><path d="M26.62 54.09l-2.341-13.192-12.461-2.14 10.08-11.884 3.926 1.645 4.582-2.57 10.264-3.777-2.75 11.091-1.751 4.275.902 3.979z" fill="#E79159"/><path d="M26.62 54.09l-2.341-13.192-12.461-2.14 10.08-11.884 3.926 1.645 4.582-2.57 10.264-3.777-2.75 11.091-1.751 4.275.902 3.979z" fill-opacity="0" stroke="#E79159"/><path d="M47.638 16.947c-1.421 0-2.573-1.117-2.573-2.494 0-1.377 1.152-2.493 2.573-2.493s2.573 1.116 2.573 2.493c0 1.377-1.152 2.494-2.573 2.494z" fill="#FFF"/><path d="M47.638 16.947c-1.421 0-2.573-1.117-2.573-2.494 0-1.377 1.152-2.493 2.573-2.493s2.573 1.116 2.573 2.493c0 1.377-1.152 2.494-2.573 2.494z" fill-opacity="0" stroke="#FFF"/><path d="M16.779 41.343l6.095-7.295c.735-.88 1.967-1.062 2.751-.407l3.299 2.756c.784.655.823 1.9.088 2.779l-6.094 7.296c-.735.879-1.967 1.062-2.751.407l-3.299-2.756c-.784-.655-.824-1.9-.089-2.78z" fill="#E79159"/><path d="M16.779 41.343l6.095-7.295c.735-.88 1.967-1.062 2.751-.407l3.299 2.756c.784.655.823 1.9.088 2.779l-6.094 7.296c-.735.879-1.967 1.062-2.751.407l-3.299-2.756c-.784-.655-.824-1.9-.089-2.78z" fill-opacity="0" stroke="#E79159"/><path d="M12.779 52.747c2.734.903 6.812-1.555 8.892-3.938m-6.584-4.579c-1.556 2.783-2.524 5.397-2.393 8.549" fill-opacity="0" stroke="#E79159" stroke-linecap="round" stroke-linejoin="round"/></svg><svg width="56" height="56" viewBox="0, 0, 56, 56" id="pharmaceuticals" x="180"><path d="M44.425 24.414L24.414 44.425a8.372 8.372 0 0 1-11.839-11.839l20.011-20.011a8.372 8.372 0 0 1 11.839 11.839" fill-opacity="0" stroke="#E79159" stroke-linejoin="bevel"/><path d="M32.709 35.939c-6.524 0-11.813-4.985-11.813-11.133" fill-opacity="0" stroke="#E79159" stroke-linecap="round" stroke-linejoin="round"/><path d="M26.946 25.341l1.04.189 2.081-.505 2.029-1.118 1.957-1.235 1.906-1.216 1.391-.896.919-.584.954-.602.983-.631 1.089-.927 1.245-1.199.697-.7.003-.003c0-.001 0-.002-.002-.002l-.41-.317-.942-.361-1.062-.001-1.135.373-1.135.473-1.144.553-1.661.906-2.102 1.321-2.002 1.395-1.906 1.533-1.856 2.098-.937 1.452c-.001.001-.003.002-.002.004h.002" fill="#E79159"/><path d="M31.33 28.774l.632.025 1.148-.397 1.599-1.012 1.841-1.658 1.233-1.221.738-.724.705-.68.666-.621.642-.56.635-.52.663-.492.735-.506.647-.547.537-.482.644-.529.759-.625.42-.335.003-.003c.001-.002.001-.003-.001-.002l-.157-.245-.374-.398-.462-.242-.541-.141-.924.065-1.278.477-1.265.661-1.216.783-1.144.866-1.063.907-.977.927-.904.938-1.181 1.325-1.33 1.714-.786 1.398-.462 1.111-.183.74c-.002.001-.002.003-.002.004l.003-.001" fill="#E79159"/><path d="M29.285 28.481l.81-.242 1.15-.569.927-.537.761-.566.708-.566.696-.553.693-.553.702-.548.716-.554.736-.559.76-.581.789-.586 1.266-.946 1.834-1.861 1.039-1.371.003-.003c0-.001-.001-.002-.003-.001l-.914-.37-1.981.245-1.511.732-1.021.584-1.017.631-1.005.698-.991.751-.968.803-.941.851-.9.902-.849.943-.758 1-.552 1.087-.288 1.114.106.624v.003l.003-.002" fill="#E79159"/><path d="M27.386 24.755l.834-.204 1.117-.48.815-.424.677-.404.618-.395.602-.395.615-.395.641-.397.676-.413.718-.433 1.182-.696 1.714-1.034 1.994-1.733 1.164-1.362.003-.003c0-.002 0-.002-.002-.002l-.748-.54-1.731-.097-1.881.653-1.428.646-.983.515-.992.588-.996.666-.991.738-.973.819-.926.908-.837.995-.668 1.083-.336 1.142.119.653-.001.003c.001 0 .003 0 .004-.002" fill="#E79159"/><path d="M27.678 24.244l.564.018 1.016-.296 1.289-.862 1.461-1.351 1.242-1.313.802-.818.436-.445.436-.424.412-.385.417-.362.47-.423.645-.668.979-.991.641-.591.003-.003c.001-.001 0-.002-.001-.002l-.219-.455-.69-.559-.961-.042-1.075.377-1.073.589-1.026.696-.954.765-.911.831-1.146 1.213-1.242 1.5-.924 1.424-.454 1.091-.133.904-.006.58c-.002.001-.002.003-.002.003.001.001.002 0 .004-.001" fill="#E79159"/><path d="M27.531 24.025l.549.087.981-.235 1.356-.735 1.555-1.285 1.37-1.289.911-.838.528-.489.535-.478.523-.452.534-.438.58-.493.718-.726.993-1.055.627-.632c.002 0 .003-.001.004-.003l-.001-.002-.277-.406-.764-.477-.976.008-1.057.379-1.051.558-1.013.648-.958.71-.926.771-1.207 1.146-1.364 1.448-1.109 1.428-.618 1.204-.335.979-.109.664-.002.004c.001.001.002 0 .003-.001" fill="#E79159"/><path d="M25.195 24.682l.843-.334 1.08-.589.761-.463.612-.41.521-.406.514-.394.521-.404.545-.414.906-.694 1.298-.983 1.397-1.115 1.491-1.769.759-1.302.003-.003c0-.001-.001-.002-.003-.001l-.804-.331-1.622.154-1.676.832-1.7 1.045-1.277.917-.871.714-.859.778-.826.848-.775.903-.637.974-.437 1.002-.062.965.294.479v.003a.008.008 0 0 0 .004-.002" fill="#E79159"/><path d="M26.218 23.001l.781-.324 1.024-.573.77-.463.562-.433.491-.412.471-.393.457-.39.464-.386.473-.391.494-.4.515-.423.549-.431.585-.459.625-.507.712-.81.843-1.096.482-.654.003-.003c0-.002-.001-.002-.002-.002l-.294-.322-.693-.39-.803-.046-.864.313-.877.415-.881.497-.88.556-.865.632-.846.69-.813.744-.772.788-.711.829-.638.857-.513.88-.248.893.068.824.327.39v.003l.004-.003" fill="#E79159"/><path d="M26.582 21.468l1.192-.328 1.761-.998 1.218-1.135.792-.713.438-.401.436-.394.416-.36.408-.351.43-.337.476-.357.559-.403.754-.715 1.05-1.042.661-.647c.001 0 .003-.001.003-.003.001-.001 0-.002-.001-.002l-.222-.467-.651-.583-.864-.133-.983.294-.996.445-.978.559-.944.631-.885.698-.82.731-.78.781-.979 1.144-1.069 1.452-.49 1.643.065.989v.003c.001.001.002 0 .003-.001m6.719 9.499l.047.395.27.384.572.217.934-.155 1.056-.483 1.033-.723.945-.804 1.138-1.176 1.224-1.486.719-.962.359-.496.315-.444.276-.412.227-.611.406-.944.342-.629c.002-.001.003-.002.003-.004h-.002l-.397-.235-.979-.059-1.051.385-.915.675-.805.714-.712.715-.834.908-.846 1.008-.497.608-.219.308-.212.303-.291.439-.53.643-.617.721-.569.671-.388.524c-.001 0-.003.001-.003.003-.001.001 0 .002.001.002" fill="#E79159"/><path d="M34.032 31.113l.126.553.61.33.904-.16.97-.557.901-.715.789-.75.921-1.045.969-1.257.524-.745.22-.334.175-.285.11-.277.126-.484.394-.861.37-.573.003-.003c0-.001 0-.002-.002-.002l-.241-.343-.764-.281-.955.241-.906.568-.789.661-.705.69-.816.89-.795.991-.441.599-.161.284-.097.243-.087.306-.228.583-.606.933-.518.795-.003.003c0 .002 0 .002.002.002" fill="#E79159"/><path d="M30.379 32.354l.219.485.607.275.747-.093.767-.387 1.044-.733 1.242-1.159 1.074-1.205.846-1.135.642-1.05.169-1.199-.123-.813c.002-.001.002-.003.001-.003l-.003.001-1.003.097-1.52.689-.994.888-.786.801-.604.681-.53.625-.379.507-.237.383-.309.622-.507.931-.362.788c-.001.001-.003.002-.003.004h.002" fill="#E79159"/><path d="M29.869 30.893l.881.14 1.481-.41 1.784-1.411 2.125-2.124 1.716-2.387.196-1.772.001-.003c-.001-.001-.002 0-.004.001l-1.814.253-2.287 1.682-1.921 1.907-1.32 1.54-.641 1.503-.199 1.078c-.001.001-.002.002-.001.003h.003" fill="#E79159"/><path d="M30.527 29.651l1.358.3 1.743-.919 2.274-2.035.98-2.679c.002-.001.002-.003.002-.004s-.002-.001-.003.001l-2.235-.058-2.514 1.941-1.407 1.78-.2 1.67-.002.003h.004" fill="#E79159"/><path d="M28.263 30.454l1.029-.132 1.4-.499.95-.685.868-.764 1.313-1.265 1.636-2.053.401-1.834c.001-.001.002-.003.001-.004l-.003.001-1.576-.106-2.297 1.424-1.582 1.399-1.019 1.057-.892 1.181-.389 1.425.157.853c-.002.001-.002.003-.001.003.001.001.002 0 .004-.001" fill="#E79159"/><path d="M27.897 30.089l.79.217 1.312-.267 1.517-1.172 1.74-1.731 1.069-1.358.381-1.262.058-.929c.001-.001.002-.003.001-.004l-.003.001-.828-.148-1.357.338-1.481 1.105-1.623 1.597-1.041 1.288-.436 1.328-.101.994a.008.008 0 0 0-.002.004l.004-.001" fill="#E79159"/><path d="M26.582 30.088l1.008-.11 1.358-.463 1.323-1.053 1.627-1.548 1.467-1.931.303-1.761.002-.004c-.001-.001-.002 0-.004.001l-1.546-.12-2.198 1.379-1.949 1.846-1.268 1.587-.316 1.356.19.82v.003s.002 0 .003-.002" fill="#E79159"/><path d="M28.263 28.627l1.87-.529 1.554-1.197.7-.713.613-.628.352-.386.198-.231.248-.287.274-.336.338-.633.513-.955.351-.605c.001-.001.003-.002.003-.004l-.002-.001-.208-.361-.572-.417-.704-.033-.727.322-.716.422-.733.526-.985.826-1.079 1.104-.907 1.116-.753 1.637.368 1.362v.003a.008.008 0 0 0 .004-.002" fill="#E79159"/><path d="M26.144 27.677l1.826-.393 1.587-1.118.786-.754.735-.739.68-.733.656-.774.605-1.291.356-1.064.003-.003-.003-.001-.692-.374-1.413.184-1.268.815-1.163.955-1.039 1.026-.933 1.071-.915 1.691.189 1.501-.001.003c.001.001.003 0 .004-.002" fill="#E79159"/><path d="M26.581 26.436l3.301-.586 2.033-3.724c.001-.001.002-.003.001-.004l-.003.001-3.3.586-2.033 3.724a.008.008 0 0 0-.002.004c.001.001.002 0 .003-.001" fill="#E79159"/><path d="M24.463 25.779l.869.114 1.44-.445 1.608-1.342 1.361-1.329.728-.786.677-.802.422-.855.334-.913.231-.582.003-.004h-.003l-.32-.242-.742-.197-1.133.299-1.304.862-1.17.985-1.397 1.442-1.121 1.447-.409 1.36-.076.985-.001.003h.003" fill="#E79159"/><path d="M25.705 24.245l.706.313 1.357-.27 1.173-.85.96-.882.794-.783.645-.683.376-.447.225-.307.297-.623.452-.936.319-.595c.002-.001.003-.002.003-.004 0-.001 0-.002-.002-.001l-.224-.343-.599-.378-.711-.002-.748.368-1.023.652-1.138.904-.928.891-.743.816-.55.814-.424 1.299-.218 1.043c-.002.001-.003.003-.002.004h.003" fill="#E79159"/><path d="M23.952 24.902l2.508-.389 2.594-2.129 1.417-1.803.348-1.743.002-.003h-.004l-1.423-.285-2.06 1.179-2.513 2.46-.871 2.71a.008.008 0 0 0-.002.004l.004-.001" fill="#E79159"/><path d="M24.171 24.171l.719.273 1.185-.178 1.28-.999 1.043-1.03.52-.62.432-.635.252-1.072.121-.925a.008.008 0 0 0 .002-.004h-.003l-.649-.364-1.223.124-.974.638-.839.708-.952 1.013-.729 1.033-.195 1.131.008.905c-.001.001-.002.002-.001.003 0 .001.002.001.003-.001" fill="#E79159"/><path d="M23.878 23.66l.64.372 1.287-.243 1.108-.869.847-.872.646-.737.456-.589.199-.335.078-.214.109-.515.251-.842.223-.561.003-.004-.003-.001-.224-.326-.608-.326-.704.055-.697.404-.905.666-.933.847-.693.763-.489.635-.27.589-.18 1.109-.142.991a.008.008 0 0 0-.002.004l.003-.001" fill="#E79159"/><path d="M24.682 23.807l1.292.884 2.107-1.51.619-2.297.002-.003h-.003l-1.381-.824-1.894 1.436-.743 2.31-.002.003c0 .002.001.002.003.001m-6.88 21.456l.306.411.72.214 1.18-.219 1.592-.87 1.549-1.133 1.448-1.224 1.324-1.29 1.677-2.086.572-2.034c.002-.001.002-.003.002-.004l-.004.001-1.864.201-2.004 1.291-1.173.928-1.102.926-1.07.913-1.111 1.038-.912 1.1-.71 1.034-.42.799a.014.014 0 0 0-.003.004h.003" fill="#E79159"/><path d="M17.592 44.562l.449.252.867-.065.901-.386.814-.6 1.05-.973 1.195-1.363 1.024-1.316.839-1.195.687-1.078.267-.882.091-.826.082-.534c.002-.001.003-.003.002-.004l-.003.001-.5-.034-1.031.213-1.324.764-1.305 1.238-1.069 1.201-.865 1.094-.745.997-.477.728-.256.484-.218.649-.311.914-.165.718a.008.008 0 0 0-.002.004c.001.001.002 0 .003-.001" fill="#E79159"/><path d="M16.613 43.791l1.227-.433 1.785-1.17 1.254-1.308 1.059-1.244.968-1.134.638-.755.392-.461.423-.496.433-.523.415-.757.506-1.049.32-.651.002-.003c0-.002-.001-.002-.002-.001l-.434-.179-.948-.059-.973.294-.894.581-.85.657-.831.736-1.12 1.114-1.262 1.467-1.085 1.443-.85 1.427-.328 1.573.152.93c-.002.001-.002.002-.001.003a.008.008 0 0 0 .004-.002" fill="#E79159"/><path d="M15.773 43.615l1.263-.652 1.658-1.246 1.031-1.166.865-1.099.81-1.032.757-.991.727-1.001.54-1.391.228-1.052a.008.008 0 0 0 .002-.004c-.001-.001-.002 0-.004.001l-.989-.044-1.774.724-1.443 1.237-1.284 1.356-1.118 1.411-.967 1.426-.719 1.429-.027 1.404.44.69v.003l.004-.003" fill="#E79159"/><path d="M15.387 42.949l.801-.376 1.022-.646 1.075-.834 1.002-1.019.873-.976.884-1.005.893-1.081 1.274-1.894.266-1.869c.001-.001.002-.003.001-.004 0 0-.002 0-.003.002l-1.94.404-2.027 1.519-1.262 1.229-1.207 1.359-1.127 1.467-.879 1.525-.244 1.154.192.723.402.323c-.001.001 0 .002.001.002s.003-.001.003-.003" fill="#E79159"/><path d="M14.057 42.389l.758-.436 1.015-.764 1.101-1.043 1.02-1.287.854-1.193.591-.803.342-.489.352-.496.333-.473.314-.457.286-.476.206-.683.296-.846.2-.534.002-.003c0-.002-.001-.002-.002-.001l-.381-.143-.858.015-.931.276-.833.571-.784.669-.742.723-.696.76-.677.817-.878 1.232-.977 1.608-.647 1.549-.027 1.061.324.608.434.239.001.002.004-.003" fill="#E79159"/><path d="M13.741 40.883l1.265-.744 1.626-1.302.971-1.127.805-1.035.756-.956.708-.907.486-.651.316-.454.281-.704.304-.955.186-.585.002-.003h-.003l-.434-.128-.905-.006-.888.289-.814.579-1.139.972-1.331 1.377-1.148 1.45-.971 1.473-.686 1.464.079 1.352.53.601c-.001.002 0 .003.001.003l.003-.003" fill="#E79159"/><path d="M13.566 39.201l.797-.502.981-.747.711-.554.469-.446.385-.396.358-.369.336-.36.338-.36.555-.604.775-.839.805-.922.746-1.457.343-1.092a.008.008 0 0 0 .002-.004h-.003l-.807-.232-1.541.338-1.43.982-1.367 1.181-.967.992-.624.744-.581.777-.508.801-.424.81-.278.797.031.724.373.57.521.17c-.001.001 0 .002.001.001.001 0 .003-.001.003-.003" fill="#E79159"/><path d="M13.251 38.606l.806-.506.981-.771.713-.611.469-.51.593-.717.672-.863.627-.781.619-.802.638-.885.477-1.334.163-1.009c.002-.001.002-.003.002-.004l-.003.001-.91-.096-1.607.557-1.345 1.096-1.249 1.278-1.106 1.401-.913 1.428-.486 1.076-.195.724.096.652.413.523.541.154c-.001.002 0 .002.001.002l.003-.003" fill="#E79159"/><path d="M12.761 36.785l1.248-.682 1.587-1.252.921-1.103.729-.977.651-.847.394-.523.226-.309.265-.361.277-.397.262-.642.363-.949.255-.607.002-.003c0-.001-.001-.002-.003-.001l-.366-.222-.831-.137-.874.226-.803.521-.762.604-.753.701-.994 1.064-1.065 1.391-.861 1.372-.576 1.329.156 1.233.547.571.001.003.004-.003" fill="#E79159"/><path d="M15.142 32.163l1.553-.059 1.224-.698.514-.458.432-.418.351-.401.325-.456.403-1.072.38-1.025.002-.003c.001-.002 0-.002-.002-.001l-.401-.627-1.082-.168-1.07.569-.968.725-.826.786-.697.804-.537 1.252.396 1.248-.001.003c.001.001.002 0 .004-.001m7.354 11.139l1.43.375 2.353-1.125 2.293-1.601 2.237-2.193.863-2.076c.002-.001.003-.003.002-.004h-.003l-1.394-.379-2.352 1.123-2.335 1.665-2.253 2.163-.842 2.048c-.002.001-.002.003-.002.004h.003" fill="#E79159"/><path d="M24.457 38.923l.789.824 1.239-.461.669-.508.21-.265.153-.327.215-.953.297-.971.003-.003c0-.002-.001-.002-.002-.001l-.208-.737-.752-.407-.764.302-.673.426-.618.589-.469.995-.09 1.494a.008.008 0 0 0-.002.004c0 .001.002.001.003-.001" fill="#E79159"/><path d="M24.842 38.643l.408.615.472.59.334.054.408-.047.853-.337 1.535-1.046 1.348-1.894c.001-.001.003-.002.003-.004.001-.001 0-.002-.001-.001l-.051-1.497-1.235-.263-1.184.328-.921.478-.965.67-.794 1.321-.21 1.03-.003.003h.003m2.905-7.879l-.132.471.006.557.251.505.6.291.863-.118.954-.38.939-.536 1.166-.877 1.256-1.155.689-.719.283-.322.226-.275.185-.297.28-.541.609-.887.477-.551c.001 0 .003-.001.003-.003.001-.001 0-.002-.001-.002l-.112-.451-.528-.543-.809-.032-.864.351-.793.482-.713.515-.787.626-.72.654-.36.366-.117.185-.144.222-.283.335-.606.569-.698.579-.649.537-.467.439c-.001-.001-.003 0-.004.002v.003" fill="#E79159"/><path d="M27.854 29.047l.112.506.463.36.658-.016.684-.311.89-.592.998-.883.782-.788.531-.609.216-.324.072-.228.178-.509.394-.873.326-.566.003-.003c0-.002 0-.002-.002-.002l-.133-.399-.492-.47-.67-.023-.743.329-.956.616-.968.78-.682.67-.473.548-.244.406-.097.297-.15.531-.376.836-.321.713-.002.003c-.001.001 0 .002.002.001" fill="#E79159"/><path d="M26.977 29.783l-.029.453.197.518.341.332.464.148h.557l.63-.152.673-.264.687-.375.93-.65 1.161-.996 1.038-1.087.873-1.039 1.049-1.397.859-1.198.417-.573.339-.453.144-.216.046-.185.151-.307.246-.379.38-.465.533-.532.328-.289.003-.003c.001-.002 0-.003-.001-.002l-.108-.226-.317-.333-.44-.177-.547-.009-.619.138-.702.331-.941.672-1.052.913-.927.954-1.107 1.277-.912 1.144-.463.605-.34.456-.277.394-.2.26-.094.156-.134.201-.205.238-.308.309-.432.37-.59.46-.77.545-.528.428a.008.008 0 0 0-.004.002l.001.003" fill="#E79159"/><path d="M33.494 28.136l.934.079 1.431-.233 1.222-.632 1.294-.85 1.38-1.013 1.425-1.223 1.085-1.1.7-.835.452-.977.155-1.026-.06-.492v-.003c-.001 0-.003 0-.004.002l-.567.146-.907.205-.673.195-.477.287-.765.502-1.159.798-1.282.923-1.386 1.055-1.417 1.295-1.105 1.769-.278 1.125-.001.003h.003m-8.162-.245l.193.514.684.288.915-.151.974-.515.933-.673.857-.734 1.069-1.084 1.202-1.401.966-1.243.546-.755.255-.441.229-.619.31-.907.254-.58.002-.003c0-.001-.001-.002-.002-.001l-.396-.182-.938-.025-.962.367-.886.629-1.099.971-1.158 1.189-.92 1.048-.574.679-.282.374-.254.358-.271.423-.399.676-.711.985-.536.809-.003.003c-.001.001 0 .002.002.001" fill="#E79159"/><path d="M26.138 26.385l.658.412 1.337-.081 1.32-.769 1.253-.98 1.185-1.07 1.086-1.15.957-1.219.511-1.511-.04-.918.001-.003c-.001-.001-.002 0-.004.001l-.967.084-1.386.478-.998.74-.926.765-.884.787-.87.807-.859.931-.896 1.521-.478 1.171-.003.004h.003" fill="#E79159"/><path d="M25.472 26.455l.161.492.58.309.785-.088.819-.404 1.087-.755 1.251-1.125 1.023-1.035.572-.628.276-.319.265-.317.248-.357.304-.58.531-.937.398-.595c.002 0 .003-.002.004-.003 0-.002-.001-.002-.002-.002l-.208-.373-.64-.403-.812.064-.823.381-.768.497-.728.556-.891.765-.893.887-.681.753-.407.546-.213.384-.285.617-.536.914-.416.752c-.002 0-.003.002-.003.003s.001.002.002.001" fill="#E79159"/><path d="M25.157 26.665l.336.355.769.11.861-.22.829-.466 1.119-.808 1.329-1.158 1.158-1.079.721-.697.407-.398.423-.411.428-.46.501-.682.704-1.022.466-.629c.002 0 .003-.002.004-.003 0-.001-.001-.002-.002-.001l-.268-.352-.717-.379-.867.067-.891.38-.857.508-.837.586-1.099.868-1.21 1.104-1.028 1.032-.673.773-.389.532-.385.719-.512.973-.32.754a.008.008 0 0 0-.002.004h.002" fill="#E79159"/><path d="M25.192 25.544l.34.351.716.137 1.101-.29 1.358-.841 1.211-.938 1.057-.861.675-.575.402-.346.434-.375.46-.41.559-.71.762-1.023.486-.633.003-.003c.001-.001 0-.002-.001-.002l-.214-.396-.598-.48-.752-.084-.809.288-.797.387-.798.471-1.076.729-1.218.974-1.035.934-.904.992-.633 1.011-.466.952-.263.737a.008.008 0 0 0-.002.004h.002" fill="#E79159"/><path d="M25.087 25.229l.352.33.745.111 1.15-.329 1.425-.896 1.275-.993 1.12-.907.717-.599.427-.357.463-.383.493-.447.602-.684.828-1.02.524-.62c.002 0 .003-.002.004-.003 0-.002-.001-.002-.002-.002l-.206-.408-.598-.512-.781-.072-.851.257-.847.399-.854.494-1.157.776-1.317 1.047-1.123 1.011-.972 1.06-.665 1.048-.482.964-.27.731c-.001.001-.003.003-.002.004h.002" fill="#E79159"/><path d="M23.757 24.668l.765.235 1.399-.319 1.175-.83.986-.861.847-.775.725-.697.46-.477.296-.336.403-.665.578-.972.385-.606c.002-.001.003-.002.003-.004.001-.001 0-.001-.002-.001l-.206-.366-.573-.434-.71-.055-.783.338-1.104.638-1.273.936-1.081.969-.901.931-.7.944-.494 1.374-.196 1.03c-.002.001-.003.003-.002.004 0 .001.002.001.003-.001" fill="#E79159"/><path d="M23.336 24.599l.239.43.669.215.826-.16.823-.442 1.089-.783 1.257-1.128 1.046-1.02.596-.613.299-.316.307-.325.309-.376.406-.614.665-.961.469-.596a.008.008 0 0 0 .004-.004c0-.001-.001-.002-.002-.001l-.191-.403-.611-.469-.817.003-.866.35-.831.491-.806.574-1.016.826-1.057 1.004-.843.892-.519.65-.278.443-.305.649-.5.931-.362.749-.003.003c0 .001.001.002.003.001m-4.777 21.168l.215.145.54.011.612-.214.613-.301.878-.527 1.107-.838.51-.653h.001l-.001-.001-.549.03-1.048.537-.781.448-.52.287-.544.305-.644.445-.389.325h-.001l.001.001m1.624.277l.354.187.873-.262 1.344-.709.914-.919v-.001l-.788.012-1.261.603-.897.532-.539.556-.001.001h.001" fill="#E79159"/><path d="M20.301 45.767l.25.085.577-.133.607-.37.566-.442.755-.679.683-.668.396-.508.206-.335.001-.001h-.001l-.311.026-.6.27-.755.584-.678.586-.418.36-.425.364-.522.502-.33.358h-.001v.001" fill="#E79159"/><path d="M19.636 46.129l.129.13.343.06.388-.05.408-.152.59-.314.746-.524.689-.569.623-.552.581-.508.577-.567.338-.363.001-.001h-.001l-.367.002-.761.302-.689.483-.618.495-.563.465-.554.426-.441.303-.313.198-.369.24-.452.283-.284.212-.001.001" fill="#E79159"/><path d="M20.986 46.028l.115.111.308.033.355-.082.372-.182.522-.349.639-.547.571-.555.506-.505.47-.437.345-.342.286-.302.182-.18.001-.001s0-.001 0 0l-.154-.04-.356.025-.56.246-.651.482-.56.501-.482.468-.446.421-.338.296-.235.194-.283.239-.369.29-.238.214-.001.001.001.001m-2.975.217l.2.202.548.073.642-.189.639-.301.893-.54 1.102-.832.532-.633h.001l-.001-.001-.566.008-1.06.54-.755.439-.496.267-.539.271-.692.395-.447.3-.001.001" fill="#E79159"/><path d="M18.374 46.419l.147.191.43.107.528-.121.545-.215.79-.421.986-.766.419-.603.001-.001h-.001l-.446.008-.846.385-.659.334-.449.212-.482.231-.594.372-.369.286v.001m-1.247-.13l.63-.095 1.223-.743 1.185-.883 1.132-.977.516-.697v-.001l-.661.147-1.195.757-1.136.855-1.128.935-.567.701v.001h.001" fill="#E79159"/><path d="M17.808 46.448l.581-.094 1.06-.648 1.025-.705.764-.535.541-.486.309-.346.001-.001h-.001l-.273-.06-.595.127-.876.473-1.08.752-1.003.864-.453.658v.001" fill="#E79159"/><path d="M17.431 46.158l1.017-.354 1.388-1.03.876-.78.404-.607.001-.001h-.001l-.544.053-.978.593-1.345 1.087-.818 1.038v.001" fill="#E79159"/><path d="M17.126 46.564l.166.145.439.012.74-.35.943-.63.852-.725.386-.57.001-.001h-.001l-.482-.016-.861.466-.785.533-.599.405-.488.419-.31.311-.001.001s0 .001 0 0m-.391-.551l.648-.257 1.034-.782 1-.814 1-.893.467-.663.001-.001h-.001l-.625.123-1.143.735-1.08.89-.974.999-.327.662-.001.001h.001m-.392-.334l.674-.408.953-.88.908-.83.93-.866.452-.643.001-.001h-.001l-.641.126-1.17.797-1.06.99-.869 1.088-.177.627c-.001 0-.001 0 0 0 0 .001 0 0 0 0" fill="#E79159"/><path d="M15.778 46.013l.727-.401 1.124-1.034 1.057-1.025.777-.748.498-.59.256-.38v-.001c0-.001 0 0 0 0l-.365.071-.703.355-.946.757-1.126 1.104-.984 1.176-.316.715v.001h.001" fill="#E79159"/><path d="M15.734 45.302l.732-.379.868-.686.534-.445.548-.438.561-.43.584-.433.626-.556.349-.376.001-.001h-.001l-.336-.017-.701.212-.693.399-.669.462-.641.51-.617.552-.8.898-.346.727v.001h.001" fill="#E79159"/><path d="M15.081 45.36l.707-.254 1.228-.956.863-.727.547-.448.563-.436.609-.541.358-.366v-.001c0-.001 0-.001 0 0l-.342-.028-.727.225-.701.429-.664.494-.889.778-1.079 1.093-.473.737-.001.001h.001" fill="#E79159"/><path d="M14.617 45.07l.706-.299 1.175-.962.824-.71.527-.438.548-.432.59-.538.345-.364v-.001l-.337-.025-.713.226-.688.427-.655.496-.879.788-1.038 1.108-.406.723v.001h.001" fill="#E79159"/><path d="M14.457 44.199l.443-.192.767-.436.698-.457.71-.445.739-.421.777-.411.82-.412.906-.547.509-.378.001-.001h-.001l-.381-.071-.839.119-.877.329-.87.412-.856.487-.833.558-.792.643-.668.77-.253.453-.001.001.001-.001" fill="#E79159"/><path d="M13.906 44.46l.779-.449.936-.774.58-.497.596-.484.612-.469.64-.465.691-.581.389-.386v-.001l-.365-.012-.77.238-.76.439-.733.511-.698.565-.668.612-.858.982-.372.771v.001l.001-.001" fill="#E79159"/><path d="M14.153 43.387l.398-.215.633-.424.532-.415.537-.405.563-.395.595-.399.965-.658.709-.687.001-.001h-.001l-.67.016-1.046.472-.7.418-.686.482-.663.541-.609.609-.445.685-.114.375v.001h.001" fill="#E79159"/><path d="M13.775 43.314l.398-.212.648-.452.551-.464.547-.458.563-.448.581-.447.604-.456.632-.581.336-.384.001-.001h-.001l-.343.005-.705.236-.698.413-.684.473-.662.526-.633.568-.58.618-.433.686-.122.378" fill="#E79159"/><path d="M13.456 43.459l.437-.23.735-.496.649-.509.65-.497.672-.479.7-.472.735-.475.791-.604.434-.401.001-.001h-.001l-.384-.012-.812.224-.82.42-.805.493-.783.557-.751.611-.7.675-.559.766-.189.43-.001.001.001-.001" fill="#E79159"/><path d="M13.558 42.328l.667-.187 1.196-.809.859-.617.558-.393.579-.393.633-.512.368-.353v-.001s0-.001 0 0L18.109 39l-.678.145-.682.35-.663.418-.919.69-1.121 1.01-.489.714v.001h.001" fill="#E79159"/><path d="M12.934 42.197l.406-.158.709-.403.641-.452.64-.45.654-.432.676-.424.707-.423.774-.553.436-.375.001-.001h-.001l-.352-.053-.767.154-.787.361-.774.434-.753.496-.725.545-.684.604-.579.71-.223.42h.001" fill="#E79159"/><path d="M12.658 41.443l.652-.192 1.123-.73.815-.544.546-.36.574-.374.623-.507.353-.354.001-.001h-.001l-.292-.064-.637.121-.648.312-.644.376-.916.645-1.108.974-.441.697-.001.001h.001" fill="#E79159"/><path d="M13.093 40.645l.652-.032 1.333-.61.99-.491.661-.325.691-.329.776-.462.454-.333v-.002l-.3-.125-.693.025-.732.238-.728.309-1.05.551-1.353.87-.701.715v.001" fill="#E79159"/><path d="M13.456 39.702l1.024-.119 1.607-.74 1.106-.596.659-.576v-.001c.001 0 0 0 0 0l-.482-.163-1.126.343-1.659.854-1.129.997-.001.001h.001m-.581 1.436l.327.046.699-.173 1.054-.554 1.017-.584.659-.37.681-.362.772-.478.464-.339.001-.001s0-.001 0 0l-.325-.118-.738.065-.756.292-.73.363-1.02.6-.995.639-.71.577-.399.396-.001.001m.944.914l.348-.094.597-.283.536-.343.537-.351.551-.343.57-.345.596-.356.654-.495.369-.349.001-.001h-.001l-.282-.08-.628.087-.657.28-.654.343-.641.398-.624.443-.592.502-.495.613-.186.373v.001h.001" fill="#E79159"/><path d="M14.617 42.27l.351-.171.522-.305.411-.283.426-.287.462-.289.5-.303.821-.53.612-.618h.001v-.001l-.516-.084-.861.316-.596.31-.598.376-.587.443-.539.522-.355.589-.055.314v.001h.001" fill="#E79159"/><path d="M13.717 42.923l.377-.114.652-.311.594-.363.601-.365.623-.355.65-.356.683-.368.752-.512.421-.361.001-.001-.313-.079-.693.087-.728.281-.727.348-.719.408-.704.463-.674.535-.575.66-.221.402-.001.001h.001" fill="#E79159"/><path d="M13.384 42.85l.358-.142.574-.317.49-.337.496-.342.801-.519 1.151-.76.641-.644.001-.001-.589-.035-1.255.558-.931.581-.61.46-.572.527-.433.618-.123.352v.001h.001" fill="#E79159"/><path d="M13.064 42.618l.45-.193.795-.444.742-.476.76-.466.792-.444.828-.431.866-.427.945-.557.525-.378h.001l-.001-.001-.395-.069-.875.125-.919.342-.917.428-.903.506-.878.576-.833.661-.709.788-.274.459v.001m.203-1.567l.597-.093 1.102-.645 1.073-.696.807-.532.576-.488.328-.346.001-.001h-.001l-.273-.068-.603.112-.908.457-1.141.748-1.071.876-.487.675v.001m.233-1.074l.48-.058.748-.42.724-.438.785-.523.483-.534h.001l-.001-.001-.385-.167-.904.326-.891.556-.787.707-.254.552v.001l.001-.001" fill="#E79159"/><path d="M13.833 38.802l.267.012.464-.09.437-.175.461-.195.75-.305 1.096-.498.674-.548h.001v-.001l-.414-.222-1.068.212-.838.316-.569.279-.563.36-.499.513-.199.341v.001c0 .001 0 .001 0 0m19.893-7.134l1.583-.957 2.846-2.443 1.268-1.525v-.001h-.001l-1.592.924-2.858 2.472-1.246 1.529-.001.001h.001" fill="#E79159"/><path d="M33.505 32.807l.579-.377 1.039-.809.969-.843.973-.846 1.491-1.267 2.01-1.737.952-1.067v-.001h-.001l-1.144.554-2.146 1.574-1.559 1.298-1.013.916-.969.967-.842 1.058-.339.58c0 .001 0 0 0 0" fill="#E79159"/><path d="M33.579 33.285l.576-.226 1.11-.684 1.056-.859 1.009-.914 1.444-1.405 1.833-1.917.801-1.089h-.001l-1.138.702-1.967 1.756-1.411 1.346-.933.878-.937.875-.954.971-.488.565-.001.001h.001" fill="#E79159"/><path d="M33.873 33.91l.52-.261.953-.706 1.27-1.274 1.568-1.776 1.446-1.797.565-.986v-.001l-.001.001-1.013.716-1.627 1.685-1.508 1.705-1.12 1.257-.713.913-.34.523-.001.001h.001" fill="#E79159"/><path d="M33.469 33.175l1.262-.874 2.241-2.066 1.641-1.561 1.086-1.029 1.095-1.023 1.076-1.1.53-.617v-.001l-.665.33-1.264.85-1.186.991-1.15 1.036-1.652 1.602-2.1 2.207-.915 1.254v.001h.001" fill="#E79159"/><path d="M33.836 33.469l.609-.29 1.155-.799 1.596-1.452 1.525-1.494.988-.974.989-.95.98-1.006.501-.57.001-.001h-.001l-.629.277-1.195.78-1.098.935-1.041.973-1.481 1.468-1.458 1.456-.958 1.05-.483.596-.001.001h.001" fill="#E79159"/><path d="M36.078 31.484l.586-.416 1.041-.884 1.431-1.402 1.896-1.905 1.387-1.494.821-1.097.336-.594v-.001.001l-.575.405-1.033.871-1.45 1.403-1.921 1.926-1.397 1.504-.803 1.093-.319.59h-.001.001" fill="#E79159"/><path d="M38.908 27.772l.426-.179.777-.589.967-1.114.855-1.134.523-.709.506-.665.459-.684.229-.402v-.001h-.001l-.451.197-.807.606-.661.719-.587.73-.779 1.056-.745 1.005-.469.727-.242.436-.001.001h.001m1.948-.441l.385-.12.715-.461.925-.929 1.098-1.275.754-.905.434-.631.21-.384v-.001.001l-.41.154-.743.507-.9.905-1.035 1.202-.732.867-.464.66-.237.409-.001.001h.001" fill="#E79159"/><path d="M41.959 24.941l.333-.299.459-.465.315-.361.303-.339.505-.529.702-.786.286-.565.001-.001-.001.001-.554.151-.975.721-.675.688-.412.525-.319.551-.077.502.108.207.001-.001" fill="#E79159"/><path d="M43.209 24.096l.273-.085.303-.178.157-.163.114-.136.111-.156.089-.134.036-.056.017-.033.073-.116.096-.178.007-.227-.027-.155v-.001.001l-.172-.001-.241.039-.192.126-.19.166-.16.175-.12.151-.102.151-.092.15-.065.132-.064.164.031.221.117.143v.001l.001-.001" fill="#E79159"/><path d="M42.29 24.978l.244-.163.278-.252.151-.187.091-.139.093-.143.071-.095.05-.049.084-.102.099-.127.123-.172.147-.218.158-.272.077-.357-.049-.223v-.001l-.001.001-.309.132-.38.26-.223.233-.167.191-.133.156-.107.134-.151.198-.17.259-.108.22-.057.169-.032.133-.001.155.089.174.132.085v.001l.001-.001" fill="#E79159"/><path d="M42.143 25.419l.365-.217.556-.425.664-.643.893-.849.899-.922.371-.656-.633.2-1.096.819-1.023.976-.682.81-.282.596-.033.311v.001l.001-.001" fill="#E79159"/><path d="M42.363 24.978l.36-.192.552-.528.383-.615.304-.62.313-.903.193-1.146-.23-.443v-.001l-.001.001-.55.735-.483 1.181-.3.797-.187.479-.195.452-.132.499-.027.304-.001.001.001-.001" fill="#E79159"/><path d="M43.025 23.214l.348-.249.49-.549.319-.58.238-.583.25-.858.095-1.091-.307-.39v-.001l-.001.001-.487.738-.394 1.138-.248.775-.166.481-.147.459-.044.463.053.246v.001l.001-.001m-1.286-.735l.659-.585.749-1.202.59-1.189.451-1.127-.024-.528v-.001l-.001.001-.671.611-.75 1.196-.564 1.153-.452 1.118.012.553v.001l.001-.001" fill="#E79159"/><path d="M43.466 21.597l.958-.906 1.149-1.753.208-.906v-.001.001l-1.005.84-1.169 1.812-.142.913h.001" fill="#E79159"/><path d="M43.576 22.883l.543-.731.519-1.173.41-1.121.244-1.111-.209-.458v-.001l-.001.001-.557.705-.547 1.19-.413 1.162-.226 1.116.236.421.001.001v-.001" fill="#E79159"/><path d="M44.201 21.597l.45-.705.332-.998.265-.888.136-.823-.19-.335-.001-.001-.001.001-.527.559-.514 1.01-.283.993-.031.921.363.266h.001" fill="#E79159"/><path d="M41.775 22.847l.367-.148.627-.476.52-.609.443-.644.383-.656.321-.66.331-.968-.088-.581h-.001l-.634.718-.552.938-.324.575-.318.544-.324.516-.321.504-.3.584-.13.362-.001.001h.001" fill="#E79159"/><path d="M41.886 23.14l.354-.397.481-.604.339-.449.329-.398.357-.389.391-.408.636-.703.347-.657v-.001h-.001l-.639.227-.82.621-.534.501-.507.563-.453.615-.339.646-.073.59.131.244c-.001 0 0 0 0 0l.001-.001" fill="#E79159"/><path d="M43.172 23.508l.583-.628.55-1.019.453-.913.379-.853-.017-.446v-.001l-.001.001-.636.452-.72.999-.494 1.013-.289.989.191.406v.001l.001-.001" fill="#E79159"/><path d="M43.062 23.324l.289-.358.366-.569.313-.693.383-.898.246-.914-.201-.39v-.001l-.001.001-.538.57-.543.977-.42.989-.198.742.109.408.194.137.001-.001" fill="#E79159"/><path d="M42.841 22.663l.596-.481.647-.847.556-.767.506-.755.121-.495h-.001l-.6.259-.828.826-.645.908-.441.918.088.434h.001" fill="#E79159"/><path d="M44.091 22.663l.545-.61.531-.998.425-.949.293-.929-.14-.41v-.001l-.001.001-.581.55-.599 1.011-.437 1.005-.244.961.207.369h.001" fill="#E79159"/><path d="M45.377 22.258l.587-1.156.078-1.79-.518-.582c0-.001 0-.001 0 0h-.001l-.528 1.185-.053 1.74.434.604h.001v-.001" fill="#E79159"/><path d="M44.532 22.295l.319-.216.426-.361.416-.486.535-.657.478-.748.031-.472v-.001l-.001.001-.524.255-.689.672-.628.772-.396.632-.063.421.095.188v.001l.001-.001" fill="#E79159"/><path d="M44.796 22.623l.26-.02.445-.334.368-.486.255-.507.175-.502.094-.482.012-.449-.229-.316-.208-.092-.001.001-.217.323-.301.546-.132.432-.124.397-.117.354-.11.302-.073.253-.071.316-.026.264c-.001 0-.001 0 0 0 0 .001 0 0 0 0m-2.847-3.326l.338-.323.45-.677.335-.985.245-.938.144-.56.143-.499.026-.424-.005-.23v-.001l-.001.001-.356.258-.554.634-.309.644-.22.641-.222.912-.155.84.045.479.095.228h.001" fill="#E79159"/><path d="M41.634 18.1l.328-.185.472-.497.382-.8.303-1.01.141-.668-.055-.353-.109-.166h-.001l-.329.277-.428.561-.312.749-.27.896-.162.584-.004.378.043.234v.001l.001-.001" fill="#E79159"/><path d="M41.861 16.764l.436-.615.265-.795.177-.688.053-.64-.276-.222v-.001l-.001.001-.502.506-.384.814-.189.78.032.706.388.155h.001v-.001" fill="#E79159"/><path d="M40.891 15.782l.273-.111.377-.321.284-.531.187-.681-.039-.581-.351-.119h-.001v.001l-.448.492-.264.642-.135.515-.065.324.08.221.101.149h.001" fill="#E79159"/><path d="M40.324 16.223l.463-.494.267-.651.15-.534.042-.426-.229-.163h-.001l-.514.354-.4.664-.166.612.03.533.357.105h.001" fill="#E79159"/><path d="M39.984 16.122l.415-.581.208-.738.107-.627-.035-.53-.279-.157-.001-.001v.001l-.465.47-.347.762-.111.699.1.608.407.094v.001l.001-.001" fill="#E79159"/><path d="M39.304 15.605l.599-1.211-.549-.527v-.001l-.001.001-.614 1.21.564.529.001-.001" fill="#E79159"/><path d="M39.228 15.693l.414-.656.211-.898.127-.777.046-.672-.244-.234v-.001l-.001.001-.54.54-.39.918-.128.853.101.754.403.173h.001v-.001" fill="#E79159"/><path d="M38.334 15.026l.657-.754.285-1.178-.401-.361s0-.001 0 0h-.001l-.622.797-.25 1.116.33.38.001.001.001-.001" fill="#E79159"/><path d="M37.59 14.724l.454-.215.377-.527.235-.753-.348-.307v-.001l-.001.001-.639.619-.249.625-.035.352.205.206h.001" fill="#E79159"/><path d="M37.553 14.509l.437-.471.264-.558.193-.694-.315-.33v-.001l-.001.001-.682.672-.302.837.034.487.37.058h.001l.001-.001" fill="#E79159"/><path d="M37.023 13.829l.407-.427.199-.397.077-.292-.089-.241-.316-.029H37.3l-.001.001-.41.295-.292.434-.095.41.109.316.411-.07.001.001v-.001" fill="#E79159"/><path d="M36.96 13.375l.539-.303.122-.205-.371-.096v-.001l-.001.001-.525.201-.188.391.423.013h.001v-.001m.164 1.411l.439-.464.269-.483.162-.357.032-.343-.209-.167h-.001l-.431.232-.421.51-.235.56.009.482.385.031h.001v-.001" fill="#E79159"/><path d="M36.633 14.849l.445-.475.282-.616.193-.801-.341-.363-.001.001-.669.749-.287.893.026.52.351.093.001-.001" fill="#E79159"/><path d="M36.532 14.106l.599-.249.491-.577-.045-.459h.001-.001l-.585.168-.569.697.108.42v.001l.001-.001m2.116 2.394l.459-.15.525-.585.37-.635.181-.583-.186-.252h-.001l-.498.316-.431.559-.272.489-.198.486.051.355m2.041-2.066l.535-.1-.32-.215v-.001l-.001.001-.535.099.321.216c-.001 0-.001 0 0 0m3.541 4.548l.5-.59.339-.871.171-.826-.061-.778-.395-.211h-.001v.001l-.413.631-.25.863-.158.788-.046.754.313.239c-.001 0 0 .001 0 0h.001m-1.134-.265l.633-.878.319-1.276-.347-.429H43.7l-.001.001-.673.857-.304 1.305.373.421.001-.001" fill="#E79159"/><path d="M44.129 18.062l.435-.617.255-.846.175-1.118-.349-.531c.001 0 0 0 0 0l-.001.001-.684 1.01-.264 1.212.055.719.377.171.001-.001" fill="#E79159"/><path d="M43.827 17.167l.557-.892.129-1.221-.447-.331h-.001v.001l-.597.888-.106 1.224.463.332h.001l.001-.001" fill="#E79159"/><path d="M43.348 17.457l.429-.554.23-.723.121-.932-.39-.399-.001.001-.646.895-.209 1.021.081.588.384.104.001-.001" fill="#E79159"/><path d="M43.31 17.356l.622-.831.202-1.235-.433-.353H43.7l-.001.001-.603.861-.173 1.187.386.371.001-.001" fill="#E79159"/><path d="M42.869 16.411l.458-.835-.042-.988-.542-.167h-.001v.001l-.504.829.067 1.004.563.157h.001v-.001m2.608 3.263l.642-1.474-.491-.818v-.001l-.001.001-.67 1.473.519.82.001-.001" fill="#E79159"/><path d="M45.54 18.44l.41-.545.215-.652.133-.819-.38-.353h-.001v.001l-.65.818-.228.95.093.542.407.059.001-.001m.491.731l.697-1.005-.457-.457h-.001l-.001.001-.69 1.007.451.454h.001" fill="#E79159"/><path d="M46.334 20.002l.581-1.243-.581-.546h-.001l-.001.001-.581 1.243.581.546h.001l.001-.001M35.15 13.84l.428.153.577-.276.386-.289.319-.443v-.001l-.137-.297-.489.076-.681.409-.403.667-.001.001h.001m-1.916.24l.54-.114.903-.646.613-.476.375-.28.395-.278.463-.401.302-.302.001-.001-.213-.126-.527.041-.547.266-.528.345-.689.563-.784.812-.304.596v.001" fill="#E79159"/><path d="M31.148 14.251l.667-.137 1.312-.816.949-.63.607-.376.633-.354.724-.453.443-.312.001-.001v-.001l-.301-.135-.721.05-.759.312-.742.412-1.008.7-1.221 1.02-.584.72-.001.001h.001" fill="#E79159"/><path d="M32.653 13.704l.476.065 1.007-.49.721-.418.453-.262.47-.261.555-.389.354-.298v-.001l-.204-.158-.519-.027-.559.196-.545.266-.741.455-.943.702-.525.619h-.001l.001.001m1.334.444l.589-.073.808-.392.513-.243.531-.244.553-.225.594-.211.717-.332.449-.264h.001l-.001-.001-.214-.215-.576-.131-.657.119-.659.216-.647.294-.635.375-.866.651-.5.675-.001.001h.001" fill="#E79159"/><path d="M34.294 12.712l.329.179.772-.237.772-.327.589-.272.477-.332.311-.277v-.001c.001 0 0 0 0 0l-.121-.191-.371-.115-.647.153-.83.361-.813.51-.467.548h-.001v.001" fill="#E79159"/><path d="M33.234 12.541l.58-.021.863-.358.56-.263.57-.245.587-.223.622-.204.746-.317.466-.251h.001l-.001-.001-.219-.229-.593-.15-.681.107-.682.208-.67.285-.654.343-.913.643-.582.675v.001m.41 1.573l.485.098 1.121-.416.839-.368.545-.233.564-.224.667-.363.397-.238.001-.001s0-.001 0 0l-.201-.185-.522-.139-.617.126-.626.216-.895.421-1.14.694-.617.611-.001.001" fill="#E79159"/><path d="M34.602 13.498l.378.291 1.081-.095.84-.152.561-.114.568-.101.686-.258.401-.186.001-.001-.142-.24-.417-.276-.556-.017-.576.047-.878.184-1.201.406-.745.511-.001.001s0 .001 0 0m.035-.718l.256.022.432-.102.389-.155.393-.167.412-.167.441-.166.478-.175.589-.323.372-.272.001-.001h-.001l-.145-.206-.424-.144-.507.068-.52.143-.524.208-.521.273-.504.354-.443.474-.175.335v.001h.001" fill="#E79159"/><path d="M34.636 13.635l.536.056 1.134-.405.855-.331.583-.225.617-.235.709-.379.423-.294h.001v-.001l-.222-.176-.561-.085-.631.127-.642.197-.95.4-1.224.702-.627.648-.001.001" fill="#E79159"/><path d="M35.697 13.43l.785.027.857-.916v-.001s0-.001 0 0l-.796-.049-.846.938-.001.001h.001m2.907 2.531l.548-.134.891-.631.618-.472.393-.3.412-.309.455-.435.275-.318v-.001c0-.001 0-.001 0 0l-.233-.089-.525.085-.53.279-.515.342-.697.566-.804.823-.288.593v.001m5.61 4.993l.266-.362.302-.547.212-.62.264-.754.174-.72-.191-.314-.001-.001v.001l-.546.487-.511.889-.308.887-.087.65.188.323.237.082h.001v-.001" fill="#E79159"/><path d="M42.572 23.452l.229-.078.394-.287.354-.379.298-.411.333-.614.352-.815.282-.786.254-.728.256-.651.14-.423.069-.296.049-.176.001-.001h-.001l-.218.125-.415.336-.481.587-.423.785-.325.773-.272.737-.253.687-.199.473-.112.285-.112.288-.136.345-.064.223v.001m1.403 0l.244-.097.395-.328.326-.415.248-.428.254-.61.232-.771.185-.7.141-.446.099-.241.109-.21.116-.174.113-.199.209-.3.167-.212.001-.001h-.001l-.209.003-.449.17-.431.32-.33.389-.254.392-.197.395-.213.556-.196.701-.163.661-.126.457-.074.27-.07.266-.091.33-.036.221v.001h.001" fill="#E79159"/></svg><svg width="56" height="56" viewBox="0, 0, 56, 56" id="purpose" x="180" y="56"><path d="M28.5 48C17.73 48 9 39.27 9 28.5S17.73 9 28.5 9c4.427-.028 8.06 1.437 11.667 3.874m5.01 5.515C47.061 21.462 47.91 24.922 48 28.5 48 39.27 39.27 48 28.5 48" fill-opacity="0" stroke="#E79159" stroke-width="3"/><path d="M28.5 38.5c-5.523 0-10-4.477-10-10s4.477-10 10-10c1.862-.04 3.575.573 5.185 1.448m4.208 5.114c.419 1.103.577 2.265.607 3.438 0 5.523-4.477 10-10 10" fill-opacity="0" stroke="#E79159" stroke-width="3"/><path d="M29.3 27.231a1.5 1.5 0 1 1-1.6 2.538 1.5 1.5 0 0 1 1.6-2.538m.002.38L50.5 9.312M29.606 27.229L48.635 7.344" fill-opacity="0" stroke="#E79159" stroke-width="3"/><path d="M39.404 13.078c.174 0 .422-.177.553-.396.131-.218.096-.395-.079-.395s-.422.177-.553.395c-.131.219-.096.396.079.396" fill="#E79159"/></svg><svg id="twitter" data-name="Layer 1" width="51.78" height="42.06" viewBox="0 0 51.78 42.06" x="64" y="70"><defs><style>.jcls-1{fill:#fff}</style></defs><title>twitter</title><path class="jcls-1" d="M51.78 5a22.23 22.23 0 0 1-5.32 5.52v1.38a30.15 30.15 0 0 1-1.25 8.53 30.81 30.81 0 0 1-3.76 8.13 32.1 32.1 0 0 1-6.06 6.92 27 27 0 0 1-8.48 4.8 31 31 0 0 1-10.62 1.8A29.47 29.47 0 0 1 0 37.29a22.71 22.71 0 0 0 2.56.13 20.78 20.78 0 0 0 13.17-4.53 10.63 10.63 0 0 1-9.92-7.36 13.45 13.45 0 0 0 2 .16 11 11 0 0 0 2.79-.36 10.44 10.44 0 0 1-6.09-3.67 10.25 10.25 0 0 1-2.41-6.75v-.13a10.52 10.52 0 0 0 4.8 1.34 10.6 10.6 0 0 1-3.45-3.78 10.34 10.34 0 0 1-1.28-5.07 10.4 10.4 0 0 1 1.45-5.33 30.08 30.08 0 0 0 9.71 7.83A29.57 29.57 0 0 0 25.53 13a11.79 11.79 0 0 1-.26-2.43 10.23 10.23 0 0 1 3-7.48 10.64 10.64 0 0 1 15 0l.21.22A20.81 20.81 0 0 0 50.33.8a10.3 10.3 0 0 1-4.67 5.85A21.14 21.14 0 0 0 51.78 5z"/></svg><svg width="56" height="56" viewBox="0, 0, 56, 56" id="values" x="180" y="112"><g fill-opacity="0" stroke="#E79159"><g stroke-width="2"><path d="M17.406 12.186l22.225-.064"/><path d="M5.697 24.218l45.643-.256" stroke-linejoin="round"/><path d="M38.392 11.41l12.082 12.552M18.287 11.727L5.66 24.556" stroke-linejoin="bevel"/></g><path d="M6.648 24.125L28.799 43.99" stroke-width="2" stroke-linejoin="bevel"/><path d="M50.867 24.066L28.545 45.108m2.49-32.516l7.671 11.228" stroke-linejoin="bevel"/><path d="M25.344 12.44l-6.706 11.075" stroke-width="2" stroke-linejoin="bevel"/><path d="M37.538 24.633l-7.316 18.392" stroke-width=".7" stroke-linejoin="bevel"/><path d="M27.58 24.023l1.723 19.863" stroke-linejoin="bevel"/><path d="M15.338 24.015l13.811 18.843" stroke-width="1.5" stroke-linejoin="bevel"/></g></svg><svg id="youtube" data-name="Layer 1" width="34.75" height="42" viewBox="0 0 34.75 42" y="178"><defs><style>.lcls-1{fill:#fff}</style></defs><title>youtube</title><path class="lcls-1" d="M22.13 29.15v5q0 1.57-.91 1.57a1.5 1.5 0 0 1-1.06-.52v-7.11a1.5 1.5 0 0 1 1.06-.54q.91 0 .91 1.6zm7.92 0v1.08h-2.1v-1.06q0-1.59 1.06-1.59t1 1.59zM7.42 24h2.5v-2.14h-7.3v2.2h2.46V37.4h2.34V24zm6.75 13.4h2.09V25.82h-2.09v8.86a1.86 1.86 0 0 1-1.31 1 .48.48 0 0 1-.49-.47 6.52 6.52 0 0 1 0-.82v-8.57h-2.14V35a5.79 5.79 0 0 0 .19 1.71 1.26 1.26 0 0 0 1.36.87 3.43 3.43 0 0 0 2.39-1.43v1.25zm10.05-3.47v-4.6A8.33 8.33 0 0 0 24 27a1.63 1.63 0 0 0-1.67-1.31A2.82 2.82 0 0 0 20.16 27v-5.1h-2.08v15.5h2.09v-1.13a2.91 2.91 0 0 0 2.18 1.31A1.62 1.62 0 0 0 24 36.27a8.61 8.61 0 0 0 .22-2.35zm7.92-.24v-.3H30a11.6 11.6 0 0 1 0 1.43.9.9 0 0 1-.94.85q-1.08 0-1.08-1.61V32h4.19v-2.41a4.65 4.65 0 0 0-.66-2.72 3.2 3.2 0 0 0-5 0 4.52 4.52 0 0 0-.66 2.72v4.05a4.4 4.4 0 0 0 .66 2.72 3 3 0 0 0 2.49 1.2 2.9 2.9 0 0 0 3-2.51 10.31 10.31 0 0 0 .09-1.36zM17.89 12.3V7.38q0-1.61-1-1.61t-1 1.61v4.92q0 1.64 1 1.64t1-1.64zm16.85 17.6a40.6 40.6 0 0 1-.61 8.2 4.45 4.45 0 0 1-1.36 2.32 4.1 4.1 0 0 1-2.39 1.08 125.31 125.31 0 0 1-13 .49 125.31 125.31 0 0 1-13-.49A4.15 4.15 0 0 1 2 40.42 4.28 4.28 0 0 1 .63 38.1 39.76 39.76 0 0 1 0 29.9a40.6 40.6 0 0 1 .61-8.2A4.45 4.45 0 0 1 2 19.37a4.25 4.25 0 0 1 2.41-1.1q4.29-.47 13-.47t13 .47a4.4 4.4 0 0 1 3.75 3.42 39.76 39.76 0 0 1 .58 8.21zM11.35 0h2.39l-2.83 9.35v6.35H8.57V9.35a39.68 39.68 0 0 0-1.43-5Q6.27 2 5.61 0H8.1l1.67 6.16zM20 7.8v4.1a4.59 4.59 0 0 1-.66 2.76 2.88 2.88 0 0 1-2.49 1.19 2.9 2.9 0 0 1-2.46-1.19 4.68 4.68 0 0 1-.66-2.76V7.8a4.59 4.59 0 0 1 .66-2.74 2.9 2.9 0 0 1 2.46-1.19 2.88 2.88 0 0 1 2.49 1.19A4.59 4.59 0 0 1 20 7.8zM27.87 4v11.7h-2.13v-1.27a3.37 3.37 0 0 1-2.41 1.45A1.31 1.31 0 0 1 22 15a6 6 0 0 1-.19-1.76V4h2.13v8.6a6.14 6.14 0 0 0 0 .82.49.49 0 0 0 .47.52 1.87 1.87 0 0 0 1.31-1V4h2.16z"/></svg></svg>