<svg width="192" height="176" viewBox="0 0 192 176" xmlns="http://www.w3.org/2000/svg" xmlns:xlink="http://www.w3.org/1999/xlink"><svg width="132" height="72" viewBox="0, 0, 110, 60" id="company-logo"><text transform="translate(55.054 17.452)"><tspan x="-51.707" y="9.548" font-family="Georgia-Bold" font-size="31" fill="#FFF">James</tspan></text><path d="M20.997 6.702q-.606.075-1.03.151-.423.076-.953.212-.621.166-.795.59-.174.424-.174.969v11.837q0 1.635-.658 2.997-.659 1.362-1.809 2.286-1.166.908-2.604 1.37-1.438.461-3.073.461-2.83 0-4.563-1.362-1.733-1.362-1.733-3.739 0-1.408.794-2.331.795-.923 2.188-.923 1.316 0 2.096.772.779.772.779 1.907 0 .969-.673 1.794-.674.825-1.536 1.521v.197q.136.302.59.514.454.212.923.212 1.817 0 2.853-1.302 1.037-1.301 1.037-3.935V8.775q0-.545-.166-.908-.167-.363-.802-.636-.455-.196-1.098-.333-.643-.136-1.067-.196V5.521h11.474zm18.981 19.98q-.666.288-1.574.53-.908.242-1.922.242-1.862 0-2.74-.552-.878-.553-1.196-1.582h-.091q-.514.514-.991.878-.477.363-1.022.62-.711.333-1.37.492-.658.159-1.839.159-1.756 0-2.997-1.037-1.241-1.036-1.241-2.747 0-.984.272-1.673.273-.688.772-1.218.454-.484 1.052-.802.598-.318 1.309-.591 1.363-.499 3.27-1.036 1.907-.538 2.785-.962V15.95q0-.378-.06-.999-.061-.62-.258-1.044-.212-.485-.666-.818-.454-.333-1.196-.333-.666 0-1.112.19-.447.189-.719.386.045.302.257.923.212.62.212 1.196 0 .257-.136.643t-.394.613q-.348.303-.779.469-.432.167-1.325.167-1.271 0-1.922-.613t-.651-1.597q0-.848.674-1.521.673-.674 1.642-1.113.954-.454 2.195-.704 1.241-.25 2.301-.25 1.468 0 2.694.174 1.226.175 2.21.719.938.53 1.491 1.537.552 1.006.552 2.626 0 1.711-.068 4.057t-.068 3.088q0 .681.205 1.074.204.394.628.591.257.121.81.143.552.023 1.006.023zm-7.523-7.886q-.847.287-1.68.658-.833.371-1.362.78-.56.424-.878 1.082-.318.659-.318 1.552 0 1.18.537 1.71.538.53 1.325.53.832 0 1.37-.341.537-.34.946-.84zM71.22 27h-9.021v-1.105q.333-.045.696-.076.363-.03.606-.151.333-.151.423-.507.091-.356.091-.916v-7.069q0-1.559-.552-2.338-.553-.78-1.582-.78-.651 0-1.158.204-.507.205-.931.508-.439.317-.681.635-.242.318-.409.545v8.129q0 .545.129.885.129.341.477.537.242.137.552.243.31.106.659.151V27h-8.643v-1.105q.287-.03.696-.076.409-.045.605-.151.318-.167.417-.484.098-.318.098-.939v-7.069q0-1.559-.553-2.338-.552-.78-1.581-.78-.651 0-1.158.204-.507.205-.931.508-.439.317-.681.635-.243.318-.409.545v8.129q0 .529.136.878.136.348.485.544.242.137.552.243.31.106.659.151V27h-9.067v-1.105q.393-.03.772-.076.378-.045.65-.151.485-.182.667-.522.181-.341.181-.901v-8.809q0-.485-.257-.946-.258-.462-.621-.719-.272-.182-.689-.303-.416-.121-.915-.167v-1.105l7.22-.393.227.227v2.134h.061l1.006-.901q.583-.522 1.098-.84.56-.363 1.438-.605.877-.242 1.922-.242 1.725 0 2.883.749t1.643 1.99h.136q.439-.408 1.075-.961.635-.552 1.165-.885.591-.379 1.506-.636.916-.257 1.961-.257 2.285 0 3.519 1.347 1.233 1.347 1.233 3.829v7.357q0 .56.167.901.166.34.605.522.243.106.598.212.356.106.825.151zm17.68-3.618q-.53.863-1.279 1.628-.749.764-1.703 1.309-1.014.575-2.051.87-1.037.295-2.384.295-2.24 0-3.867-.635-1.628-.636-2.687-1.711-1.06-1.075-1.582-2.535-.522-1.461-.522-3.171 0-1.544.567-2.96.568-1.415 1.612-2.52 1.03-1.075 2.596-1.741 1.567-.666 3.505-.666 2.119 0 3.481.515 1.362.515 2.255 1.423.863.863 1.257 2.036.393 1.173.393 2.46v.983H78.259q0 3.103 1.196 4.723 1.195 1.62 3.799 1.62 1.423 0 2.558-.78 1.135-.779 1.938-1.975zm-5.782-5.752q0-.908-.091-1.861-.091-.954-.318-1.56-.257-.711-.704-1.074-.446-.364-1.127-.364-1.166 0-1.862 1.181-.697 1.181-.757 3.739zm14.243 9.885q-1.468 0-2.868-.432-1.4-.431-2.172-.916l-.454 1.03h-1.181l-.197-5.646h1.105q.227.681.757 1.536t1.211 1.537q.712.681 1.627 1.15.916.469 1.96.469 1.378 0 2.052-.537.673-.538.673-1.658 0-.605-.303-.999-.302-.393-.832-.681-.59-.303-1.294-.514-.704-.212-1.733-.515-1.03-.303-1.764-.613t-1.521-.976q-.681-.591-1.09-1.423-.409-.833-.409-1.983 0-2.135 1.794-3.451 1.794-1.317 4.7-1.317 1.377 0 2.535.28 1.158.28 1.945.613l.318-.893h1.151l.242 5.161h-1.075q-.53-1.574-1.816-2.717-1.287-1.143-2.77-1.143-1.166 0-1.832.485-.666.484-.666 1.347 0 1.15.977 1.665.976.515 2.732.969 2.709.696 3.966 1.899 1.256 1.204 1.256 3.066 0 2.482-1.945 3.844-1.945 1.363-5.079 1.363z" stroke="#FFF" fill="none"/><text transform="translate(76.297 45.379)"><tspan x="-10.987" y="8.846" font-family="Georgia-Bold" font-size="28" fill="#FFF">&amp;</tspan></text><text transform="translate(33.099 47.054)"><tspan x="-29.86" y="8.91" font-family="Georgia-Bold" font-size="31" fill="#FFF">Lee</tspan></text></svg><svg width="56" height="56" viewBox="0, 0, 56, 56" id="healthcare" x="132" y="60"><path d="M8.658 28.5h39.684M28.5 8.658v39.684" stroke="#E79159" stroke-width="13" stroke-linejoin="bevel" fill="none"/></svg><svg width="32.9" height="32.9" viewBox="0, 0, 47, 47" id="linkedin" x="146.75" y="120"><path d="M11.072 48.154H1.017V13.629h10.055v34.525zm36.869 0H37.886V29.711c0-4.806-1.663-7.199-4.957-7.199-2.611 0-4.267 1.34-5.098 4.023v21.619H17.775s.134-31.072 0-34.525h7.937l.614 6.905h.208c2.061-3.452 5.356-5.793 9.874-5.793 3.435 0 6.214.984 8.336 3.456 2.135 2.475 3.197 5.797 3.197 10.461v19.496zM5.037 11.724c-2.739-.527-4.532-3.3-4.003-6.195C1.562 2.635 4.21.715 6.949 1.241c2.739.527 4.532 3.3 4.003 6.195-.528 2.895-3.176 4.814-5.915 4.288z" fill="#FFF"/><path d="M5.037 11.724c-2.739-.527-4.532-3.3-4.003-6.195C1.562 2.635 4.21.715 6.949 1.241c2.739.527 4.532 3.3 4.003 6.195-.528 2.895-3.176 4.814-5.915 4.288z" stroke="#FFF" fill="none"/></svg><svg width="64" height="48" viewBox="0, 0, 64, 48" id="mail" y="72"><path d="M0 0v8l32 16L64 8V0H0zm0 16v32h64V16L32 32z" fill="#594141"/></svg><svg width="60" height="60" viewBox="0, 0, 60, 60" id="mission" x="132"><path d="M49.999 5.774c2.075-.013 3.735.625 5.301 1.919 4.194 4.179 1.356 13.826-6.338 21.548-7.694 7.722-17.332 10.594-21.525 6.415-4.194-4.178-1.356-13.826 6.338-21.548 4.95-4.784 9.337-7.575 16.224-8.334z" fill="#E79159"/><path d="M49.999 5.774c2.075-.013 3.735.625 5.301 1.919 4.194 4.179 1.356 13.826-6.338 21.548-7.694 7.722-17.332 10.594-21.525 6.415-4.194-4.178-1.356-13.826 6.338-21.548 4.95-4.784 9.337-7.575 16.224-8.334z" stroke="#E79159" fill="none"/><path d="M40.67 22.172l-2.75 11.091-1.751 4.275.902 3.979L26.62 54.09l-2.341-13.192-12.461-2.14 10.08-11.884 3.926 1.645 4.582-2.57 10.264-3.777z" fill="#E79159"/><path d="M40.67 22.172l-2.75 11.091-1.751 4.275.902 3.979L26.62 54.09l-2.341-13.192-12.461-2.14 10.08-11.884 3.926 1.645 4.582-2.57 10.264-3.777z" stroke="#E79159" fill="none"/><path d="M47.638 16.947c-1.421 0-2.573-1.117-2.573-2.494 0-1.377 1.152-2.493 2.573-2.493s2.573 1.116 2.573 2.493c0 1.377-1.152 2.494-2.573 2.494z" fill="#FFF"/><path d="M47.638 16.947c-1.421 0-2.573-1.117-2.573-2.494 0-1.377 1.152-2.493 2.573-2.493s2.573 1.116 2.573 2.493c0 1.377-1.152 2.494-2.573 2.494z" stroke="#FFF" fill="none"/><path d="M24.967 33.304l.658.337 3.299 2.756c.784.655.823 1.9.088 2.779l-6.095 7.295c-.734.88-1.966 1.063-2.75.408l-3.299-2.756c-.784-.655-.824-1.9-.089-2.78l6.095-7.295c.701-.74 1.136-.619 2.093-.744z" fill="#E79159"/><path d="M24.967 33.304l.658.337 3.299 2.756c.784.655.823 1.9.088 2.779l-6.095 7.295c-.734.88-1.966 1.063-2.75.408l-3.299-2.756c-.784-.655-.824-1.9-.089-2.78l6.095-7.295c.701-.74 1.136-.619 2.093-.744z" stroke="#E79159" fill="none"/><g fill="#E79159"><path d="M13.107 54.654l-.151-.174-.314-.299-.278-.3-.245-.305-.205-.319-.165-.336-.125-.352-.087-.366-.052-.375-.017-.386.015-.39.045-.394.11-.592.228-.772.225-.545.175-.348.202-.343.223-.327.245-.308.265-.288.286-.263.305-.236.325-.203.342-.168.356-.125.368-.078.376-.026.381.03.381.091.381.154.189.103h.001v-.001l-.181-.112-.365-.177-.368-.116-.369-.059-.371-.003-.371.049-.371.1-.371.147-.37.195-.365.239-.359.281-.348.319-.335.353-.317.384-.297.408-.276.439-.359.683-.351.92-.16.688-.049.452-.005.44.041.423.086.405.136.379.187.351.24.316.297.276.357.228.429.162.501.084.298-.012.001-.001"/><path d="M11.797 53.776l.098.216.264.342.329.248.362.183.392.12.413.062.429.01.443-.043.45-.089.455-.135.456-.179.452-.222.444-.261.43-.3.409-.329.383-.353.353-.371.321-.383.284-.392.246-.396.205-.397.165-.394.122-.39.078-.385.035-.377-.013-.369-.06-.359-.111-.347-.164-.334-.219-.318-.277-.302-.338-.283-.192-.133h-.001v.001l.183.143.315.303.252.322.189.339.132.351.075.362.024.368-.027.372-.072.37-.114.367-.153.359-.185.347-.215.334-.239.317-.261.299-.279.28-.293.26-.308.241-.319.223-.331.205-.343.19-.356.172-.369.153-.38.129-.39.102-.397.072-.404.04-.409.006-.414-.03-.421-.064-.426-.102-.458-.117-.249-.055-.001.001s-.001 0 0 0"/><path d="M12.494 53.847l.126.292.38.342.447.158.47.03.48-.078.485-.175.475-.268.442-.332.571-.536.665-.719.624-.65.474-.405.331-.219.171-.088.001-.001c0-.001 0-.001 0 0l-.172.075-.345.188-.521.362-.696.555-.687.531-.489.326-.297.167-.294.142-.322.128-.367.094-.426.049-.5.004-.624-.009-.401.036-.001.001"/><path d="M15.495 53.847l.07.125.229.053.273-.047.294-.129.414-.286.473-.493.344-.526.266-.484.26-.446.294-.409.169-.186v-.001l-.196.172-.391.386-.395.411-.39.387-.344.31-.28.258-.212.193-.16.139-.214.171-.296.217-.208.184-.001.001h.001m-2.804.163l-.032-.314-.132-.466-.108-.376-.058-.338-.004-.316.028-.294.054-.284.065-.284.145-.46.262-.647.287-.649.175-.461.071-.287.02-.136s0-.001 0 0h-.001l-.034.141-.111.292-.249.459-.444.658-.506.723-.355.592-.19.422-.118.421-.035.408.061.377.155.345.275.291.444.183.334.001h.001v-.001"/><path d="M11.363 52.151l.112-.331.133-.515.11-.397.118-.321.132-.265.139-.225.137-.215.165-.227.312-.392.497-.55.519-.554.352-.415.196-.276.085-.137v-.001l-.001.001-.095.133-.219.252-.381.352-.583.449-.642.474-.497.416-.324.341-.296.383-.223.409-.143.41-.057.4.05.377.202.317.201.108.001-.001m1.359 1.873l.128.18.371.122.41-.004.429-.109.435-.2.424-.271.556-.495.608-.732.513-.719.496-.666.396-.453.289-.271.154-.124-.16.113-.316.251-.469.424-.615.609-.596.579-.553.482-.382.298-.245.176-.277.166-.334.163-.41.161-.512.166-.339.153h-.001v.001"/><path d="M12.329 53.822l.138.204.37.203.425.042.445-.072.451-.164.447-.249.419-.321.371-.362.461-.55.53-.717.51-.66.402-.434.288-.253.154-.111v-.001l-.158.101-.315.229-.467.408-.618.598-.612.576-.437.367-.261.193-.246.17-.26.162-.302.151-.364.131-.444.116-.567.133-.359.109h-.001v.001"/><path d="M12.44 53.531l.005.331.22.332.348.109.414-.04.463-.17.48-.31.427-.395.323-.417.305-.56.276-.667.261-.58.226-.37.176-.213.101-.093.001-.001h-.002l-.112.082-.234.2-.358.373-.498.557-.508.518-.332.283-.139.091-.071.052-.062.06-.129.105-.235.125-.365.148-.564.229-.415.219-.002.001v.001"/><path d="M12.998 53.399l.273-.365.268-.483.203-.347.16-.252.127-.187.114-.156.161-.272.266-.449.374-.529.431-.556.399-.55.168-.27v-.001l-.001.001-.209.243-.482.431-.555.393-.635.427-.685.553-.463.534-.243.416-.168.417-.064.391.059.339.216.252.284.021h.001l.001-.001m-1.422-3.569l.307-.277.344-.348.234-.173.144-.069.104-.043.124-.066.306-.229.575-.422.686-.45.699-.425.485-.31.288-.196.132-.101.001-.001-.001-.001-.131.073-.272.129-.434.133-.62.122-.668.102-.737.197-.602.315-.428.349-.395.422-.289.455-.125.416.068.315.203.084h.001l.001-.001"/><path d="M13.32 47.747l.34-.258.374-.25.098.046-.029.135.029.043.157-.021.45-.111.763-.147.773-.063.51.003.291.012.242.01.191-.006.074-.012.001-.001v-.001l-.064-.003-.158-.038-.191-.077-.214-.114-.355-.223-.513-.356-.576-.317-.528-.083-.457.101-.541.266-.541.473-.342.516.018.367.197.11c-.001 0 0 0 0 0l.001-.001"/><path d="M12.419 48.58l.265-.232.304-.27.213-.143.058.07-.091.08.2-.339.403-.423.259-.261.104-.118v-.002h-.001l-.109.064-.231.064-.423.025-.612.147-.559.474-.305.553.035.296.238.066.25-.05h.001l.001-.001"/><path d="M13.495 47.641l.294.053.118.145-.039.126.186-.349.361-.398.164-.158.001-.001-.001-.001-.11-.027-.222-.179-.393-.112-.437.367-.114.356.19.177v.002l.002-.001m-.592 5.93l.5-.165.86-.654.783-.827.634-.905.526-.909.481-.868.463-.8.346-.538.22-.326.11-.151v-.001h-.001l-.126.146-.274.312-.448.515-.679.743-.741.78-.755.784-.688.772-.56.777-.484.814-.168.5v.002l.001-.001m1.899.272l.152.178.437-.02.529-.251.533-.43.461-.519.344-.538.23-.516.13-.48.091-.658.061-.825.081-.763.116-.517.103-.306.066-.141v-.001l-.001.001-.088.146-.176.333-.258.576-.38.875-.437.919-.356.651-.221.368-.178.296-.129.224-.089.179-.103.19-.204.278-.402.403-.312.346-.001.001.001.001m-2.605-.903l.243-.466.293-.685.212-.479.188-.342.174-.236.154-.176.148-.187.207-.232.443-.453.73-.654.77-.659.53-.504.308-.335.134-.172v-.001h-.001l-.149.155-.32.283-.535.356-.794.418-.87.425-.696.408-.493.388-.481.483-.391.554-.266.564-.131.542.03.496.266.395.295.116h.001l.001-.002"/><path d="M16.653 53.455l.175.079.387-.131.427-.326.365-.417.274-.436.201-.425.131-.57-.007-.686-.062-.637-.024-.61.055-.574.065-.268-.002.001-.132.295-.266.674-.294.755-.34.781-.351.725-.206.446-.074.219-.049.171-.016.146-.018.185-.128.321-.111.281-.001.001h.001"/><path d="M16.556 52.989l.05.172.196.142.25.024.279-.05.429-.197.591-.466.511-.645.28-.619.106-.536-.016-.469-.131-.631-.238-.78-.15-.537-.07-.32-.035-.281.005-.228.02-.092h-.001l-.001.001-.035.1-.051.257-.035.327-.032.387-.066.667-.169.987-.198.727-.15.414-.124.305-.064.16.036.053-.037.129-.151.169-.165.152-.244.189-.348.267-.241.22-.001.001v.001m-3.891.061l.226-.44.194-.583.147-.414.12-.287.1-.186.078-.117.051-.101.072-.142.229-.328.442-.515.498-.528.337-.393.18-.26.076-.127-.001-.001-.001.001-.091.119-.209.212-.361.276-.566.331-.657.361-.547.374-.391.362-.352.441-.248.469-.136.452-.007.41.141.35.326.256.348.009h.001l.001-.001"/><path d="M13.303 53.358l.243-.409.225-.547.183-.405.157-.303.135-.227.128-.187.19-.313.319-.507.444-.6.503-.631.349-.472.205-.306.086-.152v-.001l-.001.001-.11.144-.239.273-.416.368-.631.466-.719.508-.763.651-.501.615-.25.467-.161.463-.042.428.094.371.26.28.31.026h.001l.001-.001"/><path d="M12.995 53.577l.142-.277.134-.311.079-.165.065-.103.063-.101-.017-.052-.118-.065-.102-.165-.035-.214-.005-.201-.008-.083h-.001l-.001.001-.045.097-.17.221-.269.264-.35.343-.319.443-.115.428.093.225.146.091.219.007.341-.165.271-.216h.002v-.002m1.913-.35l.149.153.4-.043.481-.261.471-.416.386-.484.286-.486.222-.653.073-.79-.005-.734.029-.705.076-.506.1-.329.06-.158v-.001l-.001.001-.094.168-.173.357-.265.591-.35.843-.381.843-.383.747-.226.432-.082.188-.05.14-.046.15-.125.239-.307.379-.245.333-.001.002h.001m-2.793-1.277l.163-.284.168-.416.111-.323.096-.266.122-.319.166-.293.118-.124.073-.046.09-.088.188-.179.481-.371.79-.506.607-.363.379-.236.337-.23.283-.235.117-.119.001-.002-.002.001-.121.102-.275.174-.312.142-.341.11-.559.138-.815.196-.671.235-.515.288-.538.443-.458.562-.294.574-.108.508.02.357.082.223.143.199.25.141.222.008h.001l.001-.001"/><path d="M11.829 52.148l.115-.328.099-.496.05-.39.02-.309.04-.267.042-.215.05-.169.05-.119.084-.128.069-.054.039-.032.17-.157.315-.235.408-.259.691-.38.681-.35.415-.226.358-.222.285-.229.11-.119.001-.002-.002.001-.112.103-.274.173-.328.136-.37.105-.615.125-.658.12-.47.113-.514.186-.577.329-.598.534-.427.608-.179.44-.065.297-.013.281.034.268.09.254.135.25.231.209.35.145.268.01h.002v-.001"/></g></svg><svg width="56" height="56" viewBox="0, 0, 56, 56" id="purpose" y="120"><path d="M28.5 48C17.73 48 9 39.27 9 28.5S17.73 9 28.5 9c4.427-.028 8.06 1.437 11.667 3.874m5.01 5.515C47.061 21.462 47.91 24.922 48 28.5 48 39.27 39.27 48 28.5 48" stroke="#E79159" stroke-width="3" fill="none"/><path d="M28.5 38.5c-5.523 0-10-4.477-10-10s4.477-10 10-10c1.862-.04 3.575.573 5.185 1.448m4.208 5.114c.419 1.103.577 2.265.607 3.438 0 5.523-4.477 10-10 10" stroke="#E79159" stroke-width="3" fill="none"/><path d="M29.3 27.231a1.5 1.5 0 1 1-1.6 2.538 1.5 1.5 0 0 1 1.6-2.538m.002.38L50.5 9.312M29.606 27.229L48.635 7.344" stroke="#E79159" stroke-width="3" fill="none"/><path d="M39.404 13.078c.174 0 .422-.177.553-.396.131-.218.096-.395-.079-.395s-.422.177-.553.395c-.131.219-.096.396.079.396" fill="#E79159"/></svg><svg id="twitter" data-name="Layer 1" width="51.78" height="42.06" viewBox="0 0 51.78 42.06" x="64" y="72"><defs><style>.gcls-1{fill:#fff}</style></defs><title>twitter</title><path class="gcls-1" d="M51.78 5a22.23 22.23 0 0 1-5.32 5.52v1.38a30.15 30.15 0 0 1-1.25 8.53 30.81 30.81 0 0 1-3.76 8.13 32.1 32.1 0 0 1-6.06 6.92 27 27 0 0 1-8.48 4.8 31 31 0 0 1-10.62 1.8A29.47 29.47 0 0 1 0 37.29a22.71 22.71 0 0 0 2.56.13 20.78 20.78 0 0 0 13.17-4.53 10.63 10.63 0 0 1-9.92-7.36 13.45 13.45 0 0 0 2 .16 11 11 0 0 0 2.79-.36 10.44 10.44 0 0 1-6.09-3.67 10.25 10.25 0 0 1-2.41-6.75v-.13a10.52 10.52 0 0 0 4.8 1.34 10.6 10.6 0 0 1-3.45-3.78 10.34 10.34 0 0 1-1.28-5.07 10.4 10.4 0 0 1 1.45-5.33 30.08 30.08 0 0 0 9.71 7.83A29.57 29.57 0 0 0 25.53 13a11.79 11.79 0 0 1-.26-2.43 10.23 10.23 0 0 1 3-7.48 10.64 10.64 0 0 1 15 0l.21.22A20.81 20.81 0 0 0 50.33.8a10.3 10.3 0 0 1-4.67 5.85A21.14 21.14 0 0 0 51.78 5z"/></svg><svg width="56" height="56" viewBox="0, 0, 56, 56" id="values" x="56" y="120"><g fill-opacity="0" stroke="#E79159"><g stroke-width="2"><path d="M17.406 12.186l22.225-.064"/><path d="M5.697 24.218l45.643-.256" stroke-linejoin="round"/><path d="M38.392 11.41l12.082 12.552M18.287 11.727L5.66 24.556" stroke-linejoin="bevel"/></g><path d="M6.648 24.125L28.799 43.99" stroke-width="2" stroke-linejoin="bevel"/><path d="M50.867 24.066L28.545 45.108m2.49-32.516l7.671 11.228" stroke-linejoin="bevel"/><path d="M25.344 12.44l-6.706 11.075" stroke-width="2" stroke-linejoin="bevel"/><path d="M37.538 24.633l-7.316 18.392" stroke-width=".7" stroke-linejoin="bevel"/><path d="M27.58 24.023l1.723 19.863" stroke-linejoin="bevel"/><path d="M15.338 24.015l13.811 18.843" stroke-width="1.5" stroke-linejoin="bevel"/></g></svg><svg id="youtube" data-name="Layer 1" width="34.75" height="42" viewBox="0 0 34.75 42" x="112" y="120"><defs><style>.icls-1{fill:#fff}</style></defs><title>youtube</title><path class="icls-1" d="M22.13 29.15v5q0 1.57-.91 1.57a1.5 1.5 0 0 1-1.06-.52v-7.11a1.5 1.5 0 0 1 1.06-.54q.91 0 .91 1.6zm7.92 0v1.08h-2.1v-1.06q0-1.59 1.06-1.59t1 1.59zM7.42 24h2.5v-2.14h-7.3v2.2h2.46V37.4h2.34V24zm6.75 13.4h2.09V25.82h-2.09v8.86a1.86 1.86 0 0 1-1.31 1 .48.48 0 0 1-.49-.47 6.52 6.52 0 0 1 0-.82v-8.57h-2.14V35a5.79 5.79 0 0 0 .19 1.71 1.26 1.26 0 0 0 1.36.87 3.43 3.43 0 0 0 2.39-1.43v1.25zm10.05-3.47v-4.6A8.33 8.33 0 0 0 24 27a1.63 1.63 0 0 0-1.67-1.31A2.82 2.82 0 0 0 20.16 27v-5.1h-2.08v15.5h2.09v-1.13a2.91 2.91 0 0 0 2.18 1.31A1.62 1.62 0 0 0 24 36.27a8.61 8.61 0 0 0 .22-2.35zm7.92-.24v-.3H30a11.6 11.6 0 0 1 0 1.43.9.9 0 0 1-.94.85q-1.08 0-1.08-1.61V32h4.19v-2.41a4.65 4.65 0 0 0-.66-2.72 3.2 3.2 0 0 0-5 0 4.52 4.52 0 0 0-.66 2.72v4.05a4.4 4.4 0 0 0 .66 2.72 3 3 0 0 0 2.49 1.2 2.9 2.9 0 0 0 3-2.51 10.31 10.31 0 0 0 .09-1.36zM17.89 12.3V7.38q0-1.61-1-1.61t-1 1.61v4.92q0 1.64 1 1.64t1-1.64zm16.85 17.6a40.6 40.6 0 0 1-.61 8.2 4.45 4.45 0 0 1-1.36 2.32 4.1 4.1 0 0 1-2.39 1.08 125.31 125.31 0 0 1-13 .49 125.31 125.31 0 0 1-13-.49A4.15 4.15 0 0 1 2 40.42 4.28 4.28 0 0 1 .63 38.1 39.76 39.76 0 0 1 0 29.9a40.6 40.6 0 0 1 .61-8.2A4.45 4.45 0 0 1 2 19.37a4.25 4.25 0 0 1 2.41-1.1q4.29-.47 13-.47t13 .47a4.4 4.4 0 0 1 3.75 3.42 39.76 39.76 0 0 1 .58 8.21zM11.35 0h2.39l-2.83 9.35v6.35H8.57V9.35a39.68 39.68 0 0 0-1.43-5Q6.27 2 5.61 0H8.1l1.67 6.16zM20 7.8v4.1a4.59 4.59 0 0 1-.66 2.76 2.88 2.88 0 0 1-2.49 1.19 2.9 2.9 0 0 1-2.46-1.19 4.68 4.68 0 0 1-.66-2.76V7.8a4.59 4.59 0 0 1 .66-2.74 2.9 2.9 0 0 1 2.46-1.19 2.88 2.88 0 0 1 2.49 1.19A4.59 4.59 0 0 1 20 7.8zM27.87 4v11.7h-2.13v-1.27a3.37 3.37 0 0 1-2.41 1.45A1.31 1.31 0 0 1 22 15a6 6 0 0 1-.19-1.76V4h2.13v8.6a6.14 6.14 0 0 0 0 .82.49.49 0 0 0 .47.52 1.87 1.87 0 0 0 1.31-1V4h2.16z"/></svg></svg>