<svg width="236" height="178" viewBox="0 0 236 178" xmlns="http://www.w3.org/2000/svg" xmlns:xlink="http://www.w3.org/1999/xlink"><svg id="facebook" data-name="Layer 1" width="21.23" height="42.01" viewBox="0 0 21.23 42.01" x="106.01" y="70"><defs><style>.acls-1{fill:#fff}</style></defs><title>facebook</title><path class="acls-1" d="M21.23.31V7H17.4a3.55 3.55 0 0 0-2.85.91 4.26 4.26 0 0 0-.74 2.72v4.77H21l-1 7.47h-6.19V42H6.27V22.85H0v-7.47h6.27V9.85q0-4.69 2.55-7.28A9 9 0 0 1 15.63 0a39.57 39.57 0 0 1 5.6.31z"/></svg><svg width="56" height="56" viewBox="0, 0, 56, 56" id="healthcare" x="116" y="118"><path d="M8.658 28.5h39.684M28.5 8.658v39.684" fill-opacity="0" stroke="#E79159" stroke-width="13" stroke-linejoin="bevel"/></svg><svg id="instagram" data-name="Layer 1" width="42.01" height="42.01" viewBox="0 0 42.01 42.01" x="64" y="70"><defs><style>.ccls-1{fill:#fff}</style></defs><title>instagram</title><path class="ccls-1" d="M37.25 35.49V17.77h-3.69a11.77 11.77 0 0 1 .57 3.58 12.12 12.12 0 0 1-1.75 6.36 12.76 12.76 0 0 1-4.76 4.59 13.13 13.13 0 0 1-6.56 1.7 12.78 12.78 0 0 1-9.19-3.71 12 12 0 0 1-3.83-9 11.77 11.77 0 0 1 .49-3.56H4.68v17.76a1.63 1.63 0 0 0 1.6 1.67h29.3a1.63 1.63 0 0 0 1.17-.47 1.59 1.59 0 0 0 .5-1.2zm-7.77-14.57A7.75 7.75 0 0 0 27 15.14a8.28 8.28 0 0 0-6-2.4 8.25 8.25 0 0 0-5.91 2.39 7.75 7.75 0 0 0-2.47 5.78 7.75 7.75 0 0 0 2.47 5.79A8.25 8.25 0 0 0 21 29.1a8.28 8.28 0 0 0 6-2.4 7.75 7.75 0 0 0 2.48-5.78zm7.76-9.84V6.56a1.84 1.84 0 0 0-.54-1.31 1.8 1.8 0 0 0-1.31-.56h-4.78a1.8 1.8 0 0 0-1.31.56 1.84 1.84 0 0 0-.54 1.31v4.52A1.87 1.87 0 0 0 30.6 13h4.8a1.87 1.87 0 0 0 1.85-1.89zM42 5.39v31.23A5.41 5.41 0 0 1 36.62 42H5.39a5.19 5.19 0 0 1-3.8-1.59A5.19 5.19 0 0 1 0 36.62V5.39a5.19 5.19 0 0 1 1.59-3.8A5.19 5.19 0 0 1 5.39 0h31.23a5.19 5.19 0 0 1 3.8 1.59A5.19 5.19 0 0 1 42 5.39z"/></svg><svg width="180" height="70" viewBox="0, 0, 180, 70" id="logo"><text transform="translate(90.135 35.133)"><tspan x="-78.399" y="-4.44" font-family="Baskerville-SemiBold" font-size="33" fill="#FFF">James Lee</tspan> <tspan x="78.399" y="-4.44" font-family="Baskerville-SemiBold" font-size="24" fill="#FFF"> </tspan> <tspan x="-66.152" y="25.56" font-family="Baskerville-SemiBold" font-size="24" fill="#FFF">&amp; Company</tspan></text></svg><svg width="64" height="48" viewBox="0, 0, 64, 48" id="mail" y="70"><path d="M0 0v8l32 16L64 8V0H0zm0 16v32h64V16L32 32z" fill="#594141"/></svg><svg width="56" height="56" viewBox="0, 0, 56, 56" id="management-consulting" x="60" y="118"><path d="M15.646 20.131c2.381 0 4.312 1.602 4.312 3.578 0 1.976-1.931 3.577-4.312 3.577-2.381 0-4.311-1.601-4.311-3.577s1.93-3.578 4.311-3.578z" fill="#FFF"/><path d="M15.646 20.131c2.381 0 4.312 1.602 4.312 3.578 0 1.976-1.931 3.577-4.312 3.577-2.381 0-4.311-1.601-4.311-3.577s1.93-3.578 4.311-3.578z" fill-opacity="0" stroke="#E79159" stroke-width="1.5" stroke-linecap="round" stroke-linejoin="round"/><path d="M41.812 27.272c-2.382 0-4.312-1.602-4.312-3.578 0-1.975 1.93-3.577 4.312-3.577 2.381 0 4.311 1.602 4.311 3.577 0 1.976-1.93 3.578-4.311 3.578z" fill="#FFF"/><path d="M41.812 27.272c-2.382 0-4.312-1.602-4.312-3.578 0-1.975 1.93-3.577 4.312-3.577 2.381 0 4.311 1.602 4.311 3.577 0 1.976-1.93 3.578-4.311 3.578z" fill-opacity="0" stroke="#E79159" stroke-width="1.5" stroke-linecap="round" stroke-linejoin="round"/><path d="M9.5 30.5h12.048v17.796H9.5z" fill="#FFF"/><path d="M9.5 30.5h12.048v17.796H9.5z" fill-opacity="0" stroke="#E79159" stroke-width="2" stroke-linecap="round" stroke-linejoin="round"/><path d="M35.5 30.5h12.048v17.796H35.5z" fill="#FFF"/><path d="M35.5 30.5h12.048v17.796H35.5z" fill-opacity="0" stroke="#E79159" stroke-width="2" stroke-linecap="round" stroke-linejoin="round"/><path d="M31.841 19.296c-2.552.049-5.033-.478-7.436-1.288m-3.56-1.899c-1.894-1.402-3.163-3.337-3.345-5.711 0-4.914 6.421-8.898 14.341-8.898 7.92 0 14.341 3.984 14.341 8.898 0 4.915-6.421 8.898-14.341 8.898" fill-opacity="0" stroke="#E79159" stroke-width="1.5" stroke-linecap="round" stroke-linejoin="round"/><path d="M24.375 18.001l-.051.206m-3.081-1.875l-.014.432" fill-opacity="0" stroke="#E79159" stroke-linecap="round" stroke-linejoin="round"/><path d="M42.206 13.815l.304-.067v-.002l-.304.068-.001.001h.001m-16.501-4.79l.522.209h.001v-.001l-.522-.209-.001.001m14.555-.76l1.207-.221.001-.001-1.207.221h-.001v.001M25.889 3.444l.222.224h.001v-.001l-.222-.224-.001.001M39.95 6.369l.29.019h.001v-.001l-.29-.019h-.001v.001m-.763 1.25l2.035-.188.001-.001v-.001l-2.035.188-.001.001v.001m2.958 1.88l1.039-.105.001-.001v-.001l-1.039.105-.001.001v.001" fill="#E79159"/><path d="M39.751 8.336l1.655-.23.001-.001v-.001l-1.655.23-.001.001v.001m1.101-2.11l1.351-.144.001-.001V6.08l-1.351.144-.002.001.001.001m-.767-1.491l.217-.002.001-.001v-.001l-.217.002-.001.001v.001" fill="#E79159"/><path d="M23.669 13.012c6.166.683 13.445 1.277 19.243-1.208m-13.571 5.431c1.172-.01 2.35.438 3.535.251 1.087-.172 9.973-3.245 10.542-4.004.081-.109-1.276.442-3.191 1.376-2.347 1.145-4.818 1.797-7.195 2.815-.706.303 1.551-.082 2.284-.312a77.147 77.147 0 0 0 4.911-1.721c.841-.329 3.462-.988 2.565-.876-2.132.267-5.502 1.948-7.32 3.16-.483.322.304.068 1.877-.532 1.703-.65 3.399-1.317 5.099-1.971.61-.234 2.53-.563 1.877-.563-2.116 0-4.892 2.054-6.944 2.69-.604.187-1.846 1.07-1.846.438 0-.105 4.026-1.479 5.599-2.252 1.241-.61 2.087-1.133 1.877-1.189-1.47-.392-4.31 1.565-5.63 2.096-.598.24-4.619 2.308-2.597.876 1.846-1.308 3.915-2.302 5.944-3.285.925-.448 3.743-1.691 2.846-1.188-2.432 1.362-5.031 2.587-7.601 3.66-.776.324-2.876 1.521-2.378.844 1.485-2.014 5.323-3.223 7.508-4.254.62-.293 4.407-1.597 2.502-1.157-4.117.95-7.689 4.515-11.855 5.036-.787.098 1.429-.69 2.158-1.001a110.53 110.53 0 0 1 8.477-3.191c.164-.054-.338.067-.5.125a60.593 60.593 0 0 0-3.159 1.252c-.833.354-8.863 3.88-9.009 3.659-.551-.825 6.928-2.37 7.789-2.471.695-.081 2.768-.317 2.095-.125-3.042.869-9.321 1.651-9.321 1.721 0 .326 6.17-.875 6.913-.939.374-.032 1.502-.062 1.126-.062-1.448 0-2.87.824-4.223 1.251-.011.003-2.503.561-2.503.594 0 .174 5.971-.657 6.663-.657.618 0-1.235.062-1.845.157-1.678.261-3.334.566-5.036.625-4.443.156 3.818 0 4.598 0 .564 0-1.129.03-1.689.094-.11.013-7.776.424-5.318-.344" fill-opacity="0" stroke="#E79159" stroke-linecap="round" stroke-linejoin="round"/><path d="M24.274 14.952c2.94 2.27 7.892 1.991 11.48 2.033.844.01 3.378 0 2.534 0-3.346 0-6.666.344-10.01.407-.97.018-3.878.017-2.909-.031 2.745-.138 5.566.278 8.32.312.075.001 2.253.162 2.253-.156 0-.726-10.109 0-11.449 0-.9 0 1.795-.126 2.69-.219 2.175-.226 4.339-.528 6.506-.813.602-.08 2.244.272 1.815-.157-.346-.346-7.713.13-8.352.595-.223.161.35.315 2.221.406 1.842.09 3.692.107 5.536.125.96.01 3.556.679 2.878 0-2.314-2.314-8.775-.36-11.011-2.596-.377-.377 1.052.194 1.564.344 1.959.575 3.941 1.065 5.975 1.283.727.078 2.798.53 2.19.125-2.038-1.359-6.017-.702-8.352-.939-.579-.058-2.132.13-1.721-.281.418-.418 1.167.193 1.752.281 2.57.387 5.197.376 7.789.376 1.22 0 4.636.732 3.66 0-1.045-.784-7.403.029-7.445.031-.709.027-1.418.066-2.127.063-2.526-.014-5.456-.55-5.287-.72.302-.302.857-.039 1.283 0 2.928.27 7.88 2.003 10.698 1.064.783-.261-1.647-.196-2.471-.157-2.338.112-4.617.769-6.913 1.189-.727.133-2.915.199-2.19.344 1.42.284 3.027-.114 4.473-.156 1.345-.04 3.294-.007 3.316-.094.013-.051-1.774-.454-.657-.282m-6.819-8.07c4.017 2.513 9.079 2.454 13.67 2.502.959.01 3.837 0 2.877 0-1.668 0-3.336.032-5.005.032-1.605 0-3.211.022-4.817 0-1.796-.026-3.687-.495-5.474-.376-.163.011.281.175.438.219.993.278 2.092.435 3.097.594.95.151 10.286.899 10.635.376.108-.161-.668-.374-2.502-.595-2.719-.327-5.437-.429-8.133-.938-.975-.184-3.882-.431-2.909-.626 1.57-.314 13.433 2.722 13.92 1.627.422-.949-4.56-1.339-4.849-1.376-2.753-.358-1.567-.196-4.317-.595m-7.163-4.066c4.937 2.135 10.493 2.565 15.828 2.565 1.251 0-2.503-.015-3.754.031-3.352.123-7.327.796-10.635-.031-1.142-.286 2.337.282 3.503.438 3.271.437 6.568.608 9.854.907 1.706.155 3.55.235 3.378.407-.081.081-8.141-.911-8.977-1.001-3.666-.306-.404 0-3.003-.313-.27-.033-1.086-.063-.814-.063 2.952 0 7.081 1.071 10.073 1.596.701.122 1.391.303 2.096.406.176.026.531-.116.531.063 0 .913-1.71-.652-2.596-.876-3.223-.815-7.016-1.971-10.417-1.971-.994 0 1.926.514 2.91.657 2.961.43 6.467 1.029 9.415.563" fill-opacity="0" stroke="#E79159" stroke-linecap="round" stroke-linejoin="round"/><path d="M26.244 6.037c4.612.557 9.136 1.816 13.795 2.064.677.036 2.382.613 2.034.032-1.121-1.868-11.988-2.287-14.609-3.598-1.122-.561 2.446.561 3.66.876 2.916.757 5.807 1.609 8.728 2.346.975.246 3.735 1.187 2.971.532-.84-.72-17.454-2.668-10.166-1.064.991.219 12.344 1.434 12.356 1.471.012.035-7.378 1.35-7.476 2.033-.098.688 7.93.009 8.133.313.294.441-4.855 1.971-5.13 2.659-.192.479 1.542-.616 2.534-.219.583.233-.988 1.765-1.001 1.751-.21-.209 1.339-1.78 1.47-2.064.267-.58-.694-3.812-.25-3.629 1.786.736.895 4.358.5 4.161-.089-.045.675-2.38.72-2.628.085-.477-.084-1.818.219-1.439.858 1.073-.07 4.654-.563 4.16-.268-.267.594-.939.719-1.094.577-.722.667-1.492.719-2.378" fill-opacity="0" stroke="#E79159" stroke-linecap="round" stroke-linejoin="round"/><path d="M45.545 9.916c.126 1.76-.899 3.106-1.971 4.379-.081.096-.161.37-.25.282-.262-.262.494-.552.719-.845.608-.79.853-1.511.939-2.503.001-.014-.251-2.313-.469-1.876-.278.555.143 1.323-.344 1.908-.182.217.496-1.668-.094-2.534-.917-1.345-3.991-.465-3.629-.063.653.726 2.252.438 3.128.438m-14.921 4.974c3.343.064 6.713.954 10.073.563 1.412-.164 3.58-.857 2.596-1.032-2.373-.424-5.297.906-7.664 1.188-1.015.122-1.899.141-2.909.157-.375.006-1.502 0-1.126 0 4.127 0 7.658.879 11.543-1.064M29.904 7.069c3.55 1.389 7.268 1.03 10.917.438M27.308 9.853c4.463.641 8.934 1.203 13.451 1.376M26.025 9.603c4.238.725 8.698 1.361 12.982.782M26.62 9.572c4.26.014 8.73 1.211 12.981.437M28.34 13.294c4.217-.114 8.469.31 12.669-.156M26.463 10.76c3.601 1.668 9.74 2.547 13.483.751m-9.103 2.628c3.483.558 6.763.298 10.135-.689M28.403 8.445c3.962.301 7.995.09 11.511-1.939m-13.638-.594c4.158.664 9.058 3.659 13.294 2.002M28.966 5.505C33.179 7.038 38.388 8.132 42.73 6.6m-9.135-.313c3.119.43 6.144 1.189 9.322 1.189m1.126.938c.365.656 1.169 1.496.282 1.94" fill-opacity="0" stroke="#E79159" stroke-linecap="round" stroke-linejoin="round"/><path d="M44.325 8.352c.199.29 1.586 2.872.688 3.096-.139.035.78-1.224.626-2.095-.142-.801-2.222-2.336-2.878-2.753-3.971-2.527-7.616-2.033-12.169-2.033m11.324 3.785c-3.614-1.502-7.475-3.23-11.48-3.379m10.417 1.721c-3.934-1.233-7.864-2.961-12.044-3.128M42.26 6.443c-4.305-.749-9.044-2.671-13.419-1.313m14.89 1.501c-4.395-3.742-10.009-5.034-15.672-3.535m12.45 3.128c-3.303-3.096-7.565-3.931-11.981-3.128m-8.164 7.007c3.976 2.017 8.74 3.889 13.169 2.065M21.02 10.51c4.607 2.38 9.796 2.392 14.859 2.19m-13.451-.72c4.005 1.859 8.614 1.783 12.951 1.783m-13.358 1.158c4.232.962 8.597.389 12.888.719m-13.388-2.158c4.206 1.343 9.041 1.995 13.294.375m-11.949-.407c3.943 1.063 8.046.979 12.043.313m-12.981-2.127c4.562.212 9.414.72 13.795-.907m-13.264-.751c3.922 1.338 8.232 1.697 12.012-.25m-12.481.407c4.063 1.256 8.518.308 12.294-1.408m-11.606 0c3.846.62 7.593.263 11.293-.97m-10.886.469c3.951.162 7.98.097 11.824-.938m-9.978-1.001c3.373 1.841 7.601 1.577 10.76-.563M22.334 6.881c4.463.211 8.921.144 13.326-.657M22.71 8.633c3.64.847 7.442.205 11.104-.188M21.365 9.478c3.59 1.117 7.645.951 11.261 0m-10.229.375c3.268.133 6.494-.063 9.728-.5m-9.947-.501c3.001.376 5.972.782 9.009.782m-9.072-1.251c3.242.314 6.47.5 9.729.5m-9.103-.813c2.722 1.387 5.943.125 8.759-.25m-9.197-.031c3.332.088 6.655-.055 9.979-.188m-9.479-.282c3.357.24 6.706.407 10.073.407m-9.979 1.627c2.827.841 5.739 1.056 8.665.594m-7.976 1.408c2.903 1.705 6.543.56 9.415-.626M22.616 7.476c2.488 2.377 7.008 2.021 10.166 1.282m-8.915 2.096c3.428.211 6.86.26 10.292.031m-8.227-.969c3.714.384 7.219-.953 10.854-1.377m-12.45-2.002c3.602 1.522 7.809 1.193 11.574.532M23.93 5.943c3.588.432 7.214.407 10.823.407M24.336 5.286c3.145.135 6.306.315 9.385-.438m-7.696-.062c2.522.339 5.067.305 7.602.5m-7.852-.813c3.213.668 6.568.607 9.822.281m-9.353-.751c3.111.246 6.235.157 9.353.157m-7.1.313c2.967.316 5.868 1.173 8.727 2.002m-6.225-3.691c3.556.117 7.602.615 10.73 2.439M32.97 3.691c3.676.29 7.71.88 10.291 3.66M30.217 4.535c3.825-.212 7.695.419 10.636 3.066m-9.322-3.848c3.304-.009 6.997.754 9.228 3.379m-9.478-3.097c4.053-.028 7.494 2.095 10.197 4.911m-20.61 2.995c4.293.336 9.587 2.186 13.579-.125m-13.139 2.137c2.394.358 12.31-3.088 12.762-1.509m-12.133 2.012c3.508.224 6.944-.32 10.372-.943m-10.435.063c7.746.387 8.416.091 15.339-3.521M21.245 11.25c5.129.948 9.322-1.209 13.893-3.143M20.68 12.444c3.271.139 6.5-.55 9.681-1.257m-9.996 1.886c4.443.469 8.448-.61 12.573-2.137m-11.756.44c4.978 2.046 9.353.539 14.145-1.258m-14.899.692c2.557.018 11.208-.655 12.07-2.955M20.051 9.427c3.929.655 7.671-.755 11.441-1.509m-11.127 3.458c2.856.282 5.537.083 8.235-.881m-7.983 1.195c2.931.111 5.832-.077 8.738-.44m-9.87-1.823c4.219-.55 8.914 1.555 12.824-.503m-10.686.503c4.322.258 8.64-.315 12.95-.315m-12.95-.88c3.822.133 7.601-.168 11.315-1.068m-11.253.063c3.5.163 6.9-.812 10.373-1.069m-11.63 1.006c3.43.379 6.501-.727 9.681-1.823m-9.932 3.017c4.561.513 9.137.178 13.704-.063m-12.95.817c3.899-.278 7.628.832 11.378 1.698M20.051 9.678c4.213.089 8.347.755 12.573.755m-11.63 1.383c4.515.7 9.093.681 13.641 1.005m-11.944-.377c4.018.061 7.972.121 11.944-.503M20.617 6.472c3.569-.936 7.167-1.467 10.687-2.64m-9.493 2.766c3.843-.052 8.105-4.067 12.007-2.766m-11.19 2.703a61.49 61.49 0 0 1 13.391-.126m-8.676-1.823c4.414-.278 9.386-1.455 13.202 1.32M21.937 6.912c4.89-.994 9.1-5.586 14.27-5.155M22.314 5.341c4.021-1.075 8.119-1.321 12.259-1.321M23.948 5.403c3.928-1.21 7.541-3.143 11.693-3.143M24.326 4.649c3.575-.493 7.483-1.617 10.561.692m-10.939-.692c3.765-1.832 7.661-2.766 11.819-2.766M23.571 4.775c4.17-.108 8.203-1.383 12.385-1.383m-11.819.566c3.285-.623 6.575-1.069 9.933-1.069m-8.801 1.509c2.786-1.59 6.071-1.709 9.178-1.321m-7.732 2.704c4.54-1.7 8.965-1.961 13.264.188M22.628 7.352c4.643-4.65 11.541-7.696 16.848-2.389M22.314 6.032c4.468-3.841 8.02-5.278 13.327-2.829M20.239 7.729c4.148-1.975 10.479-5.314 14.774-2.451M21.12 7.415c2.872-1.903 5.923-3.603 9.115-4.903M19.611 7.101c3.3-1.465 6.879-2.07 10.435-2.515m-9.618 3.395c2.15-2.481 5.145-4.484 8.298-5.469m-9.555 5.595c2.533-3.448 7.173-4.393 11.19-4.527m-9.996 4.275c2.22-2.268 4.282-4.905 7.481-5.658m-7.104 4.715c2.351-1.334 4.451-3.16 7.041-4.023m-6.789 3.709c1.596-1.536 3.183-3.067 5.092-4.212m-3.898 3.772c1.54-.996 3.127-1.913 4.715-2.829m-6.664 2.64a59.03 59.03 0 0 1 3.458-1.257m.817 8.047c3.324.375 6.617 1.22 9.933 1.76m-11.63-3.206c4.041 1.76 7.869 2.829 12.321 2.829m-14.71-2.012c3.794 1.374 7.694 1.758 11.693 1.949M19.799 12.57c4.618-.045 9.248.018 13.831.629m-13.265-.692c2.967.071 5.753.696 8.738.503m-10.498-1.823c3.044.584 6.153.566 9.241.566m-8.172-.692c3.248.199 6.489.315 9.744.315m-10.562.188c2.696-.665 5.584.437 7.859-1.383m-7.544-.566c2.258.159 4.332-.04 6.475-.754m-6.978.817h6.601m-5.91 1.383c1.61-.326 4.393.762 5.658-.503m-6.161.503h4.087m-3.081.44c1.637-.055 3.269.063 4.904.063m-5.595.314c1.154-.15 2.957.538 3.646-.565m-3.018-1.069h2.452m-3.395-.44h2.452m-2.844-.583c1.405-.497 2.883-.65 4.361-.724m-4.18-.06c2.001-.425 4.033-.442 6.068-.442m-4.561.965c1.441-.302 2.92-.28 4.38-.442m-2.27-3.597c2.01-.974 4.354-1.364 6.49-.623m-9.866 5.264c1.896.038 3.798-.092 5.687.101m-4.662 1.065c1.315-.199 2.611-.062 3.898.221m-4.642-1.065c1.1.361 2.261.388 3.396.542m-3.617.282c1.627-.658 3.238-.581 4.763.221m-5.144-.442c.797-.447 4.296.223 3.616.261m-2.933-.402c.903-.08 1.71.053 2.572.302m-2.653-.503c1.2-.105 2.39-.21 3.517.221m-4.119-.643c1.414-.141 2.739.207 4.079.603m-4.18.301c2.256-.014 4.403.977 6.37 1.99m-4.963-.342c2.588.291 5.034 1.22 7.656 1.487m-8.199-1.286c2.439.174 4.947.605 7.154 1.688m-7.817-.985c1.26-1.491 3.871-.648 5.546-.502m-4.983-.944c1.454 1.217 3.078 2.206 4.782 3.034m-5.044-2.412c.699 1.997 3.21 2.49 5.024 3.015m-5.385-3.879c1.664 2.186 4.806 3.713 7.515 4.1m-5.506-1.387c1.858.912 3.839 1.413 5.868 1.909m-5.627-1.467c1.931.494 3.881.503 5.868.503m-5.647-.603c1.852 1.033 3.848 2.293 5.928 2.813m-5.325-1.246c2.506.286 5.032.453 7.556.301m-6.169 1.126c1.323-.737 2.54-1.632 3.898-2.311m-3.633 2.78c.825-.433 1.574-.99 2.327-1.534m-2.207 1.418c.711-.4 1.328-.93 1.925-1.479m-2.333.72c.764-1.272.446-.721.967-1.644m-1.768 2.231c.519-.672.888-1.436 1.266-2.191m-1.387 2.216c.845-1.957.483-1.118 1.085-2.517m-1.065 2.09c.404-.617.625-1.319.965-1.969m-.976 1.085c.58-.995.324-.575.755-1.266m-.898 1.97c.305-1.074.286-2.196.416-3.297m-.704.061c.695.493 1.094 1.279 1.889 1.627m-2.893-.864c1.267.078 2.292.841 3.536 1.126m-3.577-1.246c1.075.54 1.969 1.299 3.135 1.668m-2.251-.503c.867-.019 1.721.212 2.573.362m-2.452-1.005c.816.205 1.63.43 2.452.623M28.632 2.73c-3.307 1.098-5.629 4.177-8.4 6.21m1.024 7.425l.197-1.045m-.084.955l.326-1.009" fill-opacity="0" stroke="#E79159" stroke-linecap="round" stroke-linejoin="round"/><path d="M21.055 16.4l-.004.517m-.013 2.805c1.249-.502 2.431-1.151 3.63-1.76m-1.818-.545l.079-.09m-1.374.864c.018-.446.31-.824.52-1.207m-.872-.265c.506.826.448 1.862-.039 2.687m-.086-2.468c.337.837.526 1.594.469 2.507m-.711-3.203c.243.883.354 1.804.391 2.719m.117-1.383c.04.656.001 1.28-.196 1.899m.016-1.258c.01.348-.014.695-.047 1.039m.086-.656c.006.278-.097.541-.156.804m.07-.187c.034.128-.025.25-.039.367m1.242-.859c.397-.631.691-1.3 1.36-1.641m-1.274 1.211c.387-.387.196-.212.571-.531m-1.969-1.594c.427 1.209.134 2.309-.008 3.476m19.573 19.824c3.622.627 6.49-.476 1.65.734" fill-opacity="0" stroke="#E79159" stroke-linecap="round" stroke-linejoin="round"/><path d="M37.603 39.981h6.934c.468 0 1.735-.331 1.404 0-.872.872-5.619.217-6.848.344-.848.087-3.312.339-2.493.573 1.152.329 2.695.086 3.868.086h1.662c7.78 0-5.162-.327-4.727.688.132.308 12.141.057 5.071.057-.688 0-1.376-.037-2.063 0-.178.009-2.471.087-2.837.544-.193.242.608.144.917.144 1.72 0 3.438-.006 5.158-.058.496-.015 1.986-.028 1.489-.028-2.221 0-4.46.066-6.675.229-.732.054-2.908.249-2.178.315 1.945.177 3.904-.341 5.845-.401.631-.02 2.503-.067 1.891.086-.75.187-7.593-.409-7.593.802 0 .328 8.739.021 8.739.172 0 .053-8.567.13-8.567 1.06 0 .547 5.307.286 6.017.258.869-.034 3.315-.477 2.607.029-1.309.935-4.312.429-5.873.658-.652.096-2.496.479-1.862.659 1.651.472 3.801-.165 5.501-.143.837.011 3.258.231 2.12.401-1.196.18-7.966-.485-8.252-.028-.104.167 1.227.172 2.034.172 1.695 0 3.386-.054 5.072.143.428.05 1.619.047 1.26.286-1.013.676-2.423-.265-3.638-.343-.601-.039-1.204-.024-1.805-.029-.526-.005-1.051-.023-1.576 0-5.661.246 5.157.733 5.157 1.146 0 .185-2.594-.856-4.441-1.146-.812-.128-3.263-.105-2.464.086 1.54.367 3.376.18 4.957.258.648.032 2.598.028 1.948.028-1.877 0-3.565-.782-5.3-1.432-.258-.097-1-.13-.774-.287 1.002-.693 6.638-.399 6.934-.917.223-.39-.897-.093-1.347-.086-1.85.033-3.606.343-5.444.459-2.842.18 2.13-1.001 2.579-1.089 1.254-.245 2.753-.339 2.75-.344-.316-.633-6.102.03-6.102-.229 0-.484 5.265-.836 5.644-.859.811-.051 2.692.656 2.435-.115-.177-.531-6.929-.609-7.993-.372-.439.097.9-.002 1.346-.058 1.316-.164 2.598-.434 3.925-.515.612-.038 2.344.196 1.834-.144-1.31-.873-3.831-.597-5.329-.63-.497-.011-1.977.069-1.49-.029 1.787-.357 3.688-.344 5.501-.344.468 0 1.872-.028 1.404-.028-1.98 0-4.893-.605-6.733.315-.265.133.592.065.888.057.8-.019 6.024-.755 6.447.373.268.714-1.501.321-2.264.344-1.519.044-4.18-.24-5.558.745-.369.263.346.171 2.063.171.361 0 4.649-.17 4.527.688-.065.45-5.769 1.085-6.934 1.834-1.019.655 5.583.359 5.587.372.259.865-5.149 1.719-4.842 1.748 1.951.186 4.323-.651 4.24-.688-1.109-.493-2.714-.191-3.867-.028-.425.059-1.682.173-1.261.257.672.135 2.317-.574 2.951-.716.061-.013 1.817-.304 1.748-.43-.696-1.251-4.457-.623-4.183-.257.23.307 2.502-.089 2.779-.115.564-.053 2.255-.132 1.69-.172-.594-.042-4.935.063-3.954.946m-.258-.029c1.883-.319 3.727-.617 5.645-.573m-5.96-1.347c3.486-.93 7.29-1.804 10.916-1.232m-5.873.344c-.664.119-1.334.149-2.006.172m-1.117-1.748c.145-.333 8.697-.372 5.071-.372" fill-opacity="0" stroke="#E79159" stroke-linecap="round" stroke-linejoin="round"/><path d="M38.95 40.697c-5.895-.309 6.14-.54 6.36-.687.309-.206-.719-.196-1.088-.229-1.847-.168-3.707-.144-5.559-.144-.42 0-1.637.246-1.26.058 1.961-.981 4.808-1.032 6.962-1.032.85 0-1.701-.032-2.55 0-1.553.06-4.194-.055-5.702.631-.592.269 1.261-.325 1.891-.488 1.751-.452 3.525-.666 5.329-.716.497-.014 1.969-.133 1.49 0-1.785.496-6.827-.023-7.907 1.777-.232.385.897.112 1.346.086 1.648-.097 3.261-.509 4.871-.831.283-.057-.573.075-.86.114-1.592.217-4.607 1.253-6.131.745-.019-.006.309-.057 2.091-.516 1.505-.386 3.01-.842 4.556-1.031.332-.041 1.332.002 1.003-.057-1.515-.271-3.05-.272-4.584-.287-.536-.005-2.137.024-1.605.086 2.457.289 5.034-.458 7.507-.458h-1.691c-1.839 0-3.597.087-5.415.372-.435.068-1.655.043-1.289.287.241.16 6.342-.974 7.478-.974.229 0-.459-.004-.688 0-1.754.024-3.493.144-5.243.257-.258.017-1.031.032-.773.058 1.21.121 2.762-.661 3.953-.888 1.29-.247 5.239-.344 3.926-.344-2.605 0-5.22-.076-7.822.028-.377.015-1.344-.129-1.118.172.263.35 5.033-.662 6.963-.687.487-.007 1.948 0 1.461 0h-2.55c-.774 0-1.548-.021-2.321 0-.955.026-2.356-.005-3.266.515-.771.441 1.778.08 2.665.029a95.079 95.079 0 0 1 5.472-.143c.981 0-1.952.205-2.923.344-.634.09-3.751.212-4.24.945-.292.438 1.009-.299 1.519-.43.126-.032 3.123-.49 3.123-.63 0-.025-.915-.043-2.493-.029-1.427.013-3.411.314-3.41.316.009.009 5.513-1.165 6.562-.745.432.173-.887.302-1.347.372-.597.091-4.937.131-5.1.946-.029.144 5.415-.54 4.899-.602a17.186 17.186 0 0 0-4.67.057c-.27.042-1.056.071-.802.172 1.346.539 4.594-.642 6.074-.802.447-.048 1.796-.086 1.347-.086-1.768 0-6.38.048-6.447-.086-.2-.4.88-.168 1.318-.258 1.352-.277 2.689-.485 4.069-.573.486-.031 1.948-.029 1.461-.029-.66 0-7.323-.019-7.421.373-.031.124 2.765-.487 5.673-.688.362-.025 1.452-.014 1.089-.028-.831-.034-1.661-.096-2.493-.115-.706-.016-1.413 0-2.12 0-5.912 0 5.759-.436 5.759-.487 0-.718-1.431-.125-2.149-.143-.952-.025-3.671-.457-4.584 0-.103.051 2.467-.252 4.613-.459.704-.068 2.436.519 2.12-.114-.272-.544-4.846-.311-5.387-.316-1.628-.012-2.464.013-2.464.029 0 .804 1.608-.055 2.407-.143a43.448 43.448 0 0 1 4.756-.258c.134 0-.268.012-.401 0-.935-.082-5.925.258-5.1.143 1.828-.255 3.559-.458 5.415-.458.441 0 1.6-.252 1.318.086-.201.241-6.294.337-7.191.487-.432.072-1.657.352-1.232.458 1.336.334 3.115-.087 4.469-.143.678-.028 2.701.098 2.035-.029-1.447-.275-2.974-.339-4.441-.257-1.346.074-2.722.677-2.694.687.906.329 2.449.029 3.41.029.037 0 1.32.113 1.318.114-.671.336-4.744.523-1.92-.63.7-.286 1.439-.575 2.178-.745.384-.088 1.174.251 1.174-.143 0-.277-.553.024-.83.029-.85.012-1.7 0-2.55 0-.564 0-2.25.065-1.691 0 1.591-.188 3.15-.373 4.756-.373.09 0 1.789.4 1.662.43-.895.211-1.999-.112-2.865-.229-1.026-.139-4.098-.007-3.094-.258 1.195-.299 2.665-.115 3.896-.086.281.007.957-.108.831.143-.097.195-2.629-.162-2.808-.172-.577-.031-2.253-.009-1.719-.229.55-.226 6.689.057 5.043.057" fill-opacity="0" stroke="#E79159" stroke-linecap="round" stroke-linejoin="round"/><path d="M37.403 32.073c-.934-.036.242-.057.573-.057.716 0-2.709.362-2.149-.086.434-.347 5.485-.149 6.446.058M19.784 45.671c-2.857-.132-5.689-.3-8.554-.3" fill-opacity="0" stroke="#E79159" stroke-linecap="round" stroke-linejoin="round"/><path d="M19.095 47.321c-6.597-1.145-10.555-.221-1.153-.221.555 0-1.109-.079-1.665-.089a56.018 56.018 0 0 0-3.994.089c-.445.023-1.755-.008-1.331.133 1.773.591 4.457.037 6.257-.133.754-.072 2.959.12 2.264-.178-1.302-.558-3.393-.244-4.771-.244-.326 0-1.296-.064-.977 0 .296.059 2.283.333 2.286.333 1.053.075 2.135.044 3.195.044.534 0-1.05-.194-1.575-.288-.884-.159-2.818.266-3.551-.222-.344-.23.829-.022 1.243 0 1.224.064 3.013-.091 4.216.31.617.206-3.473-.893-3.572-.443-.086.386 4.255 1.549 4.637.976.35-.524-3.696-1.017-4.038-1.043-.4-.031-1.599-.089-1.199-.089 1.613 0 4.492-.306 5.947.422.641.32-1.422-.177-2.13-.289a84.265 84.265 0 0 0-4.615-.577c-.444-.044-1.647.183-1.332-.133.238-.238 5.108.2 6.036.2.81 0-1.591-.32-2.397-.399a29.016 29.016 0 0 0-1.531-.111c-.745-.036-1.495-.023-2.241-.023-.791 0 1.583.013 2.374.023 1.509.018 3.022.003 4.527.111.674.048-1.347-.108-2.019-.178-.853-.089-4.366.294-4.993-.333-.345-.345.977.038 1.465.067 1.581.094 3.168.161 4.748.266 2.082.139-3.271-.317-2.729.044 1.21.807 3.076.777 4.482.777.121 0-4.963-.836-4.793-.843 8.632-.36 1.834-.349-2.263-.577-.889-.049 4.128.022 4.815.022.451 0 1.796.089 1.354 0-1.662-.332-3.44-.339-5.126-.377-.828-.019-3.314-.022-2.485-.022 2.448 0 5.811.628 8.166-.045.447-.128-.914-.189-1.376-.244-1.771-.208-3.525-.187-5.304-.199-.747-.006-2.988-.006-2.241-.023 1.018-.022 7.343.348 7.833-.044.34-.272-.853-.183-1.287-.222-1.942-.173-3.91-.111-5.858-.111h.976c.705 0 6.898.115 7.257-.244.324-.324-.897-.207-1.354-.244-1.613-.131-3.242-.142-4.86-.155-.503-.005-2.012 0-1.509 0 2.529 0 5.11.157 7.634 0 .784-.049-1.567-.124-2.352-.156-1.658-.067-3.312-.133-4.971-.133-.51 0 1.021.014 1.531 0 .742-.021 4.571.244 5.17-.355.526-.526-1.477-.175-2.219-.222-1.856-.117-3.71-.089-5.569-.089h1.62c1.812 0 3.605-.039 5.414-.133.318-.016 1.267.013.954-.044-2.338-.425-4.888-.155-7.256-.155h7.589c.91 0-1.82-.039-2.729-.067a119.399 119.399 0 0 0-3.64-.044c-.75 0 1.494.139 2.242.199 4.851.394-.65-.13 3.262.222.394.036 1.566.107 1.176.178-1.874.34-4.08-.022-5.992-.022-.399 0 .799-.007 1.199 0 1.078.018 3.488-.409 4.482.088.693.347-1.541-.177-2.308-.288-.897-.13-4.156.016-4.837-.666-.267-.267.754-.027 1.131-.044.966-.045 4.414.262 5.237-.355.341-.256-.84-.147-1.264-.178-1.478-.108-4.401.529-5.726-.133-.284-.142.636-.022.955-.022 4.724 0-.849.02 4.171-.067 1.221-.021 4.875.113 3.662-.022-1.1-.122-2.202-.152-3.307-.2-8.12-.35 2.042.149 2.042-.222 0-.141-3.175-.066-3.218-.066-1.341.01-3.031.278-3.018.288 1.725 1.342 11.367.844.999.844h.666c1.686 0 3.373.022 5.059.022.516 0-1.019-.159-1.531-.222-1.157-.143-2.34-.2-3.506-.2h5.57c-2.147 0-4.295-.391-6.435-.555-.792-.06-3.166-.116-2.375-.177 2.115-.163 6.72.198 8.521-.621.385-.175-.823-.193-1.242-.244-1.729-.211-3.456-.224-5.193-.289-.703-.026-2.776.112-2.108-.111 2.265-.755 5.516.065 7.944-.155.554-.051-1.108-.117-1.664-.133-1.737-.053-3.478-.023-5.215-.023-.562 0-2.247-.035-1.686 0 1.423.089 2.834.089 4.26.089 1.117 0 4.468-.044 3.351-.044-2.169 0-4.691.313-6.813-.111-.5-.1 1.021-.016 1.532-.022 1.757-.023 3.503-.162 5.259-.2.296-.006 1.183 0 .887 0-2.016 0-4.038-.111-6.058-.111-.599 0-2.396-.014-1.797-.044.787-.04 7.833-.321 7.833-.444 0-.26-11.965-.029-4.948-.111.666-.008 1.332-.015 1.997-.045.878-.038 2.02-.044 2.907-.221.341-.069-.695-.06-1.043-.067-1.523-.029-3.049 0-4.571 0h-1.132c1.248 0 6.5.26 7.323-.288.418-.28-1.006-.023-1.509-.023-1.834 0-3.67-.019-5.503.023-.533.012-2.131.044-1.598.044 2.113 0 4.173-.194 6.28-.311.554-.031 2.203.068 1.664-.066-2.526-.632-5.388.243-7.944-.222-.448-.082.512.012 2.641-.022 1.793-.029 4.068.208 5.836-.2.469-.108-.961-.071-1.443-.089-2.492-.092-4.984-.066-7.478-.066-.777 0 1.555-.018 2.33-.067 1.749-.112 3.491-.335 5.237-.488.222-.02.88-.006.666-.067-2.469-.705-5.517-.105-8.078-.288-.03-.002 2.085.004 2.33 0 1.717-.03 3.432-.178 5.149-.178h-1.199c-2.285 0-4.571.022-6.857.022-.251 0 .503.002.755 0 4.702-.022 2.744.06 5.925-.133.576-.035 2.308-.066 1.731-.066h-7.057c2.18 0 4.347-.135 6.524-.2.407-.012 1.402.364 1.22 0-.252-.505-4.586-.295-5.125-.311-.659-.019-2.634-.066-1.975-.066 2.085 0 4.172-.014 6.257 0 .423.003 1.688.087 1.265.111-.768.044-1.538 0-2.308 0h-1.553c-6.112 0 3.797.664 3.839.954.02.138-4.223.114-4.66.333-.33.165.72.165 1.087.199 1.009.095 2.028.089 3.04.089.628 0-1.241-.191-1.864-.266-1.832-.221-2.199-.193-4.238-.4-.639-.064-2.31.236-1.908-.266.395-.494 6.441-.954 7.589-.954.289 0-.577-.052-.866-.067-1.202-.061-4.096.509-5.126-.177-.852-.568 2.041-.174 3.063-.244a63.112 63.112 0 0 1 4.327-.155c.37 0-.74.012-1.11.022-1.96.049-3.919.044-5.88.044-1.029 0 2.057-.041 3.084-.089a86.388 86.388 0 0 1 4.039-.088c.932 0-1.864.017-2.796 0a196.966 196.966 0 0 1-3.684-.111c-.585-.022-2.331-.037-1.753-.134 2.294-.382 4.772-.554 7.101-.554.525 0-1.05-.004-1.575 0-1.502.011-3.003.044-4.505.044h-.71c2.366 0 4.715-.222 7.079-.222h-7.101c1.302 0 2.603.005 3.905-.022.969-.02 3.876-.067 2.907-.067-2.019 0-4.039-.005-6.058-.022-.68-.005-2.722-.025-2.041-.044 1.383-.04 2.766-.045 4.149-.045h1.798c-2.027 0-4.053.089-6.08.089h1.109c1.081 0 3.585-.435 4.438.333.677.609-1.799.293-2.707.355-1.195.082-2.49.178-3.706.178h1.442c1.128 0 3.1-.34 4.172.155.326.15-.708.123-1.065.155-1.05.096-2.101.19-3.151.289-1.24.117 4.902-.188 3.861.333-.972.486-3.032.181-4.105.244-.377.022-1.51.066-1.132.066 1.79 0 3.683-.146 5.459.067 2.59.311-6.467-.313-4.083.355 1.416.396 3.215.016 4.549.643.258.122-.56.104-.843.134-.749.078-3.084-.06-3.662.421-.052.044 5.4.721 4.194.821-1.283.107-2.575.101-3.861.2-.253.019-1 .047-.754.111 1.955.507 4.23.233 6.058 1.176.096.05-4.897.392-4.882.399 1.05.525 3.732-.195 4.638.711.138.138-3.064-.546-4.927.199-.387.155.828.109 1.243.156 1.188.133 2.445.161 3.617.421.428.095-5.525-.025-5.436-.022 1.31.04 4.474-.164 5.436.799 1.67 1.669-3.86-1.001-4.46.2-.15.3 5.225.71 4.083.71-1.246 0-2.8-.003-3.972.466-1.336.534 5.322.01 4.216.932-.902.751-3.221-.406-3.994.754-.412.617 2.637.78 1.953 1.065-.967.403-2.976.493-2.93.511.709.272 2.96.345 2.219.51-3.509.78-3.03-.772-.022.732.847.424-3.51-.647-2.84.022.488.488 2.661-.055 1.287.289" fill-opacity="0" stroke="#E79159" stroke-linecap="round" stroke-linejoin="round"/></svg><svg width="60" height="60" viewBox="0, 0, 60, 60" id="mission" y="118"><path d="M49.999 5.774c2.075-.013 3.735.625 5.301 1.919 4.194 4.179 1.356 13.826-6.338 21.548-7.694 7.722-17.332 10.594-21.525 6.415-4.194-4.178-1.356-13.826 6.338-21.548 4.95-4.784 9.337-7.575 16.224-8.334z" fill="#E79159"/><path d="M49.999 5.774c2.075-.013 3.735.625 5.301 1.919 4.194 4.179 1.356 13.826-6.338 21.548-7.694 7.722-17.332 10.594-21.525 6.415-4.194-4.178-1.356-13.826 6.338-21.548 4.95-4.784 9.337-7.575 16.224-8.334z" fill-opacity="0" stroke="#E79159"/><path d="M40.67 22.172l-2.75 11.091-1.751 4.275.902 3.979L26.62 54.09l-2.341-13.192-12.461-2.14 10.08-11.884 3.926 1.645 4.582-2.57 10.264-3.777z" fill="#E79159"/><path d="M40.67 22.172l-2.75 11.091-1.751 4.275.902 3.979L26.62 54.09l-2.341-13.192-12.461-2.14 10.08-11.884 3.926 1.645 4.582-2.57 10.264-3.777z" fill-opacity="0" stroke="#E79159"/><path d="M47.638 16.947c-1.421 0-2.573-1.117-2.573-2.494 0-1.377 1.152-2.493 2.573-2.493s2.573 1.116 2.573 2.493c0 1.377-1.152 2.494-2.573 2.494z" fill="#FFF"/><path d="M47.638 16.947c-1.421 0-2.573-1.117-2.573-2.494 0-1.377 1.152-2.493 2.573-2.493s2.573 1.116 2.573 2.493c0 1.377-1.152 2.494-2.573 2.494z" fill-opacity="0" stroke="#FFF"/><path d="M24.967 33.304l.658.337 3.299 2.756c.784.655.823 1.9.088 2.779l-6.095 7.295c-.734.88-1.966 1.063-2.75.408l-3.299-2.756c-.784-.655-.824-1.9-.089-2.78l6.095-7.295c.701-.74 1.136-.619 2.093-.744z" fill="#E79159"/><path d="M24.967 33.304l.658.337 3.299 2.756c.784.655.823 1.9.088 2.779l-6.095 7.295c-.734.88-1.966 1.063-2.75.408l-3.299-2.756c-.784-.655-.824-1.9-.089-2.78l6.095-7.295c.701-.74 1.136-.619 2.093-.744z" fill-opacity="0" stroke="#E79159"/><g fill="#E79159"><path d="M13.107 54.654l-.151-.174-.314-.299-.278-.3-.245-.305-.205-.319-.165-.336-.125-.352-.087-.366-.052-.375-.017-.386.015-.39.045-.394.11-.592.228-.772.225-.545.175-.348.202-.343.223-.327.245-.308.265-.288.286-.263.305-.236.325-.203.342-.168.356-.125.368-.078.376-.026.381.03.381.091.381.154.189.103h.001v-.001l-.181-.112-.365-.177-.368-.116-.369-.059-.371-.003-.371.049-.371.1-.371.147-.37.195-.365.239-.359.281-.348.319-.335.353-.317.384-.297.408-.276.439-.359.683-.351.92-.16.688-.049.452-.005.44.041.423.086.405.136.379.187.351.24.316.297.276.357.228.429.162.501.084.298-.012.001-.001"/><path d="M11.797 53.776l.098.216.264.342.329.248.362.183.392.12.413.062.429.01.443-.043.45-.089.455-.135.456-.179.452-.222.444-.261.43-.3.409-.329.383-.353.353-.371.321-.383.284-.392.246-.396.205-.397.165-.394.122-.39.078-.385.035-.377-.013-.369-.06-.359-.111-.347-.164-.334-.219-.318-.277-.302-.338-.283-.192-.133h-.001v.001l.183.143.315.303.252.322.189.339.132.351.075.362.024.368-.027.372-.072.37-.114.367-.153.359-.185.347-.215.334-.239.317-.261.299-.279.28-.293.26-.308.241-.319.223-.331.205-.343.19-.356.172-.369.153-.38.129-.39.102-.397.072-.404.04-.409.006-.414-.03-.421-.064-.426-.102-.458-.117-.249-.055-.001.001s-.001 0 0 0"/><path d="M12.494 53.847l.126.292.38.342.447.158.47.03.48-.078.485-.175.475-.268.442-.332.571-.536.665-.719.624-.65.474-.405.331-.219.171-.088.001-.001c0-.001 0-.001 0 0l-.172.075-.345.188-.521.362-.696.555-.687.531-.489.326-.297.167-.294.142-.322.128-.367.094-.426.049-.5.004-.624-.009-.401.036-.001.001"/><path d="M15.495 53.847l.07.125.229.053.273-.047.294-.129.414-.286.473-.493.344-.526.266-.484.26-.446.294-.409.169-.186v-.001l-.196.172-.391.386-.395.411-.39.387-.344.31-.28.258-.212.193-.16.139-.214.171-.296.217-.208.184-.001.001h.001m-2.804.163l-.032-.314-.132-.466-.108-.376-.058-.338-.004-.316.028-.294.054-.284.065-.284.145-.46.262-.647.287-.649.175-.461.071-.287.02-.136s0-.001 0 0h-.001l-.034.141-.111.292-.249.459-.444.658-.506.723-.355.592-.19.422-.118.421-.035.408.061.377.155.345.275.291.444.183.334.001h.001v-.001"/><path d="M11.363 52.151l.112-.331.133-.515.11-.397.118-.321.132-.265.139-.225.137-.215.165-.227.312-.392.497-.55.519-.554.352-.415.196-.276.085-.137v-.001l-.001.001-.095.133-.219.252-.381.352-.583.449-.642.474-.497.416-.324.341-.296.383-.223.409-.143.41-.057.4.05.377.202.317.201.108.001-.001m1.359 1.873l.128.18.371.122.41-.004.429-.109.435-.2.424-.271.556-.495.608-.732.513-.719.496-.666.396-.453.289-.271.154-.124-.16.113-.316.251-.469.424-.615.609-.596.579-.553.482-.382.298-.245.176-.277.166-.334.163-.41.161-.512.166-.339.153h-.001v.001"/><path d="M12.329 53.822l.138.204.37.203.425.042.445-.072.451-.164.447-.249.419-.321.371-.362.461-.55.53-.717.51-.66.402-.434.288-.253.154-.111v-.001l-.158.101-.315.229-.467.408-.618.598-.612.576-.437.367-.261.193-.246.17-.26.162-.302.151-.364.131-.444.116-.567.133-.359.109h-.001v.001"/><path d="M12.44 53.531l.005.331.22.332.348.109.414-.04.463-.17.48-.31.427-.395.323-.417.305-.56.276-.667.261-.58.226-.37.176-.213.101-.093.001-.001h-.002l-.112.082-.234.2-.358.373-.498.557-.508.518-.332.283-.139.091-.071.052-.062.06-.129.105-.235.125-.365.148-.564.229-.415.219-.002.001v.001"/><path d="M12.998 53.399l.273-.365.268-.483.203-.347.16-.252.127-.187.114-.156.161-.272.266-.449.374-.529.431-.556.399-.55.168-.27v-.001l-.001.001-.209.243-.482.431-.555.393-.635.427-.685.553-.463.534-.243.416-.168.417-.064.391.059.339.216.252.284.021h.001l.001-.001m-1.422-3.569l.307-.277.344-.348.234-.173.144-.069.104-.043.124-.066.306-.229.575-.422.686-.45.699-.425.485-.31.288-.196.132-.101.001-.001-.001-.001-.131.073-.272.129-.434.133-.62.122-.668.102-.737.197-.602.315-.428.349-.395.422-.289.455-.125.416.068.315.203.084h.001l.001-.001"/><path d="M13.32 47.747l.34-.258.374-.25.098.046-.029.135.029.043.157-.021.45-.111.763-.147.773-.063.51.003.291.012.242.01.191-.006.074-.012.001-.001v-.001l-.064-.003-.158-.038-.191-.077-.214-.114-.355-.223-.513-.356-.576-.317-.528-.083-.457.101-.541.266-.541.473-.342.516.018.367.197.11c-.001 0 0 0 0 0l.001-.001"/><path d="M12.419 48.58l.265-.232.304-.27.213-.143.058.07-.091.08.2-.339.403-.423.259-.261.104-.118v-.002h-.001l-.109.064-.231.064-.423.025-.612.147-.559.474-.305.553.035.296.238.066.25-.05h.001l.001-.001"/><path d="M13.495 47.641l.294.053.118.145-.039.126.186-.349.361-.398.164-.158.001-.001-.001-.001-.11-.027-.222-.179-.393-.112-.437.367-.114.356.19.177v.002l.002-.001m-.592 5.93l.5-.165.86-.654.783-.827.634-.905.526-.909.481-.868.463-.8.346-.538.22-.326.11-.151v-.001h-.001l-.126.146-.274.312-.448.515-.679.743-.741.78-.755.784-.688.772-.56.777-.484.814-.168.5v.002l.001-.001m1.899.272l.152.178.437-.02.529-.251.533-.43.461-.519.344-.538.23-.516.13-.48.091-.658.061-.825.081-.763.116-.517.103-.306.066-.141v-.001l-.001.001-.088.146-.176.333-.258.576-.38.875-.437.919-.356.651-.221.368-.178.296-.129.224-.089.179-.103.19-.204.278-.402.403-.312.346-.001.001.001.001m-2.605-.903l.243-.466.293-.685.212-.479.188-.342.174-.236.154-.176.148-.187.207-.232.443-.453.73-.654.77-.659.53-.504.308-.335.134-.172v-.001h-.001l-.149.155-.32.283-.535.356-.794.418-.87.425-.696.408-.493.388-.481.483-.391.554-.266.564-.131.542.03.496.266.395.295.116h.001l.001-.002"/><path d="M16.653 53.455l.175.079.387-.131.427-.326.365-.417.274-.436.201-.425.131-.57-.007-.686-.062-.637-.024-.61.055-.574.065-.268-.002.001-.132.295-.266.674-.294.755-.34.781-.351.725-.206.446-.074.219-.049.171-.016.146-.018.185-.128.321-.111.281-.001.001h.001"/><path d="M16.556 52.989l.05.172.196.142.25.024.279-.05.429-.197.591-.466.511-.645.28-.619.106-.536-.016-.469-.131-.631-.238-.78-.15-.537-.07-.32-.035-.281.005-.228.02-.092h-.001l-.001.001-.035.1-.051.257-.035.327-.032.387-.066.667-.169.987-.198.727-.15.414-.124.305-.064.16.036.053-.037.129-.151.169-.165.152-.244.189-.348.267-.241.22-.001.001v.001m-3.891.061l.226-.44.194-.583.147-.414.12-.287.1-.186.078-.117.051-.101.072-.142.229-.328.442-.515.498-.528.337-.393.18-.26.076-.127-.001-.001-.001.001-.091.119-.209.212-.361.276-.566.331-.657.361-.547.374-.391.362-.352.441-.248.469-.136.452-.007.41.141.35.326.256.348.009h.001l.001-.001"/><path d="M13.303 53.358l.243-.409.225-.547.183-.405.157-.303.135-.227.128-.187.19-.313.319-.507.444-.6.503-.631.349-.472.205-.306.086-.152v-.001l-.001.001-.11.144-.239.273-.416.368-.631.466-.719.508-.763.651-.501.615-.25.467-.161.463-.042.428.094.371.26.28.31.026h.001l.001-.001"/><path d="M12.995 53.577l.142-.277.134-.311.079-.165.065-.103.063-.101-.017-.052-.118-.065-.102-.165-.035-.214-.005-.201-.008-.083h-.001l-.001.001-.045.097-.17.221-.269.264-.35.343-.319.443-.115.428.093.225.146.091.219.007.341-.165.271-.216h.002v-.002m1.913-.35l.149.153.4-.043.481-.261.471-.416.386-.484.286-.486.222-.653.073-.79-.005-.734.029-.705.076-.506.1-.329.06-.158v-.001l-.001.001-.094.168-.173.357-.265.591-.35.843-.381.843-.383.747-.226.432-.082.188-.05.14-.046.15-.125.239-.307.379-.245.333-.001.002h.001m-2.793-1.277l.163-.284.168-.416.111-.323.096-.266.122-.319.166-.293.118-.124.073-.046.09-.088.188-.179.481-.371.79-.506.607-.363.379-.236.337-.23.283-.235.117-.119.001-.002-.002.001-.121.102-.275.174-.312.142-.341.11-.559.138-.815.196-.671.235-.515.288-.538.443-.458.562-.294.574-.108.508.02.357.082.223.143.199.25.141.222.008h.001l.001-.001"/><path d="M11.829 52.148l.115-.328.099-.496.05-.39.02-.309.04-.267.042-.215.05-.169.05-.119.084-.128.069-.054.039-.032.17-.157.315-.235.408-.259.691-.38.681-.35.415-.226.358-.222.285-.229.11-.119.001-.002-.002.001-.112.103-.274.173-.328.136-.37.105-.615.125-.658.12-.47.113-.514.186-.577.329-.598.534-.427.608-.179.44-.065.297-.013.281.034.268.09.254.135.25.231.209.35.145.268.01h.002v-.001"/></g></svg><svg width="56" height="56" viewBox="0, 0, 56, 56" id="purpose" x="180"><path d="M28.5 48C17.73 48 9 39.27 9 28.5S17.73 9 28.5 9c4.427-.028 8.06 1.437 11.667 3.874m5.01 5.515C47.061 21.462 47.91 24.922 48 28.5 48 39.27 39.27 48 28.5 48" fill-opacity="0" stroke="#E79159" stroke-width="3"/><path d="M28.5 38.5c-5.523 0-10-4.477-10-10s4.477-10 10-10c1.862-.04 3.575.573 5.185 1.448m4.208 5.114c.419 1.103.577 2.265.607 3.438 0 5.523-4.477 10-10 10" fill-opacity="0" stroke="#E79159" stroke-width="3"/><path d="M29.3 27.231a1.5 1.5 0 1 1-1.6 2.538 1.5 1.5 0 0 1 1.6-2.538m.002.38L50.5 9.312M29.606 27.229L48.635 7.344" fill-opacity="0" stroke="#E79159" stroke-width="3"/><path d="M39.404 13.078c.174 0 .422-.177.553-.396.131-.218.096-.395-.079-.395s-.422.177-.553.395c-.131.219-.096.396.079.396" fill="#E79159"/></svg><svg id="twitter" data-name="Layer 1" width="51.78" height="42.06" viewBox="0 0 51.78 42.06" x="180" y="112"><defs><style>.icls-1{fill:#fff}</style></defs><title>twitter</title><path class="icls-1" d="M51.78 5a22.23 22.23 0 0 1-5.32 5.52v1.38a30.15 30.15 0 0 1-1.25 8.53 30.81 30.81 0 0 1-3.76 8.13 32.1 32.1 0 0 1-6.06 6.92 27 27 0 0 1-8.48 4.8 31 31 0 0 1-10.62 1.8A29.47 29.47 0 0 1 0 37.29a22.71 22.71 0 0 0 2.56.13 20.78 20.78 0 0 0 13.17-4.53 10.63 10.63 0 0 1-9.92-7.36 13.45 13.45 0 0 0 2 .16 11 11 0 0 0 2.79-.36 10.44 10.44 0 0 1-6.09-3.67 10.25 10.25 0 0 1-2.41-6.75v-.13a10.52 10.52 0 0 0 4.8 1.34 10.6 10.6 0 0 1-3.45-3.78 10.34 10.34 0 0 1-1.28-5.07 10.4 10.4 0 0 1 1.45-5.33 30.08 30.08 0 0 0 9.71 7.83A29.57 29.57 0 0 0 25.53 13a11.79 11.79 0 0 1-.26-2.43 10.23 10.23 0 0 1 3-7.48 10.64 10.64 0 0 1 15 0l.21.22A20.81 20.81 0 0 0 50.33.8a10.3 10.3 0 0 1-4.67 5.85A21.14 21.14 0 0 0 51.78 5z"/></svg><svg width="56" height="56" viewBox="0, 0, 56, 56" id="values" x="180" y="56"><g fill-opacity="0" stroke="#E79159"><g stroke-width="2"><path d="M17.406 12.186l22.225-.064"/><path d="M5.697 24.218l45.643-.256" stroke-linejoin="round"/><path d="M38.392 11.41l12.082 12.552M18.287 11.727L5.66 24.556" stroke-linejoin="bevel"/></g><path d="M6.648 24.125L28.799 43.99" stroke-width="2" stroke-linejoin="bevel"/><path d="M50.867 24.066L28.545 45.108m2.49-32.516l7.671 11.228" stroke-linejoin="bevel"/><path d="M25.344 12.44l-6.706 11.075" stroke-width="2" stroke-linejoin="bevel"/><path d="M37.538 24.633l-7.316 18.392" stroke-width=".7" stroke-linejoin="bevel"/><path d="M27.58 24.023l1.723 19.863" stroke-linejoin="bevel"/><path d="M15.338 24.015l13.811 18.843" stroke-width="1.5" stroke-linejoin="bevel"/></g></svg><svg id="youtube" data-name="Layer 1" width="34.75" height="42" viewBox="0 0 34.75 42" x="127.24" y="70"><defs><style>.kcls-1{fill:#fff}</style></defs><title>youtube</title><path class="kcls-1" d="M22.13 29.15v5q0 1.57-.91 1.57a1.5 1.5 0 0 1-1.06-.52v-7.11a1.5 1.5 0 0 1 1.06-.54q.91 0 .91 1.6zm7.92 0v1.08h-2.1v-1.06q0-1.59 1.06-1.59t1 1.59zM7.42 24h2.5v-2.14h-7.3v2.2h2.46V37.4h2.34V24zm6.75 13.4h2.09V25.82h-2.09v8.86a1.86 1.86 0 0 1-1.31 1 .48.48 0 0 1-.49-.47 6.52 6.52 0 0 1 0-.82v-8.57h-2.14V35a5.79 5.79 0 0 0 .19 1.71 1.26 1.26 0 0 0 1.36.87 3.43 3.43 0 0 0 2.39-1.43v1.25zm10.05-3.47v-4.6A8.33 8.33 0 0 0 24 27a1.63 1.63 0 0 0-1.67-1.31A2.82 2.82 0 0 0 20.16 27v-5.1h-2.08v15.5h2.09v-1.13a2.91 2.91 0 0 0 2.18 1.31A1.62 1.62 0 0 0 24 36.27a8.61 8.61 0 0 0 .22-2.35zm7.92-.24v-.3H30a11.6 11.6 0 0 1 0 1.43.9.9 0 0 1-.94.85q-1.08 0-1.08-1.61V32h4.19v-2.41a4.65 4.65 0 0 0-.66-2.72 3.2 3.2 0 0 0-5 0 4.52 4.52 0 0 0-.66 2.72v4.05a4.4 4.4 0 0 0 .66 2.72 3 3 0 0 0 2.49 1.2 2.9 2.9 0 0 0 3-2.51 10.31 10.31 0 0 0 .09-1.36zM17.89 12.3V7.38q0-1.61-1-1.61t-1 1.61v4.92q0 1.64 1 1.64t1-1.64zm16.85 17.6a40.6 40.6 0 0 1-.61 8.2 4.45 4.45 0 0 1-1.36 2.32 4.1 4.1 0 0 1-2.39 1.08 125.31 125.31 0 0 1-13 .49 125.31 125.31 0 0 1-13-.49A4.15 4.15 0 0 1 2 40.42 4.28 4.28 0 0 1 .63 38.1 39.76 39.76 0 0 1 0 29.9a40.6 40.6 0 0 1 .61-8.2A4.45 4.45 0 0 1 2 19.37a4.25 4.25 0 0 1 2.41-1.1q4.29-.47 13-.47t13 .47a4.4 4.4 0 0 1 3.75 3.42 39.76 39.76 0 0 1 .58 8.21zM11.35 0h2.39l-2.83 9.35v6.35H8.57V9.35a39.68 39.68 0 0 0-1.43-5Q6.27 2 5.61 0H8.1l1.67 6.16zM20 7.8v4.1a4.59 4.59 0 0 1-.66 2.76 2.88 2.88 0 0 1-2.49 1.19 2.9 2.9 0 0 1-2.46-1.19 4.68 4.68 0 0 1-.66-2.76V7.8a4.59 4.59 0 0 1 .66-2.74 2.9 2.9 0 0 1 2.46-1.19 2.88 2.88 0 0 1 2.49 1.19A4.59 4.59 0 0 1 20 7.8zM27.87 4v11.7h-2.13v-1.27a3.37 3.37 0 0 1-2.41 1.45A1.31 1.31 0 0 1 22 15a6 6 0 0 1-.19-1.76V4h2.13v8.6a6.14 6.14 0 0 0 0 .82.49.49 0 0 0 .47.52 1.87 1.87 0 0 0 1.31-1V4h2.16z"/></svg></svg>