<?xml version="1.0" encoding="UTF-8"?>
<!DOCTYPE svg PUBLIC "-//W3C//DTD SVG 1.1//EN" "http://www.w3.org/Graphics/SVG/1.1/DTD/svg11.dtd">
<svg version="1.1" xmlns="http://www.w3.org/2000/svg" xmlns:xlink="http://www.w3.org/1999/xlink" x="0" y="0" width="175.2" height="75" viewBox="0, 0, 292, 125">
  <g id="Layer_1">
    <g>
      <text transform="matrix(1, 0, 0, 1, 146, 62.5)">
        <tspan x="-142.5" y="-14.5" font-family="Georgia-Bold" font-size="53" fill="#FFFFFF">James Lee </tspan>
        <tspan x="-142.5" y="46.5" font-family="Georgia-Bold" font-size="53" fill="#FFFFFF">&amp;</tspan>
      </text>
      <path d="M33.675,13.296 Q32.64,13.426 31.915,13.555 Q31.19,13.685 30.285,13.917 Q29.224,14.202 28.926,14.927 Q28.628,15.651 28.628,16.583 L28.628,36.82 Q28.628,39.615 27.503,41.944 Q26.377,44.273 24.41,45.852 Q22.417,47.405 19.959,48.194 Q17.5,48.983 14.706,48.983 Q9.866,48.983 6.903,46.654 Q3.94,44.325 3.94,40.262 Q3.94,37.855 5.299,36.277 Q6.657,34.698 9.038,34.698 Q11.29,34.698 12.622,36.018 Q13.955,37.338 13.955,39.279 Q13.955,40.935 12.803,42.345 Q11.652,43.756 10.177,44.946 L10.177,45.283 Q10.41,45.8 11.186,46.163 Q11.962,46.525 12.765,46.525 Q15.87,46.525 17.643,44.299 Q19.416,42.074 19.416,37.571 L19.416,16.842 Q19.416,15.91 19.131,15.289 Q18.846,14.668 17.759,14.202 Q16.983,13.866 15.883,13.633 Q14.783,13.4 14.059,13.296 L14.059,11.278 L33.675,11.278 z M66.127,47.457 Q64.988,47.948 63.436,48.362 Q61.883,48.776 60.149,48.776 Q56.966,48.776 55.465,47.832 Q53.964,46.887 53.42,45.127 L53.265,45.127 Q52.385,46.007 51.57,46.628 Q50.755,47.25 49.823,47.689 Q48.607,48.259 47.481,48.531 Q46.355,48.802 44.337,48.802 Q41.335,48.802 39.213,47.03 Q37.091,45.257 37.091,42.333 Q37.091,40.65 37.557,39.473 Q38.022,38.295 38.876,37.39 Q39.653,36.562 40.675,36.018 Q41.697,35.475 42.914,35.009 Q45.243,34.155 48.503,33.236 Q51.764,32.317 53.265,31.593 L53.265,29.108 Q53.265,28.461 53.162,27.4 Q53.058,26.339 52.722,25.615 Q52.359,24.787 51.583,24.217 Q50.807,23.648 49.539,23.648 Q48.4,23.648 47.636,23.971 Q46.873,24.295 46.407,24.631 Q46.485,25.149 46.847,26.21 Q47.209,27.271 47.209,28.254 Q47.209,28.694 46.977,29.354 Q46.744,30.014 46.304,30.402 Q45.708,30.92 44.971,31.205 Q44.233,31.489 42.707,31.489 Q40.533,31.489 39.42,30.441 Q38.307,29.393 38.307,27.711 Q38.307,26.262 39.459,25.11 Q40.61,23.958 42.267,23.208 Q43.897,22.432 46.019,22.005 Q48.141,21.578 49.953,21.578 Q52.463,21.578 54.559,21.875 Q56.655,22.173 58.337,23.104 Q59.942,24.01 60.886,25.731 Q61.831,27.452 61.831,30.221 Q61.831,33.146 61.715,37.157 Q61.598,41.168 61.598,42.436 Q61.598,43.601 61.948,44.273 Q62.297,44.946 63.021,45.283 Q63.461,45.49 64.406,45.529 Q65.351,45.567 66.127,45.567 z M53.265,33.974 Q51.816,34.465 50.393,35.099 Q48.969,35.733 48.063,36.432 Q47.106,37.157 46.562,38.282 Q46.019,39.408 46.019,40.935 Q46.019,42.954 46.938,43.859 Q47.856,44.765 49.202,44.765 Q50.625,44.765 51.544,44.183 Q52.463,43.601 53.162,42.747 z M119.541,48 L104.117,48 L104.117,46.111 Q104.687,46.033 105.308,45.981 Q105.929,45.93 106.343,45.723 Q106.912,45.464 107.067,44.856 Q107.223,44.248 107.223,43.29 L107.223,31.205 Q107.223,28.539 106.278,27.206 Q105.333,25.874 103.574,25.874 Q102.461,25.874 101.594,26.223 Q100.727,26.572 100.002,27.09 Q99.252,27.633 98.838,28.177 Q98.424,28.72 98.139,29.108 L98.139,43.005 Q98.139,43.937 98.359,44.519 Q98.579,45.102 99.174,45.438 Q99.588,45.671 100.119,45.852 Q100.649,46.033 101.245,46.111 L101.245,48 L86.468,48 L86.468,46.111 Q86.959,46.059 87.658,45.981 Q88.357,45.904 88.693,45.723 Q89.237,45.438 89.405,44.895 Q89.573,44.351 89.573,43.29 L89.573,31.205 Q89.573,28.539 88.629,27.206 Q87.684,25.874 85.924,25.874 Q84.812,25.874 83.945,26.223 Q83.078,26.572 82.353,27.09 Q81.603,27.633 81.188,28.177 Q80.774,28.72 80.49,29.108 L80.49,43.005 Q80.49,43.911 80.723,44.506 Q80.956,45.102 81.551,45.438 Q81.965,45.671 82.495,45.852 Q83.026,46.033 83.621,46.111 L83.621,48 L68.12,48 L68.12,46.111 Q68.792,46.059 69.439,45.981 Q70.086,45.904 70.552,45.723 Q71.38,45.412 71.691,44.83 Q72.001,44.248 72.001,43.29 L72.001,28.229 Q72.001,27.4 71.562,26.611 Q71.122,25.822 70.5,25.382 Q70.035,25.071 69.323,24.864 Q68.611,24.657 67.757,24.58 L67.757,22.69 L80.102,22.018 L80.49,22.406 L80.49,26.055 L80.593,26.055 Q81.318,25.408 82.314,24.515 Q83.311,23.622 84.19,23.079 Q85.148,22.458 86.649,22.043 Q88.15,21.629 89.936,21.629 Q92.886,21.629 94.865,22.91 Q96.845,24.191 97.673,26.313 L97.906,26.313 Q98.657,25.615 99.744,24.67 Q100.831,23.726 101.736,23.156 Q102.746,22.509 104.311,22.069 Q105.877,21.629 107.663,21.629 Q111.57,21.629 113.679,23.933 Q115.789,26.236 115.789,30.48 L115.789,43.057 Q115.789,44.015 116.073,44.597 Q116.358,45.179 117.108,45.49 Q117.522,45.671 118.131,45.852 Q118.739,46.033 119.541,46.111 z M149.768,41.815 Q148.862,43.29 147.581,44.597 Q146.3,45.904 144.669,46.835 Q142.936,47.819 141.163,48.323 Q139.39,48.828 137.087,48.828 Q133.257,48.828 130.475,47.741 Q127.693,46.654 125.881,44.817 Q124.07,42.979 123.177,40.482 Q122.284,37.985 122.284,35.061 Q122.284,32.421 123.255,30.001 Q124.225,27.582 126.011,25.692 Q127.771,23.855 130.449,22.716 Q133.127,21.578 136.44,21.578 Q140.063,21.578 142.392,22.458 Q144.721,23.337 146.248,24.89 Q147.723,26.365 148.396,28.371 Q149.069,30.376 149.069,32.576 L149.069,34.258 L131.575,34.258 Q131.575,39.563 133.619,42.333 Q135.664,45.102 140.115,45.102 Q142.547,45.102 144.488,43.769 Q146.429,42.436 147.801,40.392 z M139.882,31.981 Q139.882,30.428 139.727,28.798 Q139.571,27.167 139.183,26.132 Q138.743,24.916 137.98,24.295 Q137.216,23.674 136.052,23.674 Q134.059,23.674 132.869,25.692 Q131.678,27.711 131.575,32.084 z M164.234,48.88 Q161.724,48.88 159.33,48.142 Q156.936,47.405 155.616,46.577 L154.84,48.336 L152.821,48.336 L152.485,38.684 L154.374,38.684 Q154.762,39.848 155.668,41.31 Q156.574,42.772 157.738,43.937 Q158.955,45.102 160.52,45.904 Q162.086,46.706 163.872,46.706 Q166.227,46.706 167.378,45.787 Q168.53,44.869 168.53,42.954 Q168.53,41.918 168.012,41.246 Q167.495,40.573 166.589,40.081 Q165.58,39.563 164.376,39.201 Q163.173,38.839 161.413,38.321 Q159.653,37.804 158.398,37.273 Q157.143,36.743 155.797,35.604 Q154.633,34.595 153.934,33.171 Q153.235,31.748 153.235,29.781 Q153.235,26.132 156.302,23.881 Q159.369,21.629 164.337,21.629 Q166.692,21.629 168.672,22.108 Q170.652,22.587 171.998,23.156 L172.541,21.629 L174.508,21.629 L174.922,30.454 L173.084,30.454 Q172.179,27.763 169.979,25.809 Q167.779,23.855 165.243,23.855 Q163.25,23.855 162.112,24.683 Q160.973,25.511 160.973,26.986 Q160.973,28.953 162.642,29.833 Q164.312,30.713 167.313,31.489 Q171.946,32.68 174.094,34.737 Q176.242,36.794 176.242,39.978 Q176.242,44.222 172.916,46.551 Q169.591,48.88 164.234,48.88 z M227.715,36.225 L226.99,48 L193.167,48 L193.167,45.981 Q194.072,45.904 195.289,45.736 Q196.505,45.567 196.893,45.412 Q197.825,45.05 198.187,44.403 Q198.549,43.756 198.549,42.747 L198.549,16.842 Q198.549,15.91 198.265,15.302 Q197.98,14.694 196.893,14.202 Q196.091,13.84 194.965,13.62 Q193.839,13.4 193.167,13.296 L193.167,11.278 L213.326,11.278 L213.326,13.296 Q212.498,13.374 211.372,13.516 Q210.247,13.659 209.418,13.917 Q208.409,14.254 208.073,14.966 Q207.736,15.677 207.736,16.583 L207.736,40.728 Q207.736,42.436 207.969,43.419 Q208.202,44.403 208.875,44.869 Q209.548,45.36 210.751,45.503 Q211.955,45.645 214.077,45.645 Q216.147,45.645 218.101,45.399 Q220.055,45.153 220.909,44.325 Q222.229,43.005 223.613,40.612 Q224.998,38.218 225.826,36.225 z M257.036,41.815 Q256.13,43.29 254.849,44.597 Q253.568,45.904 251.938,46.835 Q250.204,47.819 248.431,48.323 Q246.658,48.828 244.355,48.828 Q240.525,48.828 237.743,47.741 Q234.961,46.654 233.149,44.817 Q231.338,42.979 230.445,40.482 Q229.552,37.985 229.552,35.061 Q229.552,32.421 230.523,30.001 Q231.493,27.582 233.279,25.692 Q235.039,23.855 237.717,22.716 Q240.396,21.578 243.708,21.578 Q247.331,21.578 249.66,22.458 Q251.989,23.337 253.516,24.89 Q254.991,26.365 255.664,28.371 Q256.337,30.376 256.337,32.576 L256.337,34.258 L238.843,34.258 Q238.843,39.563 240.887,42.333 Q242.932,45.102 247.383,45.102 Q249.815,45.102 251.756,43.769 Q253.697,42.436 255.069,40.392 z M247.15,31.981 Q247.15,30.428 246.995,28.798 Q246.839,27.167 246.451,26.132 Q246.011,24.916 245.248,24.295 Q244.484,23.674 243.32,23.674 Q241.327,23.674 240.137,25.692 Q238.946,27.711 238.843,32.084 z M287.34,41.815 Q286.434,43.29 285.153,44.597 Q283.872,45.904 282.242,46.835 Q280.508,47.819 278.735,48.323 Q276.962,48.828 274.659,48.828 Q270.829,48.828 268.047,47.741 Q265.265,46.654 263.454,44.817 Q261.642,42.979 260.749,40.482 Q259.856,37.985 259.856,35.061 Q259.856,32.421 260.827,30.001 Q261.797,27.582 263.583,25.692 Q265.343,23.855 268.021,22.716 Q270.7,21.578 274.012,21.578 Q277.635,21.578 279.964,22.458 Q282.293,23.337 283.82,24.89 Q285.295,26.365 285.968,28.371 Q286.641,30.376 286.641,32.576 L286.641,34.258 L269.147,34.258 Q269.147,39.563 271.191,42.333 Q273.236,45.102 277.687,45.102 Q280.12,45.102 282.061,43.769 Q284.001,42.436 285.373,40.392 z M277.454,31.981 Q277.454,30.428 277.299,28.798 Q277.144,27.167 276.755,26.132 Q276.315,24.916 275.552,24.295 Q274.789,23.674 273.624,23.674 Q271.631,23.674 270.441,25.692 Q269.25,27.711 269.147,32.084 z M46.097,109 L30.88,109 Q30.259,108.301 29.275,107.176 Q28.292,106.05 27.593,105.17 Q24.85,107.706 22.12,108.806 Q19.39,109.906 16.31,109.906 Q11.471,109.906 8.378,107.292 Q5.286,104.678 5.286,100.486 Q5.286,98.39 5.842,96.889 Q6.398,95.388 7.641,93.887 Q8.831,92.438 10.591,91.286 Q12.351,90.134 14.55,89.125 Q12.221,86.175 11.302,84.104 Q10.384,82.034 10.384,79.86 Q10.384,76.134 13.489,73.714 Q16.595,71.294 20.917,71.294 Q24.954,71.294 27.464,73.209 Q29.974,75.125 29.974,78.282 Q29.974,81.025 28.473,83.186 Q26.972,85.347 23.479,87.417 Q26.299,91.04 27.839,92.865 Q29.379,94.689 31.941,97.665 Q33.571,95.258 34.386,93.24 Q35.202,91.221 35.202,89.85 Q35.202,89.073 34.05,88.594 Q32.898,88.116 30.802,87.702 L30.802,85.735 L45.269,85.735 L45.269,87.702 Q42.914,87.909 41.788,88.271 Q40.662,88.633 39.575,89.746 Q39.109,90.212 38.424,91.389 Q37.738,92.567 37.117,93.654 Q36.366,94.974 35.512,96.423 Q34.658,97.872 33.442,99.451 Q35.823,102.246 37.363,103.63 Q38.902,105.015 39.886,105.532 Q40.999,106.127 42.707,106.477 Q44.415,106.826 46.097,106.93 z M26.041,78.67 Q26.041,76.393 24.941,75.086 Q23.841,73.779 22.081,73.779 Q20.399,73.779 19.364,74.853 Q18.329,75.927 18.329,77.661 Q18.329,79.162 19.286,81.064 Q20.244,82.966 22.236,85.683 Q24.203,84.312 25.122,82.487 Q26.041,80.663 26.041,78.67 z M26.222,103.488 Q24.048,100.874 21.162,97.406 Q18.277,93.938 15.792,90.807 Q14.421,92.153 13.813,93.951 Q13.205,95.75 13.205,97.562 Q13.205,101.003 15.404,103.177 Q17.604,105.351 20.994,105.351 Q22.573,105.351 23.737,104.95 Q24.902,104.549 26.222,103.488 z" fill-opacity="0" stroke="#FFFFFF" stroke-width="1"/>
    </g>
  </g>
</svg>
