<?xml version="1.0" encoding="UTF-8"?>
<!DOCTYPE svg PUBLIC "-//W3C//DTD SVG 1.1//EN" "http://www.w3.org/Graphics/SVG/1.1/DTD/svg11.dtd">
<svg version="1.1" xmlns="http://www.w3.org/2000/svg" xmlns:xlink="http://www.w3.org/1999/xlink" x="0" y="0" width="132" height="72" viewBox="0, 0, 110, 60">
  <g id="Layer_1">
    <g>
      <g>
        <text transform="matrix(1, 0, 0, 1, 55.054, 17.452)">
          <tspan x="-51.707" y="9.548" font-family="Georgia-Bold" font-size="31" fill="#FFFFFF">James </tspan>
        </text>
        <path d="M20.997,6.702 Q20.391,6.777 19.967,6.853 Q19.544,6.929 19.014,7.065 Q18.393,7.231 18.219,7.655 Q18.045,8.079 18.045,8.624 L18.045,20.461 Q18.045,22.096 17.387,23.458 Q16.728,24.82 15.578,25.744 Q14.412,26.652 12.974,27.114 Q11.536,27.575 9.901,27.575 Q7.071,27.575 5.338,26.213 Q3.605,24.851 3.605,22.474 Q3.605,21.066 4.399,20.143 Q5.194,19.22 6.587,19.22 Q7.903,19.22 8.683,19.992 Q9.462,20.764 9.462,21.899 Q9.462,22.868 8.789,23.693 Q8.115,24.518 7.253,25.214 L7.253,25.411 Q7.389,25.713 7.843,25.925 Q8.297,26.137 8.766,26.137 Q10.583,26.137 11.619,24.835 Q12.656,23.534 12.656,20.9 L12.656,8.775 Q12.656,8.23 12.49,7.867 Q12.323,7.504 11.688,7.231 Q11.233,7.035 10.59,6.898 Q9.947,6.762 9.523,6.702 L9.523,5.521 L20.997,5.521 z M39.978,26.682 Q39.312,26.97 38.404,27.212 Q37.496,27.454 36.482,27.454 Q34.62,27.454 33.742,26.902 Q32.864,26.349 32.546,25.32 L32.455,25.32 Q31.941,25.834 31.464,26.198 Q30.987,26.561 30.442,26.818 Q29.731,27.151 29.072,27.31 Q28.414,27.469 27.233,27.469 Q25.477,27.469 24.236,26.432 Q22.995,25.396 22.995,23.685 Q22.995,22.701 23.267,22.012 Q23.54,21.324 24.039,20.794 Q24.493,20.31 25.091,19.992 Q25.689,19.674 26.4,19.401 Q27.763,18.902 29.67,18.365 Q31.577,17.827 32.455,17.403 L32.455,15.95 Q32.455,15.572 32.395,14.951 Q32.334,14.331 32.137,13.907 Q31.925,13.422 31.471,13.089 Q31.017,12.756 30.275,12.756 Q29.609,12.756 29.163,12.946 Q28.716,13.135 28.444,13.332 Q28.489,13.634 28.701,14.255 Q28.913,14.875 28.913,15.451 Q28.913,15.708 28.777,16.094 Q28.641,16.48 28.383,16.707 Q28.035,17.01 27.604,17.176 Q27.172,17.343 26.279,17.343 Q25.008,17.343 24.357,16.73 Q23.706,16.117 23.706,15.133 Q23.706,14.285 24.38,13.612 Q25.053,12.938 26.022,12.499 Q26.976,12.045 28.217,11.795 Q29.458,11.545 30.518,11.545 Q31.986,11.545 33.212,11.719 Q34.438,11.894 35.422,12.438 Q36.36,12.968 36.913,13.975 Q37.465,14.981 37.465,16.601 Q37.465,18.312 37.397,20.658 Q37.329,23.004 37.329,23.746 Q37.329,24.427 37.534,24.82 Q37.738,25.214 38.162,25.411 Q38.419,25.532 38.972,25.554 Q39.524,25.577 39.978,25.577 z M32.455,18.796 Q31.608,19.083 30.775,19.454 Q29.942,19.825 29.413,20.234 Q28.853,20.658 28.535,21.316 Q28.217,21.975 28.217,22.868 Q28.217,24.048 28.754,24.578 Q29.292,25.108 30.079,25.108 Q30.911,25.108 31.449,24.767 Q31.986,24.427 32.395,23.927 z M71.22,27 L62.199,27 L62.199,25.895 Q62.532,25.85 62.895,25.819 Q63.258,25.789 63.501,25.668 Q63.834,25.517 63.924,25.161 Q64.015,24.805 64.015,24.245 L64.015,17.176 Q64.015,15.617 63.463,14.838 Q62.91,14.058 61.881,14.058 Q61.23,14.058 60.723,14.262 Q60.216,14.467 59.792,14.77 Q59.353,15.087 59.111,15.405 Q58.869,15.723 58.702,15.95 L58.702,24.079 Q58.702,24.624 58.831,24.964 Q58.96,25.305 59.308,25.501 Q59.55,25.638 59.86,25.744 Q60.17,25.85 60.519,25.895 L60.519,27 L51.876,27 L51.876,25.895 Q52.163,25.865 52.572,25.819 Q52.981,25.774 53.177,25.668 Q53.495,25.501 53.594,25.184 Q53.692,24.866 53.692,24.245 L53.692,17.176 Q53.692,15.617 53.139,14.838 Q52.587,14.058 51.558,14.058 Q50.907,14.058 50.4,14.262 Q49.893,14.467 49.469,14.77 Q49.03,15.087 48.788,15.405 Q48.545,15.723 48.379,15.95 L48.379,24.079 Q48.379,24.608 48.515,24.957 Q48.651,25.305 49,25.501 Q49.242,25.638 49.552,25.744 Q49.862,25.85 50.211,25.895 L50.211,27 L41.144,27 L41.144,25.895 Q41.537,25.865 41.916,25.819 Q42.294,25.774 42.566,25.668 Q43.051,25.486 43.233,25.146 Q43.414,24.805 43.414,24.245 L43.414,15.436 Q43.414,14.951 43.157,14.49 Q42.899,14.028 42.536,13.771 Q42.264,13.589 41.847,13.468 Q41.431,13.347 40.932,13.301 L40.932,12.196 L48.152,11.803 L48.379,12.03 L48.379,14.164 L48.44,14.164 Q48.863,13.786 49.446,13.263 Q50.029,12.741 50.544,12.423 Q51.104,12.06 51.982,11.818 Q52.859,11.576 53.904,11.576 Q55.629,11.576 56.787,12.325 Q57.945,13.074 58.43,14.315 L58.566,14.315 Q59.005,13.907 59.641,13.354 Q60.276,12.802 60.806,12.469 Q61.397,12.09 62.312,11.833 Q63.228,11.576 64.273,11.576 Q66.558,11.576 67.792,12.923 Q69.025,14.27 69.025,16.752 L69.025,24.109 Q69.025,24.669 69.192,25.01 Q69.358,25.35 69.797,25.532 Q70.04,25.638 70.395,25.744 Q70.751,25.85 71.22,25.895 z M88.9,23.382 Q88.37,24.245 87.621,25.01 Q86.872,25.774 85.918,26.319 Q84.904,26.894 83.867,27.189 Q82.83,27.484 81.483,27.484 Q79.243,27.484 77.616,26.849 Q75.988,26.213 74.929,25.138 Q73.869,24.063 73.347,22.603 Q72.825,21.142 72.825,19.432 Q72.825,17.888 73.392,16.472 Q73.96,15.057 75.004,13.952 Q76.034,12.877 77.6,12.211 Q79.167,11.545 81.105,11.545 Q83.224,11.545 84.586,12.06 Q85.948,12.575 86.841,13.483 Q87.704,14.346 88.098,15.519 Q88.491,16.692 88.491,17.979 L88.491,18.962 L78.259,18.962 Q78.259,22.065 79.455,23.685 Q80.65,25.305 83.254,25.305 Q84.677,25.305 85.812,24.525 Q86.947,23.746 87.75,22.55 z M83.118,17.63 Q83.118,16.722 83.027,15.769 Q82.936,14.815 82.709,14.209 Q82.452,13.498 82.005,13.135 Q81.559,12.771 80.878,12.771 Q79.712,12.771 79.016,13.952 Q78.319,15.133 78.259,17.691 z M97.361,27.515 Q95.893,27.515 94.493,27.083 Q93.093,26.652 92.321,26.167 L91.867,27.197 L90.686,27.197 L90.489,21.551 L91.594,21.551 Q91.821,22.232 92.351,23.087 Q92.881,23.942 93.562,24.624 Q94.274,25.305 95.189,25.774 Q96.105,26.243 97.149,26.243 Q98.527,26.243 99.201,25.706 Q99.874,25.168 99.874,24.048 Q99.874,23.443 99.571,23.049 Q99.269,22.656 98.739,22.368 Q98.149,22.065 97.445,21.854 Q96.741,21.642 95.712,21.339 Q94.682,21.036 93.948,20.726 Q93.214,20.416 92.427,19.75 Q91.746,19.159 91.337,18.327 Q90.928,17.494 90.928,16.344 Q90.928,14.209 92.722,12.893 Q94.516,11.576 97.422,11.576 Q98.799,11.576 99.957,11.856 Q101.115,12.136 101.902,12.469 L102.22,11.576 L103.371,11.576 L103.613,16.737 L102.538,16.737 Q102.008,15.163 100.722,14.02 Q99.435,12.877 97.952,12.877 Q96.786,12.877 96.12,13.362 Q95.454,13.846 95.454,14.709 Q95.454,15.859 96.431,16.374 Q97.407,16.889 99.163,17.343 Q101.872,18.039 103.129,19.242 Q104.385,20.446 104.385,22.308 Q104.385,24.79 102.44,26.152 Q100.495,27.515 97.361,27.515 z" fill-opacity="0" stroke="#FFFFFF" stroke-width="1"/>
      </g>
      <text transform="matrix(1, -0, 0, 1, 76.297, 45.379)">
        <tspan x="-10.987" y="8.846" font-family="Georgia-Bold" font-size="28" fill="#FFFFFF">&amp;</tspan>
      </text>
      <text transform="matrix(1, 0, 0, 1, 33.099, 47.054)">
        <tspan x="-29.86" y="8.91" font-family="Georgia-Bold" font-size="31" fill="#FFFFFF">Lee</tspan>
      </text>
    </g>
  </g>
</svg>
