<?xml version="1.0" encoding="UTF-8"?>
<!DOCTYPE svg PUBLIC "-//W3C//DTD SVG 1.1//EN" "http://www.w3.org/Graphics/SVG/1.1/DTD/svg11.dtd">
<svg version="1.1" xmlns="http://www.w3.org/2000/svg" xmlns:xlink="http://www.w3.org/1999/xlink" x="0" y="0" width="32.9" height="32.9" viewBox="0, 0, 47, 47">
  <g id="Layer_1">
    <path d="M11.072,48.154 L1.017,48.154 L1.017,13.629 L11.072,13.629 L11.072,48.154 z M47.941,48.154 L37.886,48.154 L37.886,29.711 C37.886,24.905 36.223,22.512 32.929,22.512 C30.318,22.512 28.662,23.852 27.831,26.535 C27.831,30.892 27.831,48.154 27.831,48.154 L17.775,48.154 C17.775,48.154 17.909,17.082 17.775,13.629 L25.712,13.629 L26.326,20.534 L26.534,20.534 C28.595,17.082 31.89,14.741 36.408,14.741 C39.843,14.741 42.622,15.725 44.744,18.197 C46.879,20.672 47.941,23.994 47.941,28.658 L47.941,48.154 z" fill="#FFFFFF"/>
    <g>
      <path d="M5.037,11.724 C2.298,11.197 0.505,8.424 1.034,5.529 C1.562,2.635 4.21,0.715 6.949,1.241 C9.688,1.768 11.481,4.541 10.952,7.436 C10.424,10.331 7.776,12.25 5.037,11.724 z" fill="#FFFFFF"/>
      <path d="M5.037,11.724 C2.298,11.197 0.505,8.424 1.034,5.529 C1.562,2.635 4.21,0.715 6.949,1.241 C9.688,1.768 11.481,4.541 10.952,7.436 C10.424,10.331 7.776,12.25 5.037,11.724 z" fill-opacity="0" stroke="#FFFFFF" stroke-width="1"/>
    </g>
  </g>
</svg>
