<?xml version="1.0" encoding="UTF-8"?>
<!DOCTYPE svg PUBLIC "-//W3C//DTD SVG 1.1//EN" "http://www.w3.org/Graphics/SVG/1.1/DTD/svg11.dtd">
<svg version="1.1" xmlns="http://www.w3.org/2000/svg" xmlns:xlink="http://www.w3.org/1999/xlink" x="0" y="0" width="56" height="56" viewBox="0, 0, 56, 56">
  <g id="Layer_1">
    <g>
      <path d="M15.646,20.131 C18.027,20.131 19.958,21.733 19.958,23.709 C19.958,25.685 18.027,27.286 15.646,27.286 C13.265,27.286 11.335,25.685 11.335,23.709 C11.335,21.733 13.265,20.131 15.646,20.131 L15.646,20.131 z" fill="#FFFFFF"/>
      <path d="M15.646,20.131 C18.027,20.131 19.958,21.733 19.958,23.709 C19.958,25.685 18.027,27.286 15.646,27.286 C13.265,27.286 11.335,25.685 11.335,23.709 C11.335,21.733 13.265,20.131 15.646,20.131 L15.646,20.131 z" fill-opacity="0" stroke="#E79159" stroke-width="1.5" stroke-linecap="round" stroke-linejoin="round"/>
    </g>
    <g>
      <path d="M41.812,27.272 C39.43,27.272 37.5,25.67 37.5,23.694 C37.5,21.719 39.43,20.117 41.812,20.117 C44.193,20.117 46.123,21.719 46.123,23.694 C46.123,25.67 44.193,27.272 41.812,27.272 z" fill="#FFFFFF"/>
      <path d="M41.812,27.272 C39.43,27.272 37.5,25.67 37.5,23.694 C37.5,21.719 39.43,20.117 41.812,20.117 C44.193,20.117 46.123,21.719 46.123,23.694 C46.123,25.67 44.193,27.272 41.812,27.272 z" fill-opacity="0" stroke="#E79159" stroke-width="1.5" stroke-linecap="round" stroke-linejoin="round"/>
    </g>
    <g>
      <path d="M9.5,30.5 L21.548,30.5 L21.548,48.296 L9.5,48.296 z" fill="#FFFFFF"/>
      <path d="M9.5,30.5 L21.548,30.5 L21.548,48.296 L9.5,48.296 z" fill-opacity="0" stroke="#E79159" stroke-width="2" stroke-linecap="round" stroke-linejoin="round"/>
    </g>
    <g>
      <path d="M35.5,30.5 L47.548,30.5 L47.548,48.296 L35.5,48.296 z" fill="#FFFFFF"/>
      <path d="M35.5,30.5 L47.548,30.5 L47.548,48.296 L35.5,48.296 z" fill-opacity="0" stroke="#E79159" stroke-width="2" stroke-linecap="round" stroke-linejoin="round"/>
    </g>
    <path d="M31.841,19.296 C29.289,19.345 26.808,18.818 24.405,18.008" fill-opacity="0" stroke="#E79159" stroke-width="1.5" stroke-linecap="round" stroke-linejoin="round"/>
    <path d="M20.845,16.109 C18.951,14.707 17.682,12.772 17.5,10.398 C17.5,5.484 23.921,1.5 31.841,1.5 C39.761,1.5 46.182,5.484 46.182,10.398 C46.182,15.313 39.761,19.296 31.841,19.296" fill-opacity="0" stroke="#E79159" stroke-width="1.5" stroke-linecap="round" stroke-linejoin="round"/>
    <path d="M24.375,18.001 L24.324,18.207" fill-opacity="0" stroke="#E79159" stroke-width="1" stroke-linecap="round" stroke-linejoin="round"/>
    <path d="M21.243,16.332 L21.229,16.764" fill-opacity="0" stroke="#E79159" stroke-width="1" stroke-linecap="round" stroke-linejoin="round"/>
    <path d="M42.206,13.815 L42.51,13.748 L42.51,13.748 C42.51,13.747 42.51,13.747 42.51,13.747 C42.511,13.746 42.51,13.746 42.51,13.746 C42.51,13.746 42.51,13.746 42.51,13.746 L42.206,13.814 C42.206,13.814 42.206,13.814 42.206,13.814 C42.206,13.814 42.205,13.814 42.205,13.815 C42.205,13.815 42.205,13.815 42.206,13.815 L42.206,13.815" fill="#E79159"/>
    <path d="M25.705,9.025 L26.227,9.234 L26.227,9.234 C26.228,9.234 26.228,9.234 26.228,9.234 C26.228,9.233 26.228,9.233 26.228,9.233 C26.228,9.233 26.228,9.233 26.228,9.233 L25.706,9.024 C25.706,9.024 25.706,9.024 25.706,9.024 C25.705,9.025 25.705,9.025 25.705,9.025 L25.705,9.025" fill="#E79159"/>
    <path d="M40.26,8.265 L41.467,8.044 L41.467,8.044 C41.467,8.044 41.468,8.044 41.468,8.043 C41.468,8.043 41.468,8.043 41.468,8.043 C41.468,8.043 41.468,8.043 41.468,8.043 L40.261,8.264 C40.261,8.264 40.26,8.264 40.26,8.264 C40.26,8.265 40.26,8.265 40.26,8.265 L40.26,8.265" fill="#E79159"/>
    <path d="M25.889,3.444 L26.111,3.668 L26.111,3.668 C26.112,3.669 26.112,3.668 26.112,3.668 C26.112,3.668 26.113,3.667 26.112,3.667 L25.89,3.443 C25.89,3.443 25.89,3.443 25.89,3.443 C25.889,3.444 25.889,3.444 25.889,3.444 L25.889,3.444" fill="#E79159"/>
    <path d="M39.95,6.369 L40.24,6.388 L40.24,6.388 C40.241,6.388 40.241,6.388 40.241,6.388 C40.241,6.387 40.241,6.387 40.241,6.387 C40.241,6.387 40.241,6.387 40.241,6.387 L39.951,6.368 C39.951,6.368 39.951,6.368 39.951,6.368 C39.951,6.368 39.95,6.368 39.95,6.368 C39.95,6.369 39.95,6.369 39.95,6.369 L39.95,6.369" fill="#E79159"/>
    <path d="M39.187,7.619 L41.222,7.431 L41.222,7.431 C41.222,7.431 41.223,7.431 41.223,7.43 C41.223,7.429 41.223,7.429 41.223,7.429 L39.188,7.617 C39.188,7.617 39.188,7.617 39.188,7.617 C39.188,7.617 39.187,7.618 39.187,7.618 C39.187,7.619 39.187,7.619 39.187,7.619 L39.187,7.619" fill="#E79159"/>
    <path d="M42.145,9.499 L43.184,9.394 L43.184,9.394 C43.184,9.394 43.185,9.393 43.185,9.393 C43.186,9.392 43.186,9.392 43.185,9.392 C43.185,9.392 43.185,9.392 43.185,9.392 L42.146,9.497 C42.146,9.497 42.146,9.497 42.146,9.497 C42.146,9.497 42.145,9.497 42.145,9.498 C42.145,9.498 42.145,9.499 42.145,9.499 L42.145,9.499" fill="#E79159"/>
    <path d="M39.751,8.336 L41.406,8.106 L41.406,8.106 C41.406,8.106 41.407,8.105 41.407,8.105 C41.407,8.104 41.407,8.104 41.407,8.104 C41.407,8.104 41.407,8.104 41.407,8.104 L39.752,8.334 C39.752,8.334 39.752,8.334 39.752,8.334 C39.751,8.334 39.751,8.335 39.751,8.335 C39.75,8.336 39.75,8.336 39.751,8.336 L39.751,8.336" fill="#E79159"/>
    <path d="M40.852,6.226 L42.203,6.082 L42.203,6.082 C42.203,6.082 42.204,6.081 42.204,6.081 C42.204,6.08 42.204,6.08 42.204,6.08 L40.853,6.224 C40.852,6.224 40.852,6.225 40.851,6.225 C40.851,6.226 40.851,6.226 40.852,6.226 L40.852,6.226" fill="#E79159"/>
    <path d="M40.085,4.735 L40.302,4.733 L40.302,4.733 C40.302,4.733 40.303,4.732 40.303,4.732 C40.303,4.731 40.303,4.731 40.303,4.731 L40.086,4.733 C40.086,4.733 40.086,4.733 40.086,4.733 C40.086,4.733 40.085,4.733 40.085,4.734 C40.084,4.735 40.084,4.735 40.085,4.735 L40.085,4.735" fill="#E79159"/>
    <path d="M23.669,13.012 C29.835,13.695 37.114,14.289 42.912,11.804" fill-opacity="0" stroke="#E79159" stroke-width="1" stroke-linecap="round" stroke-linejoin="round"/>
    <path d="M29.341,17.235 C30.513,17.225 31.691,17.673 32.876,17.486 C33.963,17.314 42.849,14.241 43.418,13.482 C43.499,13.373 42.142,13.924 40.227,14.858 C37.88,16.003 35.409,16.655 33.032,17.673 C32.326,17.976 34.583,17.591 35.316,17.361 C36.971,16.839 38.612,16.272 40.227,15.64 C41.068,15.311 43.689,14.652 42.792,14.764 C40.66,15.031 37.29,16.712 35.472,17.924 C34.989,18.246 35.776,17.992 37.349,17.392 C39.052,16.742 40.748,16.075 42.448,15.421 C43.058,15.187 44.978,14.858 44.325,14.858 C42.209,14.858 39.433,16.912 37.381,17.548 C36.777,17.735 35.535,18.618 35.535,17.986 C35.535,17.881 39.561,16.507 41.134,15.734 C42.375,15.124 43.221,14.601 43.011,14.545 C41.541,14.153 38.701,16.11 37.381,16.641 C36.783,16.881 32.762,18.949 34.784,17.517 C36.63,16.209 38.699,15.215 40.728,14.232 C41.653,13.784 44.471,12.541 43.574,13.044 C41.142,14.406 38.543,15.631 35.973,16.704 C35.197,17.028 33.097,18.225 33.595,17.548 C35.08,15.534 38.918,14.325 41.103,13.294 C41.723,13.001 45.51,11.697 43.605,12.137 C39.488,13.087 35.916,16.652 31.75,17.173 C30.963,17.271 33.179,16.483 33.908,16.172 C36.697,14.981 39.523,13.935 42.385,12.981 C42.549,12.927 42.047,13.048 41.885,13.106 C40.788,13.504 39.807,13.898 38.726,14.358 C37.893,14.712 29.863,18.238 29.717,18.017 C29.166,17.192 36.645,15.647 37.506,15.546 C38.201,15.465 40.274,15.229 39.601,15.421 C36.559,16.29 30.28,17.072 30.28,17.142 C30.28,17.468 36.45,16.267 37.193,16.203 C37.567,16.171 38.695,16.141 38.319,16.141 C36.871,16.141 35.449,16.965 34.096,17.392 C34.085,17.395 31.593,17.953 31.593,17.986 C31.593,18.16 37.564,17.329 38.256,17.329 C38.874,17.329 37.021,17.391 36.411,17.486 C34.733,17.747 33.077,18.052 31.375,18.111 C26.932,18.267 35.193,18.111 35.973,18.111 C36.537,18.111 34.844,18.141 34.284,18.205 C34.174,18.218 26.508,18.629 28.966,17.861" fill-opacity="0" stroke="#E79159" stroke-width="1" stroke-linecap="round" stroke-linejoin="round"/>
    <path d="M24.274,14.952 C27.214,17.222 32.166,16.943 35.754,16.985 C36.598,16.995 39.132,16.985 38.288,16.985 C34.942,16.985 31.622,17.329 28.278,17.392 C27.308,17.41 24.4,17.409 25.369,17.361 C28.114,17.223 30.935,17.639 33.689,17.673 C33.764,17.674 35.942,17.835 35.942,17.517 C35.942,16.791 25.833,17.517 24.493,17.517 C23.593,17.517 26.288,17.391 27.183,17.298 C29.358,17.072 31.522,16.77 33.689,16.485 C34.291,16.405 35.933,16.757 35.504,16.328 C35.158,15.982 27.791,16.458 27.152,16.923 C26.929,17.084 27.502,17.238 29.373,17.329 C31.215,17.419 33.065,17.436 34.909,17.454 C35.869,17.464 38.465,18.133 37.787,17.454 C35.473,15.14 29.012,17.094 26.776,14.858 C26.399,14.481 27.828,15.052 28.34,15.202 C30.299,15.777 32.281,16.267 34.315,16.485 C35.042,16.563 37.113,17.015 36.505,16.61 C34.467,15.251 30.488,15.908 28.153,15.671 C27.574,15.613 26.021,15.801 26.432,15.39 C26.85,14.972 27.599,15.583 28.184,15.671 C30.754,16.058 33.381,16.047 35.973,16.047 C37.193,16.047 40.609,16.779 39.633,16.047 C38.588,15.263 32.23,16.076 32.188,16.078 C31.479,16.105 30.77,16.144 30.061,16.141 C27.535,16.127 24.605,15.591 24.774,15.421 C25.076,15.119 25.631,15.382 26.057,15.421 C28.985,15.691 33.937,17.424 36.755,16.485 C37.538,16.224 35.108,16.289 34.284,16.328 C31.946,16.44 29.667,17.097 27.371,17.517 C26.644,17.65 24.456,17.716 25.181,17.861 C26.601,18.145 28.208,17.747 29.654,17.705 C30.999,17.665 32.948,17.698 32.97,17.611 C32.983,17.56 31.196,17.157 32.313,17.329" fill-opacity="0" stroke="#E79159" stroke-width="1" stroke-linecap="round" stroke-linejoin="round"/>
    <path d="M25.494,9.259 C29.511,11.772 34.573,11.713 39.164,11.761 C40.123,11.771 43.001,11.761 42.041,11.761 C40.373,11.761 38.705,11.793 37.036,11.793 C35.431,11.793 33.825,11.815 32.219,11.793 C30.423,11.767 28.532,11.298 26.745,11.417 C26.582,11.428 27.026,11.592 27.183,11.636 C28.176,11.914 29.275,12.071 30.28,12.23 C31.23,12.381 40.566,13.129 40.915,12.606 C41.023,12.445 40.247,12.232 38.413,12.011 C35.694,11.684 32.976,11.582 30.28,11.073 C29.305,10.889 26.398,10.642 27.371,10.447 C28.941,10.133 40.804,13.169 41.291,12.074 C41.713,11.125 36.731,10.735 36.442,10.698 C33.689,10.34 34.875,10.502 32.125,10.103" fill-opacity="0" stroke="#E79159" stroke-width="1" stroke-linecap="round" stroke-linejoin="round"/>
    <path d="M24.962,6.037 C29.899,8.172 35.455,8.602 40.79,8.602 C42.041,8.602 38.287,8.587 37.036,8.633 C33.684,8.756 29.709,9.429 26.401,8.602 C25.259,8.316 28.738,8.884 29.904,9.04 C33.175,9.477 36.472,9.648 39.758,9.947 C41.464,10.102 43.308,10.182 43.136,10.354 C43.055,10.435 34.995,9.443 34.159,9.353 C30.493,9.047 33.755,9.353 31.156,9.04 C30.886,9.007 30.07,8.977 30.342,8.977 C33.294,8.977 37.423,10.048 40.415,10.573 C41.116,10.695 41.806,10.876 42.511,10.979 C42.687,11.005 43.042,10.863 43.042,11.042 C43.042,11.955 41.332,10.39 40.446,10.166 C37.223,9.351 33.43,8.195 30.029,8.195 C29.035,8.195 31.955,8.709 32.939,8.852 C35.9,9.282 39.406,9.881 42.354,9.415" fill-opacity="0" stroke="#E79159" stroke-width="1" stroke-linecap="round" stroke-linejoin="round"/>
    <path d="M26.244,6.037 C30.856,6.594 35.38,7.853 40.039,8.101 C40.716,8.137 42.421,8.714 42.073,8.133 C40.952,6.265 30.085,5.846 27.464,4.535 C26.342,3.974 29.91,5.096 31.124,5.411 C34.04,6.168 36.931,7.02 39.852,7.757 C40.827,8.003 43.587,8.944 42.823,8.289 C41.983,7.569 25.369,5.621 32.657,7.225 C33.648,7.444 45.001,8.659 45.013,8.696 C45.025,8.731 37.635,10.046 37.537,10.729 C37.439,11.417 45.467,10.738 45.67,11.042 C45.964,11.483 40.815,13.013 40.54,13.701 C40.348,14.18 42.082,13.085 43.074,13.482 C43.657,13.715 42.086,15.247 42.073,15.233 C41.863,15.024 43.412,13.453 43.543,13.169 C43.81,12.589 42.849,9.357 43.293,9.54 C45.079,10.276 44.188,13.898 43.793,13.701 C43.704,13.656 44.468,11.321 44.513,11.073 C44.598,10.596 44.429,9.255 44.732,9.634 C45.59,10.707 44.662,14.288 44.169,13.794 C43.901,13.527 44.763,12.855 44.888,12.7 C45.465,11.978 45.555,11.208 45.607,10.322" fill-opacity="0" stroke="#E79159" stroke-width="1" stroke-linecap="round" stroke-linejoin="round"/>
    <path d="M45.545,9.916 C45.671,11.676 44.646,13.022 43.574,14.295 C43.493,14.391 43.413,14.665 43.324,14.577 C43.062,14.315 43.818,14.025 44.043,13.732 C44.651,12.942 44.896,12.221 44.982,11.229 C44.983,11.215 44.731,8.916 44.513,9.353 C44.235,9.908 44.656,10.676 44.169,11.261 C43.987,11.478 44.665,9.593 44.075,8.727 C43.158,7.382 40.084,8.262 40.446,8.664 C41.099,9.39 42.698,9.102 43.574,9.102" fill-opacity="0" stroke="#E79159" stroke-width="1" stroke-linecap="round" stroke-linejoin="round"/>
    <path d="M28.653,14.076 C31.996,14.14 35.366,15.03 38.726,14.639 C40.138,14.475 42.306,13.782 41.322,13.607 C38.949,13.183 36.025,14.513 33.658,14.795 C32.643,14.917 31.759,14.936 30.749,14.952 C30.374,14.958 29.247,14.952 29.623,14.952 C33.75,14.952 37.281,15.831 41.166,13.888" fill-opacity="0" stroke="#E79159" stroke-width="1" stroke-linecap="round" stroke-linejoin="round"/>
    <path d="M29.904,7.069 C33.454,8.458 37.172,8.099 40.821,7.507" fill-opacity="0" stroke="#E79159" stroke-width="1" stroke-linecap="round" stroke-linejoin="round"/>
    <path d="M27.308,9.853 C31.771,10.494 36.242,11.056 40.759,11.229" fill-opacity="0" stroke="#E79159" stroke-width="1" stroke-linecap="round" stroke-linejoin="round"/>
    <path d="M26.025,9.603 C30.263,10.328 34.723,10.964 39.007,10.385" fill-opacity="0" stroke="#E79159" stroke-width="1" stroke-linecap="round" stroke-linejoin="round"/>
    <path d="M26.62,9.572 C30.88,9.586 35.35,10.783 39.601,10.009" fill-opacity="0" stroke="#E79159" stroke-width="1" stroke-linecap="round" stroke-linejoin="round"/>
    <path d="M28.34,13.294 C32.557,13.18 36.809,13.604 41.009,13.138" fill-opacity="0" stroke="#E79159" stroke-width="1" stroke-linecap="round" stroke-linejoin="round"/>
    <path d="M26.463,10.76 C30.064,12.428 36.203,13.307 39.946,11.511" fill-opacity="0" stroke="#E79159" stroke-width="1" stroke-linecap="round" stroke-linejoin="round"/>
    <path d="M30.843,14.139 C34.326,14.697 37.606,14.437 40.978,13.45" fill-opacity="0" stroke="#E79159" stroke-width="1" stroke-linecap="round" stroke-linejoin="round"/>
    <path d="M28.403,8.445 C32.365,8.746 36.398,8.535 39.914,6.506" fill-opacity="0" stroke="#E79159" stroke-width="1" stroke-linecap="round" stroke-linejoin="round"/>
    <path d="M26.276,5.912 C30.434,6.576 35.334,9.571 39.57,7.914" fill-opacity="0" stroke="#E79159" stroke-width="1" stroke-linecap="round" stroke-linejoin="round"/>
    <path d="M28.966,5.505 C33.179,7.038 38.388,8.132 42.73,6.6" fill-opacity="0" stroke="#E79159" stroke-width="1" stroke-linecap="round" stroke-linejoin="round"/>
    <path d="M33.595,6.287 C36.714,6.717 39.739,7.476 42.917,7.476" fill-opacity="0" stroke="#E79159" stroke-width="1" stroke-linecap="round" stroke-linejoin="round"/>
    <path d="M44.043,8.414 C44.408,9.07 45.212,9.91 44.325,10.354" fill-opacity="0" stroke="#E79159" stroke-width="1" stroke-linecap="round" stroke-linejoin="round"/>
    <path d="M44.325,8.352 C44.524,8.642 45.911,11.224 45.013,11.448 C44.874,11.483 45.793,10.224 45.639,9.353 C45.497,8.552 43.417,7.017 42.761,6.6 C38.79,4.073 35.145,4.567 30.592,4.567" fill-opacity="0" stroke="#E79159" stroke-width="1" stroke-linecap="round" stroke-linejoin="round"/>
    <path d="M41.916,8.352 C38.302,6.85 34.441,5.122 30.436,4.973" fill-opacity="0" stroke="#E79159" stroke-width="1" stroke-linecap="round" stroke-linejoin="round"/>
    <path d="M40.853,6.694 C36.919,5.461 32.989,3.733 28.809,3.566" fill-opacity="0" stroke="#E79159" stroke-width="1" stroke-linecap="round" stroke-linejoin="round"/>
    <path d="M42.26,6.443 C37.955,5.694 33.216,3.772 28.841,5.13" fill-opacity="0" stroke="#E79159" stroke-width="1" stroke-linecap="round" stroke-linejoin="round"/>
    <path d="M43.731,6.631 C39.336,2.889 33.722,1.597 28.059,3.096" fill-opacity="0" stroke="#E79159" stroke-width="1" stroke-linecap="round" stroke-linejoin="round"/>
    <path d="M40.509,6.224 C37.206,3.128 32.944,2.293 28.528,3.096" fill-opacity="0" stroke="#E79159" stroke-width="1" stroke-linecap="round" stroke-linejoin="round"/>
    <path d="M20.364,10.103 C24.34,12.12 29.104,13.992 33.533,12.168" fill-opacity="0" stroke="#E79159" stroke-width="1" stroke-linecap="round" stroke-linejoin="round"/>
    <path d="M21.02,10.51 C25.627,12.89 30.816,12.902 35.879,12.7" fill-opacity="0" stroke="#E79159" stroke-width="1" stroke-linecap="round" stroke-linejoin="round"/>
    <path d="M22.428,11.98 C26.433,13.839 31.042,13.763 35.379,13.763" fill-opacity="0" stroke="#E79159" stroke-width="1" stroke-linecap="round" stroke-linejoin="round"/>
    <path d="M22.021,14.921 C26.253,15.883 30.618,15.31 34.909,15.64" fill-opacity="0" stroke="#E79159" stroke-width="1" stroke-linecap="round" stroke-linejoin="round"/>
    <path d="M21.521,13.482 C25.727,14.825 30.562,15.477 34.815,13.857" fill-opacity="0" stroke="#E79159" stroke-width="1" stroke-linecap="round" stroke-linejoin="round"/>
    <path d="M22.866,13.45 C26.809,14.513 30.912,14.429 34.909,13.763" fill-opacity="0" stroke="#E79159" stroke-width="1" stroke-linecap="round" stroke-linejoin="round"/>
    <path d="M21.928,11.636 C26.49,11.848 31.342,12.356 35.723,10.729" fill-opacity="0" stroke="#E79159" stroke-width="1" stroke-linecap="round" stroke-linejoin="round"/>
    <path d="M22.459,9.978 C26.381,11.316 30.691,11.675 34.471,9.728" fill-opacity="0" stroke="#E79159" stroke-width="1" stroke-linecap="round" stroke-linejoin="round"/>
    <path d="M21.99,10.135 C26.053,11.391 30.508,10.443 34.284,8.727" fill-opacity="0" stroke="#E79159" stroke-width="1" stroke-linecap="round" stroke-linejoin="round"/>
    <path d="M22.678,8.727 C26.524,9.347 30.271,8.99 33.971,7.757" fill-opacity="0" stroke="#E79159" stroke-width="1" stroke-linecap="round" stroke-linejoin="round"/>
    <path d="M23.085,8.226 C27.036,8.388 31.065,8.323 34.909,7.288" fill-opacity="0" stroke="#E79159" stroke-width="1" stroke-linecap="round" stroke-linejoin="round"/>
    <path d="M24.931,6.287 C28.304,8.128 32.532,7.864 35.691,5.724" fill-opacity="0" stroke="#E79159" stroke-width="1" stroke-linecap="round" stroke-linejoin="round"/>
    <path d="M22.334,6.881 C26.797,7.092 31.255,7.025 35.66,6.224" fill-opacity="0" stroke="#E79159" stroke-width="1" stroke-linecap="round" stroke-linejoin="round"/>
    <path d="M22.71,8.633 C26.35,9.48 30.152,8.838 33.814,8.445" fill-opacity="0" stroke="#E79159" stroke-width="1" stroke-linecap="round" stroke-linejoin="round"/>
    <path d="M21.365,9.478 C24.955,10.595 29.01,10.429 32.626,9.478" fill-opacity="0" stroke="#E79159" stroke-width="1" stroke-linecap="round" stroke-linejoin="round"/>
    <path d="M22.397,9.853 C25.665,9.986 28.891,9.79 32.125,9.353" fill-opacity="0" stroke="#E79159" stroke-width="1" stroke-linecap="round" stroke-linejoin="round"/>
    <path d="M22.178,8.852 C25.179,9.228 28.15,9.634 31.187,9.634" fill-opacity="0" stroke="#E79159" stroke-width="1" stroke-linecap="round" stroke-linejoin="round"/>
    <path d="M22.115,8.383 C25.357,8.697 28.585,8.883 31.844,8.883" fill-opacity="0" stroke="#E79159" stroke-width="1" stroke-linecap="round" stroke-linejoin="round"/>
    <path d="M22.741,8.07 C25.463,9.457 28.684,8.195 31.5,7.82" fill-opacity="0" stroke="#E79159" stroke-width="1" stroke-linecap="round" stroke-linejoin="round"/>
    <path d="M22.303,7.789 C25.635,7.877 28.958,7.734 32.282,7.601" fill-opacity="0" stroke="#E79159" stroke-width="1" stroke-linecap="round" stroke-linejoin="round"/>
    <path d="M22.803,7.319 C26.16,7.559 29.509,7.726 32.876,7.726" fill-opacity="0" stroke="#E79159" stroke-width="1" stroke-linecap="round" stroke-linejoin="round"/>
    <path d="M22.897,9.353 C25.724,10.194 28.636,10.409 31.562,9.947" fill-opacity="0" stroke="#E79159" stroke-width="1" stroke-linecap="round" stroke-linejoin="round"/>
    <path d="M23.586,11.355 C26.489,13.06 30.129,11.915 33.001,10.729" fill-opacity="0" stroke="#E79159" stroke-width="1" stroke-linecap="round" stroke-linejoin="round"/>
    <path d="M22.616,7.476 C25.104,9.853 29.624,9.497 32.782,8.758" fill-opacity="0" stroke="#E79159" stroke-width="1" stroke-linecap="round" stroke-linejoin="round"/>
    <path d="M23.867,10.854 C27.295,11.065 30.727,11.114 34.159,10.885" fill-opacity="0" stroke="#E79159" stroke-width="1" stroke-linecap="round" stroke-linejoin="round"/>
    <path d="M25.932,9.916 C29.646,10.3 33.151,8.963 36.786,8.539" fill-opacity="0" stroke="#E79159" stroke-width="1" stroke-linecap="round" stroke-linejoin="round"/>
    <path d="M24.336,6.537 C27.938,8.059 32.145,7.73 35.91,7.069" fill-opacity="0" stroke="#E79159" stroke-width="1" stroke-linecap="round" stroke-linejoin="round"/>
    <path d="M23.93,5.943 C27.518,6.375 31.144,6.35 34.753,6.35" fill-opacity="0" stroke="#E79159" stroke-width="1" stroke-linecap="round" stroke-linejoin="round"/>
    <path d="M24.336,5.286 C27.481,5.421 30.642,5.601 33.721,4.848" fill-opacity="0" stroke="#E79159" stroke-width="1" stroke-linecap="round" stroke-linejoin="round"/>
    <path d="M26.025,4.786 C28.547,5.125 31.092,5.091 33.627,5.286" fill-opacity="0" stroke="#E79159" stroke-width="1" stroke-linecap="round" stroke-linejoin="round"/>
    <path d="M25.775,4.473 C28.988,5.141 32.343,5.08 35.597,4.754" fill-opacity="0" stroke="#E79159" stroke-width="1" stroke-linecap="round" stroke-linejoin="round"/>
    <path d="M26.244,4.003 C29.355,4.249 32.479,4.16 35.597,4.16" fill-opacity="0" stroke="#E79159" stroke-width="1" stroke-linecap="round" stroke-linejoin="round"/>
    <path d="M28.497,4.473 C31.464,4.789 34.365,5.646 37.224,6.475" fill-opacity="0" stroke="#E79159" stroke-width="1" stroke-linecap="round" stroke-linejoin="round"/>
    <path d="M30.999,2.784 C34.555,2.901 38.601,3.399 41.729,5.223" fill-opacity="0" stroke="#E79159" stroke-width="1" stroke-linecap="round" stroke-linejoin="round"/>
    <path d="M32.97,3.691 C36.646,3.981 40.68,4.571 43.261,7.351" fill-opacity="0" stroke="#E79159" stroke-width="1" stroke-linecap="round" stroke-linejoin="round"/>
    <path d="M30.217,4.535 C34.042,4.323 37.912,4.954 40.853,7.601" fill-opacity="0" stroke="#E79159" stroke-width="1" stroke-linecap="round" stroke-linejoin="round"/>
    <path d="M31.531,3.753 C34.835,3.744 38.528,4.507 40.759,7.132" fill-opacity="0" stroke="#E79159" stroke-width="1" stroke-linecap="round" stroke-linejoin="round"/>
    <path d="M31.281,4.035 C35.334,4.007 38.775,6.13 41.478,8.946" fill-opacity="0" stroke="#E79159" stroke-width="1" stroke-linecap="round" stroke-linejoin="round"/>
    <path d="M20.868,11.941 C25.161,12.277 30.455,14.127 34.447,11.816" fill-opacity="0" stroke="#E79159" stroke-width="1" stroke-linecap="round" stroke-linejoin="round"/>
    <path d="M21.308,13.953 C23.702,14.311 33.618,10.865 34.07,12.444" fill-opacity="0" stroke="#E79159" stroke-width="1" stroke-linecap="round" stroke-linejoin="round"/>
    <path d="M21.937,14.456 C25.445,14.68 28.881,14.136 32.309,13.513" fill-opacity="0" stroke="#E79159" stroke-width="1" stroke-linecap="round" stroke-linejoin="round"/>
    <path d="M21.874,13.576 C29.62,13.963 30.29,13.667 37.213,10.055" fill-opacity="0" stroke="#E79159" stroke-width="1" stroke-linecap="round" stroke-linejoin="round"/>
    <path d="M21.245,11.25 C26.374,12.198 30.567,10.041 35.138,8.107" fill-opacity="0" stroke="#E79159" stroke-width="1" stroke-linecap="round" stroke-linejoin="round"/>
    <path d="M20.68,12.444 C23.951,12.583 27.18,11.894 30.361,11.187" fill-opacity="0" stroke="#E79159" stroke-width="1" stroke-linecap="round" stroke-linejoin="round"/>
    <path d="M20.365,13.073 C24.808,13.542 28.813,12.463 32.938,10.936" fill-opacity="0" stroke="#E79159" stroke-width="1" stroke-linecap="round" stroke-linejoin="round"/>
    <path d="M21.182,11.376 C26.16,13.422 30.535,11.915 35.327,10.118" fill-opacity="0" stroke="#E79159" stroke-width="1" stroke-linecap="round" stroke-linejoin="round"/>
    <path d="M20.428,10.81 C22.985,10.828 31.636,10.155 32.498,7.855" fill-opacity="0" stroke="#E79159" stroke-width="1" stroke-linecap="round" stroke-linejoin="round"/>
    <path d="M20.051,9.427 C23.98,10.082 27.722,8.672 31.492,7.918" fill-opacity="0" stroke="#E79159" stroke-width="1" stroke-linecap="round" stroke-linejoin="round"/>
    <path d="M20.365,11.376 C23.221,11.658 25.902,11.459 28.6,10.495" fill-opacity="0" stroke="#E79159" stroke-width="1" stroke-linecap="round" stroke-linejoin="round"/>
    <path d="M20.617,11.69 C23.548,11.801 26.449,11.613 29.355,11.25" fill-opacity="0" stroke="#E79159" stroke-width="1" stroke-linecap="round" stroke-linejoin="round"/>
    <path d="M19.485,9.427 C23.704,8.877 28.399,10.982 32.309,8.924" fill-opacity="0" stroke="#E79159" stroke-width="1" stroke-linecap="round" stroke-linejoin="round"/>
    <path d="M21.623,9.427 C25.945,9.685 30.263,9.112 34.573,9.112" fill-opacity="0" stroke="#E79159" stroke-width="1" stroke-linecap="round" stroke-linejoin="round"/>
    <path d="M21.623,8.232 C25.445,8.365 29.224,8.064 32.938,7.164" fill-opacity="0" stroke="#E79159" stroke-width="1" stroke-linecap="round" stroke-linejoin="round"/>
    <path d="M21.685,7.227 C25.185,7.39 28.585,6.415 32.058,6.158" fill-opacity="0" stroke="#E79159" stroke-width="1" stroke-linecap="round" stroke-linejoin="round"/>
    <path d="M20.428,7.164 C23.858,7.543 26.929,6.437 30.109,5.341" fill-opacity="0" stroke="#E79159" stroke-width="1" stroke-linecap="round" stroke-linejoin="round"/>
    <path d="M20.177,8.358 C24.738,8.871 29.314,8.536 33.881,8.295" fill-opacity="0" stroke="#E79159" stroke-width="1" stroke-linecap="round" stroke-linejoin="round"/>
    <path d="M20.931,9.112 C24.83,8.834 28.559,9.944 32.309,10.81" fill-opacity="0" stroke="#E79159" stroke-width="1" stroke-linecap="round" stroke-linejoin="round"/>
    <path d="M20.051,9.678 C24.264,9.767 28.398,10.433 32.624,10.433" fill-opacity="0" stroke="#E79159" stroke-width="1" stroke-linecap="round" stroke-linejoin="round"/>
    <path d="M20.994,11.816 C25.509,12.516 30.087,12.497 34.635,12.821" fill-opacity="0" stroke="#E79159" stroke-width="1" stroke-linecap="round" stroke-linejoin="round"/>
    <path d="M22.691,12.444 C26.709,12.505 30.663,12.565 34.635,11.941" fill-opacity="0" stroke="#E79159" stroke-width="1" stroke-linecap="round" stroke-linejoin="round"/>
    <path d="M20.617,6.472 C24.186,5.536 27.784,5.005 31.304,3.832" fill-opacity="0" stroke="#E79159" stroke-width="1" stroke-linecap="round" stroke-linejoin="round"/>
    <path d="M21.811,6.598 C25.654,6.546 29.916,2.531 33.818,3.832" fill-opacity="0" stroke="#E79159" stroke-width="1" stroke-linecap="round" stroke-linejoin="round"/>
    <path d="M22.628,6.535 C27.056,6.004 31.579,5.965 36.019,6.409" fill-opacity="0" stroke="#E79159" stroke-width="1" stroke-linecap="round" stroke-linejoin="round"/>
    <path d="M27.343,4.586 C31.757,4.308 36.729,3.131 40.545,5.906" fill-opacity="0" stroke="#E79159" stroke-width="1" stroke-linecap="round" stroke-linejoin="round"/>
    <path d="M21.937,6.912 C26.827,5.918 31.037,1.326 36.207,1.757" fill-opacity="0" stroke="#E79159" stroke-width="1" stroke-linecap="round" stroke-linejoin="round"/>
    <path d="M22.314,5.341 C26.335,4.266 30.433,4.02 34.573,4.02" fill-opacity="0" stroke="#E79159" stroke-width="1" stroke-linecap="round" stroke-linejoin="round"/>
    <path d="M23.948,5.403 C27.876,4.193 31.489,2.26 35.641,2.26" fill-opacity="0" stroke="#E79159" stroke-width="1" stroke-linecap="round" stroke-linejoin="round"/>
    <path d="M24.326,4.649 C27.901,4.156 31.809,3.032 34.887,5.341" fill-opacity="0" stroke="#E79159" stroke-width="1" stroke-linecap="round" stroke-linejoin="round"/>
    <path d="M23.948,4.649 C27.713,2.817 31.609,1.883 35.767,1.883" fill-opacity="0" stroke="#E79159" stroke-width="1" stroke-linecap="round" stroke-linejoin="round"/>
    <path d="M23.571,4.775 C27.741,4.667 31.774,3.392 35.956,3.392" fill-opacity="0" stroke="#E79159" stroke-width="1" stroke-linecap="round" stroke-linejoin="round"/>
    <path d="M24.137,3.958 C27.422,3.335 30.712,2.889 34.07,2.889" fill-opacity="0" stroke="#E79159" stroke-width="1" stroke-linecap="round" stroke-linejoin="round"/>
    <path d="M25.269,4.398 C28.055,2.808 31.34,2.689 34.447,3.077" fill-opacity="0" stroke="#E79159" stroke-width="1" stroke-linecap="round" stroke-linejoin="round"/>
    <path d="M26.715,5.781 C31.255,4.081 35.68,3.82 39.979,5.969" fill-opacity="0" stroke="#E79159" stroke-width="1" stroke-linecap="round" stroke-linejoin="round"/>
    <path d="M22.628,7.352 C27.271,2.702 34.169,-0.344 39.476,4.963" fill-opacity="0" stroke="#E79159" stroke-width="1" stroke-linecap="round" stroke-linejoin="round"/>
    <path d="M22.314,6.032 C26.782,2.191 30.334,0.754 35.641,3.203" fill-opacity="0" stroke="#E79159" stroke-width="1" stroke-linecap="round" stroke-linejoin="round"/>
    <path d="M20.239,7.729 C24.387,5.754 30.718,2.415 35.013,5.278" fill-opacity="0" stroke="#E79159" stroke-width="1" stroke-linecap="round" stroke-linejoin="round"/>
    <path d="M21.12,7.415 C23.992,5.512 27.043,3.812 30.235,2.512" fill-opacity="0" stroke="#E79159" stroke-width="1" stroke-linecap="round" stroke-linejoin="round"/>
    <path d="M19.611,7.101 C22.911,5.636 26.49,5.031 30.046,4.586" fill-opacity="0" stroke="#E79159" stroke-width="1" stroke-linecap="round" stroke-linejoin="round"/>
    <path d="M20.428,7.981 C22.578,5.5 25.573,3.497 28.726,2.512" fill-opacity="0" stroke="#E79159" stroke-width="1" stroke-linecap="round" stroke-linejoin="round"/>
    <path d="M19.171,8.107 C21.704,4.659 26.344,3.714 30.361,3.58" fill-opacity="0" stroke="#E79159" stroke-width="1" stroke-linecap="round" stroke-linejoin="round"/>
    <path d="M20.365,7.855 C22.585,5.587 24.647,2.95 27.846,2.197" fill-opacity="0" stroke="#E79159" stroke-width="1" stroke-linecap="round" stroke-linejoin="round"/>
    <path d="M20.742,6.912 C23.093,5.578 25.193,3.752 27.783,2.889" fill-opacity="0" stroke="#E79159" stroke-width="1" stroke-linecap="round" stroke-linejoin="round"/>
    <path d="M20.994,6.598 C22.59,5.062 24.177,3.531 26.086,2.386" fill-opacity="0" stroke="#E79159" stroke-width="1" stroke-linecap="round" stroke-linejoin="round"/>
    <path d="M22.188,6.158 C23.728,5.162 25.315,4.245 26.903,3.329" fill-opacity="0" stroke="#E79159" stroke-width="1" stroke-linecap="round" stroke-linejoin="round"/>
    <path d="M20.239,5.969 C21.377,5.509 22.536,5.099 23.697,4.712" fill-opacity="0" stroke="#E79159" stroke-width="1" stroke-linecap="round" stroke-linejoin="round"/>
    <path d="M24.514,12.759 C27.838,13.134 31.131,13.979 34.447,14.519" fill-opacity="0" stroke="#E79159" stroke-width="1" stroke-linecap="round" stroke-linejoin="round"/>
    <path d="M22.817,11.313 C26.858,13.073 30.686,14.142 35.138,14.142" fill-opacity="0" stroke="#E79159" stroke-width="1" stroke-linecap="round" stroke-linejoin="round"/>
    <path d="M20.428,12.13 C24.222,13.504 28.122,13.888 32.121,14.079" fill-opacity="0" stroke="#E79159" stroke-width="1" stroke-linecap="round" stroke-linejoin="round"/>
    <path d="M19.799,12.57 C24.417,12.525 29.047,12.588 33.63,13.199" fill-opacity="0" stroke="#E79159" stroke-width="1" stroke-linecap="round" stroke-linejoin="round"/>
    <path d="M20.365,12.507 C23.332,12.578 26.118,13.203 29.103,13.01" fill-opacity="0" stroke="#E79159" stroke-width="1" stroke-linecap="round" stroke-linejoin="round"/>
    <path d="M18.605,11.187 C21.649,11.771 24.758,11.753 27.846,11.753" fill-opacity="0" stroke="#E79159" stroke-width="1" stroke-linecap="round" stroke-linejoin="round"/>
    <path d="M19.674,11.061 C22.922,11.26 26.163,11.376 29.418,11.376" fill-opacity="0" stroke="#E79159" stroke-width="1" stroke-linecap="round" stroke-linejoin="round"/>
    <path d="M18.856,11.564 C21.552,10.899 24.44,12.001 26.715,10.181" fill-opacity="0" stroke="#E79159" stroke-width="1" stroke-linecap="round" stroke-linejoin="round"/>
    <path d="M19.171,9.615 C21.429,9.774 23.503,9.575 25.646,8.861" fill-opacity="0" stroke="#E79159" stroke-width="1" stroke-linecap="round" stroke-linejoin="round"/>
    <path d="M18.668,9.678 C20.868,9.678 23.068,9.678 25.269,9.678" fill-opacity="0" stroke="#E79159" stroke-width="1" stroke-linecap="round" stroke-linejoin="round"/>
    <path d="M19.359,11.061 C20.969,10.735 23.752,11.823 25.017,10.558" fill-opacity="0" stroke="#E79159" stroke-width="1" stroke-linecap="round" stroke-linejoin="round"/>
    <path d="M18.856,11.061 C20.219,11.061 21.581,11.061 22.943,11.061" fill-opacity="0" stroke="#E79159" stroke-width="1" stroke-linecap="round" stroke-linejoin="round"/>
    <path d="M19.862,11.501 C21.499,11.446 23.131,11.564 24.766,11.564" fill-opacity="0" stroke="#E79159" stroke-width="1" stroke-linecap="round" stroke-linejoin="round"/>
    <path d="M19.171,11.878 C20.325,11.728 22.128,12.416 22.817,11.313" fill-opacity="0" stroke="#E79159" stroke-width="1" stroke-linecap="round" stroke-linejoin="round"/>
    <path d="M19.799,10.244 C20.617,10.244 21.434,10.244 22.251,10.244" fill-opacity="0" stroke="#E79159" stroke-width="1" stroke-linecap="round" stroke-linejoin="round"/>
    <path d="M18.856,9.804 C19.674,9.804 20.491,9.804 21.308,9.804" fill-opacity="0" stroke="#E79159" stroke-width="1" stroke-linecap="round" stroke-linejoin="round"/>
    <path d="M18.464,9.221 C19.869,8.724 21.347,8.571 22.825,8.497" fill-opacity="0" stroke="#E79159" stroke-width="1" stroke-linecap="round" stroke-linejoin="round"/>
    <path d="M18.645,8.437 C20.646,8.012 22.678,7.995 24.713,7.995" fill-opacity="0" stroke="#E79159" stroke-width="1" stroke-linecap="round" stroke-linejoin="round"/>
    <path d="M20.152,8.96 C21.593,8.658 23.072,8.68 24.532,8.518" fill-opacity="0" stroke="#E79159" stroke-width="1" stroke-linecap="round" stroke-linejoin="round"/>
    <path d="M22.262,4.921 C24.272,3.947 26.616,3.557 28.752,4.298" fill-opacity="0" stroke="#E79159" stroke-width="1" stroke-linecap="round" stroke-linejoin="round"/>
    <path d="M18.886,9.562 C20.782,9.6 22.684,9.47 24.573,9.663" fill-opacity="0" stroke="#E79159" stroke-width="1" stroke-linecap="round" stroke-linejoin="round"/>
    <path d="M19.911,10.728 C21.226,10.529 22.522,10.666 23.809,10.949" fill-opacity="0" stroke="#E79159" stroke-width="1" stroke-linecap="round" stroke-linejoin="round"/>
    <path d="M19.167,9.884 C20.267,10.245 21.428,10.272 22.563,10.426" fill-opacity="0" stroke="#E79159" stroke-width="1" stroke-linecap="round" stroke-linejoin="round"/>
    <path d="M18.946,10.708 C20.573,10.05 22.184,10.127 23.709,10.929" fill-opacity="0" stroke="#E79159" stroke-width="1" stroke-linecap="round" stroke-linejoin="round"/>
    <path d="M18.565,10.487 C19.362,10.04 22.861,10.71 22.181,10.748" fill-opacity="0" stroke="#E79159" stroke-width="1" stroke-linecap="round" stroke-linejoin="round"/>
    <path d="M19.248,10.346 C20.151,10.266 20.958,10.399 21.82,10.648" fill-opacity="0" stroke="#E79159" stroke-width="1" stroke-linecap="round" stroke-linejoin="round"/>
    <path d="M19.167,10.145 C20.367,10.04 21.557,9.935 22.684,10.366" fill-opacity="0" stroke="#E79159" stroke-width="1" stroke-linecap="round" stroke-linejoin="round"/>
    <path d="M18.565,9.723 C19.979,9.582 21.304,9.93 22.644,10.326" fill-opacity="0" stroke="#E79159" stroke-width="1" stroke-linecap="round" stroke-linejoin="round"/>
    <path d="M18.464,10.627 C20.72,10.613 22.867,11.604 24.834,12.617" fill-opacity="0" stroke="#E79159" stroke-width="1" stroke-linecap="round" stroke-linejoin="round"/>
    <path d="M19.871,12.275 C22.459,12.566 24.905,13.495 27.527,13.762" fill-opacity="0" stroke="#E79159" stroke-width="1" stroke-linecap="round" stroke-linejoin="round"/>
    <path d="M19.328,12.476 C21.767,12.65 24.275,13.081 26.482,14.164" fill-opacity="0" stroke="#E79159" stroke-width="1" stroke-linecap="round" stroke-linejoin="round"/>
    <path d="M18.665,13.179 C19.925,11.688 22.536,12.531 24.211,12.677" fill-opacity="0" stroke="#E79159" stroke-width="1" stroke-linecap="round" stroke-linejoin="round"/>
    <path d="M19.228,11.733 C20.682,12.95 22.306,13.939 24.01,14.767" fill-opacity="0" stroke="#E79159" stroke-width="1" stroke-linecap="round" stroke-linejoin="round"/>
    <path d="M18.966,12.355 C19.665,14.352 22.176,14.845 23.99,15.37" fill-opacity="0" stroke="#E79159" stroke-width="1" stroke-linecap="round" stroke-linejoin="round"/>
    <path d="M18.605,11.491 C20.269,13.677 23.411,15.204 26.12,15.591" fill-opacity="0" stroke="#E79159" stroke-width="1" stroke-linecap="round" stroke-linejoin="round"/>
    <path d="M20.614,14.204 C22.472,15.116 24.453,15.617 26.482,16.113" fill-opacity="0" stroke="#E79159" stroke-width="1" stroke-linecap="round" stroke-linejoin="round"/>
    <path d="M20.855,14.646 C22.786,15.14 24.736,15.149 26.723,15.149" fill-opacity="0" stroke="#E79159" stroke-width="1" stroke-linecap="round" stroke-linejoin="round"/>
    <path d="M21.076,14.546 C22.928,15.579 24.924,16.839 27.004,17.359" fill-opacity="0" stroke="#E79159" stroke-width="1" stroke-linecap="round" stroke-linejoin="round"/>
    <path d="M21.679,16.113 C24.185,16.399 26.711,16.566 29.235,16.414" fill-opacity="0" stroke="#E79159" stroke-width="1" stroke-linecap="round" stroke-linejoin="round"/>
    <path d="M23.066,17.54 C24.389,16.803 25.606,15.908 26.964,15.229" fill-opacity="0" stroke="#E79159" stroke-width="1" stroke-linecap="round" stroke-linejoin="round"/>
    <path d="M23.331,18.009 C24.156,17.576 24.905,17.019 25.658,16.475" fill-opacity="0" stroke="#E79159" stroke-width="1" stroke-linecap="round" stroke-linejoin="round"/>
    <path d="M23.451,17.893 C24.162,17.493 24.779,16.963 25.376,16.414" fill-opacity="0" stroke="#E79159" stroke-width="1" stroke-linecap="round" stroke-linejoin="round"/>
    <path d="M23.043,17.134 C23.807,15.862 23.489,16.413 24.01,15.49" fill-opacity="0" stroke="#E79159" stroke-width="1" stroke-linecap="round" stroke-linejoin="round"/>
    <path d="M22.242,17.721 C22.761,17.049 23.13,16.285 23.508,15.53" fill-opacity="0" stroke="#E79159" stroke-width="1" stroke-linecap="round" stroke-linejoin="round"/>
    <path d="M22.121,17.746 C22.966,15.789 22.604,16.628 23.206,15.229" fill-opacity="0" stroke="#E79159" stroke-width="1" stroke-linecap="round" stroke-linejoin="round"/>
    <path d="M22.141,17.319 C22.545,16.702 22.766,16 23.106,15.35" fill-opacity="0" stroke="#E79159" stroke-width="1" stroke-linecap="round" stroke-linejoin="round"/>
    <path d="M22.13,16.435 C22.71,15.44 22.454,15.86 22.885,15.169" fill-opacity="0" stroke="#E79159" stroke-width="1" stroke-linecap="round" stroke-linejoin="round"/>
    <path d="M21.987,17.139 C22.292,16.065 22.273,14.943 22.403,13.842" fill-opacity="0" stroke="#E79159" stroke-width="1" stroke-linecap="round" stroke-linejoin="round"/>
    <path d="M21.699,13.903 C22.394,14.396 22.793,15.182 23.588,15.53" fill-opacity="0" stroke="#E79159" stroke-width="1" stroke-linecap="round" stroke-linejoin="round"/>
    <path d="M20.695,14.666 C21.962,14.744 22.987,15.507 24.231,15.792" fill-opacity="0" stroke="#E79159" stroke-width="1" stroke-linecap="round" stroke-linejoin="round"/>
    <path d="M20.654,14.546 C21.729,15.086 22.623,15.845 23.789,16.214" fill-opacity="0" stroke="#E79159" stroke-width="1" stroke-linecap="round" stroke-linejoin="round"/>
    <path d="M21.538,15.711 C22.405,15.692 23.259,15.923 24.111,16.073" fill-opacity="0" stroke="#E79159" stroke-width="1" stroke-linecap="round" stroke-linejoin="round"/>
    <path d="M21.659,15.068 C22.475,15.273 23.289,15.498 24.111,15.691" fill-opacity="0" stroke="#E79159" stroke-width="1" stroke-linecap="round" stroke-linejoin="round"/>
    <path d="M28.632,2.73 C25.325,3.828 23.003,6.907 20.232,8.94" fill-opacity="0" stroke="#E79159" stroke-width="1" stroke-linecap="round" stroke-linejoin="round"/>
    <path d="M21.256,16.365 L21.453,15.32" fill-opacity="0" stroke="#E79159" stroke-width="1" stroke-linecap="round" stroke-linejoin="round"/>
    <path d="M21.369,16.275 L21.695,15.266" fill-opacity="0" stroke="#E79159" stroke-width="1" stroke-linecap="round" stroke-linejoin="round"/>
    <path d="M16.391,16.344 L16.391,16.344" fill-opacity="0" stroke="#FFFFFF" stroke-width="1" stroke-linecap="round" stroke-linejoin="round"/>
    <path d="M21.055,16.4 L21.051,16.917" fill-opacity="0" stroke="#E79159" stroke-width="1" stroke-linecap="round" stroke-linejoin="round"/>
    <path d="M21.038,19.722 C22.287,19.22 23.469,18.571 24.668,17.962" fill-opacity="0" stroke="#E79159" stroke-width="1" stroke-linecap="round" stroke-linejoin="round"/>
    <path d="M22.85,17.417 L22.929,17.327" fill-opacity="0" stroke="#E79159" stroke-width="1" stroke-linecap="round" stroke-linejoin="round"/>
    <path d="M21.555,18.191 C21.573,17.745 21.865,17.367 22.075,16.984" fill-opacity="0" stroke="#E79159" stroke-width="1" stroke-linecap="round" stroke-linejoin="round"/>
    <path d="M21.083,16.326 L21.083,16.326" fill-opacity="0" stroke="#E79159" stroke-width="1" stroke-linecap="round" stroke-linejoin="round"/>
    <path d="M21.203,16.719 C21.709,17.545 21.651,18.581 21.164,19.406" fill-opacity="0" stroke="#E79159" stroke-width="1" stroke-linecap="round" stroke-linejoin="round"/>
    <path d="M21.078,16.938 C21.415,17.775 21.604,18.532 21.547,19.445" fill-opacity="0" stroke="#E79159" stroke-width="1" stroke-linecap="round" stroke-linejoin="round"/>
    <path d="M20.836,16.242 C21.079,17.125 21.19,18.046 21.227,18.961" fill-opacity="0" stroke="#E79159" stroke-width="1" stroke-linecap="round" stroke-linejoin="round"/>
    <path d="M21.344,17.578 C21.384,18.234 21.345,18.858 21.148,19.477" fill-opacity="0" stroke="#E79159" stroke-width="1" stroke-linecap="round" stroke-linejoin="round"/>
    <path d="M21.164,18.219 C21.174,18.567 21.15,18.914 21.117,19.258" fill-opacity="0" stroke="#E79159" stroke-width="1" stroke-linecap="round" stroke-linejoin="round"/>
    <path d="M21.203,18.602 C21.209,18.88 21.106,19.143 21.047,19.406" fill-opacity="0" stroke="#E79159" stroke-width="1" stroke-linecap="round" stroke-linejoin="round"/>
    <path d="M21.117,19.219 C21.151,19.347 21.092,19.469 21.078,19.586" fill-opacity="0" stroke="#E79159" stroke-width="1" stroke-linecap="round" stroke-linejoin="round"/>
    <path d="M22.32,18.727 C22.717,18.096 23.011,17.427 23.68,17.086" fill-opacity="0" stroke="#E79159" stroke-width="1" stroke-linecap="round" stroke-linejoin="round"/>
    <path d="M22.406,18.297 C22.793,17.91 22.602,18.085 22.977,17.766" fill-opacity="0" stroke="#E79159" stroke-width="1" stroke-linecap="round" stroke-linejoin="round"/>
    <path d="M21.008,16.172 C21.435,17.381 21.142,18.481 21,19.648" fill-opacity="0" stroke="#E79159" stroke-width="1" stroke-linecap="round" stroke-linejoin="round"/>
    <path d="M40.573,39.472 C44.195,40.099 47.063,38.996 42.223,40.206" fill-opacity="0" stroke="#E79159" stroke-width="1" stroke-linecap="round" stroke-linejoin="round"/>
    <path d="M37.603,39.981 C39.914,39.981 42.226,39.981 44.537,39.981 C45.005,39.981 46.272,39.65 45.941,39.981 C45.069,40.853 40.322,40.198 39.093,40.325 C38.245,40.412 35.781,40.664 36.6,40.898 C37.752,41.227 39.295,40.984 40.468,40.984 C41.022,40.984 41.576,40.984 42.13,40.984 C49.91,40.984 36.968,40.657 37.403,41.672 C37.535,41.98 49.544,41.729 42.474,41.729 C41.786,41.729 41.098,41.692 40.411,41.729 C40.233,41.738 37.94,41.816 37.574,42.273 C37.381,42.515 38.182,42.417 38.491,42.417 C40.211,42.417 41.929,42.411 43.649,42.359 C44.145,42.344 45.635,42.331 45.138,42.331 C42.917,42.331 40.678,42.397 38.463,42.56 C37.731,42.614 35.555,42.809 36.285,42.875 C38.23,43.052 40.189,42.534 42.13,42.474 C42.761,42.454 44.633,42.407 44.021,42.56 C43.271,42.747 36.428,42.151 36.428,43.362 C36.428,43.69 45.167,43.383 45.167,43.534 C45.167,43.587 36.6,43.664 36.6,44.594 C36.6,45.141 41.907,44.88 42.617,44.852 C43.486,44.818 45.932,44.375 45.224,44.881 C43.915,45.816 40.912,45.31 39.351,45.539 C38.699,45.635 36.855,46.018 37.489,46.198 C39.14,46.67 41.29,46.033 42.99,46.055 C43.827,46.066 46.248,46.286 45.11,46.456 C43.914,46.636 37.144,45.971 36.858,46.428 C36.754,46.595 38.085,46.6 38.892,46.6 C40.587,46.6 42.278,46.546 43.964,46.743 C44.392,46.793 45.583,46.79 45.224,47.029 C44.211,47.705 42.801,46.764 41.586,46.686 C40.985,46.647 40.382,46.662 39.781,46.657 C39.255,46.652 38.73,46.634 38.205,46.657 C32.544,46.903 43.362,47.39 43.362,47.803 C43.362,47.988 40.768,46.947 38.921,46.657 C38.109,46.529 35.658,46.552 36.457,46.743 C37.997,47.11 39.833,46.923 41.414,47.001 C42.062,47.033 44.012,47.029 43.362,47.029 C41.485,47.029 39.797,46.247 38.062,45.597 C37.804,45.5 37.062,45.467 37.288,45.31 C38.29,44.617 43.926,44.911 44.222,44.393 C44.445,44.003 43.325,44.3 42.875,44.307 C41.025,44.34 39.269,44.65 37.431,44.766 C34.589,44.946 39.561,43.765 40.01,43.677 C41.264,43.432 42.763,43.338 42.76,43.333 C42.444,42.7 36.658,43.363 36.658,43.104 C36.658,42.62 41.923,42.268 42.302,42.245 C43.113,42.194 44.994,42.901 44.737,42.13 C44.56,41.599 37.808,41.521 36.744,41.758 C36.305,41.855 37.644,41.756 38.09,41.7 C39.406,41.536 40.688,41.266 42.015,41.185 C42.627,41.147 44.359,41.381 43.849,41.041 C42.539,40.168 40.018,40.444 38.52,40.411 C38.023,40.4 36.543,40.48 37.03,40.382 C38.817,40.025 40.718,40.038 42.531,40.038 C42.999,40.038 44.403,40.01 43.935,40.01 C41.955,40.01 39.042,39.405 37.202,40.325 C36.937,40.458 37.794,40.39 38.09,40.382 C38.89,40.363 44.114,39.627 44.537,40.755 C44.805,41.469 43.036,41.076 42.273,41.099 C40.754,41.143 38.093,40.859 36.715,41.844 C36.346,42.107 37.061,42.015 38.778,42.015 C39.139,42.015 43.427,41.845 43.305,42.703 C43.24,43.153 37.536,43.788 36.371,44.537 C35.352,45.192 41.954,44.896 41.958,44.909 C42.217,45.774 36.809,46.628 37.116,46.657 C39.067,46.843 41.439,46.006 41.356,45.969 C40.247,45.476 38.642,45.778 37.489,45.941 C37.064,46 35.807,46.114 36.228,46.198 C36.9,46.333 38.545,45.624 39.179,45.482 C39.24,45.469 40.996,45.178 40.927,45.052 C40.231,43.801 36.47,44.429 36.744,44.795 C36.974,45.102 39.246,44.706 39.523,44.68 C40.087,44.627 41.778,44.548 41.213,44.508 C40.619,44.466 36.278,44.571 37.259,45.454" fill-opacity="0" stroke="#E79159" stroke-width="1" stroke-linecap="round" stroke-linejoin="round"/>
    <path d="M37.001,45.425 C38.884,45.106 40.728,44.808 42.646,44.852" fill-opacity="0" stroke="#E79159" stroke-width="1" stroke-linecap="round" stroke-linejoin="round"/>
    <path d="M36.686,43.505 C40.172,42.575 43.976,41.701 47.602,42.273" fill-opacity="0" stroke="#E79159" stroke-width="1" stroke-linecap="round" stroke-linejoin="round"/>
    <path d="M41.729,42.617 C41.065,42.736 40.395,42.766 39.723,42.789" fill-opacity="0" stroke="#E79159" stroke-width="1" stroke-linecap="round" stroke-linejoin="round"/>
    <path d="M38.606,41.041 C38.751,40.708 47.303,40.669 43.677,40.669" fill-opacity="0" stroke="#E79159" stroke-width="1" stroke-linecap="round" stroke-linejoin="round"/>
    <path d="M38.95,40.697 C33.055,40.388 45.09,40.157 45.31,40.01 C45.619,39.804 44.591,39.814 44.222,39.781 C42.375,39.613 40.515,39.637 38.663,39.637 C38.243,39.637 37.026,39.883 37.403,39.695 C39.364,38.714 42.211,38.663 44.365,38.663 C45.215,38.663 42.664,38.631 41.815,38.663 C40.262,38.723 37.621,38.608 36.113,39.294 C35.521,39.563 37.374,38.969 38.004,38.806 C39.755,38.354 41.529,38.14 43.333,38.09 C43.83,38.076 45.302,37.957 44.823,38.09 C43.038,38.586 37.996,38.067 36.916,39.867 C36.684,40.252 37.813,39.979 38.262,39.953 C39.91,39.856 41.523,39.444 43.133,39.122 C43.416,39.065 42.56,39.197 42.273,39.236 C40.681,39.453 37.666,40.489 36.142,39.981 C36.123,39.975 36.451,39.924 38.233,39.465 C39.738,39.079 41.243,38.623 42.789,38.434 C43.121,38.393 44.121,38.436 43.792,38.377 C42.277,38.106 40.742,38.105 39.208,38.09 C38.672,38.085 37.071,38.114 37.603,38.176 C40.06,38.465 42.637,37.718 45.11,37.718 C45.177,37.718 43.486,37.718 43.419,37.718 C41.58,37.718 39.822,37.805 38.004,38.09 C37.569,38.158 36.349,38.133 36.715,38.377 C36.956,38.537 43.057,37.403 44.193,37.403 C44.422,37.403 43.734,37.399 43.505,37.403 C41.751,37.427 40.012,37.547 38.262,37.66 C38.004,37.677 37.231,37.692 37.489,37.718 C38.699,37.839 40.251,37.057 41.442,36.83 C42.732,36.583 46.681,36.486 45.368,36.486 C42.763,36.486 40.148,36.41 37.546,36.514 C37.169,36.529 36.202,36.385 36.428,36.686 C36.691,37.036 41.461,36.024 43.391,35.999 C43.878,35.992 45.339,35.999 44.852,35.999 C44.002,35.999 43.152,35.999 42.302,35.999 C41.528,35.999 40.754,35.978 39.981,35.999 C39.026,36.025 37.625,35.994 36.715,36.514 C35.944,36.955 38.493,36.594 39.38,36.543 C41.203,36.438 43.025,36.4 44.852,36.4 C45.833,36.4 42.9,36.605 41.929,36.744 C41.295,36.834 38.178,36.956 37.689,37.689 C37.397,38.127 38.698,37.39 39.208,37.259 C39.334,37.227 42.331,36.769 42.331,36.629 C42.331,36.604 41.416,36.586 39.838,36.6 C38.411,36.613 36.427,36.914 36.428,36.916 C36.437,36.925 41.941,35.751 42.99,36.171 C43.422,36.344 42.103,36.473 41.643,36.543 C41.046,36.634 36.706,36.674 36.543,37.489 C36.514,37.633 41.958,36.949 41.442,36.887 C39.886,36.7 38.322,36.706 36.772,36.944 C36.502,36.986 35.716,37.015 35.97,37.116 C37.316,37.655 40.564,36.474 42.044,36.314 C42.491,36.266 43.84,36.228 43.391,36.228 C41.623,36.228 37.011,36.276 36.944,36.142 C36.744,35.742 37.824,35.974 38.262,35.884 C39.614,35.607 40.951,35.399 42.331,35.311 C42.817,35.28 44.279,35.282 43.792,35.282 C43.132,35.282 36.469,35.263 36.371,35.655 C36.34,35.779 39.136,35.168 42.044,34.967 C42.406,34.942 43.496,34.953 43.133,34.939 C42.302,34.905 41.472,34.843 40.64,34.824 C39.934,34.808 39.227,34.824 38.52,34.824 C32.608,34.824 44.279,34.388 44.279,34.337 C44.279,33.619 42.848,34.212 42.13,34.194 C41.178,34.169 38.459,33.737 37.546,34.194 C37.443,34.245 40.013,33.942 42.159,33.735 C42.863,33.667 44.595,34.254 44.279,33.621 C44.007,33.077 39.433,33.31 38.892,33.305 C37.264,33.293 36.428,33.318 36.428,33.334 C36.428,34.138 38.036,33.279 38.835,33.191 C40.419,33.017 41.999,32.933 43.591,32.933 C43.725,32.933 43.323,32.945 43.19,32.933 C42.255,32.851 37.265,33.191 38.09,33.076 C39.918,32.821 41.649,32.618 43.505,32.618 C43.946,32.618 45.105,32.366 44.823,32.704 C44.622,32.945 38.529,33.041 37.632,33.191 C37.2,33.263 35.975,33.543 36.4,33.649 C37.736,33.983 39.515,33.562 40.869,33.506 C41.547,33.478 43.57,33.604 42.904,33.477 C41.457,33.202 39.93,33.138 38.463,33.22 C37.117,33.294 35.741,33.897 35.769,33.907 C36.675,34.236 38.218,33.936 39.179,33.936 C39.216,33.936 40.499,34.049 40.497,34.05 C39.826,34.386 35.753,34.573 38.577,33.42 C39.277,33.134 40.016,32.845 40.755,32.675 C41.139,32.587 41.929,32.926 41.929,32.532 C41.929,32.255 41.376,32.556 41.099,32.561 C40.249,32.573 39.399,32.561 38.549,32.561 C37.985,32.561 36.299,32.626 36.858,32.561 C38.449,32.373 40.008,32.188 41.614,32.188 C41.704,32.188 43.403,32.588 43.276,32.618 C42.381,32.829 41.277,32.506 40.411,32.389 C39.385,32.25 36.313,32.382 37.317,32.131 C38.512,31.832 39.982,32.016 41.213,32.045 C41.494,32.052 42.17,31.937 42.044,32.188 C41.947,32.383 39.415,32.026 39.236,32.016 C38.659,31.985 36.983,32.007 37.517,31.787 C38.067,31.561 44.206,31.844 42.56,31.844" fill-opacity="0" stroke="#E79159" stroke-width="1" stroke-linecap="round" stroke-linejoin="round"/>
    <path d="M37.403,32.073 C36.469,32.037 37.645,32.016 37.976,32.016 C38.692,32.016 35.267,32.378 35.827,31.93 C36.261,31.583 41.312,31.781 42.273,31.988" fill-opacity="0" stroke="#E79159" stroke-width="1" stroke-linecap="round" stroke-linejoin="round"/>
    <path d="M19.784,45.671 C16.927,45.539 14.095,45.371 11.23,45.371" fill-opacity="0" stroke="#E79159" stroke-width="1" stroke-linecap="round" stroke-linejoin="round"/>
    <path d="M19.095,47.321 C12.498,46.176 8.54,47.1 17.942,47.1 C18.497,47.1 16.833,47.021 16.277,47.011 C14.949,46.987 13.61,47.029 12.283,47.1 C11.838,47.123 10.528,47.092 10.952,47.233 C12.725,47.824 15.409,47.27 17.209,47.1 C17.963,47.028 20.168,47.22 19.473,46.922 C18.171,46.364 16.08,46.678 14.702,46.678 C14.376,46.678 13.406,46.614 13.725,46.678 C14.021,46.737 16.008,47.011 16.011,47.011 C17.064,47.086 18.146,47.055 19.206,47.055 C19.74,47.055 18.156,46.861 17.631,46.767 C16.747,46.608 14.813,47.033 14.08,46.545 C13.736,46.315 14.909,46.523 15.323,46.545 C16.547,46.609 18.336,46.454 19.539,46.855 C20.156,47.061 16.066,45.962 15.967,46.412 C15.881,46.798 20.222,47.961 20.604,47.388 C20.954,46.864 16.908,46.371 16.566,46.345 C16.166,46.314 14.967,46.256 15.367,46.256 C16.98,46.256 19.859,45.95 21.314,46.678 C21.955,46.998 19.892,46.501 19.184,46.389 C17.649,46.147 16.114,45.969 14.569,45.812 C14.125,45.768 12.922,45.995 13.237,45.679 C13.475,45.441 18.345,45.879 19.273,45.879 C20.083,45.879 17.682,45.559 16.876,45.48 C16.367,45.429 15.856,45.393 15.345,45.369 C14.6,45.333 13.85,45.346 13.104,45.346 C12.313,45.346 14.687,45.359 15.478,45.369 C16.987,45.387 18.5,45.372 20.005,45.48 C20.679,45.528 18.658,45.372 17.986,45.302 C17.133,45.213 13.62,45.596 12.993,44.969 C12.648,44.624 13.97,45.007 14.458,45.036 C16.039,45.13 17.626,45.197 19.206,45.302 C21.288,45.441 15.935,44.985 16.477,45.346 C17.687,46.153 19.553,46.123 20.959,46.123 C21.08,46.123 15.996,45.287 16.166,45.28 C24.798,44.92 18,44.931 13.903,44.703 C13.014,44.654 18.031,44.725 18.718,44.725 C19.169,44.725 20.514,44.814 20.072,44.725 C18.41,44.393 16.632,44.386 14.946,44.348 C14.118,44.329 11.632,44.326 12.461,44.326 C14.909,44.326 18.272,44.954 20.627,44.281 C21.074,44.153 19.713,44.092 19.251,44.037 C17.48,43.829 15.726,43.85 13.947,43.838 C13.2,43.832 10.959,43.832 11.706,43.815 C12.724,43.793 19.049,44.163 19.539,43.771 C19.879,43.499 18.686,43.588 18.252,43.549 C16.31,43.376 14.342,43.438 12.394,43.438 C12.069,43.438 13.045,43.438 13.37,43.438 C14.075,43.438 20.268,43.553 20.627,43.194 C20.951,42.87 19.73,42.987 19.273,42.95 C17.66,42.819 16.031,42.808 14.413,42.795 C13.91,42.79 12.401,42.795 12.904,42.795 C15.433,42.795 18.014,42.952 20.538,42.795 C21.322,42.746 18.971,42.671 18.186,42.639 C16.528,42.572 14.874,42.506 13.215,42.506 C12.705,42.506 14.236,42.52 14.746,42.506 C15.488,42.485 19.317,42.75 19.916,42.151 C20.442,41.625 18.439,41.976 17.697,41.929 C15.841,41.812 13.987,41.84 12.128,41.84 C11.588,41.84 13.208,41.84 13.748,41.84 C15.56,41.84 17.353,41.801 19.162,41.707 C19.48,41.691 20.429,41.72 20.116,41.663 C17.778,41.238 15.228,41.508 12.86,41.508 C12.677,41.508 14.985,41.508 15.168,41.508 C16.928,41.508 18.689,41.508 20.449,41.508 C21.359,41.508 18.629,41.469 17.72,41.441 C16.505,41.404 15.295,41.397 14.08,41.397 C13.33,41.397 15.574,41.536 16.322,41.596 C21.173,41.99 15.672,41.466 19.584,41.818 C19.978,41.854 21.15,41.925 20.76,41.996 C18.886,42.336 16.68,41.974 14.768,41.974 C14.369,41.974 15.567,41.967 15.967,41.974 C17.045,41.992 19.455,41.565 20.449,42.062 C21.142,42.409 18.908,41.885 18.141,41.774 C17.244,41.644 13.985,41.79 13.304,41.108 C13.037,40.841 14.058,41.081 14.435,41.064 C15.401,41.019 18.849,41.326 19.672,40.709 C20.013,40.453 18.832,40.562 18.408,40.531 C16.93,40.423 14.007,41.06 12.682,40.398 C12.398,40.256 13.318,40.376 13.637,40.376 C18.361,40.376 12.788,40.396 17.808,40.309 C19.029,40.288 22.683,40.422 21.47,40.287 C20.37,40.165 19.268,40.135 18.163,40.087 C10.043,39.737 20.205,40.236 20.205,39.865 C20.205,39.724 17.03,39.799 16.987,39.799 C15.646,39.809 13.956,40.077 13.969,40.087 C15.694,41.429 25.336,40.931 14.968,40.931 C14.746,40.931 15.412,40.931 15.634,40.931 C17.32,40.931 19.007,40.953 20.693,40.953 C21.209,40.953 19.674,40.794 19.162,40.731 C18.005,40.588 16.822,40.531 15.656,40.531 C14.163,40.531 22.362,40.531 21.226,40.531 C19.079,40.531 16.931,40.14 14.791,39.976 C13.999,39.916 11.625,39.86 12.416,39.799 C14.531,39.636 19.136,39.997 20.937,39.178 C21.322,39.003 20.114,38.985 19.695,38.934 C17.966,38.723 16.239,38.71 14.502,38.645 C13.799,38.619 11.726,38.757 12.394,38.534 C14.659,37.779 17.91,38.599 20.338,38.379 C20.892,38.328 19.23,38.262 18.674,38.246 C16.937,38.193 15.196,38.223 13.459,38.223 C12.897,38.223 11.212,38.188 11.773,38.223 C13.196,38.312 14.607,38.312 16.033,38.312 C17.15,38.312 20.501,38.268 19.384,38.268 C17.215,38.268 14.693,38.581 12.571,38.157 C12.071,38.057 13.592,38.141 14.103,38.135 C15.86,38.112 17.606,37.973 19.362,37.935 C19.658,37.929 20.545,37.935 20.249,37.935 C18.233,37.935 16.211,37.824 14.191,37.824 C13.592,37.824 11.795,37.81 12.394,37.78 C13.181,37.74 20.227,37.459 20.227,37.336 C20.227,37.076 8.262,37.307 15.279,37.225 C15.945,37.217 16.611,37.21 17.276,37.18 C18.154,37.142 19.296,37.136 20.183,36.959 C20.524,36.89 19.488,36.899 19.14,36.892 C17.617,36.863 16.091,36.892 14.569,36.892 C14.191,36.892 13.06,36.892 13.437,36.892 C14.685,36.892 19.937,37.152 20.76,36.604 C21.178,36.324 19.754,36.581 19.251,36.581 C17.417,36.581 15.581,36.562 13.748,36.604 C13.215,36.616 11.617,36.648 12.15,36.648 C14.263,36.648 16.323,36.454 18.43,36.337 C18.984,36.306 20.633,36.405 20.094,36.271 C17.568,35.639 14.706,36.514 12.15,36.049 C11.702,35.967 12.662,36.061 14.791,36.027 C16.584,35.998 18.859,36.235 20.627,35.827 C21.096,35.719 19.666,35.756 19.184,35.738 C16.692,35.646 14.2,35.672 11.706,35.672 C10.929,35.672 13.261,35.654 14.036,35.605 C15.785,35.493 17.527,35.27 19.273,35.117 C19.495,35.097 20.153,35.111 19.939,35.05 C17.47,34.345 14.422,34.945 11.861,34.762 C11.831,34.76 13.946,34.766 14.191,34.762 C15.908,34.732 17.623,34.584 19.34,34.584 C19.739,34.584 18.541,34.584 18.141,34.584 C15.856,34.584 13.57,34.606 11.284,34.606 C11.033,34.606 11.787,34.608 12.039,34.606 C16.741,34.584 14.783,34.666 17.964,34.473 C18.54,34.438 20.272,34.407 19.695,34.407 C17.712,34.407 15.73,34.407 13.748,34.407 C13.378,34.407 12.268,34.407 12.638,34.407 C14.818,34.407 16.985,34.272 19.162,34.207 C19.569,34.195 20.564,34.571 20.382,34.207 C20.13,33.702 15.796,33.912 15.257,33.896 C14.598,33.877 12.623,33.83 13.282,33.83 C15.367,33.83 17.454,33.816 19.539,33.83 C19.962,33.833 21.227,33.917 20.804,33.941 C20.036,33.985 19.266,33.941 18.496,33.941 C17.979,33.941 17.461,33.941 16.943,33.941 C10.831,33.941 20.74,34.605 20.782,34.895 C20.802,35.033 16.559,35.009 16.122,35.228 C15.792,35.393 16.842,35.393 17.209,35.427 C18.218,35.522 19.237,35.516 20.249,35.516 C20.877,35.516 19.008,35.325 18.385,35.25 C16.553,35.029 16.186,35.057 14.147,34.85 C13.508,34.786 11.837,35.086 12.239,34.584 C12.634,34.09 18.68,33.63 19.828,33.63 C20.117,33.63 19.251,33.578 18.962,33.563 C17.76,33.502 14.866,34.072 13.836,33.386 C12.984,32.818 15.877,33.212 16.899,33.142 C18.342,33.043 19.78,32.987 21.226,32.987 C21.596,32.987 20.486,32.999 20.116,33.009 C18.156,33.058 16.197,33.053 14.236,33.053 C13.207,33.053 16.293,33.012 17.32,32.964 C18.672,32.901 20.007,32.876 21.359,32.876 C22.291,32.876 19.495,32.893 18.563,32.876 C17.335,32.853 16.107,32.811 14.879,32.765 C14.294,32.743 12.548,32.728 13.126,32.631 C15.42,32.249 17.898,32.077 20.227,32.077 C20.752,32.077 19.177,32.073 18.652,32.077 C17.15,32.088 15.649,32.121 14.147,32.121 C13.91,32.121 13.2,32.121 13.437,32.121 C15.803,32.121 18.152,31.899 20.516,31.899 C22.538,31.899 20.097,31.899 18.075,31.899 C17.002,31.899 15.93,31.899 14.857,31.899 C14.376,31.899 12.934,31.899 13.415,31.899 C14.717,31.899 16.018,31.904 17.32,31.877 C18.289,31.857 21.196,31.81 20.227,31.81 C18.208,31.81 16.188,31.805 14.169,31.788 C13.489,31.783 11.447,31.763 12.128,31.744 C13.511,31.704 14.894,31.699 16.277,31.699 C16.876,31.699 18.674,31.699 18.075,31.699 C16.048,31.699 14.022,31.788 11.995,31.788 C11.625,31.788 12.734,31.788 13.104,31.788 C14.185,31.788 16.689,31.353 17.542,32.121 C18.219,32.73 15.743,32.414 14.835,32.476 C13.64,32.558 12.345,32.654 11.129,32.654 C10.648,32.654 12.091,32.654 12.571,32.654 C13.699,32.654 15.671,32.314 16.743,32.809 C17.069,32.959 16.035,32.932 15.678,32.964 C14.628,33.06 13.577,33.154 12.527,33.253 C11.287,33.37 17.429,33.065 16.388,33.586 C15.416,34.072 13.356,33.767 12.283,33.83 C11.906,33.852 10.773,33.896 11.151,33.896 C12.941,33.896 14.834,33.75 16.61,33.963 C19.2,34.274 10.143,33.65 12.527,34.318 C13.943,34.714 15.742,34.334 17.076,34.961 C17.334,35.083 16.516,35.065 16.233,35.095 C15.484,35.173 13.149,35.035 12.571,35.516 C12.519,35.56 17.971,36.237 16.765,36.337 C15.482,36.444 14.19,36.438 12.904,36.537 C12.651,36.556 11.904,36.584 12.15,36.648 C14.105,37.155 16.38,36.881 18.208,37.824 C18.304,37.874 13.311,38.216 13.326,38.223 C14.376,38.748 17.058,38.028 17.964,38.934 C18.102,39.072 14.9,38.388 13.037,39.133 C12.65,39.288 13.865,39.242 14.28,39.289 C15.468,39.422 16.725,39.45 17.897,39.71 C18.325,39.805 12.372,39.685 12.461,39.688 C13.771,39.728 16.935,39.524 17.897,40.487 C19.567,42.156 14.037,39.486 13.437,40.687 C13.287,40.987 18.662,41.397 17.52,41.397 C16.274,41.397 14.72,41.394 13.548,41.863 C12.212,42.397 18.87,41.873 17.764,42.795 C16.862,43.546 14.543,42.389 13.77,43.549 C13.358,44.166 16.407,44.329 15.723,44.614 C14.756,45.017 12.747,45.107 12.793,45.125 C13.502,45.397 15.753,45.47 15.012,45.635 C11.503,46.415 11.982,44.863 14.99,46.367 C15.837,46.791 11.48,45.72 12.15,46.389 C12.638,46.877 14.811,46.334 13.437,46.678" fill-opacity="0" stroke="#E79159" stroke-width="1" stroke-linecap="round" stroke-linejoin="round"/>
  </g>
</svg>
