<?xml version="1.0" encoding="UTF-8"?>
<!DOCTYPE svg PUBLIC "-//W3C//DTD SVG 1.1//EN" "http://www.w3.org/Graphics/SVG/1.1/DTD/svg11.dtd">
<svg version="1.1" xmlns="http://www.w3.org/2000/svg" xmlns:xlink="http://www.w3.org/1999/xlink" x="0" y="0" width="60" height="60" viewBox="0, 0, 60, 60">
  <g id="Layer_1">
    <g>
      <g>
        <path d="M27.437,35.656 C23.243,31.478 26.081,21.83 33.775,14.108 C41.469,6.386 51.106,3.514 55.3,7.693 C59.494,11.872 56.656,21.519 48.962,29.241 C41.268,36.963 31.63,39.835 27.437,35.656 z" fill="#E79159"/>
        <path d="M27.437,35.656 C23.243,31.478 26.081,21.83 33.775,14.108 C41.469,6.386 51.106,3.514 55.3,7.693 C59.494,11.872 56.656,21.519 48.962,29.241 C41.268,36.963 31.63,39.835 27.437,35.656 z" fill-opacity="0" stroke="#E79159" stroke-width="1"/>
      </g>
      <g>
        <path d="M32.164,10.109 C32.032,10.109 31.925,10.097 31.925,10.083 C31.925,10.068 32.032,10.056 32.164,10.056 C32.295,10.056 32.402,10.068 32.402,10.083 C32.402,10.097 32.295,10.109 32.164,10.109 z" fill="#E79159"/>
        <path d="M32.164,10.109 C32.032,10.109 31.925,10.097 31.925,10.083 C31.925,10.068 32.032,10.056 32.164,10.056 C32.295,10.056 32.402,10.068 32.402,10.083 C32.402,10.097 32.295,10.109 32.164,10.109 z" fill-opacity="0" stroke="#E79159" stroke-width="1"/>
      </g>
      <g>
        <path d="M26.62,54.09 L24.279,40.898 L11.818,38.758 L21.898,26.874 L25.824,28.519 L30.406,25.949 L40.67,22.172 L37.92,33.263 L36.169,37.538 L37.071,41.517 z" fill="#E79159"/>
        <path d="M26.62,54.09 L24.279,40.898 L11.818,38.758 L21.898,26.874 L25.824,28.519 L30.406,25.949 L40.67,22.172 L37.92,33.263 L36.169,37.538 L37.071,41.517 z" fill-opacity="0" stroke="#E79159" stroke-width="1"/>
      </g>
    </g>
    <g>
      <path d="M47.638,16.947 C46.217,16.947 45.065,15.83 45.065,14.453 C45.065,13.076 46.217,11.96 47.638,11.96 C49.059,11.96 50.211,13.076 50.211,14.453 C50.211,15.83 49.059,16.947 47.638,16.947 z" fill="#FFFFFF"/>
      <path d="M47.638,16.947 C46.217,16.947 45.065,15.83 45.065,14.453 C45.065,13.076 46.217,11.96 47.638,11.96 C49.059,11.96 50.211,13.076 50.211,14.453 C50.211,15.83 49.059,16.947 47.638,16.947 z" fill-opacity="0" stroke="#FFFFFF" stroke-width="1"/>
    </g>
    <g>
      <path d="M16.779,41.343 L22.874,34.048 C23.609,33.168 24.841,32.986 25.625,33.641 L28.924,36.397 C29.708,37.052 29.747,38.297 29.012,39.176 L22.918,46.472 C22.183,47.351 20.951,47.534 20.167,46.879 L16.868,44.123 C16.084,43.468 16.044,42.223 16.779,41.343 z" fill="#E79159"/>
      <path d="M16.779,41.343 L22.874,34.048 C23.609,33.168 24.841,32.986 25.625,33.641 L28.924,36.397 C29.708,37.052 29.747,38.297 29.012,39.176 L22.918,46.472 C22.183,47.351 20.951,47.534 20.167,46.879 L16.868,44.123 C16.084,43.468 16.044,42.223 16.779,41.343 z" fill-opacity="0" stroke="#E79159" stroke-width="1"/>
    </g>
    <path d="M12.779,52.747 C15.513,53.65 19.591,51.192 21.671,48.809" fill-opacity="0" stroke="#E79159" stroke-width="1" stroke-linecap="round" stroke-linejoin="round"/>
    <path d="M15.087,44.23 C13.531,47.013 12.563,49.627 12.694,52.779" fill-opacity="0" stroke="#E79159" stroke-width="1" stroke-linecap="round" stroke-linejoin="round"/>
  </g>
</svg>
