<?xml version="1.0" encoding="UTF-8"?>
<!DOCTYPE svg PUBLIC "-//W3C//DTD SVG 1.1//EN" "http://www.w3.org/Graphics/SVG/1.1/DTD/svg11.dtd">
<svg version="1.1" xmlns="http://www.w3.org/2000/svg" xmlns:xlink="http://www.w3.org/1999/xlink" x="0" y="0" width="60" height="60" viewBox="0, 0, 60, 60">
  <g id="Layer_1">
    <g>
      <path d="M49.999,5.774 C52.074,5.761 53.734,6.399 55.3,7.693 C59.494,11.872 56.656,21.519 48.962,29.241 C41.268,36.963 31.63,39.835 27.437,35.656 C23.243,31.478 26.081,21.83 33.775,14.108 C38.725,9.324 43.112,6.533 49.999,5.774 z" fill="#E79159"/>
      <path d="M49.999,5.774 C52.074,5.761 53.734,6.399 55.3,7.693 C59.494,11.872 56.656,21.519 48.962,29.241 C41.268,36.963 31.63,39.835 27.437,35.656 C23.243,31.478 26.081,21.83 33.775,14.108 C38.725,9.324 43.112,6.533 49.999,5.774 z" fill-opacity="0" stroke="#E79159" stroke-width="1"/>
    </g>
    <g>
      <path d="M40.67,22.172 L37.92,33.263 L36.169,37.538 L37.071,41.517 L26.62,54.09 L24.279,40.898 L11.818,38.758 L21.898,26.874 L25.824,28.519 L30.406,25.949 L40.67,22.172 z" fill="#E79159"/>
      <path d="M40.67,22.172 L37.92,33.263 L36.169,37.538 L37.071,41.517 L26.62,54.09 L24.279,40.898 L11.818,38.758 L21.898,26.874 L25.824,28.519 L30.406,25.949 L40.67,22.172 z" fill-opacity="0" stroke="#E79159" stroke-width="1"/>
    </g>
    <g>
      <path d="M47.638,16.947 C46.217,16.947 45.065,15.83 45.065,14.453 C45.065,13.076 46.217,11.96 47.638,11.96 C49.059,11.96 50.211,13.076 50.211,14.453 C50.211,15.83 49.059,16.947 47.638,16.947 z" fill="#FFFFFF"/>
      <path d="M47.638,16.947 C46.217,16.947 45.065,15.83 45.065,14.453 C45.065,13.076 46.217,11.96 47.638,11.96 C49.059,11.96 50.211,13.076 50.211,14.453 C50.211,15.83 49.059,16.947 47.638,16.947 z" fill-opacity="0" stroke="#FFFFFF" stroke-width="1"/>
    </g>
    <g>
      <path d="M24.967,33.304 L25.625,33.641 L28.924,36.397 C29.708,37.052 29.747,38.297 29.012,39.176 L22.917,46.471 C22.183,47.351 20.951,47.534 20.167,46.879 L16.868,44.123 C16.084,43.468 16.044,42.223 16.779,41.343 L22.874,34.048 C23.575,33.308 24.01,33.429 24.967,33.304 z" fill="#E79159"/>
      <path d="M24.967,33.304 L25.625,33.641 L28.924,36.397 C29.708,37.052 29.747,38.297 29.012,39.176 L22.917,46.471 C22.183,47.351 20.951,47.534 20.167,46.879 L16.868,44.123 C16.084,43.468 16.044,42.223 16.779,41.343 L22.874,34.048 C23.575,33.308 24.01,33.429 24.967,33.304 z" fill-opacity="0" stroke="#E79159" stroke-width="1"/>
    </g>
  </g>
  <g id="Layer_2">
    <path d="M13.107,54.654 L12.956,54.48 L12.642,54.181 L12.364,53.881 L12.119,53.576 L11.914,53.257 L11.749,52.921 L11.624,52.569 L11.537,52.203 L11.485,51.828 L11.468,51.442 L11.483,51.052 L11.528,50.658 L11.638,50.066 L11.866,49.294 L12.091,48.749 L12.266,48.401 L12.468,48.058 L12.691,47.731 L12.936,47.423 L13.201,47.135 L13.487,46.872 L13.792,46.636 L14.117,46.433 L14.459,46.265 L14.815,46.14 L15.183,46.062 L15.559,46.036 L15.94,46.066 L16.321,46.157 L16.702,46.311 L16.891,46.414 L16.891,46.414 C16.891,46.414 16.891,46.414 16.892,46.414 C16.892,46.414 16.892,46.413 16.892,46.413 C16.892,46.413 16.892,46.413 16.892,46.413 L16.711,46.301 L16.346,46.124 L15.978,46.008 L15.609,45.949 L15.238,45.946 L14.867,45.995 L14.496,46.095 L14.125,46.242 L13.755,46.437 L13.39,46.676 L13.031,46.957 L12.683,47.276 L12.348,47.629 L12.031,48.013 L11.734,48.421 L11.458,48.86 L11.099,49.543 L10.748,50.463 L10.588,51.151 L10.539,51.603 L10.534,52.043 L10.575,52.466 L10.661,52.871 L10.797,53.25 L10.984,53.601 L11.224,53.917 L11.521,54.193 L11.878,54.421 L12.307,54.583 L12.808,54.667 L13.106,54.655 C13.106,54.655 13.107,54.655 13.107,54.654 C13.107,54.654 13.107,54.654 13.107,54.654 L13.107,54.654" fill="#E79159"/>
    <path d="M11.797,53.776 L11.895,53.992 L12.159,54.334 L12.488,54.582 L12.85,54.765 L13.242,54.885 L13.655,54.947 L14.084,54.957 L14.527,54.914 L14.977,54.825 L15.432,54.69 L15.888,54.511 L16.34,54.289 L16.784,54.028 L17.214,53.728 L17.623,53.399 L18.006,53.046 L18.359,52.675 L18.68,52.292 L18.964,51.9 L19.21,51.504 L19.415,51.107 L19.58,50.713 L19.702,50.323 L19.78,49.938 L19.815,49.561 L19.802,49.192 L19.742,48.833 L19.631,48.486 L19.467,48.152 L19.248,47.834 L18.971,47.532 L18.633,47.249 L18.441,47.116 L18.441,47.116 C18.441,47.116 18.44,47.116 18.44,47.116 C18.44,47.116 18.44,47.117 18.44,47.117 C18.44,47.117 18.44,47.117 18.44,47.117 L18.623,47.26 L18.938,47.563 L19.19,47.885 L19.379,48.224 L19.511,48.575 L19.586,48.937 L19.61,49.305 L19.583,49.677 L19.511,50.047 L19.397,50.414 L19.244,50.773 L19.059,51.12 L18.844,51.454 L18.605,51.771 L18.344,52.07 L18.065,52.35 L17.772,52.61 L17.464,52.851 L17.145,53.074 L16.814,53.279 L16.471,53.469 L16.115,53.641 L15.746,53.794 L15.366,53.923 L14.976,54.025 L14.579,54.097 L14.175,54.137 L13.766,54.143 L13.352,54.113 L12.931,54.049 L12.505,53.947 L12.047,53.83 L11.798,53.775 C11.798,53.775 11.798,53.775 11.798,53.775 C11.797,53.775 11.797,53.775 11.797,53.776 C11.797,53.776 11.796,53.776 11.797,53.776 L11.797,53.776" fill="#E79159"/>
    <path d="M12.494,53.847 L12.62,54.139 L13,54.481 L13.447,54.639 L13.917,54.669 L14.397,54.591 L14.882,54.416 L15.357,54.148 L15.799,53.816 L16.37,53.28 L17.035,52.561 L17.659,51.911 L18.133,51.506 L18.464,51.287 L18.635,51.199 L18.635,51.199 C18.636,51.198 18.636,51.198 18.636,51.198 C18.636,51.197 18.636,51.197 18.636,51.198 L18.464,51.273 L18.119,51.461 L17.598,51.823 L16.902,52.378 L16.215,52.909 L15.726,53.235 L15.429,53.402 L15.135,53.544 L14.813,53.672 L14.446,53.766 L14.02,53.815 L13.52,53.819 L12.896,53.81 L12.495,53.846 C12.495,53.846 12.495,53.846 12.495,53.846 C12.495,53.846 12.495,53.846 12.495,53.846 C12.494,53.847 12.494,53.847 12.494,53.847 L12.494,53.847" fill="#E79159"/>
    <path d="M15.495,53.847 L15.565,53.972 L15.794,54.025 L16.067,53.978 L16.361,53.849 L16.775,53.563 L17.248,53.07 L17.592,52.544 L17.858,52.06 L18.118,51.614 L18.412,51.205 L18.581,51.019 L18.581,51.019 C18.581,51.018 18.582,51.018 18.581,51.018 C18.581,51.018 18.581,51.018 18.581,51.018 L18.385,51.19 L17.994,51.576 L17.599,51.987 L17.209,52.374 L16.865,52.684 L16.585,52.942 L16.373,53.135 L16.213,53.274 L15.999,53.445 L15.703,53.662 L15.495,53.846 C15.495,53.846 15.495,53.846 15.494,53.847 C15.494,53.847 15.494,53.847 15.495,53.847 L15.495,53.847" fill="#E79159"/>
    <path d="M12.691,54.01 L12.659,53.696 L12.527,53.23 L12.419,52.854 L12.361,52.516 L12.357,52.2 L12.385,51.906 L12.439,51.622 L12.504,51.338 L12.649,50.878 L12.911,50.231 L13.198,49.582 L13.373,49.121 L13.444,48.834 L13.464,48.698 L13.464,48.698 C13.464,48.698 13.464,48.697 13.464,48.698 C13.463,48.698 13.463,48.698 13.463,48.698 L13.429,48.839 L13.318,49.131 L13.069,49.59 L12.625,50.248 L12.119,50.971 L11.764,51.563 L11.574,51.985 L11.456,52.406 L11.421,52.814 L11.482,53.191 L11.637,53.536 L11.912,53.827 L12.356,54.01 L12.69,54.011 C12.69,54.011 12.69,54.011 12.691,54.011 C12.691,54.011 12.691,54.01 12.691,54.01 L12.691,54.01" fill="#E79159"/>
    <path d="M11.363,52.151 L11.475,51.82 L11.608,51.305 L11.718,50.908 L11.836,50.587 L11.968,50.322 L12.107,50.097 L12.244,49.882 L12.409,49.655 L12.721,49.263 L13.218,48.713 L13.737,48.159 L14.089,47.744 L14.285,47.468 L14.37,47.331 L14.37,47.331 C14.371,47.331 14.371,47.33 14.37,47.33 C14.37,47.33 14.37,47.331 14.369,47.331 C14.369,47.331 14.369,47.331 14.369,47.331 L14.274,47.464 L14.055,47.716 L13.674,48.068 L13.091,48.517 L12.449,48.991 L11.952,49.407 L11.628,49.748 L11.332,50.131 L11.109,50.54 L10.966,50.95 L10.909,51.35 L10.959,51.727 L11.161,52.044 L11.362,52.152 C11.362,52.152 11.362,52.152 11.362,52.152 C11.362,52.152 11.362,52.152 11.362,52.152 C11.363,52.151 11.363,52.151 11.363,52.151 L11.363,52.151" fill="#E79159"/>
    <path d="M12.722,54.024 L12.85,54.204 L13.221,54.326 L13.631,54.322 L14.06,54.213 L14.495,54.013 L14.919,53.742 L15.475,53.247 L16.083,52.515 L16.596,51.796 L17.092,51.13 L17.488,50.677 L17.777,50.406 L17.931,50.282 L17.931,50.282 C17.932,50.282 17.932,50.282 17.932,50.282 C17.932,50.281 17.931,50.281 17.931,50.282 L17.771,50.395 L17.455,50.646 L16.986,51.07 L16.371,51.679 L15.775,52.258 L15.222,52.74 L14.84,53.038 L14.595,53.214 L14.318,53.38 L13.984,53.543 L13.574,53.704 L13.062,53.87 L12.723,54.023 C12.723,54.023 12.723,54.023 12.722,54.023 C12.722,54.024 12.722,54.024 12.722,54.024 L12.722,54.024" fill="#E79159"/>
    <path d="M12.329,53.822 L12.467,54.026 L12.837,54.229 L13.262,54.271 L13.707,54.199 L14.158,54.035 L14.605,53.786 L15.024,53.465 L15.395,53.103 L15.856,52.553 L16.386,51.836 L16.896,51.176 L17.298,50.742 L17.586,50.489 L17.74,50.378 L17.74,50.378 C17.74,50.378 17.74,50.377 17.74,50.377 C17.74,50.377 17.74,50.377 17.74,50.377 C17.74,50.377 17.74,50.377 17.74,50.377 L17.582,50.478 L17.267,50.707 L16.8,51.115 L16.182,51.713 L15.57,52.289 L15.133,52.656 L14.872,52.849 L14.626,53.019 L14.366,53.181 L14.064,53.332 L13.7,53.463 L13.256,53.579 L12.689,53.712 L12.33,53.821 C12.33,53.821 12.33,53.821 12.33,53.821 C12.33,53.821 12.329,53.821 12.329,53.821 C12.329,53.822 12.329,53.822 12.329,53.822 L12.329,53.822" fill="#E79159"/>
    <path d="M12.44,53.531 L12.445,53.862 L12.665,54.194 L13.013,54.303 L13.427,54.263 L13.89,54.093 L14.37,53.783 L14.797,53.388 L15.12,52.971 L15.425,52.411 L15.701,51.744 L15.962,51.164 L16.188,50.794 L16.364,50.581 L16.465,50.488 L16.465,50.488 C16.465,50.488 16.466,50.487 16.466,50.487 C16.465,50.487 16.465,50.487 16.464,50.487 L16.352,50.569 L16.118,50.769 L15.76,51.142 L15.262,51.699 L14.754,52.217 L14.422,52.5 L14.283,52.591 L14.212,52.643 L14.15,52.703 L14.021,52.808 L13.786,52.933 L13.421,53.081 L12.857,53.31 L12.442,53.529 C12.441,53.529 12.441,53.529 12.44,53.53 C12.44,53.531 12.44,53.531 12.44,53.531 L12.44,53.531" fill="#E79159"/>
    <path d="M12.998,53.399 L13.271,53.034 L13.539,52.551 L13.742,52.204 L13.902,51.952 L14.029,51.765 L14.143,51.609 L14.304,51.337 L14.57,50.888 L14.944,50.359 L15.375,49.803 L15.774,49.253 L15.942,48.983 L15.942,48.983 C15.942,48.983 15.942,48.982 15.942,48.982 C15.942,48.982 15.941,48.982 15.941,48.983 C15.941,48.983 15.941,48.983 15.941,48.983 L15.732,49.226 L15.25,49.657 L14.695,50.05 L14.06,50.477 L13.375,51.03 L12.912,51.564 L12.669,51.98 L12.501,52.397 L12.437,52.788 L12.496,53.127 L12.712,53.379 L12.996,53.4 C12.996,53.4 12.996,53.4 12.997,53.4 C12.998,53.4 12.998,53.399 12.998,53.399 L12.998,53.399" fill="#E79159"/>
    <path d="M11.576,49.83 L11.883,49.553 L12.227,49.205 L12.461,49.032 L12.605,48.963 L12.709,48.92 L12.833,48.854 L13.139,48.625 L13.714,48.203 L14.4,47.753 L15.099,47.328 L15.584,47.018 L15.872,46.822 L16.004,46.721 L16.004,46.721 C16.004,46.721 16.005,46.72 16.005,46.72 C16.005,46.719 16.004,46.719 16.004,46.719 L15.873,46.792 L15.601,46.921 L15.167,47.054 L14.547,47.176 L13.879,47.278 L13.142,47.475 L12.54,47.79 L12.112,48.139 L11.717,48.561 L11.428,49.016 L11.303,49.432 L11.371,49.747 L11.574,49.831 C11.574,49.831 11.574,49.831 11.574,49.831 C11.574,49.831 11.575,49.832 11.575,49.831 C11.576,49.831 11.576,49.831 11.576,49.83 L11.576,49.83" fill="#E79159"/>
    <path d="M13.32,47.747 L13.66,47.489 L14.034,47.239 L14.132,47.285 L14.103,47.42 L14.132,47.463 L14.289,47.442 L14.739,47.331 L15.502,47.184 L16.275,47.121 L16.785,47.124 L17.076,47.136 L17.318,47.146 L17.509,47.14 L17.583,47.128 L17.583,47.128 C17.583,47.128 17.584,47.128 17.584,47.127 C17.584,47.127 17.584,47.126 17.584,47.126 L17.52,47.123 L17.362,47.085 L17.171,47.008 L16.957,46.894 L16.602,46.671 L16.089,46.315 L15.513,45.998 L14.985,45.915 L14.528,46.016 L13.987,46.282 L13.446,46.755 L13.104,47.271 L13.122,47.638 L13.319,47.748 C13.318,47.748 13.319,47.748 13.319,47.748 C13.32,47.748 13.32,47.748 13.32,47.747 L13.32,47.747" fill="#E79159"/>
    <path d="M12.419,48.58 L12.684,48.348 L12.988,48.078 L13.201,47.935 L13.259,48.005 L13.168,48.085 L13.368,47.746 L13.771,47.323 L14.03,47.062 L14.134,46.944 L14.134,46.944 C14.134,46.943 14.135,46.943 14.134,46.942 C14.134,46.942 14.134,46.942 14.133,46.942 L14.024,47.006 L13.793,47.07 L13.37,47.095 L12.758,47.242 L12.199,47.716 L11.894,48.269 L11.929,48.565 L12.167,48.631 L12.417,48.581 C12.417,48.581 12.417,48.581 12.417,48.581 C12.417,48.582 12.418,48.582 12.418,48.581 C12.419,48.581 12.419,48.581 12.419,48.58 L12.419,48.58" fill="#E79159"/>
    <path d="M13.495,47.641 L13.789,47.694 L13.907,47.839 L13.868,47.965 L14.054,47.616 L14.415,47.218 L14.579,47.06 L14.579,47.06 C14.58,47.06 14.58,47.059 14.58,47.059 C14.58,47.058 14.58,47.058 14.579,47.058 L14.469,47.031 L14.247,46.852 L13.854,46.74 L13.417,47.107 L13.303,47.463 L13.493,47.64 C13.493,47.64 13.493,47.64 13.493,47.64 C13.493,47.641 13.493,47.641 13.493,47.642 C13.494,47.642 13.494,47.641 13.495,47.641 L13.495,47.641" fill="#E79159"/>
    <path d="M12.903,53.571 L13.403,53.406 L14.263,52.752 L15.046,51.925 L15.68,51.02 L16.206,50.111 L16.687,49.243 L17.15,48.443 L17.496,47.905 L17.716,47.579 L17.826,47.428 L17.826,47.428 C17.826,47.427 17.826,47.427 17.826,47.427 C17.826,47.426 17.825,47.427 17.825,47.427 L17.699,47.573 L17.425,47.885 L16.977,48.4 L16.298,49.143 L15.557,49.923 L14.802,50.707 L14.114,51.479 L13.554,52.256 L13.07,53.07 L12.902,53.57 C12.902,53.57 12.902,53.57 12.902,53.57 C12.902,53.571 12.902,53.571 12.902,53.572 C12.902,53.572 12.903,53.572 12.903,53.571 L12.903,53.571" fill="#E79159"/>
    <path d="M14.802,53.843 L14.954,54.021 L15.391,54.001 L15.92,53.75 L16.453,53.32 L16.914,52.801 L17.258,52.263 L17.488,51.747 L17.618,51.267 L17.709,50.609 L17.77,49.784 L17.851,49.021 L17.967,48.504 L18.07,48.198 L18.136,48.057 L18.136,48.057 C18.136,48.057 18.136,48.056 18.136,48.056 C18.135,48.056 18.135,48.057 18.135,48.057 L18.047,48.203 L17.871,48.536 L17.613,49.112 L17.233,49.987 L16.796,50.906 L16.44,51.557 L16.219,51.925 L16.041,52.221 L15.912,52.445 L15.823,52.624 L15.72,52.814 L15.516,53.092 L15.114,53.495 L14.802,53.841 C14.802,53.841 14.801,53.842 14.801,53.842 C14.801,53.843 14.801,53.843 14.802,53.843 L14.802,53.843" fill="#E79159"/>
    <path d="M12.197,52.94 L12.44,52.474 L12.733,51.789 L12.945,51.31 L13.133,50.968 L13.307,50.732 L13.461,50.556 L13.609,50.369 L13.816,50.137 L14.259,49.684 L14.989,49.03 L15.759,48.371 L16.289,47.867 L16.597,47.532 L16.731,47.36 L16.731,47.36 C16.731,47.359 16.731,47.359 16.731,47.359 C16.731,47.359 16.73,47.359 16.73,47.359 L16.581,47.514 L16.261,47.797 L15.726,48.153 L14.932,48.571 L14.062,48.996 L13.366,49.404 L12.873,49.792 L12.392,50.275 L12.001,50.829 L11.735,51.393 L11.604,51.935 L11.634,52.431 L11.9,52.826 L12.195,52.942 C12.195,52.942 12.195,52.942 12.195,52.942 C12.195,52.942 12.195,52.942 12.196,52.942 C12.196,52.941 12.197,52.941 12.197,52.94 L12.197,52.94" fill="#E79159"/>
    <path d="M16.653,53.455 L16.828,53.534 L17.215,53.403 L17.642,53.077 L18.007,52.66 L18.281,52.224 L18.482,51.799 L18.613,51.229 L18.606,50.543 L18.544,49.906 L18.52,49.296 L18.575,48.722 L18.64,48.454 L18.64,48.454 C18.64,48.454 18.64,48.454 18.64,48.454 C18.639,48.454 18.638,48.454 18.638,48.455 L18.506,48.75 L18.24,49.424 L17.946,50.179 L17.606,50.96 L17.255,51.685 L17.049,52.131 L16.975,52.35 L16.926,52.521 L16.91,52.667 L16.892,52.852 L16.764,53.173 L16.653,53.454 C16.653,53.454 16.653,53.454 16.653,53.454 C16.652,53.454 16.652,53.455 16.652,53.455 C16.652,53.456 16.652,53.456 16.653,53.455 L16.653,53.455" fill="#E79159"/>
    <path d="M16.556,52.989 L16.606,53.161 L16.802,53.303 L17.052,53.327 L17.331,53.277 L17.76,53.08 L18.351,52.614 L18.862,51.969 L19.142,51.35 L19.248,50.814 L19.232,50.345 L19.101,49.714 L18.863,48.934 L18.713,48.397 L18.643,48.077 L18.608,47.796 L18.613,47.568 L18.633,47.476 L18.633,47.476 C18.633,47.476 18.633,47.475 18.632,47.476 C18.632,47.476 18.631,47.476 18.631,47.477 C18.631,47.477 18.631,47.477 18.631,47.477 L18.596,47.577 L18.545,47.834 L18.51,48.161 L18.478,48.548 L18.412,49.215 L18.243,50.202 L18.045,50.929 L17.895,51.343 L17.771,51.648 L17.707,51.808 L17.743,51.861 L17.706,51.99 L17.555,52.159 L17.39,52.311 L17.146,52.5 L16.798,52.767 L16.557,52.987 C16.556,52.987 16.556,52.987 16.556,52.988 C16.555,52.988 16.555,52.989 16.556,52.989 L16.556,52.989" fill="#E79159"/>
    <path d="M12.665,53.05 L12.891,52.61 L13.085,52.027 L13.232,51.613 L13.352,51.326 L13.452,51.14 L13.53,51.023 L13.581,50.922 L13.653,50.78 L13.882,50.452 L14.324,49.937 L14.822,49.409 L15.159,49.016 L15.339,48.756 L15.415,48.629 L15.415,48.629 C15.415,48.629 15.415,48.628 15.414,48.628 C15.414,48.628 15.413,48.628 15.413,48.629 L15.322,48.748 L15.113,48.96 L14.752,49.236 L14.186,49.567 L13.529,49.928 L12.982,50.302 L12.591,50.664 L12.239,51.105 L11.991,51.574 L11.855,52.026 L11.848,52.436 L11.989,52.786 L12.315,53.042 L12.663,53.051 C12.663,53.051 12.664,53.051 12.664,53.051 C12.665,53.051 12.665,53.05 12.665,53.05 L12.665,53.05" fill="#E79159"/>
    <path d="M13.303,53.358 L13.546,52.949 L13.771,52.402 L13.954,51.997 L14.111,51.694 L14.246,51.467 L14.374,51.28 L14.564,50.967 L14.883,50.46 L15.327,49.86 L15.83,49.229 L16.179,48.757 L16.384,48.451 L16.47,48.299 L16.47,48.299 C16.471,48.299 16.471,48.298 16.47,48.298 C16.47,48.298 16.469,48.298 16.469,48.299 C16.469,48.299 16.469,48.299 16.469,48.299 L16.359,48.443 L16.12,48.716 L15.704,49.084 L15.073,49.55 L14.354,50.058 L13.591,50.709 L13.09,51.324 L12.84,51.791 L12.679,52.254 L12.637,52.682 L12.731,53.053 L12.991,53.333 L13.301,53.359 C13.301,53.359 13.301,53.359 13.301,53.359 C13.301,53.359 13.302,53.359 13.302,53.359 C13.303,53.359 13.303,53.358 13.303,53.358 L13.303,53.358" fill="#E79159"/>
    <path d="M12.995,53.577 L13.137,53.3 L13.271,52.989 L13.35,52.824 L13.415,52.721 L13.478,52.62 L13.461,52.568 L13.343,52.503 L13.241,52.338 L13.206,52.124 L13.201,51.923 L13.193,51.84 L13.193,51.84 C13.193,51.84 13.193,51.839 13.192,51.84 C13.192,51.84 13.191,51.84 13.191,51.841 L13.146,51.938 L12.976,52.159 L12.707,52.423 L12.357,52.766 L12.038,53.209 L11.923,53.637 L12.016,53.862 L12.162,53.953 L12.381,53.96 L12.722,53.795 L12.993,53.579 C12.993,53.579 12.993,53.579 12.993,53.579 C12.994,53.579 12.994,53.579 12.995,53.579 C12.995,53.578 12.995,53.577 12.995,53.577 L12.995,53.577" fill="#E79159"/>
    <path d="M14.908,53.227 L15.057,53.38 L15.457,53.337 L15.938,53.076 L16.409,52.66 L16.795,52.176 L17.081,51.69 L17.303,51.037 L17.376,50.247 L17.371,49.513 L17.4,48.808 L17.476,48.302 L17.576,47.973 L17.636,47.815 L17.636,47.815 C17.637,47.814 17.636,47.814 17.636,47.814 C17.635,47.814 17.635,47.815 17.635,47.815 L17.541,47.983 L17.368,48.34 L17.103,48.931 L16.753,49.774 L16.372,50.617 L15.989,51.364 L15.763,51.796 L15.681,51.984 L15.631,52.124 L15.585,52.274 L15.46,52.513 L15.153,52.892 L14.908,53.225 C14.908,53.225 14.908,53.225 14.908,53.225 C14.908,53.226 14.907,53.226 14.907,53.227 C14.907,53.227 14.907,53.227 14.908,53.227 L14.908,53.227" fill="#E79159"/>
    <path d="M12.115,51.95 L12.278,51.666 L12.446,51.25 L12.557,50.927 L12.653,50.661 L12.775,50.342 L12.941,50.049 L13.059,49.925 L13.132,49.879 L13.222,49.791 L13.41,49.612 L13.891,49.241 L14.681,48.735 L15.288,48.372 L15.667,48.136 L16.004,47.906 L16.287,47.671 L16.404,47.552 L16.404,47.552 C16.405,47.551 16.405,47.551 16.405,47.55 C16.404,47.55 16.404,47.55 16.403,47.551 L16.282,47.653 L16.007,47.827 L15.695,47.969 L15.354,48.079 L14.795,48.217 L13.98,48.413 L13.309,48.648 L12.794,48.936 L12.256,49.379 L11.798,49.941 L11.504,50.515 L11.396,51.023 L11.416,51.38 L11.498,51.603 L11.641,51.802 L11.891,51.943 L12.113,51.951 C12.113,51.951 12.113,51.951 12.113,51.951 C12.113,51.952 12.114,51.952 12.114,51.951 C12.115,51.951 12.115,51.95 12.115,51.95 L12.115,51.95" fill="#E79159"/>
    <path d="M11.829,52.148 L11.944,51.82 L12.043,51.324 L12.093,50.934 L12.113,50.625 L12.153,50.358 L12.195,50.143 L12.245,49.974 L12.295,49.855 L12.379,49.727 L12.448,49.673 L12.487,49.641 L12.657,49.484 L12.972,49.249 L13.38,48.99 L14.071,48.61 L14.752,48.26 L15.167,48.034 L15.525,47.812 L15.81,47.583 L15.92,47.464 L15.92,47.464 C15.921,47.463 15.921,47.463 15.921,47.462 C15.92,47.462 15.92,47.462 15.919,47.463 L15.807,47.566 L15.533,47.739 L15.205,47.875 L14.835,47.98 L14.22,48.105 L13.562,48.225 L13.092,48.338 L12.578,48.524 L12.001,48.853 L11.403,49.387 L10.976,49.995 L10.797,50.435 L10.732,50.732 L10.719,51.013 L10.753,51.281 L10.843,51.535 L10.978,51.785 L11.209,51.994 L11.559,52.139 L11.827,52.149 C11.828,52.15 11.828,52.149 11.829,52.149 C11.829,52.149 11.829,52.148 11.829,52.148 L11.829,52.148" fill="#E79159"/>
  </g>
</svg>
