<?xml version="1.0" encoding="UTF-8"?>
<!DOCTYPE svg PUBLIC "-//W3C//DTD SVG 1.1//EN" "http://www.w3.org/Graphics/SVG/1.1/DTD/svg11.dtd">
<svg version="1.1" xmlns="http://www.w3.org/2000/svg" xmlns:xlink="http://www.w3.org/1999/xlink" x="0" y="0" width="56" height="56" viewBox="0, 0, 56, 56">
  <g id="Layer_1">
    <path d="M44.425,24.414 L24.414,44.425 C21.145,47.694 15.844,47.694 12.575,44.425 L12.575,44.425 C9.306,41.156 9.306,35.855 12.575,32.586 L32.586,12.575 C35.855,9.306 41.156,9.306 44.425,12.575 L44.425,12.575 C47.694,15.844 47.694,21.145 44.425,24.414" fill-opacity="0" stroke="#E79159" stroke-width="1" stroke-linejoin="bevel"/>
    <path d="M32.709,35.939 C26.185,35.939 20.896,30.954 20.896,24.806" fill-opacity="0" stroke="#E79159" stroke-width="1" stroke-linecap="round" stroke-linejoin="round"/>
    <path d="M26.946,25.341 L27.986,25.53 L30.067,25.025 L32.096,23.907 L34.053,22.672 L35.959,21.456 L37.35,20.56 L38.269,19.976 L39.223,19.374 L40.206,18.743 L41.295,17.816 L42.54,16.617 L43.237,15.917 L43.237,15.917 C43.238,15.917 43.239,15.915 43.24,15.914 C43.24,15.913 43.24,15.912 43.238,15.912 C43.238,15.912 43.238,15.912 43.238,15.912 L42.828,15.595 L41.886,15.234 L40.824,15.233 L39.689,15.606 L38.554,16.079 L37.41,16.632 L35.749,17.538 L33.647,18.859 L31.645,20.254 L29.739,21.787 L27.883,23.885 L26.946,25.337 C26.946,25.337 26.946,25.337 26.946,25.337 C26.945,25.338 26.943,25.339 26.944,25.341 C26.944,25.342 26.945,25.342 26.946,25.341 L26.946,25.341" fill="#E79159"/>
    <path d="M31.33,28.774 L31.962,28.799 L33.11,28.402 L34.709,27.39 L36.55,25.732 L37.783,24.511 L38.521,23.787 L39.226,23.107 L39.892,22.486 L40.534,21.926 L41.169,21.406 L41.832,20.914 L42.567,20.408 L43.214,19.861 L43.751,19.379 L44.395,18.85 L45.154,18.225 L45.574,17.89 L45.574,17.89 C45.575,17.89 45.577,17.888 45.577,17.887 C45.578,17.885 45.578,17.884 45.576,17.885 C45.576,17.885 45.576,17.885 45.576,17.885 L45.419,17.64 L45.045,17.242 L44.583,17 L44.042,16.859 L43.118,16.924 L41.84,17.401 L40.575,18.062 L39.359,18.845 L38.215,19.711 L37.152,20.618 L36.175,21.545 L35.271,22.483 L34.09,23.808 L32.76,25.522 L31.974,26.92 L31.512,28.031 L31.329,28.771 C31.329,28.771 31.329,28.771 31.329,28.771 C31.327,28.772 31.327,28.774 31.327,28.775 C31.327,28.775 31.329,28.775 31.33,28.774 L31.33,28.774" fill="#E79159"/>
    <path d="M29.285,28.481 L30.095,28.239 L31.245,27.67 L32.172,27.133 L32.933,26.567 L33.641,26.001 L34.337,25.448 L35.03,24.895 L35.732,24.347 L36.448,23.793 L37.184,23.234 L37.944,22.653 L38.733,22.067 L39.999,21.121 L41.833,19.26 L42.872,17.889 L42.872,17.889 C42.873,17.889 42.875,17.887 42.875,17.886 C42.875,17.885 42.874,17.884 42.872,17.885 C42.872,17.885 42.872,17.885 42.872,17.885 L41.958,17.515 L39.977,17.76 L38.466,18.492 L37.445,19.076 L36.428,19.707 L35.423,20.405 L34.432,21.156 L33.464,21.959 L32.523,22.81 L31.623,23.712 L30.774,24.655 L30.016,25.655 L29.464,26.742 L29.176,27.856 L29.282,28.48 C29.282,28.48 29.282,28.48 29.282,28.48 C29.281,28.481 29.281,28.482 29.282,28.483 C29.283,28.483 29.284,28.482 29.285,28.481 L29.285,28.481" fill="#E79159"/>
    <path d="M27.386,24.755 L28.22,24.551 L29.337,24.071 L30.152,23.647 L30.829,23.243 L31.447,22.848 L32.049,22.453 L32.664,22.058 L33.305,21.661 L33.981,21.248 L34.699,20.815 L35.881,20.119 L37.595,19.085 L39.589,17.352 L40.753,15.99 L40.753,15.99 C40.754,15.99 40.756,15.988 40.756,15.987 C40.756,15.985 40.756,15.985 40.754,15.985 L40.006,15.445 L38.275,15.348 L36.394,16.001 L34.966,16.647 L33.983,17.162 L32.991,17.75 L31.995,18.416 L31.004,19.154 L30.031,19.973 L29.105,20.881 L28.268,21.876 L27.6,22.959 L27.264,24.101 L27.383,24.754 C27.383,24.754 27.383,24.754 27.383,24.754 C27.382,24.755 27.382,24.756 27.382,24.757 C27.383,24.757 27.385,24.757 27.386,24.755 L27.386,24.755" fill="#E79159"/>
    <path d="M27.678,24.244 L28.242,24.262 L29.258,23.966 L30.547,23.104 L32.008,21.753 L33.25,20.44 L34.052,19.622 L34.488,19.177 L34.924,18.753 L35.336,18.368 L35.753,18.006 L36.223,17.583 L36.868,16.915 L37.847,15.924 L38.488,15.333 L38.488,15.333 C38.489,15.333 38.49,15.331 38.491,15.33 C38.492,15.329 38.491,15.328 38.49,15.328 L38.271,14.873 L37.581,14.314 L36.62,14.272 L35.545,14.649 L34.472,15.238 L33.446,15.934 L32.492,16.699 L31.581,17.53 L30.435,18.743 L29.193,20.243 L28.269,21.667 L27.815,22.758 L27.682,23.662 L27.676,24.242 C27.674,24.243 27.674,24.245 27.674,24.245 C27.675,24.246 27.676,24.245 27.678,24.244 L27.678,24.244" fill="#E79159"/>
    <path d="M27.531,24.025 L28.08,24.112 L29.061,23.877 L30.417,23.142 L31.972,21.857 L33.342,20.568 L34.253,19.73 L34.781,19.241 L35.316,18.763 L35.839,18.311 L36.373,17.873 L36.953,17.38 L37.671,16.654 L38.664,15.599 L39.291,14.967 L39.291,14.967 C39.293,14.967 39.294,14.966 39.295,14.964 C39.295,14.963 39.295,14.962 39.294,14.962 L39.017,14.556 L38.253,14.079 L37.277,14.087 L36.22,14.466 L35.169,15.024 L34.156,15.672 L33.198,16.382 L32.272,17.153 L31.065,18.299 L29.701,19.747 L28.592,21.175 L27.974,22.379 L27.639,23.358 L27.53,24.022 C27.53,24.022 27.53,24.022 27.53,24.022 C27.528,24.024 27.528,24.025 27.528,24.026 C27.529,24.027 27.53,24.026 27.531,24.025 L27.531,24.025" fill="#E79159"/>
    <path d="M25.195,24.682 L26.038,24.348 L27.118,23.759 L27.879,23.296 L28.491,22.886 L29.012,22.48 L29.526,22.086 L30.047,21.682 L30.592,21.268 L31.498,20.574 L32.796,19.591 L34.193,18.476 L35.684,16.707 L36.443,15.405 L36.443,15.405 C36.445,15.404 36.446,15.403 36.446,15.402 C36.446,15.401 36.445,15.4 36.443,15.401 L35.639,15.07 L34.017,15.224 L32.341,16.056 L30.641,17.101 L29.364,18.018 L28.493,18.732 L27.634,19.51 L26.808,20.358 L26.033,21.261 L25.396,22.235 L24.959,23.237 L24.897,24.202 L25.191,24.681 C25.191,24.681 25.191,24.681 25.191,24.681 C25.19,24.683 25.19,24.684 25.191,24.684 C25.192,24.684 25.194,24.683 25.195,24.682 L25.195,24.682" fill="#E79159"/>
    <path d="M26.218,23.001 L26.999,22.677 L28.023,22.104 L28.793,21.641 L29.355,21.208 L29.846,20.796 L30.317,20.403 L30.774,20.013 L31.238,19.627 L31.711,19.236 L32.205,18.836 L32.72,18.413 L33.269,17.982 L33.854,17.523 L34.479,17.016 L35.191,16.206 L36.034,15.11 L36.516,14.456 L36.516,14.456 C36.517,14.455 36.519,14.454 36.519,14.453 C36.519,14.451 36.518,14.451 36.517,14.451 L36.223,14.129 L35.53,13.739 L34.727,13.693 L33.863,14.006 L32.986,14.421 L32.105,14.918 L31.225,15.474 L30.36,16.106 L29.514,16.796 L28.701,17.54 L27.929,18.328 L27.218,19.157 L26.58,20.014 L26.067,20.894 L25.819,21.787 L25.887,22.611 L26.214,23.001 C26.214,23.001 26.214,23.001 26.214,23.001 C26.213,23.002 26.213,23.004 26.214,23.004 C26.215,23.004 26.217,23.003 26.218,23.001 L26.218,23.001" fill="#E79159"/>
    <path d="M26.582,21.468 L27.774,21.14 L29.535,20.142 L30.753,19.007 L31.545,18.294 L31.983,17.893 L32.419,17.499 L32.835,17.139 L33.243,16.788 L33.673,16.451 L34.149,16.094 L34.708,15.691 L35.462,14.976 L36.512,13.934 L37.173,13.287 L37.173,13.287 C37.174,13.287 37.176,13.286 37.176,13.284 C37.177,13.283 37.176,13.282 37.175,13.282 C37.175,13.282 37.175,13.282 37.175,13.282 L36.953,12.815 L36.302,12.232 L35.438,12.099 L34.455,12.393 L33.459,12.838 L32.481,13.397 L31.537,14.028 L30.652,14.726 L29.832,15.457 L29.052,16.238 L28.073,17.382 L27.004,18.834 L26.514,20.477 L26.579,21.466 C26.578,21.467 26.578,21.469 26.579,21.469 C26.58,21.47 26.581,21.469 26.582,21.468 L26.582,21.468" fill="#E79159"/>
    <path d="M33.301,30.967 L33.348,31.362 L33.618,31.746 L34.19,31.963 L35.124,31.808 L36.18,31.325 L37.213,30.602 L38.158,29.798 L39.296,28.622 L40.52,27.136 L41.239,26.174 L41.598,25.678 L41.913,25.234 L42.189,24.822 L42.416,24.211 L42.822,23.267 L43.164,22.638 L43.164,22.638 C43.166,22.637 43.167,22.636 43.167,22.634 C43.167,22.633 43.166,22.633 43.165,22.634 C43.165,22.634 43.165,22.634 43.165,22.634 L42.768,22.399 L41.789,22.34 L40.738,22.725 L39.823,23.4 L39.018,24.114 L38.306,24.829 L37.472,25.737 L36.626,26.745 L36.129,27.353 L35.91,27.661 L35.698,27.964 L35.407,28.403 L34.877,29.046 L34.26,29.767 L33.691,30.438 L33.303,30.962 C33.302,30.962 33.3,30.963 33.3,30.965 C33.299,30.966 33.3,30.967 33.301,30.967 L33.301,30.967" fill="#E79159"/>
    <path d="M34.032,31.113 L34.158,31.666 L34.768,31.996 L35.672,31.836 L36.642,31.279 L37.543,30.564 L38.332,29.814 L39.253,28.769 L40.222,27.512 L40.746,26.767 L40.966,26.433 L41.141,26.148 L41.251,25.871 L41.377,25.387 L41.771,24.526 L42.141,23.953 L42.141,23.953 C42.142,23.953 42.144,23.951 42.144,23.95 C42.144,23.949 42.144,23.948 42.142,23.948 L41.901,23.605 L41.137,23.324 L40.182,23.565 L39.276,24.133 L38.487,24.794 L37.782,25.484 L36.966,26.374 L36.171,27.365 L35.73,27.964 L35.569,28.248 L35.472,28.491 L35.385,28.797 L35.157,29.38 L34.551,30.313 L34.033,31.108 C34.032,31.108 34.03,31.11 34.03,31.111 C34.03,31.113 34.03,31.113 34.032,31.113 L34.032,31.113" fill="#E79159"/>
    <path d="M30.379,32.354 L30.598,32.839 L31.205,33.114 L31.952,33.021 L32.719,32.634 L33.763,31.901 L35.005,30.742 L36.079,29.537 L36.925,28.402 L37.567,27.352 L37.736,26.153 L37.613,25.34 L37.613,25.34 C37.615,25.339 37.615,25.337 37.614,25.337 C37.614,25.336 37.612,25.337 37.611,25.338 L36.608,25.435 L35.088,26.124 L34.094,27.012 L33.308,27.813 L32.704,28.494 L32.174,29.119 L31.795,29.626 L31.558,30.009 L31.249,30.631 L30.742,31.562 L30.38,32.35 C30.38,32.35 30.38,32.35 30.38,32.35 C30.379,32.351 30.377,32.352 30.377,32.354 C30.377,32.355 30.378,32.355 30.379,32.354 L30.379,32.354" fill="#E79159"/>
    <path d="M29.869,30.893 L30.75,31.033 L32.231,30.623 L34.015,29.212 L36.14,27.088 L37.856,24.701 L38.052,22.929 L38.052,22.929 C38.053,22.928 38.053,22.926 38.053,22.926 C38.052,22.925 38.051,22.926 38.049,22.927 L36.235,23.18 L33.948,24.862 L32.027,26.769 L30.707,28.309 L30.066,29.812 L29.867,30.89 C29.867,30.89 29.867,30.89 29.867,30.89 C29.866,30.891 29.865,30.892 29.866,30.893 C29.866,30.894 29.868,30.894 29.869,30.893 L29.869,30.893" fill="#E79159"/>
    <path d="M30.527,29.651 L31.885,29.951 L33.628,29.032 L35.902,26.997 L36.882,24.318 L36.882,24.318 C36.884,24.317 36.884,24.315 36.884,24.314 C36.884,24.313 36.882,24.313 36.881,24.315 L34.646,24.257 L32.132,26.198 L30.725,27.978 L30.525,29.648 C30.525,29.648 30.525,29.648 30.525,29.648 C30.524,29.649 30.523,29.65 30.523,29.651 C30.524,29.652 30.525,29.652 30.527,29.651 L30.527,29.651" fill="#E79159"/>
    <path d="M28.263,30.454 L29.292,30.322 L30.692,29.823 L31.642,29.138 L32.51,28.374 L33.823,27.109 L35.459,25.056 L35.86,23.222 L35.86,23.222 C35.861,23.221 35.862,23.219 35.861,23.218 C35.861,23.217 35.859,23.218 35.858,23.219 L34.282,23.113 L31.985,24.537 L30.403,25.936 L29.384,26.993 L28.492,28.174 L28.103,29.599 L28.26,30.452 C28.26,30.452 28.26,30.452 28.26,30.452 C28.258,30.453 28.258,30.455 28.259,30.455 C28.26,30.456 28.261,30.455 28.263,30.454 L28.263,30.454" fill="#E79159"/>
    <path d="M27.897,30.089 L28.687,30.306 L29.999,30.039 L31.516,28.867 L33.256,27.136 L34.325,25.778 L34.706,24.516 L34.764,23.587 L34.764,23.587 C34.765,23.586 34.766,23.584 34.765,23.583 C34.765,23.583 34.764,23.583 34.762,23.584 C34.762,23.584 34.762,23.584 34.762,23.584 L33.934,23.436 L32.577,23.774 L31.096,24.879 L29.473,26.476 L28.432,27.764 L27.996,29.092 L27.895,30.086 C27.895,30.086 27.895,30.086 27.895,30.086 C27.894,30.087 27.893,30.089 27.893,30.09 C27.894,30.09 27.895,30.09 27.897,30.089 L27.897,30.089" fill="#E79159"/>
    <path d="M26.582,30.088 L27.59,29.978 L28.948,29.515 L30.271,28.462 L31.898,26.914 L33.365,24.983 L33.668,23.222 L33.668,23.222 C33.669,23.22 33.67,23.219 33.67,23.218 C33.669,23.217 33.668,23.218 33.666,23.219 L32.12,23.099 L29.922,24.478 L27.973,26.324 L26.705,27.911 L26.389,29.267 L26.579,30.087 C26.578,30.088 26.578,30.089 26.579,30.09 C26.579,30.09 26.581,30.09 26.582,30.088 L26.582,30.088" fill="#E79159"/>
    <path d="M28.263,28.627 L30.133,28.098 L31.687,26.901 L32.387,26.188 L33,25.56 L33.352,25.174 L33.55,24.943 L33.798,24.656 L34.072,24.32 L34.41,23.687 L34.923,22.732 L35.274,22.127 L35.274,22.127 C35.275,22.126 35.277,22.125 35.277,22.123 C35.277,22.122 35.276,22.122 35.275,22.122 C35.275,22.122 35.275,22.122 35.275,22.122 L35.067,21.761 L34.495,21.344 L33.791,21.311 L33.064,21.633 L32.348,22.055 L31.615,22.581 L30.63,23.407 L29.551,24.511 L28.644,25.627 L27.891,27.264 L28.259,28.626 C28.259,28.626 28.259,28.626 28.259,28.626 C28.258,28.627 28.258,28.629 28.259,28.629 C28.26,28.629 28.262,28.628 28.263,28.627 L28.263,28.627" fill="#E79159"/>
    <path d="M26.144,27.677 L27.97,27.284 L29.557,26.166 L30.343,25.412 L31.078,24.673 L31.758,23.94 L32.414,23.166 L33.019,21.875 L33.375,20.811 L33.375,20.811 C33.377,20.81 33.378,20.809 33.378,20.808 C33.377,20.807 33.376,20.807 33.375,20.807 L32.683,20.433 L31.27,20.617 L30.002,21.432 L28.839,22.387 L27.8,23.413 L26.867,24.484 L25.952,26.175 L26.141,27.676 C26.141,27.676 26.141,27.676 26.141,27.676 C26.14,27.677 26.14,27.679 26.14,27.679 C26.141,27.68 26.143,27.679 26.144,27.677 L26.144,27.677" fill="#E79159"/>
    <path d="M26.581,26.436 L29.882,25.85 L31.915,22.126 L31.915,22.126 C31.916,22.125 31.917,22.123 31.916,22.122 C31.916,22.122 31.915,22.122 31.913,22.123 L28.613,22.709 L26.58,26.433 C26.58,26.433 26.58,26.433 26.58,26.433 C26.579,26.434 26.578,26.436 26.578,26.437 C26.579,26.438 26.58,26.437 26.581,26.436 L26.581,26.436" fill="#E79159"/>
    <path d="M24.463,25.779 L25.332,25.893 L26.772,25.448 L28.38,24.106 L29.741,22.777 L30.469,21.991 L31.146,21.189 L31.568,20.334 L31.902,19.421 L32.133,18.839 L32.133,18.839 C32.135,18.838 32.136,18.836 32.136,18.835 C32.136,18.834 32.134,18.834 32.133,18.835 L31.813,18.593 L31.071,18.396 L29.938,18.695 L28.634,19.557 L27.464,20.542 L26.067,21.984 L24.946,23.431 L24.537,24.791 L24.461,25.776 C24.46,25.777 24.459,25.779 24.46,25.779 C24.46,25.78 24.462,25.78 24.463,25.779 L24.463,25.779" fill="#E79159"/>
    <path d="M25.705,24.245 L26.411,24.558 L27.768,24.288 L28.941,23.438 L29.901,22.556 L30.695,21.773 L31.34,21.09 L31.716,20.643 L31.941,20.336 L32.238,19.713 L32.69,18.777 L33.009,18.182 L33.009,18.182 C33.011,18.181 33.012,18.18 33.012,18.178 C33.012,18.177 33.012,18.176 33.01,18.177 L32.786,17.834 L32.187,17.456 L31.476,17.454 L30.728,17.822 L29.705,18.474 L28.567,19.378 L27.639,20.269 L26.896,21.085 L26.346,21.899 L25.922,23.198 L25.704,24.241 C25.704,24.241 25.704,24.241 25.704,24.241 C25.702,24.242 25.701,24.244 25.702,24.245 C25.702,24.246 25.703,24.246 25.705,24.245 L25.705,24.245" fill="#E79159"/>
    <path d="M23.952,24.902 L26.46,24.513 L29.054,22.384 L30.471,20.581 L30.819,18.838 L30.819,18.838 C30.82,18.837 30.821,18.836 30.821,18.835 C30.82,18.834 30.819,18.834 30.817,18.835 C30.817,18.835 30.817,18.835 30.817,18.835 L29.394,18.55 L27.334,19.729 L24.821,22.189 L23.95,24.899 C23.949,24.9 23.948,24.902 23.948,24.903 C23.949,24.903 23.95,24.903 23.952,24.902 L23.952,24.902" fill="#E79159"/>
    <path d="M24.171,24.171 L24.89,24.444 L26.075,24.266 L27.355,23.267 L28.398,22.237 L28.918,21.617 L29.35,20.982 L29.602,19.91 L29.723,18.985 L29.723,18.985 C29.724,18.984 29.725,18.982 29.725,18.981 C29.725,18.98 29.723,18.98 29.722,18.981 L29.073,18.617 L27.85,18.741 L26.876,19.379 L26.037,20.087 L25.085,21.1 L24.356,22.133 L24.161,23.264 L24.169,24.169 C24.168,24.17 24.167,24.171 24.168,24.172 C24.168,24.173 24.17,24.173 24.171,24.171 L24.171,24.171" fill="#E79159"/>
    <path d="M23.878,23.66 L24.518,24.032 L25.805,23.789 L26.913,22.92 L27.76,22.048 L28.406,21.311 L28.862,20.722 L29.061,20.387 L29.139,20.173 L29.248,19.658 L29.499,18.816 L29.722,18.255 L29.722,18.255 C29.723,18.254 29.725,18.252 29.725,18.251 C29.725,18.25 29.724,18.25 29.722,18.25 C29.722,18.25 29.722,18.25 29.722,18.25 L29.498,17.924 L28.89,17.598 L28.186,17.653 L27.489,18.057 L26.584,18.723 L25.651,19.57 L24.958,20.333 L24.469,20.968 L24.199,21.557 L24.019,22.666 L23.877,23.657 C23.877,23.657 23.877,23.657 23.877,23.657 C23.876,23.658 23.875,23.66 23.875,23.661 C23.876,23.661 23.877,23.661 23.878,23.66 L23.878,23.66" fill="#E79159"/>
    <path d="M24.682,23.807 L25.974,24.691 L28.081,23.181 L28.7,20.884 L28.7,20.884 C28.701,20.883 28.702,20.882 28.702,20.881 C28.702,20.88 28.7,20.88 28.699,20.881 L27.318,20.057 L25.424,21.493 L24.681,23.803 C24.681,23.803 24.681,23.803 24.681,23.803 C24.68,23.804 24.679,23.805 24.679,23.806 C24.679,23.808 24.68,23.808 24.682,23.807 L24.682,23.807" fill="#E79159"/>
    <path d="M17.802,45.263 L18.108,45.674 L18.828,45.888 L20.008,45.669 L21.6,44.799 L23.149,43.666 L24.597,42.442 L25.921,41.152 L27.598,39.066 L28.17,37.032 L28.17,37.032 C28.172,37.031 28.172,37.029 28.172,37.028 C28.171,37.028 28.17,37.028 28.168,37.029 C28.168,37.029 28.168,37.029 28.168,37.029 L26.304,37.23 L24.3,38.521 L23.127,39.449 L22.025,40.375 L20.955,41.288 L19.844,42.326 L18.932,43.426 L18.222,44.46 L17.802,45.259 C17.801,45.26 17.8,45.261 17.799,45.263 C17.799,45.264 17.8,45.264 17.802,45.263 L17.802,45.263" fill="#E79159"/>
    <path d="M17.592,44.562 L18.041,44.814 L18.908,44.749 L19.809,44.363 L20.623,43.763 L21.673,42.79 L22.868,41.427 L23.892,40.111 L24.731,38.916 L25.418,37.838 L25.685,36.956 L25.776,36.13 L25.858,35.596 L25.858,35.596 C25.86,35.595 25.861,35.593 25.86,35.592 C25.86,35.592 25.858,35.592 25.857,35.593 C25.857,35.593 25.857,35.593 25.857,35.593 L25.357,35.559 L24.326,35.772 L23.002,36.536 L21.697,37.774 L20.628,38.975 L19.763,40.069 L19.018,41.066 L18.541,41.794 L18.285,42.278 L18.067,42.927 L17.756,43.841 L17.591,44.559 C17.591,44.559 17.591,44.559 17.591,44.559 C17.59,44.56 17.589,44.562 17.589,44.563 C17.59,44.564 17.591,44.563 17.592,44.562 L17.592,44.562" fill="#E79159"/>
    <path d="M16.613,43.791 L17.84,43.358 L19.625,42.188 L20.879,40.88 L21.938,39.636 L22.906,38.502 L23.544,37.747 L23.936,37.286 L24.359,36.79 L24.792,36.267 L25.207,35.51 L25.713,34.461 L26.033,33.81 L26.033,33.81 C26.034,33.809 26.035,33.808 26.035,33.807 C26.035,33.805 26.034,33.805 26.033,33.806 L25.599,33.627 L24.651,33.568 L23.678,33.862 L22.784,34.443 L21.934,35.1 L21.103,35.836 L19.983,36.95 L18.721,38.417 L17.636,39.86 L16.786,41.287 L16.458,42.86 L16.61,43.79 C16.61,43.79 16.61,43.79 16.61,43.79 C16.608,43.791 16.608,43.792 16.609,43.793 C16.61,43.793 16.612,43.792 16.613,43.791 L16.613,43.791" fill="#E79159"/>
    <path d="M15.773,43.615 L17.036,42.963 L18.694,41.717 L19.725,40.551 L20.59,39.452 L21.4,38.42 L22.157,37.429 L22.884,36.428 L23.424,35.037 L23.652,33.985 L23.652,33.985 C23.653,33.984 23.654,33.982 23.654,33.981 C23.653,33.98 23.652,33.981 23.65,33.982 C23.65,33.982 23.65,33.982 23.65,33.982 L22.661,33.938 L20.887,34.662 L19.444,35.899 L18.16,37.255 L17.042,38.666 L16.075,40.092 L15.356,41.521 L15.329,42.925 L15.769,43.615 C15.769,43.615 15.769,43.615 15.769,43.615 C15.768,43.616 15.768,43.618 15.769,43.618 C15.77,43.618 15.772,43.617 15.773,43.615 L15.773,43.615" fill="#E79159"/>
    <path d="M15.387,42.949 L16.188,42.573 L17.21,41.927 L18.285,41.093 L19.287,40.074 L20.16,39.098 L21.044,38.093 L21.937,37.012 L23.211,35.118 L23.477,33.249 L23.477,33.249 C23.478,33.248 23.479,33.246 23.478,33.245 C23.478,33.245 23.476,33.245 23.475,33.247 L21.535,33.651 L19.508,35.17 L18.246,36.399 L17.039,37.758 L15.912,39.225 L15.033,40.75 L14.789,41.904 L14.981,42.627 L15.383,42.95 C15.382,42.951 15.383,42.952 15.384,42.952 C15.385,42.952 15.387,42.951 15.387,42.949 L15.387,42.949" fill="#E79159"/>
    <path d="M14.057,42.389 L14.815,41.953 L15.83,41.189 L16.931,40.146 L17.951,38.859 L18.805,37.666 L19.396,36.863 L19.738,36.374 L20.09,35.878 L20.423,35.405 L20.737,34.948 L21.023,34.472 L21.229,33.789 L21.525,32.943 L21.725,32.409 L21.725,32.409 C21.726,32.408 21.727,32.407 21.727,32.406 C21.727,32.404 21.726,32.404 21.725,32.405 C21.725,32.405 21.725,32.405 21.725,32.405 L21.344,32.262 L20.486,32.277 L19.555,32.553 L18.722,33.124 L17.938,33.793 L17.196,34.516 L16.5,35.276 L15.823,36.093 L14.945,37.325 L13.968,38.933 L13.321,40.482 L13.294,41.543 L13.618,42.151 L14.052,42.39 C14.052,42.391 14.052,42.392 14.053,42.392 C14.054,42.392 14.056,42.39 14.057,42.389 L14.057,42.389" fill="#E79159"/>
    <path d="M13.741,40.883 L15.006,40.139 L16.632,38.837 L17.603,37.71 L18.408,36.675 L19.164,35.719 L19.872,34.812 L20.358,34.161 L20.674,33.707 L20.955,33.003 L21.259,32.048 L21.445,31.463 L21.445,31.463 C21.446,31.462 21.447,31.461 21.447,31.46 C21.447,31.459 21.446,31.459 21.444,31.46 L21.01,31.332 L20.105,31.326 L19.217,31.615 L18.403,32.194 L17.264,33.166 L15.933,34.543 L14.785,35.993 L13.814,37.466 L13.128,38.93 L13.207,40.282 L13.737,40.883 C13.737,40.883 13.737,40.883 13.737,40.883 C13.736,40.885 13.737,40.886 13.738,40.886 C13.739,40.886 13.741,40.884 13.741,40.883 L13.741,40.883" fill="#E79159"/>
    <path d="M13.566,39.201 L14.363,38.699 L15.344,37.952 L16.055,37.398 L16.524,36.952 L16.909,36.556 L17.267,36.187 L17.603,35.827 L17.941,35.467 L18.496,34.863 L19.271,34.024 L20.076,33.102 L20.822,31.645 L21.165,30.553 L21.165,30.553 C21.166,30.552 21.167,30.55 21.167,30.549 C21.167,30.548 21.165,30.548 21.164,30.549 L20.357,30.317 L18.816,30.655 L17.386,31.637 L16.019,32.818 L15.052,33.81 L14.428,34.554 L13.847,35.331 L13.339,36.132 L12.915,36.942 L12.637,37.739 L12.668,38.463 L13.041,39.033 L13.562,39.203 C13.562,39.203 13.562,39.203 13.562,39.203 C13.561,39.204 13.562,39.205 13.563,39.204 C13.564,39.204 13.566,39.203 13.566,39.201 L13.566,39.201" fill="#E79159"/>
    <path d="M13.251,38.606 L14.057,38.1 L15.038,37.329 L15.751,36.718 L16.22,36.208 L16.813,35.491 L17.485,34.628 L18.112,33.847 L18.731,33.045 L19.369,32.16 L19.846,30.826 L20.009,29.817 L20.009,29.817 C20.011,29.816 20.011,29.814 20.011,29.813 C20.011,29.813 20.009,29.813 20.008,29.814 L19.098,29.718 L17.491,30.275 L16.146,31.371 L14.897,32.649 L13.791,34.05 L12.878,35.478 L12.392,36.554 L12.197,37.278 L12.293,37.93 L12.706,38.453 L13.247,38.607 C13.247,38.607 13.247,38.607 13.247,38.607 C13.246,38.609 13.247,38.609 13.248,38.609 C13.249,38.609 13.251,38.607 13.251,38.606 L13.251,38.606" fill="#E79159"/>
    <path d="M12.761,36.785 L14.009,36.103 L15.596,34.851 L16.517,33.748 L17.246,32.771 L17.897,31.924 L18.291,31.401 L18.517,31.092 L18.782,30.731 L19.059,30.334 L19.321,29.692 L19.684,28.743 L19.939,28.136 L19.939,28.136 C19.94,28.135 19.941,28.134 19.941,28.133 C19.941,28.132 19.94,28.131 19.938,28.132 C19.938,28.132 19.938,28.132 19.938,28.132 L19.572,27.91 L18.741,27.773 L17.867,27.999 L17.064,28.52 L16.302,29.124 L15.549,29.825 L14.555,30.889 L13.49,32.28 L12.629,33.652 L12.053,34.981 L12.209,36.214 L12.756,36.785 C12.756,36.787 12.756,36.788 12.757,36.788 C12.758,36.788 12.76,36.787 12.761,36.785 L12.761,36.785" fill="#E79159"/>
    <path d="M15.142,32.163 L16.695,32.104 L17.919,31.406 L18.433,30.948 L18.865,30.53 L19.216,30.129 L19.541,29.673 L19.944,28.601 L20.324,27.576 L20.324,27.576 C20.325,27.575 20.326,27.574 20.326,27.573 C20.327,27.571 20.326,27.571 20.324,27.572 L19.923,26.945 L18.841,26.777 L17.771,27.346 L16.803,28.071 L15.977,28.857 L15.28,29.661 L14.743,30.913 L15.139,32.161 C15.139,32.161 15.139,32.161 15.139,32.161 C15.138,32.163 15.137,32.164 15.138,32.164 C15.139,32.165 15.14,32.164 15.142,32.163 L15.142,32.163" fill="#E79159"/>
    <path d="M22.496,43.302 L23.926,43.677 L26.279,42.552 L28.572,40.951 L30.809,38.758 L31.672,36.682 L31.672,36.682 C31.674,36.681 31.675,36.679 31.674,36.678 C31.674,36.677 31.673,36.677 31.671,36.678 C31.671,36.678 31.671,36.678 31.671,36.678 L30.277,36.299 L27.925,37.422 L25.59,39.087 L23.337,41.25 L22.495,43.298 C22.495,43.298 22.495,43.298 22.495,43.298 C22.493,43.299 22.493,43.301 22.493,43.302 C22.493,43.303 22.494,43.303 22.496,43.302 L22.496,43.302" fill="#E79159"/>
    <path d="M24.457,38.923 L25.246,39.747 L26.485,39.286 L27.154,38.778 L27.364,38.513 L27.517,38.186 L27.732,37.233 L28.029,36.262 L28.029,36.262 C28.03,36.262 28.031,36.26 28.032,36.259 C28.032,36.257 28.031,36.257 28.03,36.258 L27.822,35.521 L27.07,35.114 L26.306,35.416 L25.633,35.842 L25.015,36.431 L24.546,37.426 L24.456,38.92 C24.456,38.92 24.456,38.92 24.456,38.92 C24.455,38.921 24.454,38.923 24.454,38.924 C24.454,38.925 24.456,38.925 24.457,38.923 L24.457,38.923" fill="#E79159"/>
    <path d="M24.842,38.643 L25.25,39.258 L25.722,39.848 L26.056,39.902 L26.464,39.855 L27.317,39.518 L28.852,38.472 L30.2,36.578 L30.2,36.578 C30.201,36.577 30.203,36.576 30.203,36.574 C30.204,36.573 30.203,36.572 30.202,36.573 C30.202,36.573 30.202,36.573 30.202,36.573 L30.151,35.076 L28.916,34.813 L27.732,35.141 L26.811,35.619 L25.846,36.289 L25.052,37.61 L24.842,38.64 C24.842,38.64 24.842,38.64 24.842,38.64 C24.84,38.641 24.839,38.642 24.839,38.643 C24.84,38.644 24.841,38.644 24.842,38.643 L24.842,38.643" fill="#E79159"/>
    <path d="M27.747,30.764 L27.615,31.235 L27.621,31.792 L27.872,32.297 L28.472,32.588 L29.335,32.47 L30.289,32.09 L31.228,31.554 L32.394,30.677 L33.65,29.522 L34.339,28.803 L34.622,28.481 L34.848,28.206 L35.033,27.909 L35.313,27.368 L35.922,26.481 L36.399,25.93 L36.399,25.93 C36.4,25.93 36.402,25.929 36.402,25.927 C36.403,25.926 36.402,25.925 36.401,25.925 L36.289,25.474 L35.761,24.931 L34.952,24.899 L34.088,25.25 L33.295,25.732 L32.582,26.247 L31.795,26.873 L31.075,27.527 L30.715,27.893 L30.598,28.078 L30.454,28.3 L30.171,28.635 L29.565,29.204 L28.867,29.783 L28.218,30.32 L27.751,30.759 C27.75,30.758 27.748,30.759 27.747,30.761 C27.746,30.762 27.746,30.764 27.747,30.764 L27.747,30.764" fill="#E79159"/>
    <path d="M27.854,29.047 L27.966,29.553 L28.429,29.913 L29.087,29.897 L29.771,29.586 L30.661,28.994 L31.659,28.111 L32.441,27.323 L32.972,26.714 L33.188,26.39 L33.26,26.162 L33.438,25.653 L33.832,24.78 L34.158,24.214 L34.158,24.214 C34.159,24.213 34.161,24.212 34.161,24.211 C34.161,24.209 34.161,24.209 34.159,24.209 C34.159,24.209 34.159,24.209 34.159,24.209 L34.026,23.81 L33.534,23.34 L32.864,23.317 L32.121,23.646 L31.165,24.262 L30.197,25.042 L29.515,25.712 L29.042,26.26 L28.798,26.666 L28.701,26.963 L28.551,27.494 L28.175,28.33 L27.854,29.043 C27.853,29.043 27.852,29.045 27.852,29.046 C27.851,29.047 27.852,29.048 27.854,29.047 L27.854,29.047" fill="#E79159"/>
    <path d="M26.977,29.783 L26.948,30.236 L27.145,30.754 L27.486,31.086 L27.95,31.234 L28.507,31.234 L29.137,31.082 L29.81,30.818 L30.497,30.443 L31.427,29.793 L32.588,28.797 L33.626,27.71 L34.499,26.671 L35.548,25.274 L36.407,24.076 L36.824,23.503 L37.163,23.05 L37.307,22.834 L37.353,22.649 L37.504,22.342 L37.75,21.963 L38.13,21.498 L38.663,20.966 L38.991,20.677 L38.991,20.677 C38.992,20.676 38.993,20.675 38.994,20.674 C38.995,20.672 38.994,20.671 38.993,20.672 C38.993,20.672 38.993,20.672 38.993,20.672 L38.885,20.446 L38.568,20.113 L38.128,19.936 L37.581,19.927 L36.962,20.065 L36.26,20.396 L35.319,21.068 L34.267,21.981 L33.34,22.935 L32.233,24.212 L31.321,25.356 L30.858,25.961 L30.518,26.417 L30.241,26.811 L30.041,27.071 L29.947,27.227 L29.813,27.428 L29.608,27.666 L29.3,27.975 L28.868,28.345 L28.278,28.805 L27.508,29.35 L26.98,29.778 C26.98,29.778 26.98,29.778 26.98,29.778 C26.979,29.778 26.977,29.779 26.976,29.78 C26.976,29.782 26.976,29.783 26.977,29.783 L26.977,29.783" fill="#E79159"/>
    <path d="M33.494,28.136 L34.428,28.215 L35.859,27.982 L37.081,27.35 L38.375,26.5 L39.755,25.487 L41.18,24.264 L42.265,23.164 L42.965,22.329 L43.417,21.352 L43.572,20.326 L43.512,19.834 L43.512,19.834 C43.513,19.833 43.513,19.831 43.512,19.831 C43.511,19.831 43.509,19.831 43.508,19.833 C43.508,19.833 43.508,19.833 43.508,19.833 L42.941,19.979 L42.034,20.184 L41.361,20.379 L40.884,20.666 L40.119,21.168 L38.96,21.966 L37.678,22.889 L36.292,23.944 L34.875,25.239 L33.77,27.008 L33.492,28.133 C33.491,28.134 33.49,28.136 33.491,28.136 C33.491,28.137 33.492,28.137 33.494,28.136 L33.494,28.136" fill="#E79159"/>
    <path d="M25.332,27.891 L25.525,28.405 L26.209,28.693 L27.124,28.542 L28.098,28.027 L29.031,27.354 L29.888,26.62 L30.957,25.536 L32.159,24.135 L33.125,22.892 L33.671,22.137 L33.926,21.696 L34.155,21.077 L34.465,20.17 L34.719,19.59 L34.719,19.59 C34.72,19.589 34.721,19.588 34.721,19.587 C34.721,19.586 34.72,19.585 34.719,19.586 L34.323,19.404 L33.385,19.379 L32.423,19.746 L31.537,20.375 L30.438,21.346 L29.28,22.535 L28.36,23.583 L27.786,24.262 L27.504,24.636 L27.25,24.994 L26.979,25.417 L26.58,26.093 L25.869,27.078 L25.333,27.887 C25.332,27.887 25.33,27.889 25.33,27.89 C25.329,27.891 25.33,27.892 25.332,27.891 L25.332,27.891" fill="#E79159"/>
    <path d="M26.138,26.385 L26.796,26.797 L28.133,26.716 L29.453,25.947 L30.706,24.967 L31.891,23.897 L32.977,22.747 L33.934,21.528 L34.445,20.017 L34.405,19.099 L34.405,19.099 C34.406,19.098 34.407,19.096 34.406,19.096 C34.405,19.095 34.404,19.096 34.402,19.097 L33.435,19.181 L32.049,19.659 L31.051,20.399 L30.125,21.164 L29.241,21.951 L28.371,22.758 L27.512,23.689 L26.616,25.21 L26.138,26.381 C26.138,26.381 26.138,26.381 26.138,26.381 C26.136,26.382 26.135,26.384 26.135,26.385 C26.135,26.386 26.137,26.386 26.138,26.385 L26.138,26.385" fill="#E79159"/>
    <path d="M25.472,26.455 L25.633,26.947 L26.213,27.256 L26.998,27.168 L27.817,26.764 L28.904,26.009 L30.155,24.884 L31.178,23.849 L31.75,23.221 L32.026,22.902 L32.291,22.585 L32.539,22.228 L32.843,21.648 L33.374,20.711 L33.772,20.116 L33.772,20.116 C33.774,20.116 33.775,20.114 33.776,20.113 C33.776,20.111 33.775,20.111 33.774,20.111 C33.774,20.111 33.774,20.111 33.774,20.111 L33.566,19.738 L32.926,19.335 L32.114,19.399 L31.291,19.78 L30.523,20.277 L29.795,20.833 L28.904,21.598 L28.011,22.485 L27.33,23.238 L26.923,23.784 L26.71,24.168 L26.425,24.785 L25.889,25.699 L25.473,26.451 C25.471,26.451 25.47,26.453 25.47,26.454 C25.47,26.455 25.471,26.456 25.472,26.455 L25.472,26.455" fill="#E79159"/>
    <path d="M25.157,26.665 L25.493,27.02 L26.262,27.13 L27.123,26.91 L27.952,26.444 L29.071,25.636 L30.4,24.478 L31.558,23.399 L32.279,22.702 L32.686,22.304 L33.109,21.893 L33.537,21.433 L34.038,20.751 L34.742,19.729 L35.208,19.1 L35.208,19.1 C35.21,19.1 35.211,19.098 35.212,19.097 C35.212,19.096 35.211,19.095 35.21,19.096 L34.942,18.744 L34.225,18.365 L33.358,18.432 L32.467,18.812 L31.61,19.32 L30.773,19.906 L29.674,20.774 L28.464,21.878 L27.436,22.91 L26.763,23.683 L26.374,24.215 L25.989,24.934 L25.477,25.907 L25.157,26.661 C25.156,26.662 25.155,26.664 25.155,26.665 C25.155,26.666 25.156,26.666 25.157,26.665 L25.157,26.665" fill="#E79159"/>
    <path d="M25.192,25.544 L25.532,25.895 L26.248,26.032 L27.349,25.742 L28.707,24.901 L29.918,23.963 L30.975,23.102 L31.65,22.527 L32.052,22.181 L32.486,21.806 L32.946,21.396 L33.505,20.686 L34.267,19.663 L34.753,19.03 L34.753,19.03 C34.754,19.03 34.756,19.028 34.756,19.027 C34.757,19.026 34.756,19.025 34.755,19.025 C34.755,19.025 34.755,19.025 34.755,19.025 L34.541,18.629 L33.943,18.149 L33.191,18.065 L32.382,18.353 L31.585,18.74 L30.787,19.211 L29.711,19.94 L28.493,20.914 L27.458,21.848 L26.554,22.84 L25.921,23.851 L25.455,24.803 L25.192,25.54 C25.191,25.541 25.19,25.543 25.19,25.544 C25.19,25.545 25.191,25.545 25.192,25.544 L25.192,25.544" fill="#E79159"/>
    <path d="M25.087,25.229 L25.439,25.559 L26.184,25.67 L27.334,25.341 L28.759,24.445 L30.034,23.452 L31.154,22.545 L31.871,21.946 L32.298,21.589 L32.761,21.206 L33.254,20.759 L33.856,20.075 L34.684,19.055 L35.208,18.435 L35.208,18.435 C35.21,18.435 35.211,18.433 35.212,18.432 C35.212,18.43 35.211,18.43 35.21,18.43 L35.004,18.022 L34.406,17.51 L33.625,17.438 L32.774,17.695 L31.927,18.094 L31.073,18.588 L29.916,19.364 L28.599,20.411 L27.476,21.422 L26.504,22.482 L25.839,23.53 L25.357,24.494 L25.087,25.225 C25.086,25.226 25.084,25.228 25.085,25.229 C25.085,25.23 25.086,25.23 25.087,25.229 L25.087,25.229" fill="#E79159"/>
    <path d="M23.757,24.668 L24.522,24.903 L25.921,24.584 L27.096,23.754 L28.082,22.893 L28.929,22.118 L29.654,21.421 L30.114,20.944 L30.41,20.608 L30.813,19.943 L31.391,18.971 L31.776,18.365 L31.776,18.365 C31.778,18.364 31.779,18.363 31.779,18.361 C31.78,18.36 31.779,18.36 31.777,18.36 L31.571,17.994 L30.998,17.56 L30.288,17.505 L29.505,17.843 L28.401,18.481 L27.128,19.417 L26.047,20.386 L25.146,21.317 L24.446,22.261 L23.952,23.635 L23.756,24.665 C23.756,24.665 23.756,24.665 23.756,24.665 C23.754,24.666 23.753,24.668 23.754,24.669 C23.754,24.67 23.756,24.67 23.757,24.668 L23.757,24.668" fill="#E79159"/>
    <path d="M23.336,24.599 L23.575,25.029 L24.244,25.244 L25.07,25.084 L25.893,24.642 L26.982,23.859 L28.239,22.731 L29.285,21.711 L29.881,21.098 L30.18,20.782 L30.487,20.457 L30.796,20.081 L31.202,19.467 L31.867,18.506 L32.336,17.91 L32.336,17.91 C32.338,17.909 32.339,17.908 32.34,17.906 C32.34,17.905 32.339,17.904 32.338,17.905 C32.338,17.905 32.338,17.905 32.338,17.905 L32.147,17.502 L31.536,17.033 L30.719,17.036 L29.853,17.386 L29.022,17.877 L28.216,18.451 L27.2,19.277 L26.143,20.281 L25.3,21.173 L24.781,21.823 L24.503,22.266 L24.198,22.915 L23.698,23.846 L23.336,24.595 C23.335,24.595 23.333,24.597 23.333,24.598 C23.333,24.599 23.334,24.6 23.336,24.599 L23.336,24.599" fill="#E79159"/>
    <path d="M18.559,45.767 L18.774,45.912 L19.314,45.923 L19.926,45.709 L20.539,45.408 L21.417,44.881 L22.524,44.043 L23.034,43.39 L23.034,43.39 C23.034,43.39 23.035,43.39 23.035,43.39 C23.035,43.389 23.034,43.389 23.034,43.389 C23.034,43.389 23.034,43.389 23.034,43.389 L22.485,43.419 L21.437,43.956 L20.656,44.404 L20.136,44.691 L19.592,44.996 L18.948,45.441 L18.559,45.766 C18.559,45.766 18.559,45.766 18.559,45.766 C18.559,45.766 18.558,45.766 18.558,45.766 C18.558,45.767 18.558,45.767 18.559,45.767 L18.559,45.767" fill="#E79159"/>
    <path d="M20.183,46.044 L20.537,46.231 L21.41,45.969 L22.754,45.26 L23.668,44.341 L23.668,44.341 C23.668,44.341 23.668,44.34 23.668,44.34 C23.668,44.34 23.668,44.34 23.668,44.34 C23.668,44.34 23.668,44.34 23.668,44.34 L22.88,44.352 L21.619,44.955 L20.722,45.487 L20.183,46.043 C20.182,46.043 20.182,46.043 20.182,46.044 C20.182,46.044 20.182,46.044 20.183,46.044 L20.183,46.044" fill="#E79159"/>
    <path d="M20.301,45.767 L20.551,45.852 L21.128,45.719 L21.735,45.349 L22.301,44.907 L23.056,44.228 L23.739,43.56 L24.135,43.052 L24.341,42.717 L24.341,42.717 C24.341,42.717 24.342,42.717 24.342,42.716 C24.341,42.716 24.341,42.716 24.341,42.716 L24.03,42.742 L23.43,43.012 L22.675,43.596 L21.997,44.182 L21.579,44.542 L21.154,44.906 L20.632,45.408 L20.302,45.766 C20.301,45.766 20.301,45.766 20.301,45.766 C20.301,45.767 20.301,45.767 20.301,45.767 L20.301,45.767" fill="#E79159"/>
    <path d="M19.636,46.129 L19.765,46.259 L20.108,46.319 L20.496,46.269 L20.904,46.117 L21.494,45.803 L22.24,45.279 L22.929,44.71 L23.552,44.158 L24.133,43.65 L24.71,43.083 L25.048,42.72 L25.048,42.72 C25.048,42.719 25.049,42.719 25.049,42.719 C25.049,42.719 25.048,42.718 25.048,42.719 C25.048,42.719 25.048,42.719 25.048,42.719 L24.681,42.721 L23.92,43.023 L23.231,43.506 L22.613,44.001 L22.05,44.466 L21.496,44.892 L21.055,45.195 L20.742,45.393 L20.373,45.633 L19.921,45.916 L19.637,46.128 C19.636,46.128 19.636,46.128 19.636,46.129 C19.636,46.129 19.636,46.129 19.636,46.129 L19.636,46.129" fill="#E79159"/>
    <path d="M20.986,46.028 L21.101,46.139 L21.409,46.172 L21.764,46.09 L22.136,45.908 L22.658,45.559 L23.297,45.012 L23.868,44.457 L24.374,43.952 L24.844,43.515 L25.189,43.173 L25.475,42.871 L25.657,42.691 L25.657,42.691 C25.658,42.691 25.658,42.69 25.658,42.69 C25.658,42.69 25.658,42.689 25.658,42.69 C25.658,42.69 25.658,42.69 25.658,42.69 L25.504,42.65 L25.148,42.675 L24.588,42.921 L23.937,43.403 L23.377,43.904 L22.895,44.372 L22.449,44.793 L22.111,45.089 L21.876,45.283 L21.593,45.522 L21.224,45.812 L20.986,46.026 C20.986,46.027 20.985,46.027 20.985,46.027 C20.985,46.028 20.985,46.028 20.986,46.028 L20.986,46.028" fill="#E79159"/>
    <path d="M18.011,46.245 L18.211,46.447 L18.759,46.52 L19.401,46.331 L20.04,46.03 L20.933,45.49 L22.035,44.658 L22.567,44.025 L22.567,44.025 C22.567,44.025 22.568,44.025 22.568,44.025 C22.568,44.024 22.567,44.024 22.567,44.024 L22.001,44.032 L20.941,44.572 L20.186,45.011 L19.69,45.278 L19.151,45.549 L18.459,45.944 L18.012,46.244 C18.012,46.244 18.011,46.244 18.011,46.245 C18.011,46.245 18.011,46.245 18.011,46.245 L18.011,46.245" fill="#E79159"/>
    <path d="M18.374,46.419 L18.521,46.61 L18.951,46.717 L19.479,46.596 L20.024,46.381 L20.814,45.96 L21.8,45.194 L22.219,44.591 L22.219,44.591 C22.219,44.591 22.22,44.591 22.22,44.59 C22.219,44.59 22.219,44.59 22.219,44.59 L21.773,44.598 L20.927,44.983 L20.268,45.317 L19.819,45.529 L19.337,45.76 L18.743,46.132 L18.374,46.418 C18.374,46.418 18.374,46.419 18.374,46.419 C18.374,46.419 18.374,46.419 18.374,46.419 L18.374,46.419" fill="#E79159"/>
    <path d="M17.127,46.289 L17.757,46.194 L18.98,45.451 L20.165,44.568 L21.297,43.591 L21.813,42.894 L21.813,42.894 C21.813,42.893 21.813,42.893 21.813,42.893 C21.813,42.893 21.813,42.893 21.813,42.893 L21.152,43.04 L19.957,43.797 L18.821,44.652 L17.693,45.587 L17.126,46.288 C17.126,46.288 17.126,46.288 17.126,46.288 C17.126,46.288 17.126,46.288 17.126,46.289 C17.126,46.289 17.126,46.289 17.127,46.289 L17.127,46.289" fill="#E79159"/>
    <path d="M17.808,46.448 L18.389,46.354 L19.449,45.706 L20.474,45.001 L21.238,44.466 L21.779,43.98 L22.088,43.634 L22.088,43.634 C22.089,43.634 22.089,43.633 22.089,43.633 C22.089,43.633 22.089,43.632 22.088,43.633 C22.088,43.633 22.088,43.633 22.088,43.633 L21.815,43.573 L21.22,43.7 L20.344,44.173 L19.264,44.925 L18.261,45.789 L17.808,46.447 C17.808,46.448 17.808,46.448 17.808,46.448 C17.808,46.448 17.808,46.448 17.808,46.448 L17.808,46.448" fill="#E79159"/>
    <path d="M17.431,46.158 L18.448,45.804 L19.836,44.774 L20.712,43.994 L21.116,43.387 L21.116,43.387 C21.117,43.387 21.117,43.386 21.117,43.386 C21.117,43.386 21.117,43.386 21.116,43.386 L20.572,43.439 L19.594,44.032 L18.249,45.119 L17.431,46.157 C17.431,46.157 17.431,46.157 17.431,46.157 C17.431,46.157 17.431,46.158 17.431,46.158 C17.431,46.158 17.431,46.158 17.431,46.158 L17.431,46.158" fill="#E79159"/>
    <path d="M17.126,46.564 L17.292,46.709 L17.731,46.721 L18.471,46.371 L19.414,45.741 L20.266,45.016 L20.652,44.446 L20.652,44.446 C20.652,44.446 20.653,44.446 20.653,44.445 C20.653,44.445 20.652,44.445 20.652,44.445 L20.17,44.429 L19.309,44.895 L18.524,45.428 L17.925,45.833 L17.437,46.252 L17.127,46.563 C17.127,46.563 17.127,46.563 17.127,46.563 C17.126,46.563 17.126,46.564 17.126,46.564 C17.126,46.564 17.126,46.565 17.126,46.564 L17.126,46.564" fill="#E79159"/>
    <path d="M16.735,46.013 L17.383,45.756 L18.417,44.974 L19.417,44.16 L20.417,43.267 L20.884,42.604 L20.884,42.604 C20.885,42.603 20.885,42.603 20.885,42.603 C20.885,42.602 20.884,42.602 20.884,42.603 L20.259,42.726 L19.116,43.461 L18.036,44.351 L17.062,45.35 L16.735,46.012 C16.735,46.012 16.735,46.012 16.735,46.012 C16.734,46.013 16.734,46.013 16.734,46.013 C16.734,46.013 16.735,46.013 16.735,46.013 L16.735,46.013" fill="#E79159"/>
    <path d="M16.343,45.679 L17.017,45.271 L17.97,44.391 L18.878,43.561 L19.808,42.695 L20.26,42.052 L20.26,42.052 C20.261,42.052 20.261,42.052 20.261,42.051 C20.261,42.051 20.261,42.051 20.26,42.051 C20.26,42.051 20.26,42.051 20.26,42.051 L19.619,42.177 L18.449,42.974 L17.389,43.964 L16.52,45.052 L16.343,45.679 C16.342,45.679 16.342,45.679 16.343,45.679 C16.343,45.68 16.343,45.679 16.343,45.679 L16.343,45.679" fill="#E79159"/>
    <path d="M15.778,46.013 L16.505,45.612 L17.629,44.578 L18.686,43.553 L19.463,42.805 L19.961,42.215 L20.217,41.835 L20.217,41.835 C20.217,41.834 20.217,41.834 20.217,41.834 C20.217,41.833 20.217,41.834 20.217,41.834 C20.217,41.834 20.217,41.834 20.217,41.834 L19.852,41.905 L19.149,42.26 L18.203,43.017 L17.077,44.121 L16.093,45.297 L15.777,46.012 C15.777,46.012 15.777,46.012 15.777,46.012 C15.777,46.013 15.777,46.013 15.777,46.013 C15.777,46.013 15.777,46.013 15.778,46.013 L15.778,46.013" fill="#E79159"/>
    <path d="M15.734,45.302 L16.466,44.923 L17.334,44.237 L17.868,43.792 L18.416,43.354 L18.977,42.924 L19.561,42.491 L20.187,41.935 L20.536,41.559 L20.536,41.559 C20.536,41.559 20.537,41.558 20.537,41.558 C20.537,41.558 20.536,41.558 20.536,41.558 L20.2,41.541 L19.499,41.753 L18.806,42.152 L18.137,42.614 L17.496,43.124 L16.879,43.676 L16.079,44.574 L15.733,45.301 C15.733,45.301 15.733,45.301 15.733,45.301 C15.733,45.302 15.733,45.302 15.733,45.302 C15.733,45.302 15.734,45.302 15.734,45.302 L15.734,45.302" fill="#E79159"/>
    <path d="M15.081,45.36 L15.788,45.106 L17.016,44.15 L17.879,43.423 L18.426,42.975 L18.989,42.539 L19.598,41.998 L19.956,41.632 L19.956,41.632 C19.956,41.631 19.956,41.631 19.956,41.631 C19.956,41.63 19.956,41.63 19.956,41.631 L19.614,41.603 L18.887,41.828 L18.186,42.257 L17.522,42.751 L16.633,43.529 L15.554,44.622 L15.081,45.359 C15.081,45.359 15.081,45.359 15.081,45.359 C15.08,45.36 15.08,45.36 15.08,45.36 C15.08,45.36 15.081,45.36 15.081,45.36 L15.081,45.36" fill="#E79159"/>
    <path d="M14.617,45.07 L15.323,44.771 L16.498,43.809 L17.322,43.099 L17.849,42.661 L18.397,42.229 L18.987,41.691 L19.332,41.327 L19.332,41.327 C19.332,41.327 19.332,41.326 19.332,41.326 C19.332,41.326 19.332,41.326 19.332,41.326 C19.332,41.326 19.332,41.326 19.332,41.326 L18.995,41.301 L18.282,41.527 L17.594,41.954 L16.939,42.45 L16.06,43.238 L15.022,44.346 L14.616,45.069 C14.616,45.069 14.616,45.069 14.616,45.069 C14.616,45.069 14.616,45.07 14.616,45.07 C14.616,45.07 14.616,45.07 14.617,45.07 L14.617,45.07" fill="#E79159"/>
    <path d="M14.457,44.199 L14.9,44.007 L15.667,43.571 L16.365,43.114 L17.075,42.669 L17.814,42.248 L18.591,41.837 L19.411,41.425 L20.317,40.878 L20.826,40.5 L20.826,40.5 C20.826,40.5 20.827,40.5 20.827,40.499 C20.827,40.499 20.827,40.499 20.826,40.499 C20.826,40.499 20.826,40.499 20.826,40.499 L20.445,40.428 L19.606,40.547 L18.729,40.876 L17.859,41.288 L17.003,41.775 L16.17,42.333 L15.378,42.976 L14.71,43.746 L14.457,44.199 C14.457,44.199 14.457,44.199 14.457,44.199 C14.456,44.199 14.456,44.199 14.456,44.2 C14.457,44.2 14.457,44.2 14.457,44.199 L14.457,44.199" fill="#E79159"/>
    <path d="M13.906,44.46 L14.685,44.011 L15.621,43.237 L16.201,42.74 L16.797,42.256 L17.409,41.787 L18.049,41.322 L18.74,40.741 L19.129,40.355 L19.129,40.355 C19.129,40.355 19.129,40.354 19.129,40.354 C19.129,40.354 19.129,40.354 19.129,40.354 L18.764,40.342 L17.994,40.58 L17.234,41.019 L16.501,41.53 L15.803,42.095 L15.135,42.707 L14.277,43.689 L13.905,44.46 C13.905,44.46 13.905,44.46 13.905,44.46 C13.905,44.46 13.905,44.461 13.905,44.461 C13.905,44.461 13.906,44.461 13.906,44.46 L13.906,44.46" fill="#E79159"/>
    <path d="M14.153,43.387 L14.551,43.172 L15.184,42.748 L15.716,42.333 L16.253,41.928 L16.816,41.533 L17.411,41.134 L18.376,40.476 L19.085,39.789 L19.085,39.789 C19.085,39.789 19.086,39.788 19.086,39.788 C19.086,39.788 19.086,39.788 19.085,39.788 C19.085,39.788 19.085,39.788 19.085,39.788 L18.415,39.804 L17.369,40.276 L16.669,40.694 L15.983,41.176 L15.32,41.717 L14.711,42.326 L14.266,43.011 L14.152,43.386 C14.152,43.386 14.152,43.386 14.152,43.386 C14.152,43.387 14.152,43.387 14.152,43.387 C14.152,43.387 14.152,43.387 14.153,43.387 L14.153,43.387" fill="#E79159"/>
    <path d="M13.775,43.314 L14.173,43.102 L14.821,42.65 L15.372,42.186 L15.919,41.728 L16.482,41.28 L17.063,40.833 L17.667,40.377 L18.299,39.796 L18.635,39.412 L18.635,39.412 C18.636,39.412 18.636,39.411 18.636,39.411 C18.636,39.411 18.636,39.411 18.635,39.411 L18.292,39.416 L17.587,39.652 L16.889,40.065 L16.205,40.538 L15.543,41.064 L14.91,41.632 L14.33,42.25 L13.897,42.936 L13.775,43.314 C13.775,43.314 13.775,43.314 13.775,43.314 C13.774,43.314 13.774,43.314 13.775,43.315 C13.775,43.315 13.775,43.315 13.775,43.314 L13.775,43.314" fill="#E79159"/>
    <path d="M13.456,43.459 L13.893,43.229 L14.628,42.733 L15.277,42.224 L15.927,41.727 L16.599,41.248 L17.299,40.776 L18.034,40.301 L18.825,39.697 L19.259,39.296 L19.259,39.296 C19.259,39.296 19.26,39.295 19.26,39.295 C19.26,39.295 19.26,39.295 19.259,39.295 C19.259,39.295 19.259,39.295 19.259,39.295 L18.875,39.283 L18.063,39.507 L17.243,39.927 L16.438,40.42 L15.655,40.977 L14.904,41.588 L14.204,42.263 L13.645,43.029 L13.456,43.459 C13.456,43.459 13.456,43.459 13.456,43.459 C13.455,43.459 13.455,43.459 13.455,43.46 C13.456,43.46 13.456,43.46 13.456,43.459 L13.456,43.459" fill="#E79159"/>
    <path d="M13.558,42.328 L14.225,42.141 L15.421,41.332 L16.28,40.715 L16.838,40.322 L17.417,39.929 L18.05,39.417 L18.418,39.064 L18.418,39.064 C18.418,39.063 18.418,39.063 18.418,39.063 C18.418,39.063 18.418,39.062 18.418,39.063 L18.109,39 L17.431,39.145 L16.749,39.495 L16.086,39.913 L15.167,40.603 L14.046,41.613 L13.557,42.327 C13.557,42.327 13.557,42.327 13.557,42.327 C13.557,42.327 13.557,42.328 13.557,42.328 C13.557,42.328 13.557,42.328 13.558,42.328 L13.558,42.328" fill="#E79159"/>
    <path d="M12.934,42.197 L13.34,42.039 L14.049,41.636 L14.69,41.184 L15.33,40.734 L15.984,40.302 L16.66,39.878 L17.367,39.455 L18.141,38.902 L18.577,38.527 L18.577,38.527 C18.578,38.527 18.578,38.526 18.578,38.526 C18.578,38.526 18.578,38.526 18.577,38.526 C18.577,38.526 18.577,38.526 18.577,38.526 L18.225,38.473 L17.458,38.627 L16.671,38.988 L15.897,39.422 L15.144,39.918 L14.419,40.463 L13.735,41.067 L13.156,41.777 L12.933,42.197 C12.933,42.197 12.933,42.197 12.933,42.197 C12.933,42.197 12.933,42.197 12.933,42.197 C12.933,42.198 12.934,42.197 12.934,42.197 L12.934,42.197" fill="#E79159"/>
    <path d="M12.658,41.443 L13.31,41.251 L14.433,40.521 L15.248,39.977 L15.794,39.617 L16.368,39.243 L16.991,38.736 L17.344,38.382 L17.344,38.382 C17.344,38.382 17.345,38.381 17.345,38.381 C17.345,38.381 17.345,38.381 17.344,38.381 C17.344,38.381 17.344,38.381 17.344,38.381 L17.052,38.317 L16.415,38.438 L15.767,38.75 L15.123,39.126 L14.207,39.771 L13.099,40.745 L12.658,41.442 C12.658,41.442 12.658,41.442 12.658,41.442 C12.657,41.442 12.657,41.443 12.657,41.443 C12.657,41.443 12.658,41.443 12.658,41.443 L12.658,41.443" fill="#E79159"/>
    <path d="M13.093,40.645 L13.745,40.613 L15.078,40.003 L16.068,39.512 L16.729,39.187 L17.42,38.858 L18.196,38.396 L18.65,38.063 L18.65,38.063 C18.65,38.062 18.65,38.062 18.65,38.062 C18.651,38.062 18.65,38.061 18.65,38.061 L18.35,37.936 L17.657,37.961 L16.925,38.199 L16.197,38.508 L15.147,39.059 L13.794,39.929 L13.093,40.644 C13.093,40.644 13.093,40.645 13.093,40.645 C13.093,40.645 13.093,40.645 13.093,40.645 L13.093,40.645" fill="#E79159"/>
    <path d="M13.456,39.702 L14.48,39.583 L16.087,38.843 L17.193,38.247 L17.852,37.671 L17.852,37.671 C17.852,37.671 17.852,37.67 17.852,37.67 C17.853,37.67 17.852,37.67 17.852,37.67 C17.852,37.67 17.852,37.67 17.852,37.67 L17.37,37.507 L16.244,37.85 L14.585,38.704 L13.456,39.701 C13.456,39.701 13.456,39.701 13.456,39.701 C13.456,39.701 13.455,39.701 13.455,39.702 C13.455,39.702 13.456,39.702 13.456,39.702 L13.456,39.702" fill="#E79159"/>
    <path d="M12.875,41.138 L13.202,41.184 L13.901,41.011 L14.955,40.457 L15.972,39.873 L16.631,39.503 L17.312,39.141 L18.084,38.663 L18.548,38.324 L18.548,38.324 C18.548,38.324 18.549,38.323 18.549,38.323 C18.549,38.323 18.549,38.322 18.549,38.323 C18.549,38.323 18.549,38.323 18.549,38.323 L18.224,38.205 L17.486,38.27 L16.73,38.562 L16,38.925 L14.98,39.525 L13.985,40.164 L13.275,40.741 L12.876,41.137 C12.876,41.137 12.876,41.137 12.876,41.137 C12.875,41.137 12.875,41.138 12.875,41.138 C12.875,41.138 12.875,41.138 12.875,41.138 L12.875,41.138" fill="#E79159"/>
    <path d="M13.819,42.052 L14.167,41.958 L14.764,41.675 L15.3,41.332 L15.837,40.981 L16.388,40.638 L16.958,40.293 L17.554,39.937 L18.208,39.442 L18.577,39.093 L18.577,39.093 C18.578,39.092 18.578,39.092 18.578,39.092 C18.578,39.092 18.578,39.091 18.577,39.092 C18.577,39.092 18.577,39.092 18.577,39.092 L18.295,39.012 L17.667,39.099 L17.01,39.379 L16.356,39.722 L15.715,40.12 L15.091,40.563 L14.499,41.065 L14.004,41.678 L13.818,42.051 C13.818,42.051 13.818,42.051 13.818,42.051 C13.818,42.052 13.818,42.052 13.818,42.052 C13.818,42.052 13.819,42.052 13.819,42.052 L13.819,42.052" fill="#E79159"/>
    <path d="M14.617,42.27 L14.968,42.099 L15.49,41.794 L15.901,41.511 L16.327,41.224 L16.789,40.935 L17.289,40.632 L18.11,40.102 L18.722,39.484 L18.722,39.484 C18.723,39.484 18.723,39.484 18.723,39.484 C18.723,39.483 18.723,39.483 18.723,39.483 C18.723,39.483 18.723,39.483 18.723,39.483 L18.207,39.399 L17.346,39.715 L16.75,40.025 L16.152,40.401 L15.565,40.844 L15.026,41.366 L14.671,41.955 L14.616,42.269 C14.616,42.269 14.616,42.269 14.616,42.269 C14.616,42.27 14.616,42.27 14.616,42.27 C14.616,42.27 14.617,42.27 14.617,42.27 L14.617,42.27" fill="#E79159"/>
    <path d="M13.717,42.923 L14.094,42.809 L14.746,42.498 L15.34,42.135 L15.941,41.77 L16.564,41.415 L17.214,41.059 L17.897,40.691 L18.649,40.179 L19.07,39.818 L19.07,39.818 C19.071,39.818 19.071,39.818 19.071,39.817 C19.071,39.817 19.071,39.817 19.071,39.817 L18.758,39.738 L18.065,39.825 L17.337,40.106 L16.61,40.454 L15.891,40.862 L15.187,41.325 L14.513,41.86 L13.938,42.52 L13.717,42.922 C13.717,42.922 13.717,42.922 13.717,42.922 C13.717,42.922 13.716,42.923 13.716,42.923 C13.717,42.923 13.717,42.923 13.717,42.923 L13.717,42.923" fill="#E79159"/>
    <path d="M13.384,42.85 L13.742,42.708 L14.316,42.391 L14.806,42.054 L15.302,41.712 L16.103,41.193 L17.254,40.433 L17.895,39.789 L17.895,39.789 C17.896,39.789 17.896,39.788 17.896,39.788 C17.896,39.788 17.896,39.788 17.896,39.788 C17.896,39.788 17.896,39.788 17.896,39.788 L17.307,39.753 L16.052,40.311 L15.121,40.892 L14.511,41.352 L13.939,41.879 L13.506,42.497 L13.383,42.849 C13.383,42.85 13.383,42.85 13.383,42.85 C13.383,42.85 13.383,42.85 13.384,42.85 L13.384,42.85" fill="#E79159"/>
    <path d="M13.064,42.618 L13.514,42.425 L14.309,41.981 L15.051,41.505 L15.811,41.039 L16.603,40.595 L17.431,40.164 L18.297,39.737 L19.242,39.18 L19.767,38.802 L19.767,38.802 C19.767,38.802 19.767,38.802 19.768,38.802 C19.768,38.801 19.768,38.801 19.767,38.801 L19.372,38.732 L18.497,38.857 L17.578,39.199 L16.661,39.627 L15.758,40.133 L14.88,40.709 L14.047,41.37 L13.338,42.158 L13.064,42.617 C13.064,42.617 13.064,42.617 13.064,42.617 C13.064,42.618 13.064,42.618 13.064,42.618 C13.064,42.618 13.064,42.618 13.064,42.618 L13.064,42.618" fill="#E79159"/>
    <path d="M13.267,41.051 L13.864,40.958 L14.966,40.313 L16.039,39.617 L16.846,39.085 L17.422,38.597 L17.75,38.251 L17.75,38.251 C17.751,38.251 17.751,38.251 17.751,38.25 C17.751,38.25 17.751,38.25 17.75,38.25 L17.477,38.182 L16.874,38.294 L15.966,38.751 L14.825,39.499 L13.754,40.375 L13.267,41.05 C13.267,41.05 13.267,41.05 13.267,41.05 C13.267,41.051 13.267,41.051 13.267,41.051 C13.267,41.051 13.267,41.051 13.267,41.051 L13.267,41.051" fill="#E79159"/>
    <path d="M13.5,39.977 L13.98,39.919 L14.728,39.499 L15.452,39.061 L16.237,38.538 L16.72,38.004 L16.72,38.004 C16.72,38.004 16.721,38.004 16.721,38.004 C16.721,38.003 16.721,38.003 16.72,38.003 C16.72,38.003 16.72,38.003 16.72,38.003 L16.335,37.836 L15.431,38.162 L14.54,38.718 L13.753,39.425 L13.499,39.977 C13.499,39.977 13.499,39.977 13.499,39.978 C13.499,39.978 13.499,39.978 13.5,39.977 L13.5,39.977" fill="#E79159"/>
    <path d="M13.833,38.802 L14.1,38.814 L14.564,38.724 L15.001,38.549 L15.462,38.354 L16.212,38.049 L17.308,37.551 L17.982,37.003 L17.982,37.003 C17.983,37.003 17.983,37.003 17.983,37.003 C17.983,37.002 17.983,37.002 17.983,37.002 L17.569,36.78 L16.501,36.992 L15.663,37.308 L15.094,37.587 L14.531,37.947 L14.032,38.46 L13.833,38.801 C13.833,38.801 13.833,38.801 13.833,38.801 C13.833,38.802 13.832,38.802 13.833,38.802 C13.833,38.803 13.833,38.803 13.833,38.802 L13.833,38.802" fill="#E79159"/>
    <path d="M33.726,31.668 L35.309,30.711 L38.155,28.268 L39.423,26.743 L39.423,26.743 C39.423,26.743 39.423,26.742 39.423,26.742 C39.423,26.742 39.423,26.742 39.422,26.742 L37.83,27.666 L34.972,30.138 L33.726,31.667 C33.726,31.667 33.726,31.667 33.726,31.667 C33.725,31.667 33.725,31.668 33.725,31.668 C33.725,31.668 33.726,31.668 33.726,31.668 L33.726,31.668" fill="#E79159"/>
    <path d="M33.505,32.807 L34.084,32.43 L35.123,31.621 L36.092,30.778 L37.065,29.932 L38.556,28.665 L40.566,26.928 L41.518,25.861 L41.518,25.861 C41.518,25.86 41.518,25.86 41.518,25.86 C41.518,25.86 41.518,25.86 41.517,25.86 L40.373,26.414 L38.227,27.988 L36.668,29.286 L35.655,30.202 L34.686,31.169 L33.844,32.227 L33.505,32.807 C33.505,32.807 33.505,32.807 33.505,32.807 C33.505,32.807 33.505,32.807 33.505,32.807 C33.505,32.808 33.505,32.807 33.505,32.807 L33.505,32.807" fill="#E79159"/>
    <path d="M33.579,33.285 L34.155,33.059 L35.265,32.375 L36.321,31.516 L37.33,30.602 L38.774,29.197 L40.607,27.28 L41.408,26.191 L41.408,26.191 C41.408,26.191 41.408,26.191 41.408,26.191 C41.408,26.19 41.407,26.191 41.407,26.191 L40.269,26.893 L38.302,28.649 L36.891,29.995 L35.958,30.873 L35.021,31.748 L34.067,32.719 L33.579,33.284 C33.579,33.284 33.579,33.284 33.579,33.284 C33.578,33.285 33.578,33.285 33.578,33.285 C33.578,33.285 33.578,33.285 33.579,33.285 L33.579,33.285" fill="#E79159"/>
    <path d="M33.873,33.91 L34.393,33.649 L35.346,32.943 L36.616,31.669 L38.184,29.893 L39.63,28.096 L40.195,27.11 L40.195,27.11 C40.195,27.11 40.195,27.11 40.195,27.109 C40.195,27.109 40.194,27.109 40.194,27.11 C40.194,27.11 40.194,27.11 40.194,27.11 L39.181,27.826 L37.554,29.511 L36.046,31.216 L34.926,32.473 L34.213,33.386 L33.873,33.909 C33.873,33.909 33.873,33.909 33.873,33.909 C33.872,33.909 33.872,33.91 33.872,33.91 C33.872,33.91 33.873,33.91 33.873,33.91 L33.873,33.91" fill="#E79159"/>
    <path d="M33.469,33.175 L34.731,32.301 L36.972,30.235 L38.613,28.674 L39.699,27.645 L40.794,26.622 L41.87,25.522 L42.4,24.905 L42.4,24.905 C42.4,24.905 42.4,24.904 42.4,24.904 C42.4,24.904 42.4,24.904 42.4,24.904 C42.4,24.904 42.4,24.904 42.4,24.904 L41.735,25.234 L40.471,26.084 L39.285,27.075 L38.135,28.111 L36.483,29.713 L34.383,31.92 L33.468,33.174 C33.468,33.174 33.468,33.174 33.468,33.174 C33.468,33.174 33.468,33.175 33.468,33.175 C33.468,33.175 33.468,33.175 33.469,33.175 L33.469,33.175" fill="#E79159"/>
    <path d="M33.836,33.469 L34.445,33.179 L35.6,32.38 L37.196,30.928 L38.721,29.434 L39.709,28.46 L40.698,27.51 L41.678,26.504 L42.179,25.934 L42.179,25.934 C42.18,25.934 42.18,25.934 42.18,25.933 C42.18,25.933 42.179,25.933 42.179,25.933 C42.179,25.933 42.179,25.933 42.179,25.933 L41.55,26.21 L40.355,26.99 L39.257,27.925 L38.216,28.898 L36.735,30.366 L35.277,31.822 L34.319,32.872 L33.836,33.468 C33.836,33.468 33.835,33.469 33.835,33.469 C33.835,33.469 33.836,33.469 33.836,33.469 L33.836,33.469" fill="#E79159"/>
    <path d="M36.078,31.484 L36.664,31.068 L37.705,30.184 L39.136,28.782 L41.032,26.877 L42.419,25.383 L43.24,24.286 L43.576,23.692 L43.576,23.692 C43.576,23.692 43.576,23.691 43.576,23.691 C43.576,23.691 43.576,23.691 43.576,23.692 L43.001,24.097 L41.968,24.968 L40.518,26.371 L38.597,28.297 L37.2,29.801 L36.397,30.894 L36.078,31.484 C36.077,31.484 36.077,31.484 36.077,31.484 C36.078,31.484 36.078,31.484 36.078,31.484 L36.078,31.484" fill="#E79159"/>
    <path d="M38.908,27.772 L39.334,27.593 L40.111,27.004 L41.078,25.89 L41.933,24.756 L42.456,24.047 L42.962,23.382 L43.421,22.698 L43.65,22.296 L43.65,22.296 C43.65,22.295 43.65,22.295 43.65,22.295 C43.65,22.295 43.649,22.295 43.649,22.295 C43.649,22.295 43.649,22.295 43.649,22.295 L43.198,22.492 L42.391,23.098 L41.73,23.817 L41.143,24.547 L40.364,25.603 L39.619,26.608 L39.15,27.335 L38.908,27.771 C38.908,27.771 38.908,27.771 38.908,27.771 C38.908,27.772 38.907,27.772 38.907,27.772 C38.908,27.772 38.908,27.772 38.908,27.772 L38.908,27.772" fill="#E79159"/>
    <path d="M40.856,27.331 L41.241,27.211 L41.956,26.75 L42.881,25.821 L43.979,24.546 L44.733,23.641 L45.167,23.01 L45.377,22.626 L45.377,22.626 C45.377,22.626 45.377,22.626 45.377,22.625 C45.377,22.625 45.377,22.625 45.377,22.626 C45.377,22.626 45.377,22.626 45.377,22.626 L44.967,22.78 L44.224,23.287 L43.324,24.192 L42.289,25.394 L41.557,26.261 L41.093,26.921 L40.856,27.33 C40.856,27.33 40.856,27.33 40.856,27.33 C40.856,27.33 40.855,27.331 40.855,27.331 C40.856,27.331 40.856,27.331 40.856,27.331 L40.856,27.331" fill="#E79159"/>
    <path d="M41.959,24.941 L42.292,24.642 L42.751,24.177 L43.066,23.816 L43.369,23.477 L43.874,22.948 L44.576,22.162 L44.862,21.597 L44.862,21.597 C44.863,21.597 44.863,21.597 44.863,21.596 C44.863,21.596 44.862,21.596 44.862,21.597 C44.862,21.597 44.862,21.597 44.862,21.597 L44.308,21.748 L43.333,22.469 L42.658,23.157 L42.246,23.682 L41.927,24.233 L41.85,24.735 L41.958,24.942 C41.958,24.942 41.958,24.942 41.958,24.942 C41.958,24.942 41.958,24.942 41.958,24.942 C41.959,24.942 41.959,24.942 41.959,24.941 L41.959,24.941" fill="#E79159"/>
    <path d="M43.209,24.096 L43.482,24.011 L43.785,23.833 L43.942,23.67 L44.056,23.534 L44.167,23.378 L44.256,23.244 L44.292,23.188 L44.309,23.155 L44.382,23.039 L44.478,22.861 L44.485,22.634 L44.458,22.479 L44.458,22.479 C44.458,22.479 44.459,22.479 44.458,22.478 C44.458,22.478 44.458,22.478 44.458,22.479 L44.286,22.478 L44.045,22.517 L43.853,22.643 L43.663,22.809 L43.503,22.984 L43.383,23.135 L43.281,23.286 L43.189,23.436 L43.124,23.568 L43.06,23.732 L43.091,23.953 L43.208,24.096 C43.208,24.096 43.208,24.096 43.208,24.096 C43.208,24.096 43.208,24.097 43.208,24.097 C43.208,24.097 43.208,24.097 43.209,24.096 L43.209,24.096" fill="#E79159"/>
    <path d="M42.29,24.978 L42.534,24.815 L42.812,24.563 L42.963,24.376 L43.054,24.237 L43.147,24.094 L43.218,23.999 L43.268,23.95 L43.352,23.848 L43.451,23.721 L43.574,23.549 L43.721,23.331 L43.879,23.059 L43.956,22.702 L43.907,22.479 L43.907,22.479 C43.907,22.479 43.907,22.478 43.907,22.478 C43.907,22.478 43.906,22.479 43.906,22.479 C43.906,22.479 43.906,22.479 43.906,22.479 L43.597,22.611 L43.217,22.871 L42.994,23.104 L42.827,23.295 L42.694,23.451 L42.587,23.585 L42.436,23.783 L42.266,24.042 L42.158,24.262 L42.101,24.431 L42.069,24.564 L42.068,24.719 L42.157,24.893 L42.289,24.978 C42.289,24.979 42.289,24.979 42.289,24.979 C42.289,24.979 42.29,24.978 42.29,24.978 L42.29,24.978" fill="#E79159"/>
    <path d="M42.143,25.419 L42.508,25.202 L43.064,24.777 L43.728,24.134 L44.621,23.285 L45.52,22.363 L45.891,21.707 L45.891,21.707 C45.892,21.707 45.892,21.707 45.892,21.707 C45.892,21.706 45.891,21.707 45.891,21.707 L45.258,21.907 L44.162,22.726 L43.139,23.702 L42.457,24.512 L42.175,25.108 L42.142,25.419 C42.142,25.419 42.142,25.42 42.142,25.42 C42.142,25.42 42.143,25.42 42.143,25.419 L42.143,25.419" fill="#E79159"/>
    <path d="M42.363,24.978 L42.723,24.786 L43.275,24.258 L43.658,23.643 L43.962,23.023 L44.275,22.12 L44.468,20.974 L44.238,20.531 L44.238,20.531 C44.238,20.53 44.238,20.53 44.238,20.53 C44.237,20.531 44.237,20.531 44.237,20.531 C44.237,20.531 44.237,20.531 44.237,20.531 L43.687,21.266 L43.204,22.447 L42.904,23.244 L42.717,23.723 L42.522,24.175 L42.39,24.674 L42.363,24.978 C42.362,24.978 42.362,24.979 42.362,24.979 C42.363,24.979 42.363,24.979 42.363,24.978 L42.363,24.978" fill="#E79159"/>
    <path d="M43.025,23.214 L43.373,22.965 L43.863,22.416 L44.182,21.836 L44.42,21.253 L44.67,20.395 L44.765,19.304 L44.458,18.914 L44.458,18.914 C44.459,18.913 44.458,18.913 44.458,18.913 C44.458,18.913 44.457,18.914 44.457,18.914 L43.97,19.652 L43.576,20.79 L43.328,21.565 L43.162,22.046 L43.015,22.505 L42.971,22.968 L43.024,23.214 C43.024,23.214 43.024,23.215 43.024,23.215 C43.024,23.215 43.025,23.214 43.025,23.214 L43.025,23.214" fill="#E79159"/>
    <path d="M41.739,22.479 L42.398,21.894 L43.147,20.692 L43.737,19.503 L44.188,18.376 L44.164,17.848 L44.164,17.848 C44.165,17.848 44.164,17.847 44.164,17.847 C44.164,17.847 44.164,17.848 44.163,17.848 L43.492,18.459 L42.742,19.655 L42.178,20.808 L41.726,21.926 L41.738,22.479 C41.738,22.479 41.738,22.479 41.738,22.479 C41.737,22.479 41.737,22.48 41.738,22.48 C41.738,22.48 41.738,22.479 41.739,22.479 L41.739,22.479" fill="#E79159"/>
    <path d="M43.466,21.597 L44.424,20.691 L45.573,18.938 L45.781,18.032 L45.781,18.032 C45.782,18.031 45.782,18.031 45.781,18.031 C45.781,18.031 45.781,18.031 45.781,18.032 L44.776,18.872 L43.607,20.684 L43.465,21.597 C43.465,21.597 43.465,21.597 43.465,21.597 C43.465,21.597 43.465,21.597 43.465,21.597 C43.465,21.597 43.466,21.597 43.466,21.597 L43.466,21.597" fill="#E79159"/>
    <path d="M43.576,22.883 L44.119,22.152 L44.638,20.979 L45.048,19.858 L45.292,18.747 L45.083,18.289 L45.083,18.289 C45.083,18.288 45.083,18.288 45.083,18.288 C45.083,18.289 45.082,18.289 45.082,18.289 C45.082,18.289 45.082,18.289 45.082,18.289 L44.525,18.994 L43.978,20.184 L43.565,21.346 L43.339,22.462 L43.575,22.883 C43.575,22.883 43.575,22.883 43.575,22.883 C43.575,22.884 43.575,22.884 43.576,22.884 C43.576,22.884 43.576,22.883 43.576,22.883 L43.576,22.883" fill="#E79159"/>
    <path d="M44.201,21.597 L44.651,20.892 L44.983,19.894 L45.248,19.006 L45.384,18.183 L45.194,17.848 L45.194,17.848 C45.194,17.847 45.194,17.847 45.193,17.847 C45.193,17.847 45.193,17.848 45.192,17.848 C45.192,17.848 45.192,17.848 45.192,17.848 L44.665,18.407 L44.151,19.417 L43.868,20.41 L43.837,21.331 L44.2,21.597 C44.2,21.597 44.2,21.597 44.2,21.597 C44.2,21.597 44.2,21.598 44.201,21.597 C44.201,21.597 44.201,21.597 44.201,21.597 L44.201,21.597" fill="#E79159"/>
    <path d="M41.775,22.847 L42.142,22.699 L42.769,22.223 L43.289,21.614 L43.732,20.97 L44.115,20.314 L44.436,19.654 L44.767,18.686 L44.679,18.105 L44.679,18.105 C44.679,18.105 44.679,18.105 44.679,18.105 C44.678,18.105 44.678,18.105 44.678,18.105 C44.678,18.105 44.678,18.105 44.678,18.105 L44.044,18.823 L43.492,19.761 L43.168,20.336 L42.85,20.88 L42.526,21.396 L42.205,21.9 L41.905,22.484 L41.775,22.846 C41.775,22.846 41.775,22.846 41.775,22.846 C41.774,22.847 41.774,22.847 41.774,22.847 C41.774,22.847 41.775,22.847 41.775,22.847 L41.775,22.847" fill="#E79159"/>
    <path d="M41.886,23.14 L42.24,22.743 L42.721,22.139 L43.06,21.69 L43.389,21.292 L43.746,20.903 L44.137,20.495 L44.773,19.792 L45.12,19.135 L45.12,19.135 C45.12,19.134 45.12,19.134 45.12,19.134 C45.12,19.134 45.12,19.134 45.119,19.134 L44.48,19.361 L43.66,19.982 L43.126,20.483 L42.619,21.046 L42.166,21.661 L41.827,22.307 L41.754,22.897 L41.885,23.141 C41.884,23.141 41.885,23.141 41.885,23.141 C41.885,23.141 41.886,23.141 41.886,23.14 L41.886,23.14" fill="#E79159"/>
    <path d="M43.172,23.508 L43.755,22.88 L44.305,21.861 L44.758,20.948 L45.137,20.095 L45.12,19.649 L45.12,19.649 C45.12,19.649 45.12,19.648 45.12,19.648 C45.12,19.648 45.119,19.648 45.119,19.649 L44.483,20.101 L43.763,21.1 L43.269,22.113 L42.98,23.102 L43.171,23.508 C43.171,23.509 43.171,23.509 43.171,23.509 C43.172,23.509 43.172,23.508 43.172,23.508 L43.172,23.508" fill="#E79159"/>
    <path d="M43.062,23.324 L43.351,22.966 L43.717,22.397 L44.03,21.704 L44.413,20.806 L44.659,19.892 L44.458,19.502 L44.458,19.502 C44.459,19.501 44.458,19.501 44.458,19.501 C44.458,19.501 44.457,19.502 44.457,19.502 L43.919,20.072 L43.376,21.049 L42.956,22.038 L42.758,22.78 L42.867,23.188 L43.061,23.325 C43.061,23.325 43.061,23.325 43.061,23.325 C43.061,23.325 43.062,23.324 43.062,23.324 L43.062,23.324" fill="#E79159"/>
    <path d="M42.841,22.663 L43.437,22.182 L44.084,21.335 L44.64,20.568 L45.146,19.813 L45.267,19.318 L45.267,19.318 C45.267,19.318 45.267,19.318 45.267,19.318 C45.267,19.317 45.266,19.318 45.266,19.318 C45.266,19.318 45.266,19.318 45.266,19.318 L44.666,19.577 L43.838,20.403 L43.193,21.311 L42.752,22.229 L42.84,22.663 C42.84,22.663 42.84,22.663 42.84,22.663 C42.84,22.663 42.84,22.663 42.84,22.663 C42.841,22.663 42.841,22.663 42.841,22.663 L42.841,22.663" fill="#E79159"/>
    <path d="M44.091,22.663 L44.636,22.053 L45.167,21.055 L45.592,20.106 L45.885,19.177 L45.745,18.767 L45.745,18.767 C45.745,18.766 45.745,18.766 45.745,18.766 C45.744,18.766 45.744,18.767 45.744,18.767 L45.163,19.317 L44.564,20.328 L44.127,21.333 L43.883,22.294 L44.09,22.663 C44.09,22.663 44.09,22.663 44.09,22.663 C44.09,22.663 44.091,22.663 44.091,22.663 L44.091,22.663" fill="#E79159"/>
    <path d="M45.377,22.258 L45.964,21.102 L46.042,19.312 L45.524,18.73 L45.524,18.73 C45.524,18.729 45.524,18.729 45.524,18.73 C45.523,18.73 45.523,18.73 45.523,18.73 L44.995,19.915 L44.942,21.655 L45.376,22.259 C45.376,22.259 45.376,22.259 45.377,22.259 C45.377,22.259 45.377,22.258 45.377,22.258 L45.377,22.258" fill="#E79159"/>
    <path d="M44.532,22.295 L44.851,22.079 L45.277,21.718 L45.693,21.232 L46.228,20.575 L46.706,19.827 L46.737,19.355 L46.737,19.355 C46.737,19.355 46.737,19.354 46.737,19.354 C46.737,19.354 46.737,19.354 46.736,19.355 L46.212,19.61 L45.523,20.282 L44.895,21.054 L44.499,21.686 L44.436,22.107 L44.531,22.295 C44.531,22.295 44.531,22.295 44.531,22.295 C44.531,22.296 44.531,22.296 44.531,22.296 C44.531,22.296 44.532,22.295 44.532,22.295 L44.532,22.295" fill="#E79159"/>
    <path d="M44.796,22.623 L45.056,22.603 L45.501,22.269 L45.869,21.783 L46.124,21.276 L46.299,20.774 L46.393,20.292 L46.405,19.843 L46.176,19.527 L45.968,19.435 L45.968,19.435 C45.968,19.435 45.968,19.435 45.968,19.435 C45.967,19.435 45.967,19.436 45.967,19.436 C45.967,19.436 45.967,19.436 45.967,19.436 L45.75,19.759 L45.449,20.305 L45.317,20.737 L45.193,21.134 L45.076,21.488 L44.966,21.79 L44.893,22.043 L44.822,22.359 L44.796,22.623 C44.796,22.623 44.796,22.623 44.796,22.623 C44.795,22.623 44.795,22.623 44.796,22.623 C44.796,22.624 44.796,22.623 44.796,22.623 L44.796,22.623" fill="#E79159"/>
    <path d="M41.949,19.297 L42.287,18.974 L42.737,18.297 L43.072,17.312 L43.317,16.374 L43.461,15.814 L43.604,15.315 L43.63,14.891 L43.625,14.661 L43.625,14.661 C43.625,14.66 43.625,14.66 43.625,14.66 C43.625,14.66 43.624,14.66 43.624,14.661 L43.268,14.919 L42.714,15.553 L42.405,16.197 L42.185,16.838 L41.963,17.75 L41.808,18.59 L41.853,19.069 L41.948,19.297 C41.948,19.297 41.948,19.297 41.948,19.297 C41.948,19.297 41.948,19.297 41.949,19.297 C41.949,19.297 41.949,19.297 41.949,19.297 L41.949,19.297" fill="#E79159"/>
    <path d="M41.634,18.1 L41.962,17.915 L42.434,17.418 L42.816,16.618 L43.119,15.608 L43.26,14.94 L43.205,14.587 L43.096,14.421 L43.096,14.421 C43.096,14.421 43.096,14.421 43.096,14.421 C43.095,14.421 43.095,14.421 43.095,14.421 C43.095,14.421 43.095,14.421 43.095,14.421 L42.766,14.698 L42.338,15.259 L42.026,16.008 L41.756,16.904 L41.594,17.488 L41.59,17.866 L41.633,18.1 C41.633,18.1 41.633,18.101 41.633,18.101 C41.634,18.101 41.634,18.1 41.634,18.1 L41.634,18.1" fill="#E79159"/>
    <path d="M41.861,16.764 L42.297,16.149 L42.562,15.354 L42.739,14.666 L42.792,14.026 L42.516,13.804 L42.516,13.804 C42.516,13.803 42.516,13.803 42.516,13.803 C42.516,13.803 42.515,13.804 42.515,13.804 L42.013,14.31 L41.629,15.124 L41.44,15.904 L41.472,16.61 L41.86,16.765 C41.86,16.765 41.86,16.765 41.86,16.765 C41.86,16.765 41.86,16.765 41.861,16.765 C41.861,16.765 41.861,16.765 41.861,16.764 L41.861,16.764" fill="#E79159"/>
    <path d="M40.891,15.782 L41.164,15.671 L41.541,15.35 L41.825,14.819 L42.012,14.138 L41.973,13.557 L41.622,13.438 L41.622,13.438 C41.622,13.438 41.622,13.438 41.621,13.438 C41.621,13.438 41.621,13.439 41.621,13.439 C41.621,13.439 41.621,13.439 41.621,13.439 L41.173,13.931 L40.909,14.573 L40.774,15.088 L40.709,15.412 L40.789,15.633 L40.89,15.782 C40.89,15.782 40.89,15.782 40.89,15.782 C40.89,15.782 40.89,15.782 40.89,15.782 C40.89,15.783 40.891,15.782 40.891,15.782 L40.891,15.782" fill="#E79159"/>
    <path d="M40.324,16.223 L40.787,15.729 L41.054,15.078 L41.204,14.544 L41.246,14.118 L41.017,13.955 L41.017,13.955 C41.017,13.955 41.017,13.955 41.017,13.955 C41.017,13.955 41.016,13.955 41.016,13.955 L40.502,14.309 L40.102,14.973 L39.936,15.585 L39.966,16.118 L40.323,16.223 C40.323,16.223 40.323,16.224 40.324,16.223 C40.324,16.223 40.324,16.223 40.324,16.223 L40.324,16.223" fill="#E79159"/>
    <path d="M39.984,16.122 L40.399,15.541 L40.607,14.803 L40.714,14.176 L40.679,13.646 L40.4,13.489 L40.4,13.489 C40.4,13.488 40.4,13.488 40.399,13.488 C40.399,13.489 40.399,13.489 40.399,13.489 C40.399,13.489 40.399,13.489 40.399,13.489 L39.934,13.959 L39.587,14.721 L39.476,15.42 L39.576,16.028 L39.983,16.122 C39.983,16.123 39.983,16.123 39.983,16.123 C39.984,16.122 39.984,16.122 39.984,16.122 L39.984,16.122" fill="#E79159"/>
    <path d="M39.304,15.605 L39.903,14.394 L39.354,13.867 L39.354,13.867 C39.354,13.866 39.354,13.866 39.354,13.866 C39.353,13.867 39.353,13.867 39.353,13.867 C39.353,13.867 39.353,13.867 39.353,13.867 L38.739,15.077 L39.303,15.606 C39.303,15.606 39.303,15.606 39.303,15.606 C39.303,15.606 39.303,15.606 39.303,15.606 C39.303,15.606 39.304,15.605 39.304,15.605 L39.304,15.605" fill="#E79159"/>
    <path d="M39.228,15.693 L39.642,15.037 L39.853,14.139 L39.98,13.362 L40.026,12.69 L39.782,12.456 L39.782,12.456 C39.783,12.455 39.782,12.455 39.782,12.455 C39.782,12.455 39.781,12.456 39.781,12.456 L39.241,12.996 L38.851,13.914 L38.723,14.767 L38.824,15.521 L39.227,15.694 C39.227,15.694 39.227,15.694 39.227,15.694 C39.227,15.694 39.227,15.694 39.228,15.694 C39.228,15.694 39.228,15.694 39.228,15.693 L39.228,15.693" fill="#E79159"/>
    <path d="M38.334,15.026 L38.991,14.272 L39.276,13.094 L38.875,12.733 L38.875,12.733 C38.875,12.733 38.875,12.732 38.875,12.733 C38.875,12.733 38.874,12.733 38.874,12.733 C38.874,12.733 38.874,12.733 38.874,12.733 L38.252,13.53 L38.002,14.646 L38.332,15.026 C38.332,15.026 38.332,15.026 38.332,15.026 C38.332,15.026 38.333,15.027 38.333,15.027 C38.333,15.026 38.334,15.026 38.334,15.026 L38.334,15.026" fill="#E79159"/>
    <path d="M37.59,14.724 L38.044,14.509 L38.421,13.982 L38.656,13.229 L38.308,12.922 L38.308,12.922 C38.309,12.922 38.308,12.921 38.308,12.921 C38.308,12.922 38.307,12.922 38.307,12.922 L37.668,13.541 L37.419,14.166 L37.384,14.518 L37.589,14.724 C37.589,14.724 37.589,14.724 37.589,14.724 C37.59,14.724 37.59,14.724 37.59,14.724 L37.59,14.724" fill="#E79159"/>
    <path d="M37.553,14.509 L37.99,14.038 L38.254,13.48 L38.447,12.786 L38.132,12.456 L38.132,12.456 C38.132,12.455 38.132,12.455 38.132,12.455 C38.131,12.455 38.131,12.456 38.131,12.456 C38.131,12.456 38.131,12.456 38.131,12.456 L37.449,13.128 L37.147,13.965 L37.181,14.452 L37.551,14.51 C37.551,14.51 37.551,14.51 37.551,14.51 C37.551,14.51 37.552,14.51 37.552,14.51 C37.552,14.51 37.553,14.509 37.553,14.509 L37.553,14.509" fill="#E79159"/>
    <path d="M37.023,13.829 L37.43,13.402 L37.629,13.005 L37.706,12.713 L37.617,12.472 L37.301,12.443 L37.301,12.443 C37.301,12.443 37.3,12.443 37.3,12.443 C37.3,12.443 37.3,12.443 37.299,12.444 C37.299,12.444 37.299,12.444 37.299,12.444 L36.889,12.739 L36.597,13.173 L36.502,13.583 L36.611,13.899 L37.022,13.829 C37.022,13.829 37.022,13.829 37.022,13.829 C37.022,13.83 37.022,13.83 37.023,13.83 C37.023,13.829 37.023,13.829 37.023,13.829 L37.023,13.829" fill="#E79159"/>
    <path d="M36.96,13.375 L37.499,13.072 L37.621,12.867 L37.25,12.771 L37.25,12.771 C37.25,12.77 37.25,12.77 37.25,12.77 C37.25,12.77 37.249,12.771 37.249,12.771 C37.249,12.771 37.249,12.771 37.249,12.771 L36.724,12.972 L36.536,13.363 L36.959,13.376 C36.959,13.376 36.959,13.376 36.959,13.376 C36.959,13.376 36.959,13.376 36.96,13.376 C36.96,13.376 36.96,13.376 36.96,13.375 L36.96,13.375" fill="#E79159"/>
    <path d="M37.124,14.786 L37.563,14.322 L37.832,13.839 L37.994,13.482 L38.026,13.139 L37.817,12.972 L37.817,12.972 C37.817,12.972 37.817,12.972 37.817,12.972 C37.817,12.972 37.816,12.972 37.816,12.972 L37.385,13.204 L36.964,13.714 L36.729,14.274 L36.738,14.756 L37.123,14.787 C37.123,14.787 37.123,14.787 37.124,14.787 C37.124,14.787 37.124,14.787 37.124,14.786 L37.124,14.786" fill="#E79159"/>
    <path d="M36.633,14.849 L37.078,14.374 L37.36,13.758 L37.553,12.957 L37.212,12.594 L37.212,12.594 C37.212,12.594 37.212,12.594 37.212,12.594 C37.212,12.594 37.211,12.594 37.211,12.595 L36.542,13.344 L36.255,14.237 L36.281,14.757 L36.632,14.85 C36.632,14.85 36.632,14.85 36.632,14.85 C36.632,14.85 36.632,14.85 36.632,14.85 C36.633,14.85 36.633,14.85 36.633,14.849 L36.633,14.849" fill="#E79159"/>
    <path d="M36.532,14.106 L37.131,13.857 L37.622,13.28 L37.577,12.821 L37.577,12.821 C37.578,12.821 37.578,12.821 37.578,12.821 C37.577,12.821 37.577,12.821 37.577,12.821 L36.992,12.989 L36.423,13.686 L36.531,14.106 C36.531,14.106 36.531,14.106 36.531,14.106 C36.531,14.107 36.531,14.107 36.531,14.107 C36.531,14.107 36.532,14.107 36.532,14.106 L36.532,14.106" fill="#E79159"/>
    <path d="M38.648,16.5 L39.107,16.35 L39.632,15.765 L40.002,15.13 L40.183,14.547 L39.997,14.295 L39.997,14.295 C39.997,14.295 39.997,14.295 39.996,14.295 C39.996,14.295 39.996,14.295 39.996,14.295 L39.498,14.611 L39.067,15.17 L38.795,15.659 L38.597,16.145 L38.648,16.5 C38.648,16.5 38.648,16.5 38.648,16.5 C38.647,16.5 38.647,16.5 38.648,16.501 C38.648,16.501 38.648,16.5 38.648,16.5 L38.648,16.5" fill="#E79159"/>
    <path d="M40.689,14.434 L41.224,14.334 L40.904,14.119 L40.904,14.119 C40.904,14.119 40.904,14.118 40.904,14.118 C40.903,14.118 40.903,14.119 40.903,14.119 L40.368,14.218 L40.689,14.434 C40.689,14.434 40.689,14.434 40.689,14.434 C40.688,14.434 40.688,14.434 40.689,14.434 C40.689,14.434 40.689,14.434 40.689,14.434 L40.689,14.434" fill="#E79159"/>
    <path d="M44.23,18.982 L44.73,18.392 L45.069,17.521 L45.24,16.695 L45.179,15.917 L44.784,15.706 L44.784,15.706 C44.784,15.706 44.784,15.706 44.783,15.706 C44.783,15.706 44.783,15.706 44.783,15.707 L44.37,16.338 L44.12,17.201 L43.962,17.989 L43.916,18.743 L44.229,18.982 C44.229,18.982 44.229,18.982 44.229,18.982 C44.228,18.982 44.229,18.983 44.229,18.982 C44.229,18.982 44.23,18.982 44.23,18.982 L44.23,18.982" fill="#E79159"/>
    <path d="M43.096,18.717 L43.729,17.839 L44.048,16.563 L43.701,16.134 L43.701,16.134 C43.701,16.134 43.7,16.134 43.7,16.134 C43.7,16.134 43.699,16.135 43.699,16.135 L43.026,16.992 L42.722,18.297 L43.095,18.718 C43.095,18.718 43.095,18.718 43.095,18.718 C43.095,18.718 43.096,18.717 43.096,18.717 L43.096,18.717" fill="#E79159"/>
    <path d="M44.129,18.062 L44.564,17.445 L44.819,16.599 L44.994,15.481 L44.645,14.95 L44.645,14.95 C44.646,14.95 44.645,14.95 44.645,14.95 C44.645,14.95 44.644,14.95 44.644,14.951 L43.96,15.961 L43.696,17.173 L43.751,17.892 L44.128,18.063 C44.128,18.063 44.128,18.063 44.128,18.063 C44.129,18.063 44.129,18.062 44.129,18.062 L44.129,18.062" fill="#E79159"/>
    <path d="M43.827,17.167 L44.384,16.275 L44.513,15.054 L44.066,14.723 L44.066,14.723 C44.066,14.723 44.066,14.723 44.065,14.723 C44.065,14.723 44.065,14.724 44.065,14.724 L43.468,15.612 L43.362,16.836 L43.825,17.168 C43.825,17.168 43.825,17.168 43.825,17.168 C43.825,17.168 43.826,17.168 43.826,17.168 C43.826,17.168 43.827,17.168 43.827,17.167 L43.827,17.167" fill="#E79159"/>
    <path d="M43.348,17.457 L43.777,16.903 L44.007,16.18 L44.128,15.248 L43.738,14.849 L43.738,14.849 C43.738,14.849 43.738,14.849 43.738,14.849 C43.738,14.849 43.737,14.85 43.737,14.85 L43.091,15.745 L42.882,16.766 L42.963,17.354 L43.347,17.458 C43.347,17.458 43.347,17.458 43.347,17.458 C43.348,17.458 43.348,17.457 43.348,17.457 L43.348,17.457" fill="#E79159"/>
    <path d="M43.31,17.356 L43.932,16.525 L44.134,15.29 L43.701,14.937 L43.701,14.937 C43.701,14.937 43.7,14.937 43.7,14.937 C43.7,14.937 43.699,14.938 43.699,14.938 C43.699,14.938 43.699,14.938 43.699,14.938 L43.096,15.799 L42.923,16.986 L43.309,17.357 C43.309,17.357 43.309,17.357 43.309,17.357 C43.31,17.357 43.31,17.357 43.31,17.356 L43.31,17.356" fill="#E79159"/>
    <path d="M42.869,16.411 L43.327,15.576 L43.285,14.588 L42.743,14.421 L42.743,14.421 C42.743,14.421 42.743,14.421 42.742,14.421 C42.742,14.421 42.742,14.421 42.742,14.422 L42.238,15.251 L42.305,16.255 L42.868,16.412 C42.868,16.412 42.868,16.412 42.868,16.412 C42.868,16.412 42.868,16.412 42.869,16.412 C42.869,16.412 42.869,16.412 42.869,16.411 L42.869,16.411" fill="#E79159"/>
    <path d="M45.477,19.674 L46.119,18.2 L45.628,17.382 L45.628,17.382 C45.628,17.381 45.628,17.381 45.628,17.381 C45.627,17.382 45.627,17.382 45.627,17.382 C45.627,17.382 45.627,17.382 45.627,17.382 L44.957,18.855 L45.476,19.675 C45.476,19.675 45.476,19.675 45.476,19.675 C45.476,19.675 45.476,19.675 45.476,19.675 C45.477,19.675 45.477,19.675 45.477,19.674 L45.477,19.674" fill="#E79159"/>
    <path d="M45.54,18.44 L45.95,17.895 L46.165,17.243 L46.298,16.424 L45.918,16.071 L45.918,16.071 C45.918,16.071 45.918,16.071 45.917,16.071 C45.917,16.071 45.917,16.072 45.917,16.072 C45.917,16.072 45.917,16.072 45.917,16.072 L45.267,16.89 L45.039,17.84 L45.132,18.382 L45.539,18.441 C45.539,18.441 45.539,18.441 45.539,18.441 C45.54,18.44 45.54,18.44 45.54,18.44 L45.54,18.44" fill="#E79159"/>
    <path d="M46.031,19.171 L46.728,18.166 L46.271,17.709 L46.271,17.709 C46.271,17.709 46.27,17.709 46.27,17.709 C46.27,17.709 46.27,17.709 46.269,17.71 C46.269,17.71 46.269,17.71 46.269,17.71 L45.579,18.717 L46.03,19.171 C46.03,19.171 46.03,19.172 46.031,19.171 C46.031,19.171 46.031,19.171 46.031,19.171 L46.031,19.171" fill="#E79159"/>
    <path d="M46.334,20.002 L46.915,18.759 L46.334,18.213 L46.334,18.213 C46.334,18.213 46.333,18.213 46.333,18.213 C46.333,18.213 46.332,18.213 46.332,18.214 C46.332,18.214 46.332,18.214 46.332,18.214 L45.751,19.457 L46.332,20.003 C46.332,20.003 46.333,20.003 46.333,20.003 C46.333,20.003 46.334,20.002 46.334,20.002 L46.334,20.002" fill="#E79159"/>
    <path d="M35.15,13.84 L35.578,13.993 L36.155,13.717 L36.541,13.428 L36.86,12.985 L36.86,12.985 C36.86,12.985 36.86,12.985 36.86,12.985 C36.861,12.984 36.86,12.984 36.86,12.984 L36.723,12.687 L36.234,12.763 L35.553,13.172 L35.15,13.839 C35.15,13.839 35.15,13.839 35.15,13.839 C35.149,13.84 35.149,13.84 35.149,13.84 C35.149,13.841 35.149,13.841 35.15,13.84 L35.15,13.84" fill="#E79159"/>
    <path d="M33.234,14.08 L33.774,13.966 L34.677,13.32 L35.29,12.844 L35.665,12.564 L36.06,12.286 L36.523,11.885 L36.825,11.583 L36.825,11.583 C36.826,11.583 36.826,11.583 36.826,11.582 C36.826,11.582 36.826,11.582 36.826,11.582 C36.826,11.582 36.826,11.582 36.826,11.582 L36.613,11.456 L36.086,11.497 L35.539,11.763 L35.011,12.108 L34.322,12.671 L33.538,13.483 L33.234,14.079 C33.234,14.079 33.234,14.079 33.234,14.079 C33.234,14.079 33.233,14.08 33.234,14.08 C33.234,14.08 33.234,14.08 33.234,14.08 L33.234,14.08" fill="#E79159"/>
    <path d="M31.148,14.251 L31.815,14.114 L33.127,13.298 L34.076,12.668 L34.683,12.292 L35.316,11.938 L36.04,11.485 L36.483,11.173 L36.483,11.173 C36.484,11.172 36.484,11.172 36.484,11.172 C36.484,11.171 36.484,11.171 36.484,11.171 C36.484,11.171 36.484,11.171 36.484,11.171 L36.183,11.036 L35.462,11.086 L34.703,11.398 L33.961,11.81 L32.953,12.51 L31.732,13.53 L31.148,14.25 C31.148,14.25 31.148,14.25 31.148,14.25 C31.147,14.25 31.147,14.251 31.147,14.251 C31.147,14.251 31.147,14.251 31.148,14.251 L31.148,14.251" fill="#E79159"/>
    <path d="M32.653,13.704 L33.129,13.769 L34.136,13.279 L34.857,12.861 L35.31,12.599 L35.78,12.338 L36.335,11.949 L36.689,11.651 L36.689,11.651 C36.689,11.651 36.689,11.651 36.689,11.651 C36.689,11.65 36.689,11.65 36.689,11.65 L36.485,11.492 L35.966,11.465 L35.407,11.661 L34.862,11.927 L34.121,12.382 L33.178,13.084 L32.653,13.703 C32.652,13.703 32.652,13.703 32.652,13.703 C32.652,13.704 32.652,13.704 32.653,13.704 L32.653,13.704" fill="#E79159"/>
    <path d="M33.987,14.148 L34.576,14.075 L35.384,13.683 L35.897,13.44 L36.428,13.196 L36.981,12.971 L37.575,12.76 L38.292,12.428 L38.741,12.164 L38.741,12.164 C38.741,12.164 38.741,12.164 38.742,12.164 C38.742,12.164 38.742,12.163 38.741,12.163 L38.527,11.948 L37.951,11.817 L37.294,11.936 L36.635,12.152 L35.988,12.446 L35.353,12.821 L34.487,13.472 L33.987,14.147 C33.986,14.148 33.986,14.148 33.986,14.148 C33.986,14.148 33.986,14.148 33.987,14.148 L33.987,14.148" fill="#E79159"/>
    <path d="M34.294,12.712 L34.623,12.891 L35.395,12.654 L36.167,12.327 L36.756,12.055 L37.233,11.723 L37.544,11.446 L37.544,11.446 C37.544,11.446 37.544,11.446 37.544,11.445 C37.545,11.445 37.544,11.445 37.544,11.445 C37.544,11.445 37.544,11.445 37.544,11.445 L37.423,11.254 L37.052,11.139 L36.405,11.292 L35.575,11.653 L34.762,12.163 L34.295,12.711 C34.295,12.711 34.295,12.711 34.295,12.711 C34.294,12.711 34.294,12.711 34.294,12.711 C34.294,12.712 34.294,12.712 34.294,12.712 L34.294,12.712" fill="#E79159"/>
    <path d="M33.234,12.541 L33.814,12.52 L34.677,12.162 L35.237,11.899 L35.807,11.654 L36.394,11.431 L37.016,11.227 L37.762,10.91 L38.228,10.659 L38.228,10.659 C38.228,10.659 38.228,10.659 38.229,10.659 C38.229,10.659 38.229,10.658 38.228,10.658 C38.228,10.658 38.228,10.658 38.228,10.658 L38.009,10.429 L37.416,10.279 L36.735,10.386 L36.053,10.594 L35.383,10.879 L34.729,11.222 L33.816,11.865 L33.234,12.54 C33.234,12.54 33.234,12.54 33.234,12.54 C33.234,12.541 33.234,12.541 33.234,12.541 L33.234,12.541" fill="#E79159"/>
    <path d="M33.644,14.114 L34.129,14.212 L35.25,13.796 L36.089,13.428 L36.634,13.195 L37.198,12.971 L37.865,12.608 L38.262,12.37 L38.262,12.37 C38.262,12.37 38.263,12.369 38.263,12.369 C38.263,12.369 38.263,12.368 38.263,12.369 C38.263,12.369 38.263,12.369 38.263,12.369 L38.062,12.184 L37.54,12.045 L36.923,12.171 L36.297,12.387 L35.402,12.808 L34.262,13.502 L33.645,14.113 C33.645,14.113 33.645,14.113 33.645,14.113 C33.644,14.113 33.644,14.114 33.644,14.114 C33.644,14.114 33.644,14.114 33.644,14.114 L33.644,14.114" fill="#E79159"/>
    <path d="M34.602,13.498 L34.98,13.789 L36.061,13.694 L36.901,13.542 L37.462,13.428 L38.03,13.327 L38.716,13.069 L39.117,12.883 L39.117,12.883 C39.117,12.883 39.118,12.883 39.118,12.882 C39.118,12.882 39.118,12.882 39.118,12.882 C39.118,12.882 39.118,12.882 39.118,12.882 L38.976,12.642 L38.559,12.366 L38.003,12.349 L37.427,12.396 L36.549,12.58 L35.348,12.986 L34.603,13.497 C34.602,13.497 34.602,13.498 34.602,13.498 C34.602,13.498 34.602,13.499 34.602,13.498 L34.602,13.498" fill="#E79159"/>
    <path d="M34.637,12.78 L34.893,12.802 L35.325,12.7 L35.714,12.545 L36.107,12.378 L36.519,12.211 L36.96,12.045 L37.438,11.87 L38.027,11.547 L38.399,11.275 L38.399,11.275 C38.399,11.275 38.399,11.275 38.4,11.274 C38.4,11.274 38.4,11.274 38.399,11.274 L38.254,11.068 L37.83,10.924 L37.323,10.992 L36.803,11.135 L36.279,11.343 L35.758,11.616 L35.254,11.97 L34.811,12.444 L34.636,12.779 C34.636,12.779 34.636,12.779 34.636,12.779 C34.636,12.779 34.636,12.78 34.636,12.78 C34.636,12.78 34.636,12.78 34.637,12.78 L34.637,12.78" fill="#E79159"/>
    <path d="M34.636,13.635 L35.172,13.691 L36.306,13.286 L37.161,12.955 L37.744,12.73 L38.361,12.495 L39.07,12.116 L39.493,11.822 L39.493,11.822 C39.494,11.822 39.494,11.822 39.494,11.822 C39.494,11.821 39.494,11.821 39.494,11.821 C39.494,11.821 39.494,11.821 39.494,11.821 L39.272,11.645 L38.711,11.56 L38.08,11.687 L37.438,11.884 L36.488,12.284 L35.264,12.986 L34.637,13.634 C34.637,13.634 34.637,13.634 34.637,13.634 C34.636,13.634 34.636,13.635 34.636,13.635 C34.636,13.635 34.636,13.635 34.636,13.635 L34.636,13.635" fill="#E79159"/>
    <path d="M35.697,13.43 L36.482,13.457 L37.339,12.541 L37.339,12.541 C37.339,12.54 37.339,12.54 37.339,12.54 C37.339,12.54 37.339,12.539 37.339,12.54 L36.543,12.491 L35.697,13.429 C35.697,13.429 35.696,13.43 35.696,13.43 C35.696,13.43 35.697,13.43 35.697,13.43 L35.697,13.43" fill="#E79159"/>
    <path d="M38.604,15.961 L39.152,15.827 L40.043,15.196 L40.661,14.724 L41.054,14.424 L41.466,14.115 L41.921,13.68 L42.196,13.362 L42.196,13.362 C42.196,13.361 42.196,13.361 42.196,13.361 C42.196,13.36 42.196,13.36 42.196,13.361 L41.963,13.272 L41.438,13.357 L40.908,13.636 L40.393,13.978 L39.696,14.544 L38.892,15.367 L38.604,15.96 C38.604,15.96 38.604,15.96 38.604,15.96 C38.604,15.961 38.604,15.961 38.604,15.961 C38.604,15.961 38.604,15.961 38.604,15.961 L38.604,15.961" fill="#E79159"/>
    <path d="M44.214,20.954 L44.48,20.592 L44.782,20.045 L44.994,19.425 L45.258,18.671 L45.432,17.951 L45.241,17.637 L45.241,17.637 C45.241,17.636 45.241,17.636 45.24,17.636 C45.24,17.636 45.24,17.636 45.24,17.637 C45.24,17.637 45.24,17.637 45.24,17.637 L44.694,18.124 L44.183,19.013 L43.875,19.9 L43.788,20.55 L43.976,20.873 L44.213,20.955 C44.213,20.955 44.214,20.955 44.214,20.955 C44.214,20.955 44.214,20.954 44.214,20.954 L44.214,20.954" fill="#E79159"/>
    <path d="M42.572,23.452 L42.801,23.374 L43.195,23.087 L43.549,22.708 L43.847,22.297 L44.18,21.683 L44.532,20.868 L44.814,20.082 L45.068,19.354 L45.324,18.703 L45.464,18.28 L45.533,17.984 L45.582,17.808 L45.582,17.808 C45.583,17.808 45.583,17.807 45.583,17.807 C45.582,17.807 45.582,17.807 45.582,17.807 L45.364,17.932 L44.949,18.268 L44.468,18.855 L44.045,19.64 L43.72,20.413 L43.448,21.15 L43.195,21.837 L42.996,22.31 L42.884,22.595 L42.772,22.883 L42.636,23.228 L42.572,23.451 C42.572,23.451 42.572,23.451 42.572,23.451 C42.571,23.452 42.571,23.452 42.572,23.452 C42.572,23.452 42.572,23.452 42.572,23.452 L42.572,23.452" fill="#E79159"/>
    <path d="M43.975,23.452 L44.219,23.355 L44.614,23.027 L44.94,22.612 L45.188,22.184 L45.442,21.574 L45.674,20.803 L45.859,20.103 L46,19.657 L46.099,19.416 L46.208,19.206 L46.324,19.032 L46.437,18.833 L46.646,18.533 L46.813,18.321 L46.813,18.321 C46.814,18.321 46.814,18.321 46.814,18.32 C46.814,18.32 46.814,18.32 46.813,18.32 C46.813,18.32 46.813,18.32 46.813,18.32 L46.604,18.323 L46.155,18.493 L45.724,18.813 L45.394,19.202 L45.14,19.594 L44.943,19.989 L44.73,20.545 L44.534,21.246 L44.371,21.907 L44.245,22.364 L44.171,22.634 L44.101,22.9 L44.01,23.23 L43.974,23.451 C43.974,23.451 43.974,23.451 43.974,23.451 C43.974,23.452 43.974,23.452 43.974,23.452 C43.974,23.452 43.975,23.452 43.975,23.452 L43.975,23.452" fill="#E79159"/>
  </g>
</svg>
