<?xml version="1.0" encoding="UTF-8"?>
<!DOCTYPE svg PUBLIC "-//W3C//DTD SVG 1.1//EN" "http://www.w3.org/Graphics/SVG/1.1/DTD/svg11.dtd">
<svg version="1.1" xmlns="http://www.w3.org/2000/svg" xmlns:xlink="http://www.w3.org/1999/xlink" x="0" y="0" width="56" height="56" viewBox="0, 0, 56, 56">
  <g id="Layer_1">
    <path d="M28.5,48 C17.73,48 9,39.27 9,28.5 C9,17.73 17.73,9 28.5,9 C32.927,8.972 36.56,10.437 40.167,12.874" fill-opacity="0" stroke="#E79159" stroke-width="3"/>
    <path d="M45.177,18.389 C47.061,21.462 47.91,24.922 48,28.5 C48,39.27 39.27,48 28.5,48" fill-opacity="0" stroke="#E79159" stroke-width="3"/>
    <path d="M28.5,38.5 C22.977,38.5 18.5,34.023 18.5,28.5 C18.5,22.977 22.977,18.5 28.5,18.5 C30.362,18.46 32.075,19.073 33.685,19.948" fill-opacity="0" stroke="#E79159" stroke-width="3"/>
    <path d="M37.893,25.062 C38.312,26.165 38.47,27.327 38.5,28.5 C38.5,34.023 34.023,38.5 28.5,38.5" fill-opacity="0" stroke="#E79159" stroke-width="3"/>
    <path d="M29.3,27.231 C30.001,27.673 30.211,28.599 29.769,29.3 C29.327,30.001 28.401,30.211 27.7,29.769 C26.999,29.327 26.789,28.401 27.231,27.7 C27.673,26.999 28.599,26.789 29.3,27.231" fill-opacity="0" stroke="#E79159" stroke-width="3"/>
    <path d="M29.302,27.611 L50.5,9.312" fill-opacity="0" stroke="#E79159" stroke-width="3"/>
    <path d="M29.606,27.229 L48.635,7.344" fill-opacity="0" stroke="#E79159" stroke-width="3"/>
    <path d="M39.404,13.078 L39.404,13.078 L39.404,13.078 C39.578,13.078 39.826,12.901 39.957,12.682 C40.088,12.464 40.053,12.287 39.878,12.287 L39.878,12.287 C39.878,12.287 39.878,12.287 39.878,12.287 C39.703,12.287 39.456,12.464 39.325,12.682 C39.194,12.901 39.229,13.078 39.404,13.078 L39.404,13.078" fill="#E79159"/>
  </g>
</svg>
